%TF.GenerationSoftware,KiCad,Pcbnew,7.0.10-1.fc39*%
%TF.CreationDate,2024-03-03T09:54:11-06:00*%
%TF.ProjectId,mkr-sensor-shield-with-modem,6d6b722d-7365-46e7-936f-722d73686965,rev?*%
%TF.SameCoordinates,Original*%
%TF.FileFunction,Legend,Top*%
%TF.FilePolarity,Positive*%
%FSLAX46Y46*%
G04 Gerber Fmt 4.6, Leading zero omitted, Abs format (unit mm)*
G04 Created by KiCad (PCBNEW 7.0.10-1.fc39) date 2024-03-03 09:54:11*
%MOMM*%
%LPD*%
G01*
G04 APERTURE LIST*
%ADD10C,0.150000*%
%ADD11C,0.200000*%
%ADD12C,0.120000*%
G04 APERTURE END LIST*
D10*
X173272952Y-96770019D02*
X173463428Y-96770019D01*
X173463428Y-96770019D02*
X173558666Y-96817638D01*
X173558666Y-96817638D02*
X173653904Y-96912876D01*
X173653904Y-96912876D02*
X173701523Y-97103352D01*
X173701523Y-97103352D02*
X173701523Y-97436685D01*
X173701523Y-97436685D02*
X173653904Y-97627161D01*
X173653904Y-97627161D02*
X173558666Y-97722400D01*
X173558666Y-97722400D02*
X173463428Y-97770019D01*
X173463428Y-97770019D02*
X173272952Y-97770019D01*
X173272952Y-97770019D02*
X173177714Y-97722400D01*
X173177714Y-97722400D02*
X173082476Y-97627161D01*
X173082476Y-97627161D02*
X173034857Y-97436685D01*
X173034857Y-97436685D02*
X173034857Y-97103352D01*
X173034857Y-97103352D02*
X173082476Y-96912876D01*
X173082476Y-96912876D02*
X173177714Y-96817638D01*
X173177714Y-96817638D02*
X173272952Y-96770019D01*
X174130095Y-97770019D02*
X174130095Y-96770019D01*
X174130095Y-96770019D02*
X174701523Y-97770019D01*
X174701523Y-97770019D02*
X174701523Y-96770019D01*
X176705207Y-95134780D02*
X176657588Y-95182400D01*
X176657588Y-95182400D02*
X176514731Y-95230019D01*
X176514731Y-95230019D02*
X176419493Y-95230019D01*
X176419493Y-95230019D02*
X176276636Y-95182400D01*
X176276636Y-95182400D02*
X176181398Y-95087161D01*
X176181398Y-95087161D02*
X176133779Y-94991923D01*
X176133779Y-94991923D02*
X176086160Y-94801447D01*
X176086160Y-94801447D02*
X176086160Y-94658590D01*
X176086160Y-94658590D02*
X176133779Y-94468114D01*
X176133779Y-94468114D02*
X176181398Y-94372876D01*
X176181398Y-94372876D02*
X176276636Y-94277638D01*
X176276636Y-94277638D02*
X176419493Y-94230019D01*
X176419493Y-94230019D02*
X176514731Y-94230019D01*
X176514731Y-94230019D02*
X176657588Y-94277638D01*
X176657588Y-94277638D02*
X176705207Y-94325257D01*
X177324255Y-94230019D02*
X177514731Y-94230019D01*
X177514731Y-94230019D02*
X177609969Y-94277638D01*
X177609969Y-94277638D02*
X177705207Y-94372876D01*
X177705207Y-94372876D02*
X177752826Y-94563352D01*
X177752826Y-94563352D02*
X177752826Y-94896685D01*
X177752826Y-94896685D02*
X177705207Y-95087161D01*
X177705207Y-95087161D02*
X177609969Y-95182400D01*
X177609969Y-95182400D02*
X177514731Y-95230019D01*
X177514731Y-95230019D02*
X177324255Y-95230019D01*
X177324255Y-95230019D02*
X177229017Y-95182400D01*
X177229017Y-95182400D02*
X177133779Y-95087161D01*
X177133779Y-95087161D02*
X177086160Y-94896685D01*
X177086160Y-94896685D02*
X177086160Y-94563352D01*
X177086160Y-94563352D02*
X177133779Y-94372876D01*
X177133779Y-94372876D02*
X177229017Y-94277638D01*
X177229017Y-94277638D02*
X177324255Y-94230019D01*
X178181398Y-95230019D02*
X178181398Y-94230019D01*
X178181398Y-94230019D02*
X178752826Y-95230019D01*
X178752826Y-95230019D02*
X178752826Y-94230019D01*
X179562350Y-94706209D02*
X179229017Y-94706209D01*
X179229017Y-95230019D02*
X179229017Y-94230019D01*
X179229017Y-94230019D02*
X179705207Y-94230019D01*
X180086160Y-95230019D02*
X180086160Y-94230019D01*
X181086159Y-94277638D02*
X180990921Y-94230019D01*
X180990921Y-94230019D02*
X180848064Y-94230019D01*
X180848064Y-94230019D02*
X180705207Y-94277638D01*
X180705207Y-94277638D02*
X180609969Y-94372876D01*
X180609969Y-94372876D02*
X180562350Y-94468114D01*
X180562350Y-94468114D02*
X180514731Y-94658590D01*
X180514731Y-94658590D02*
X180514731Y-94801447D01*
X180514731Y-94801447D02*
X180562350Y-94991923D01*
X180562350Y-94991923D02*
X180609969Y-95087161D01*
X180609969Y-95087161D02*
X180705207Y-95182400D01*
X180705207Y-95182400D02*
X180848064Y-95230019D01*
X180848064Y-95230019D02*
X180943302Y-95230019D01*
X180943302Y-95230019D02*
X181086159Y-95182400D01*
X181086159Y-95182400D02*
X181133778Y-95134780D01*
X181133778Y-95134780D02*
X181133778Y-94801447D01*
X181133778Y-94801447D02*
X180943302Y-94801447D01*
D11*
X147156285Y-118272100D02*
X148299143Y-118272100D01*
X147727714Y-118843528D02*
X147727714Y-117700671D01*
X153584856Y-118272100D02*
X154727714Y-118272100D01*
D10*
X176133779Y-92690019D02*
X176133779Y-91690019D01*
X176133779Y-91690019D02*
X176371874Y-91690019D01*
X176371874Y-91690019D02*
X176514731Y-91737638D01*
X176514731Y-91737638D02*
X176609969Y-91832876D01*
X176609969Y-91832876D02*
X176657588Y-91928114D01*
X176657588Y-91928114D02*
X176705207Y-92118590D01*
X176705207Y-92118590D02*
X176705207Y-92261447D01*
X176705207Y-92261447D02*
X176657588Y-92451923D01*
X176657588Y-92451923D02*
X176609969Y-92547161D01*
X176609969Y-92547161D02*
X176514731Y-92642400D01*
X176514731Y-92642400D02*
X176371874Y-92690019D01*
X176371874Y-92690019D02*
X176133779Y-92690019D01*
X177133779Y-92166209D02*
X177467112Y-92166209D01*
X177609969Y-92690019D02*
X177133779Y-92690019D01*
X177133779Y-92690019D02*
X177133779Y-91690019D01*
X177133779Y-91690019D02*
X177609969Y-91690019D01*
X178371874Y-92166209D02*
X178514731Y-92213828D01*
X178514731Y-92213828D02*
X178562350Y-92261447D01*
X178562350Y-92261447D02*
X178609969Y-92356685D01*
X178609969Y-92356685D02*
X178609969Y-92499542D01*
X178609969Y-92499542D02*
X178562350Y-92594780D01*
X178562350Y-92594780D02*
X178514731Y-92642400D01*
X178514731Y-92642400D02*
X178419493Y-92690019D01*
X178419493Y-92690019D02*
X178038541Y-92690019D01*
X178038541Y-92690019D02*
X178038541Y-91690019D01*
X178038541Y-91690019D02*
X178371874Y-91690019D01*
X178371874Y-91690019D02*
X178467112Y-91737638D01*
X178467112Y-91737638D02*
X178514731Y-91785257D01*
X178514731Y-91785257D02*
X178562350Y-91880495D01*
X178562350Y-91880495D02*
X178562350Y-91975733D01*
X178562350Y-91975733D02*
X178514731Y-92070971D01*
X178514731Y-92070971D02*
X178467112Y-92118590D01*
X178467112Y-92118590D02*
X178371874Y-92166209D01*
X178371874Y-92166209D02*
X178038541Y-92166209D01*
X179038541Y-91690019D02*
X179038541Y-92499542D01*
X179038541Y-92499542D02*
X179086160Y-92594780D01*
X179086160Y-92594780D02*
X179133779Y-92642400D01*
X179133779Y-92642400D02*
X179229017Y-92690019D01*
X179229017Y-92690019D02*
X179419493Y-92690019D01*
X179419493Y-92690019D02*
X179514731Y-92642400D01*
X179514731Y-92642400D02*
X179562350Y-92594780D01*
X179562350Y-92594780D02*
X179609969Y-92499542D01*
X179609969Y-92499542D02*
X179609969Y-91690019D01*
X180609969Y-91737638D02*
X180514731Y-91690019D01*
X180514731Y-91690019D02*
X180371874Y-91690019D01*
X180371874Y-91690019D02*
X180229017Y-91737638D01*
X180229017Y-91737638D02*
X180133779Y-91832876D01*
X180133779Y-91832876D02*
X180086160Y-91928114D01*
X180086160Y-91928114D02*
X180038541Y-92118590D01*
X180038541Y-92118590D02*
X180038541Y-92261447D01*
X180038541Y-92261447D02*
X180086160Y-92451923D01*
X180086160Y-92451923D02*
X180133779Y-92547161D01*
X180133779Y-92547161D02*
X180229017Y-92642400D01*
X180229017Y-92642400D02*
X180371874Y-92690019D01*
X180371874Y-92690019D02*
X180467112Y-92690019D01*
X180467112Y-92690019D02*
X180609969Y-92642400D01*
X180609969Y-92642400D02*
X180657588Y-92594780D01*
X180657588Y-92594780D02*
X180657588Y-92261447D01*
X180657588Y-92261447D02*
X180467112Y-92261447D01*
X170196819Y-114132381D02*
X169720628Y-114465714D01*
X170196819Y-114703809D02*
X169196819Y-114703809D01*
X169196819Y-114703809D02*
X169196819Y-114322857D01*
X169196819Y-114322857D02*
X169244438Y-114227619D01*
X169244438Y-114227619D02*
X169292057Y-114180000D01*
X169292057Y-114180000D02*
X169387295Y-114132381D01*
X169387295Y-114132381D02*
X169530152Y-114132381D01*
X169530152Y-114132381D02*
X169625390Y-114180000D01*
X169625390Y-114180000D02*
X169673009Y-114227619D01*
X169673009Y-114227619D02*
X169720628Y-114322857D01*
X169720628Y-114322857D02*
X169720628Y-114703809D01*
X169673009Y-113703809D02*
X169673009Y-113370476D01*
X170196819Y-113227619D02*
X170196819Y-113703809D01*
X170196819Y-113703809D02*
X169196819Y-113703809D01*
X169196819Y-113703809D02*
X169196819Y-113227619D01*
X170149200Y-112846666D02*
X170196819Y-112703809D01*
X170196819Y-112703809D02*
X170196819Y-112465714D01*
X170196819Y-112465714D02*
X170149200Y-112370476D01*
X170149200Y-112370476D02*
X170101580Y-112322857D01*
X170101580Y-112322857D02*
X170006342Y-112275238D01*
X170006342Y-112275238D02*
X169911104Y-112275238D01*
X169911104Y-112275238D02*
X169815866Y-112322857D01*
X169815866Y-112322857D02*
X169768247Y-112370476D01*
X169768247Y-112370476D02*
X169720628Y-112465714D01*
X169720628Y-112465714D02*
X169673009Y-112656190D01*
X169673009Y-112656190D02*
X169625390Y-112751428D01*
X169625390Y-112751428D02*
X169577771Y-112799047D01*
X169577771Y-112799047D02*
X169482533Y-112846666D01*
X169482533Y-112846666D02*
X169387295Y-112846666D01*
X169387295Y-112846666D02*
X169292057Y-112799047D01*
X169292057Y-112799047D02*
X169244438Y-112751428D01*
X169244438Y-112751428D02*
X169196819Y-112656190D01*
X169196819Y-112656190D02*
X169196819Y-112418095D01*
X169196819Y-112418095D02*
X169244438Y-112275238D01*
X169673009Y-111846666D02*
X169673009Y-111513333D01*
X170196819Y-111370476D02*
X170196819Y-111846666D01*
X170196819Y-111846666D02*
X169196819Y-111846666D01*
X169196819Y-111846666D02*
X169196819Y-111370476D01*
X169196819Y-111084761D02*
X169196819Y-110513333D01*
X170196819Y-110799047D02*
X169196819Y-110799047D01*
D11*
X119216285Y-118272100D02*
X120359143Y-118272100D01*
X119787714Y-118843528D02*
X119787714Y-117700671D01*
X125644856Y-118272100D02*
X126787714Y-118272100D01*
D10*
X167859619Y-96770019D02*
X168050095Y-96770019D01*
X168050095Y-96770019D02*
X168145333Y-96817638D01*
X168145333Y-96817638D02*
X168240571Y-96912876D01*
X168240571Y-96912876D02*
X168288190Y-97103352D01*
X168288190Y-97103352D02*
X168288190Y-97436685D01*
X168288190Y-97436685D02*
X168240571Y-97627161D01*
X168240571Y-97627161D02*
X168145333Y-97722400D01*
X168145333Y-97722400D02*
X168050095Y-97770019D01*
X168050095Y-97770019D02*
X167859619Y-97770019D01*
X167859619Y-97770019D02*
X167764381Y-97722400D01*
X167764381Y-97722400D02*
X167669143Y-97627161D01*
X167669143Y-97627161D02*
X167621524Y-97436685D01*
X167621524Y-97436685D02*
X167621524Y-97103352D01*
X167621524Y-97103352D02*
X167669143Y-96912876D01*
X167669143Y-96912876D02*
X167764381Y-96817638D01*
X167764381Y-96817638D02*
X167859619Y-96770019D01*
X169050095Y-97246209D02*
X168716762Y-97246209D01*
X168716762Y-97770019D02*
X168716762Y-96770019D01*
X168716762Y-96770019D02*
X169192952Y-96770019D01*
X169907238Y-97246209D02*
X169573905Y-97246209D01*
X169573905Y-97770019D02*
X169573905Y-96770019D01*
X169573905Y-96770019D02*
X170050095Y-96770019D01*
X199372476Y-77980019D02*
X199372476Y-78694304D01*
X199372476Y-78694304D02*
X199324857Y-78837161D01*
X199324857Y-78837161D02*
X199229619Y-78932400D01*
X199229619Y-78932400D02*
X199086762Y-78980019D01*
X199086762Y-78980019D02*
X198991524Y-78980019D01*
X200372476Y-78980019D02*
X199801048Y-78980019D01*
X200086762Y-78980019D02*
X200086762Y-77980019D01*
X200086762Y-77980019D02*
X199991524Y-78122876D01*
X199991524Y-78122876D02*
X199896286Y-78218114D01*
X199896286Y-78218114D02*
X199801048Y-78265733D01*
X201229619Y-78313352D02*
X201229619Y-78980019D01*
X200991524Y-77932400D02*
X200753429Y-78646685D01*
X200753429Y-78646685D02*
X201372476Y-78646685D01*
X187148666Y-93220019D02*
X187148666Y-93934304D01*
X187148666Y-93934304D02*
X187101047Y-94077161D01*
X187101047Y-94077161D02*
X187005809Y-94172400D01*
X187005809Y-94172400D02*
X186862952Y-94220019D01*
X186862952Y-94220019D02*
X186767714Y-94220019D01*
X187529619Y-93220019D02*
X188196285Y-93220019D01*
X188196285Y-93220019D02*
X187767714Y-94220019D01*
X157050333Y-102019580D02*
X157002714Y-102067200D01*
X157002714Y-102067200D02*
X156859857Y-102114819D01*
X156859857Y-102114819D02*
X156764619Y-102114819D01*
X156764619Y-102114819D02*
X156621762Y-102067200D01*
X156621762Y-102067200D02*
X156526524Y-101971961D01*
X156526524Y-101971961D02*
X156478905Y-101876723D01*
X156478905Y-101876723D02*
X156431286Y-101686247D01*
X156431286Y-101686247D02*
X156431286Y-101543390D01*
X156431286Y-101543390D02*
X156478905Y-101352914D01*
X156478905Y-101352914D02*
X156526524Y-101257676D01*
X156526524Y-101257676D02*
X156621762Y-101162438D01*
X156621762Y-101162438D02*
X156764619Y-101114819D01*
X156764619Y-101114819D02*
X156859857Y-101114819D01*
X156859857Y-101114819D02*
X157002714Y-101162438D01*
X157002714Y-101162438D02*
X157050333Y-101210057D01*
X157431286Y-101210057D02*
X157478905Y-101162438D01*
X157478905Y-101162438D02*
X157574143Y-101114819D01*
X157574143Y-101114819D02*
X157812238Y-101114819D01*
X157812238Y-101114819D02*
X157907476Y-101162438D01*
X157907476Y-101162438D02*
X157955095Y-101210057D01*
X157955095Y-101210057D02*
X158002714Y-101305295D01*
X158002714Y-101305295D02*
X158002714Y-101400533D01*
X158002714Y-101400533D02*
X157955095Y-101543390D01*
X157955095Y-101543390D02*
X157383667Y-102114819D01*
X157383667Y-102114819D02*
X158002714Y-102114819D01*
X199372476Y-55120019D02*
X199372476Y-55834304D01*
X199372476Y-55834304D02*
X199324857Y-55977161D01*
X199324857Y-55977161D02*
X199229619Y-56072400D01*
X199229619Y-56072400D02*
X199086762Y-56120019D01*
X199086762Y-56120019D02*
X198991524Y-56120019D01*
X200372476Y-56120019D02*
X199801048Y-56120019D01*
X200086762Y-56120019D02*
X200086762Y-55120019D01*
X200086762Y-55120019D02*
X199991524Y-55262876D01*
X199991524Y-55262876D02*
X199896286Y-55358114D01*
X199896286Y-55358114D02*
X199801048Y-55405733D01*
X201324857Y-56120019D02*
X200753429Y-56120019D01*
X201039143Y-56120019D02*
X201039143Y-55120019D01*
X201039143Y-55120019D02*
X200943905Y-55262876D01*
X200943905Y-55262876D02*
X200848667Y-55358114D01*
X200848667Y-55358114D02*
X200753429Y-55405733D01*
X199372476Y-70360019D02*
X199372476Y-71074304D01*
X199372476Y-71074304D02*
X199324857Y-71217161D01*
X199324857Y-71217161D02*
X199229619Y-71312400D01*
X199229619Y-71312400D02*
X199086762Y-71360019D01*
X199086762Y-71360019D02*
X198991524Y-71360019D01*
X200372476Y-71360019D02*
X199801048Y-71360019D01*
X200086762Y-71360019D02*
X200086762Y-70360019D01*
X200086762Y-70360019D02*
X199991524Y-70502876D01*
X199991524Y-70502876D02*
X199896286Y-70598114D01*
X199896286Y-70598114D02*
X199801048Y-70645733D01*
X200705810Y-70360019D02*
X201324857Y-70360019D01*
X201324857Y-70360019D02*
X200991524Y-70740971D01*
X200991524Y-70740971D02*
X201134381Y-70740971D01*
X201134381Y-70740971D02*
X201229619Y-70788590D01*
X201229619Y-70788590D02*
X201277238Y-70836209D01*
X201277238Y-70836209D02*
X201324857Y-70931447D01*
X201324857Y-70931447D02*
X201324857Y-71169542D01*
X201324857Y-71169542D02*
X201277238Y-71264780D01*
X201277238Y-71264780D02*
X201229619Y-71312400D01*
X201229619Y-71312400D02*
X201134381Y-71360019D01*
X201134381Y-71360019D02*
X200848667Y-71360019D01*
X200848667Y-71360019D02*
X200753429Y-71312400D01*
X200753429Y-71312400D02*
X200705810Y-71264780D01*
X199372476Y-85600019D02*
X199372476Y-86314304D01*
X199372476Y-86314304D02*
X199324857Y-86457161D01*
X199324857Y-86457161D02*
X199229619Y-86552400D01*
X199229619Y-86552400D02*
X199086762Y-86600019D01*
X199086762Y-86600019D02*
X198991524Y-86600019D01*
X200372476Y-86600019D02*
X199801048Y-86600019D01*
X200086762Y-86600019D02*
X200086762Y-85600019D01*
X200086762Y-85600019D02*
X199991524Y-85742876D01*
X199991524Y-85742876D02*
X199896286Y-85838114D01*
X199896286Y-85838114D02*
X199801048Y-85885733D01*
X201277238Y-85600019D02*
X200801048Y-85600019D01*
X200801048Y-85600019D02*
X200753429Y-86076209D01*
X200753429Y-86076209D02*
X200801048Y-86028590D01*
X200801048Y-86028590D02*
X200896286Y-85980971D01*
X200896286Y-85980971D02*
X201134381Y-85980971D01*
X201134381Y-85980971D02*
X201229619Y-86028590D01*
X201229619Y-86028590D02*
X201277238Y-86076209D01*
X201277238Y-86076209D02*
X201324857Y-86171447D01*
X201324857Y-86171447D02*
X201324857Y-86409542D01*
X201324857Y-86409542D02*
X201277238Y-86504780D01*
X201277238Y-86504780D02*
X201229619Y-86552400D01*
X201229619Y-86552400D02*
X201134381Y-86600019D01*
X201134381Y-86600019D02*
X200896286Y-86600019D01*
X200896286Y-86600019D02*
X200801048Y-86552400D01*
X200801048Y-86552400D02*
X200753429Y-86504780D01*
X199372476Y-62740019D02*
X199372476Y-63454304D01*
X199372476Y-63454304D02*
X199324857Y-63597161D01*
X199324857Y-63597161D02*
X199229619Y-63692400D01*
X199229619Y-63692400D02*
X199086762Y-63740019D01*
X199086762Y-63740019D02*
X198991524Y-63740019D01*
X200372476Y-63740019D02*
X199801048Y-63740019D01*
X200086762Y-63740019D02*
X200086762Y-62740019D01*
X200086762Y-62740019D02*
X199991524Y-62882876D01*
X199991524Y-62882876D02*
X199896286Y-62978114D01*
X199896286Y-62978114D02*
X199801048Y-63025733D01*
X200753429Y-62835257D02*
X200801048Y-62787638D01*
X200801048Y-62787638D02*
X200896286Y-62740019D01*
X200896286Y-62740019D02*
X201134381Y-62740019D01*
X201134381Y-62740019D02*
X201229619Y-62787638D01*
X201229619Y-62787638D02*
X201277238Y-62835257D01*
X201277238Y-62835257D02*
X201324857Y-62930495D01*
X201324857Y-62930495D02*
X201324857Y-63025733D01*
X201324857Y-63025733D02*
X201277238Y-63168590D01*
X201277238Y-63168590D02*
X200705810Y-63740019D01*
X200705810Y-63740019D02*
X201324857Y-63740019D01*
X150132476Y-110114819D02*
X150132476Y-110829104D01*
X150132476Y-110829104D02*
X150084857Y-110971961D01*
X150084857Y-110971961D02*
X149989619Y-111067200D01*
X149989619Y-111067200D02*
X149846762Y-111114819D01*
X149846762Y-111114819D02*
X149751524Y-111114819D01*
X150561048Y-110210057D02*
X150608667Y-110162438D01*
X150608667Y-110162438D02*
X150703905Y-110114819D01*
X150703905Y-110114819D02*
X150942000Y-110114819D01*
X150942000Y-110114819D02*
X151037238Y-110162438D01*
X151037238Y-110162438D02*
X151084857Y-110210057D01*
X151084857Y-110210057D02*
X151132476Y-110305295D01*
X151132476Y-110305295D02*
X151132476Y-110400533D01*
X151132476Y-110400533D02*
X151084857Y-110543390D01*
X151084857Y-110543390D02*
X150513429Y-111114819D01*
X150513429Y-111114819D02*
X151132476Y-111114819D01*
X152084857Y-111114819D02*
X151513429Y-111114819D01*
X151799143Y-111114819D02*
X151799143Y-110114819D01*
X151799143Y-110114819D02*
X151703905Y-110257676D01*
X151703905Y-110257676D02*
X151608667Y-110352914D01*
X151608667Y-110352914D02*
X151513429Y-110400533D01*
X199372476Y-100840019D02*
X199372476Y-101554304D01*
X199372476Y-101554304D02*
X199324857Y-101697161D01*
X199324857Y-101697161D02*
X199229619Y-101792400D01*
X199229619Y-101792400D02*
X199086762Y-101840019D01*
X199086762Y-101840019D02*
X198991524Y-101840019D01*
X200372476Y-101840019D02*
X199801048Y-101840019D01*
X200086762Y-101840019D02*
X200086762Y-100840019D01*
X200086762Y-100840019D02*
X199991524Y-100982876D01*
X199991524Y-100982876D02*
X199896286Y-101078114D01*
X199896286Y-101078114D02*
X199801048Y-101125733D01*
X200705810Y-100840019D02*
X201372476Y-100840019D01*
X201372476Y-100840019D02*
X200943905Y-101840019D01*
X199372476Y-93220019D02*
X199372476Y-93934304D01*
X199372476Y-93934304D02*
X199324857Y-94077161D01*
X199324857Y-94077161D02*
X199229619Y-94172400D01*
X199229619Y-94172400D02*
X199086762Y-94220019D01*
X199086762Y-94220019D02*
X198991524Y-94220019D01*
X200372476Y-94220019D02*
X199801048Y-94220019D01*
X200086762Y-94220019D02*
X200086762Y-93220019D01*
X200086762Y-93220019D02*
X199991524Y-93362876D01*
X199991524Y-93362876D02*
X199896286Y-93458114D01*
X199896286Y-93458114D02*
X199801048Y-93505733D01*
X201229619Y-93220019D02*
X201039143Y-93220019D01*
X201039143Y-93220019D02*
X200943905Y-93267638D01*
X200943905Y-93267638D02*
X200896286Y-93315257D01*
X200896286Y-93315257D02*
X200801048Y-93458114D01*
X200801048Y-93458114D02*
X200753429Y-93648590D01*
X200753429Y-93648590D02*
X200753429Y-94029542D01*
X200753429Y-94029542D02*
X200801048Y-94124780D01*
X200801048Y-94124780D02*
X200848667Y-94172400D01*
X200848667Y-94172400D02*
X200943905Y-94220019D01*
X200943905Y-94220019D02*
X201134381Y-94220019D01*
X201134381Y-94220019D02*
X201229619Y-94172400D01*
X201229619Y-94172400D02*
X201277238Y-94124780D01*
X201277238Y-94124780D02*
X201324857Y-94029542D01*
X201324857Y-94029542D02*
X201324857Y-93791447D01*
X201324857Y-93791447D02*
X201277238Y-93696209D01*
X201277238Y-93696209D02*
X201229619Y-93648590D01*
X201229619Y-93648590D02*
X201134381Y-93600971D01*
X201134381Y-93600971D02*
X200943905Y-93600971D01*
X200943905Y-93600971D02*
X200848667Y-93648590D01*
X200848667Y-93648590D02*
X200801048Y-93696209D01*
X200801048Y-93696209D02*
X200753429Y-93791447D01*
X187148666Y-77980019D02*
X187148666Y-78694304D01*
X187148666Y-78694304D02*
X187101047Y-78837161D01*
X187101047Y-78837161D02*
X187005809Y-78932400D01*
X187005809Y-78932400D02*
X186862952Y-78980019D01*
X186862952Y-78980019D02*
X186767714Y-78980019D01*
X188101047Y-77980019D02*
X187624857Y-77980019D01*
X187624857Y-77980019D02*
X187577238Y-78456209D01*
X187577238Y-78456209D02*
X187624857Y-78408590D01*
X187624857Y-78408590D02*
X187720095Y-78360971D01*
X187720095Y-78360971D02*
X187958190Y-78360971D01*
X187958190Y-78360971D02*
X188053428Y-78408590D01*
X188053428Y-78408590D02*
X188101047Y-78456209D01*
X188101047Y-78456209D02*
X188148666Y-78551447D01*
X188148666Y-78551447D02*
X188148666Y-78789542D01*
X188148666Y-78789542D02*
X188101047Y-78884780D01*
X188101047Y-78884780D02*
X188053428Y-78932400D01*
X188053428Y-78932400D02*
X187958190Y-78980019D01*
X187958190Y-78980019D02*
X187720095Y-78980019D01*
X187720095Y-78980019D02*
X187624857Y-78932400D01*
X187624857Y-78932400D02*
X187577238Y-78884780D01*
X187148666Y-47624819D02*
X187148666Y-48339104D01*
X187148666Y-48339104D02*
X187101047Y-48481961D01*
X187101047Y-48481961D02*
X187005809Y-48577200D01*
X187005809Y-48577200D02*
X186862952Y-48624819D01*
X186862952Y-48624819D02*
X186767714Y-48624819D01*
X188148666Y-48624819D02*
X187577238Y-48624819D01*
X187862952Y-48624819D02*
X187862952Y-47624819D01*
X187862952Y-47624819D02*
X187767714Y-47767676D01*
X187767714Y-47767676D02*
X187672476Y-47862914D01*
X187672476Y-47862914D02*
X187577238Y-47910533D01*
X150180095Y-94964819D02*
X150180095Y-95774342D01*
X150180095Y-95774342D02*
X150227714Y-95869580D01*
X150227714Y-95869580D02*
X150275333Y-95917200D01*
X150275333Y-95917200D02*
X150370571Y-95964819D01*
X150370571Y-95964819D02*
X150561047Y-95964819D01*
X150561047Y-95964819D02*
X150656285Y-95917200D01*
X150656285Y-95917200D02*
X150703904Y-95869580D01*
X150703904Y-95869580D02*
X150751523Y-95774342D01*
X150751523Y-95774342D02*
X150751523Y-94964819D01*
X151751523Y-95964819D02*
X151180095Y-95964819D01*
X151465809Y-95964819D02*
X151465809Y-94964819D01*
X151465809Y-94964819D02*
X151370571Y-95107676D01*
X151370571Y-95107676D02*
X151275333Y-95202914D01*
X151275333Y-95202914D02*
X151180095Y-95250533D01*
X187148666Y-100840019D02*
X187148666Y-101554304D01*
X187148666Y-101554304D02*
X187101047Y-101697161D01*
X187101047Y-101697161D02*
X187005809Y-101792400D01*
X187005809Y-101792400D02*
X186862952Y-101840019D01*
X186862952Y-101840019D02*
X186767714Y-101840019D01*
X187767714Y-101268590D02*
X187672476Y-101220971D01*
X187672476Y-101220971D02*
X187624857Y-101173352D01*
X187624857Y-101173352D02*
X187577238Y-101078114D01*
X187577238Y-101078114D02*
X187577238Y-101030495D01*
X187577238Y-101030495D02*
X187624857Y-100935257D01*
X187624857Y-100935257D02*
X187672476Y-100887638D01*
X187672476Y-100887638D02*
X187767714Y-100840019D01*
X187767714Y-100840019D02*
X187958190Y-100840019D01*
X187958190Y-100840019D02*
X188053428Y-100887638D01*
X188053428Y-100887638D02*
X188101047Y-100935257D01*
X188101047Y-100935257D02*
X188148666Y-101030495D01*
X188148666Y-101030495D02*
X188148666Y-101078114D01*
X188148666Y-101078114D02*
X188101047Y-101173352D01*
X188101047Y-101173352D02*
X188053428Y-101220971D01*
X188053428Y-101220971D02*
X187958190Y-101268590D01*
X187958190Y-101268590D02*
X187767714Y-101268590D01*
X187767714Y-101268590D02*
X187672476Y-101316209D01*
X187672476Y-101316209D02*
X187624857Y-101363828D01*
X187624857Y-101363828D02*
X187577238Y-101459066D01*
X187577238Y-101459066D02*
X187577238Y-101649542D01*
X187577238Y-101649542D02*
X187624857Y-101744780D01*
X187624857Y-101744780D02*
X187672476Y-101792400D01*
X187672476Y-101792400D02*
X187767714Y-101840019D01*
X187767714Y-101840019D02*
X187958190Y-101840019D01*
X187958190Y-101840019D02*
X188053428Y-101792400D01*
X188053428Y-101792400D02*
X188101047Y-101744780D01*
X188101047Y-101744780D02*
X188148666Y-101649542D01*
X188148666Y-101649542D02*
X188148666Y-101459066D01*
X188148666Y-101459066D02*
X188101047Y-101363828D01*
X188101047Y-101363828D02*
X188053428Y-101316209D01*
X188053428Y-101316209D02*
X187958190Y-101268590D01*
X176716819Y-69541866D02*
X176240628Y-69875199D01*
X176716819Y-70113294D02*
X175716819Y-70113294D01*
X175716819Y-70113294D02*
X175716819Y-69732342D01*
X175716819Y-69732342D02*
X175764438Y-69637104D01*
X175764438Y-69637104D02*
X175812057Y-69589485D01*
X175812057Y-69589485D02*
X175907295Y-69541866D01*
X175907295Y-69541866D02*
X176050152Y-69541866D01*
X176050152Y-69541866D02*
X176145390Y-69589485D01*
X176145390Y-69589485D02*
X176193009Y-69637104D01*
X176193009Y-69637104D02*
X176240628Y-69732342D01*
X176240628Y-69732342D02*
X176240628Y-70113294D01*
X176716819Y-68589485D02*
X176716819Y-69160913D01*
X176716819Y-68875199D02*
X175716819Y-68875199D01*
X175716819Y-68875199D02*
X175859676Y-68970437D01*
X175859676Y-68970437D02*
X175954914Y-69065675D01*
X175954914Y-69065675D02*
X176002533Y-69160913D01*
X187148666Y-70360019D02*
X187148666Y-71074304D01*
X187148666Y-71074304D02*
X187101047Y-71217161D01*
X187101047Y-71217161D02*
X187005809Y-71312400D01*
X187005809Y-71312400D02*
X186862952Y-71360019D01*
X186862952Y-71360019D02*
X186767714Y-71360019D01*
X188053428Y-70693352D02*
X188053428Y-71360019D01*
X187815333Y-70312400D02*
X187577238Y-71026685D01*
X187577238Y-71026685D02*
X188196285Y-71026685D01*
X178844200Y-114013332D02*
X178891819Y-113870475D01*
X178891819Y-113870475D02*
X178891819Y-113632380D01*
X178891819Y-113632380D02*
X178844200Y-113537142D01*
X178844200Y-113537142D02*
X178796580Y-113489523D01*
X178796580Y-113489523D02*
X178701342Y-113441904D01*
X178701342Y-113441904D02*
X178606104Y-113441904D01*
X178606104Y-113441904D02*
X178510866Y-113489523D01*
X178510866Y-113489523D02*
X178463247Y-113537142D01*
X178463247Y-113537142D02*
X178415628Y-113632380D01*
X178415628Y-113632380D02*
X178368009Y-113822856D01*
X178368009Y-113822856D02*
X178320390Y-113918094D01*
X178320390Y-113918094D02*
X178272771Y-113965713D01*
X178272771Y-113965713D02*
X178177533Y-114013332D01*
X178177533Y-114013332D02*
X178082295Y-114013332D01*
X178082295Y-114013332D02*
X177987057Y-113965713D01*
X177987057Y-113965713D02*
X177939438Y-113918094D01*
X177939438Y-113918094D02*
X177891819Y-113822856D01*
X177891819Y-113822856D02*
X177891819Y-113584761D01*
X177891819Y-113584761D02*
X177939438Y-113441904D01*
X177891819Y-113108570D02*
X178891819Y-112870475D01*
X178891819Y-112870475D02*
X178177533Y-112679999D01*
X178177533Y-112679999D02*
X178891819Y-112489523D01*
X178891819Y-112489523D02*
X177891819Y-112251428D01*
X178891819Y-111346666D02*
X178891819Y-111918094D01*
X178891819Y-111632380D02*
X177891819Y-111632380D01*
X177891819Y-111632380D02*
X178034676Y-111727618D01*
X178034676Y-111727618D02*
X178129914Y-111822856D01*
X178129914Y-111822856D02*
X178177533Y-111918094D01*
X187148666Y-108460019D02*
X187148666Y-109174304D01*
X187148666Y-109174304D02*
X187101047Y-109317161D01*
X187101047Y-109317161D02*
X187005809Y-109412400D01*
X187005809Y-109412400D02*
X186862952Y-109460019D01*
X186862952Y-109460019D02*
X186767714Y-109460019D01*
X187672476Y-109460019D02*
X187862952Y-109460019D01*
X187862952Y-109460019D02*
X187958190Y-109412400D01*
X187958190Y-109412400D02*
X188005809Y-109364780D01*
X188005809Y-109364780D02*
X188101047Y-109221923D01*
X188101047Y-109221923D02*
X188148666Y-109031447D01*
X188148666Y-109031447D02*
X188148666Y-108650495D01*
X188148666Y-108650495D02*
X188101047Y-108555257D01*
X188101047Y-108555257D02*
X188053428Y-108507638D01*
X188053428Y-108507638D02*
X187958190Y-108460019D01*
X187958190Y-108460019D02*
X187767714Y-108460019D01*
X187767714Y-108460019D02*
X187672476Y-108507638D01*
X187672476Y-108507638D02*
X187624857Y-108555257D01*
X187624857Y-108555257D02*
X187577238Y-108650495D01*
X187577238Y-108650495D02*
X187577238Y-108888590D01*
X187577238Y-108888590D02*
X187624857Y-108983828D01*
X187624857Y-108983828D02*
X187672476Y-109031447D01*
X187672476Y-109031447D02*
X187767714Y-109079066D01*
X187767714Y-109079066D02*
X187958190Y-109079066D01*
X187958190Y-109079066D02*
X188053428Y-109031447D01*
X188053428Y-109031447D02*
X188101047Y-108983828D01*
X188101047Y-108983828D02*
X188148666Y-108888590D01*
X128996819Y-103396666D02*
X128520628Y-103729999D01*
X128996819Y-103968094D02*
X127996819Y-103968094D01*
X127996819Y-103968094D02*
X127996819Y-103587142D01*
X127996819Y-103587142D02*
X128044438Y-103491904D01*
X128044438Y-103491904D02*
X128092057Y-103444285D01*
X128092057Y-103444285D02*
X128187295Y-103396666D01*
X128187295Y-103396666D02*
X128330152Y-103396666D01*
X128330152Y-103396666D02*
X128425390Y-103444285D01*
X128425390Y-103444285D02*
X128473009Y-103491904D01*
X128473009Y-103491904D02*
X128520628Y-103587142D01*
X128520628Y-103587142D02*
X128520628Y-103968094D01*
X127996819Y-103063332D02*
X127996819Y-102444285D01*
X127996819Y-102444285D02*
X128377771Y-102777618D01*
X128377771Y-102777618D02*
X128377771Y-102634761D01*
X128377771Y-102634761D02*
X128425390Y-102539523D01*
X128425390Y-102539523D02*
X128473009Y-102491904D01*
X128473009Y-102491904D02*
X128568247Y-102444285D01*
X128568247Y-102444285D02*
X128806342Y-102444285D01*
X128806342Y-102444285D02*
X128901580Y-102491904D01*
X128901580Y-102491904D02*
X128949200Y-102539523D01*
X128949200Y-102539523D02*
X128996819Y-102634761D01*
X128996819Y-102634761D02*
X128996819Y-102920475D01*
X128996819Y-102920475D02*
X128949200Y-103015713D01*
X128949200Y-103015713D02*
X128901580Y-103063332D01*
X187148666Y-62740019D02*
X187148666Y-63454304D01*
X187148666Y-63454304D02*
X187101047Y-63597161D01*
X187101047Y-63597161D02*
X187005809Y-63692400D01*
X187005809Y-63692400D02*
X186862952Y-63740019D01*
X186862952Y-63740019D02*
X186767714Y-63740019D01*
X187529619Y-62740019D02*
X188148666Y-62740019D01*
X188148666Y-62740019D02*
X187815333Y-63120971D01*
X187815333Y-63120971D02*
X187958190Y-63120971D01*
X187958190Y-63120971D02*
X188053428Y-63168590D01*
X188053428Y-63168590D02*
X188101047Y-63216209D01*
X188101047Y-63216209D02*
X188148666Y-63311447D01*
X188148666Y-63311447D02*
X188148666Y-63549542D01*
X188148666Y-63549542D02*
X188101047Y-63644780D01*
X188101047Y-63644780D02*
X188053428Y-63692400D01*
X188053428Y-63692400D02*
X187958190Y-63740019D01*
X187958190Y-63740019D02*
X187672476Y-63740019D01*
X187672476Y-63740019D02*
X187577238Y-63692400D01*
X187577238Y-63692400D02*
X187529619Y-63644780D01*
X166732476Y-61420019D02*
X166732476Y-62134304D01*
X166732476Y-62134304D02*
X166684857Y-62277161D01*
X166684857Y-62277161D02*
X166589619Y-62372400D01*
X166589619Y-62372400D02*
X166446762Y-62420019D01*
X166446762Y-62420019D02*
X166351524Y-62420019D01*
X167732476Y-62420019D02*
X167161048Y-62420019D01*
X167446762Y-62420019D02*
X167446762Y-61420019D01*
X167446762Y-61420019D02*
X167351524Y-61562876D01*
X167351524Y-61562876D02*
X167256286Y-61658114D01*
X167256286Y-61658114D02*
X167161048Y-61705733D01*
X168208667Y-62420019D02*
X168399143Y-62420019D01*
X168399143Y-62420019D02*
X168494381Y-62372400D01*
X168494381Y-62372400D02*
X168542000Y-62324780D01*
X168542000Y-62324780D02*
X168637238Y-62181923D01*
X168637238Y-62181923D02*
X168684857Y-61991447D01*
X168684857Y-61991447D02*
X168684857Y-61610495D01*
X168684857Y-61610495D02*
X168637238Y-61515257D01*
X168637238Y-61515257D02*
X168589619Y-61467638D01*
X168589619Y-61467638D02*
X168494381Y-61420019D01*
X168494381Y-61420019D02*
X168303905Y-61420019D01*
X168303905Y-61420019D02*
X168208667Y-61467638D01*
X168208667Y-61467638D02*
X168161048Y-61515257D01*
X168161048Y-61515257D02*
X168113429Y-61610495D01*
X168113429Y-61610495D02*
X168113429Y-61848590D01*
X168113429Y-61848590D02*
X168161048Y-61943828D01*
X168161048Y-61943828D02*
X168208667Y-61991447D01*
X168208667Y-61991447D02*
X168303905Y-62039066D01*
X168303905Y-62039066D02*
X168494381Y-62039066D01*
X168494381Y-62039066D02*
X168589619Y-61991447D01*
X168589619Y-61991447D02*
X168637238Y-61943828D01*
X168637238Y-61943828D02*
X168684857Y-61848590D01*
X187148666Y-55120019D02*
X187148666Y-55834304D01*
X187148666Y-55834304D02*
X187101047Y-55977161D01*
X187101047Y-55977161D02*
X187005809Y-56072400D01*
X187005809Y-56072400D02*
X186862952Y-56120019D01*
X186862952Y-56120019D02*
X186767714Y-56120019D01*
X187577238Y-55215257D02*
X187624857Y-55167638D01*
X187624857Y-55167638D02*
X187720095Y-55120019D01*
X187720095Y-55120019D02*
X187958190Y-55120019D01*
X187958190Y-55120019D02*
X188053428Y-55167638D01*
X188053428Y-55167638D02*
X188101047Y-55215257D01*
X188101047Y-55215257D02*
X188148666Y-55310495D01*
X188148666Y-55310495D02*
X188148666Y-55405733D01*
X188148666Y-55405733D02*
X188101047Y-55548590D01*
X188101047Y-55548590D02*
X187529619Y-56120019D01*
X187529619Y-56120019D02*
X188148666Y-56120019D01*
X109661104Y-113914285D02*
X109661104Y-113438095D01*
X109946819Y-114009523D02*
X108946819Y-113676190D01*
X108946819Y-113676190D02*
X109946819Y-113342857D01*
X109042057Y-113057142D02*
X108994438Y-113009523D01*
X108994438Y-113009523D02*
X108946819Y-112914285D01*
X108946819Y-112914285D02*
X108946819Y-112676190D01*
X108946819Y-112676190D02*
X108994438Y-112580952D01*
X108994438Y-112580952D02*
X109042057Y-112533333D01*
X109042057Y-112533333D02*
X109137295Y-112485714D01*
X109137295Y-112485714D02*
X109232533Y-112485714D01*
X109232533Y-112485714D02*
X109375390Y-112533333D01*
X109375390Y-112533333D02*
X109946819Y-113104761D01*
X109946819Y-113104761D02*
X109946819Y-112485714D01*
X131801819Y-77733294D02*
X130801819Y-77733294D01*
X130801819Y-77733294D02*
X130801819Y-77495199D01*
X130801819Y-77495199D02*
X130849438Y-77352342D01*
X130849438Y-77352342D02*
X130944676Y-77257104D01*
X130944676Y-77257104D02*
X131039914Y-77209485D01*
X131039914Y-77209485D02*
X131230390Y-77161866D01*
X131230390Y-77161866D02*
X131373247Y-77161866D01*
X131373247Y-77161866D02*
X131563723Y-77209485D01*
X131563723Y-77209485D02*
X131658961Y-77257104D01*
X131658961Y-77257104D02*
X131754200Y-77352342D01*
X131754200Y-77352342D02*
X131801819Y-77495199D01*
X131801819Y-77495199D02*
X131801819Y-77733294D01*
X130801819Y-76542818D02*
X130801819Y-76447580D01*
X130801819Y-76447580D02*
X130849438Y-76352342D01*
X130849438Y-76352342D02*
X130897057Y-76304723D01*
X130897057Y-76304723D02*
X130992295Y-76257104D01*
X130992295Y-76257104D02*
X131182771Y-76209485D01*
X131182771Y-76209485D02*
X131420866Y-76209485D01*
X131420866Y-76209485D02*
X131611342Y-76257104D01*
X131611342Y-76257104D02*
X131706580Y-76304723D01*
X131706580Y-76304723D02*
X131754200Y-76352342D01*
X131754200Y-76352342D02*
X131801819Y-76447580D01*
X131801819Y-76447580D02*
X131801819Y-76542818D01*
X131801819Y-76542818D02*
X131754200Y-76638056D01*
X131754200Y-76638056D02*
X131706580Y-76685675D01*
X131706580Y-76685675D02*
X131611342Y-76733294D01*
X131611342Y-76733294D02*
X131420866Y-76780913D01*
X131420866Y-76780913D02*
X131182771Y-76780913D01*
X131182771Y-76780913D02*
X130992295Y-76733294D01*
X130992295Y-76733294D02*
X130897057Y-76685675D01*
X130897057Y-76685675D02*
X130849438Y-76638056D01*
X130849438Y-76638056D02*
X130801819Y-76542818D01*
X199372476Y-108460019D02*
X199372476Y-109174304D01*
X199372476Y-109174304D02*
X199324857Y-109317161D01*
X199324857Y-109317161D02*
X199229619Y-109412400D01*
X199229619Y-109412400D02*
X199086762Y-109460019D01*
X199086762Y-109460019D02*
X198991524Y-109460019D01*
X200372476Y-109460019D02*
X199801048Y-109460019D01*
X200086762Y-109460019D02*
X200086762Y-108460019D01*
X200086762Y-108460019D02*
X199991524Y-108602876D01*
X199991524Y-108602876D02*
X199896286Y-108698114D01*
X199896286Y-108698114D02*
X199801048Y-108745733D01*
X200943905Y-108888590D02*
X200848667Y-108840971D01*
X200848667Y-108840971D02*
X200801048Y-108793352D01*
X200801048Y-108793352D02*
X200753429Y-108698114D01*
X200753429Y-108698114D02*
X200753429Y-108650495D01*
X200753429Y-108650495D02*
X200801048Y-108555257D01*
X200801048Y-108555257D02*
X200848667Y-108507638D01*
X200848667Y-108507638D02*
X200943905Y-108460019D01*
X200943905Y-108460019D02*
X201134381Y-108460019D01*
X201134381Y-108460019D02*
X201229619Y-108507638D01*
X201229619Y-108507638D02*
X201277238Y-108555257D01*
X201277238Y-108555257D02*
X201324857Y-108650495D01*
X201324857Y-108650495D02*
X201324857Y-108698114D01*
X201324857Y-108698114D02*
X201277238Y-108793352D01*
X201277238Y-108793352D02*
X201229619Y-108840971D01*
X201229619Y-108840971D02*
X201134381Y-108888590D01*
X201134381Y-108888590D02*
X200943905Y-108888590D01*
X200943905Y-108888590D02*
X200848667Y-108936209D01*
X200848667Y-108936209D02*
X200801048Y-108983828D01*
X200801048Y-108983828D02*
X200753429Y-109079066D01*
X200753429Y-109079066D02*
X200753429Y-109269542D01*
X200753429Y-109269542D02*
X200801048Y-109364780D01*
X200801048Y-109364780D02*
X200848667Y-109412400D01*
X200848667Y-109412400D02*
X200943905Y-109460019D01*
X200943905Y-109460019D02*
X201134381Y-109460019D01*
X201134381Y-109460019D02*
X201229619Y-109412400D01*
X201229619Y-109412400D02*
X201277238Y-109364780D01*
X201277238Y-109364780D02*
X201324857Y-109269542D01*
X201324857Y-109269542D02*
X201324857Y-109079066D01*
X201324857Y-109079066D02*
X201277238Y-108983828D01*
X201277238Y-108983828D02*
X201229619Y-108936209D01*
X201229619Y-108936209D02*
X201134381Y-108888590D01*
X122826819Y-103396666D02*
X122350628Y-103729999D01*
X122826819Y-103968094D02*
X121826819Y-103968094D01*
X121826819Y-103968094D02*
X121826819Y-103587142D01*
X121826819Y-103587142D02*
X121874438Y-103491904D01*
X121874438Y-103491904D02*
X121922057Y-103444285D01*
X121922057Y-103444285D02*
X122017295Y-103396666D01*
X122017295Y-103396666D02*
X122160152Y-103396666D01*
X122160152Y-103396666D02*
X122255390Y-103444285D01*
X122255390Y-103444285D02*
X122303009Y-103491904D01*
X122303009Y-103491904D02*
X122350628Y-103587142D01*
X122350628Y-103587142D02*
X122350628Y-103968094D01*
X121922057Y-103015713D02*
X121874438Y-102968094D01*
X121874438Y-102968094D02*
X121826819Y-102872856D01*
X121826819Y-102872856D02*
X121826819Y-102634761D01*
X121826819Y-102634761D02*
X121874438Y-102539523D01*
X121874438Y-102539523D02*
X121922057Y-102491904D01*
X121922057Y-102491904D02*
X122017295Y-102444285D01*
X122017295Y-102444285D02*
X122112533Y-102444285D01*
X122112533Y-102444285D02*
X122255390Y-102491904D01*
X122255390Y-102491904D02*
X122826819Y-103063332D01*
X122826819Y-103063332D02*
X122826819Y-102444285D01*
X137601104Y-113914285D02*
X137601104Y-113438095D01*
X137886819Y-114009523D02*
X136886819Y-113676190D01*
X136886819Y-113676190D02*
X137886819Y-113342857D01*
X137886819Y-112485714D02*
X137886819Y-113057142D01*
X137886819Y-112771428D02*
X136886819Y-112771428D01*
X136886819Y-112771428D02*
X137029676Y-112866666D01*
X137029676Y-112866666D02*
X137124914Y-112961904D01*
X137124914Y-112961904D02*
X137172533Y-113057142D01*
X159741819Y-77733294D02*
X158741819Y-77733294D01*
X158741819Y-77733294D02*
X158741819Y-77495199D01*
X158741819Y-77495199D02*
X158789438Y-77352342D01*
X158789438Y-77352342D02*
X158884676Y-77257104D01*
X158884676Y-77257104D02*
X158979914Y-77209485D01*
X158979914Y-77209485D02*
X159170390Y-77161866D01*
X159170390Y-77161866D02*
X159313247Y-77161866D01*
X159313247Y-77161866D02*
X159503723Y-77209485D01*
X159503723Y-77209485D02*
X159598961Y-77257104D01*
X159598961Y-77257104D02*
X159694200Y-77352342D01*
X159694200Y-77352342D02*
X159741819Y-77495199D01*
X159741819Y-77495199D02*
X159741819Y-77733294D01*
X158741819Y-76542818D02*
X158741819Y-76447580D01*
X158741819Y-76447580D02*
X158789438Y-76352342D01*
X158789438Y-76352342D02*
X158837057Y-76304723D01*
X158837057Y-76304723D02*
X158932295Y-76257104D01*
X158932295Y-76257104D02*
X159122771Y-76209485D01*
X159122771Y-76209485D02*
X159360866Y-76209485D01*
X159360866Y-76209485D02*
X159551342Y-76257104D01*
X159551342Y-76257104D02*
X159646580Y-76304723D01*
X159646580Y-76304723D02*
X159694200Y-76352342D01*
X159694200Y-76352342D02*
X159741819Y-76447580D01*
X159741819Y-76447580D02*
X159741819Y-76542818D01*
X159741819Y-76542818D02*
X159694200Y-76638056D01*
X159694200Y-76638056D02*
X159646580Y-76685675D01*
X159646580Y-76685675D02*
X159551342Y-76733294D01*
X159551342Y-76733294D02*
X159360866Y-76780913D01*
X159360866Y-76780913D02*
X159122771Y-76780913D01*
X159122771Y-76780913D02*
X158932295Y-76733294D01*
X158932295Y-76733294D02*
X158837057Y-76685675D01*
X158837057Y-76685675D02*
X158789438Y-76638056D01*
X158789438Y-76638056D02*
X158741819Y-76542818D01*
X187148666Y-85600019D02*
X187148666Y-86314304D01*
X187148666Y-86314304D02*
X187101047Y-86457161D01*
X187101047Y-86457161D02*
X187005809Y-86552400D01*
X187005809Y-86552400D02*
X186862952Y-86600019D01*
X186862952Y-86600019D02*
X186767714Y-86600019D01*
X188053428Y-85600019D02*
X187862952Y-85600019D01*
X187862952Y-85600019D02*
X187767714Y-85647638D01*
X187767714Y-85647638D02*
X187720095Y-85695257D01*
X187720095Y-85695257D02*
X187624857Y-85838114D01*
X187624857Y-85838114D02*
X187577238Y-86028590D01*
X187577238Y-86028590D02*
X187577238Y-86409542D01*
X187577238Y-86409542D02*
X187624857Y-86504780D01*
X187624857Y-86504780D02*
X187672476Y-86552400D01*
X187672476Y-86552400D02*
X187767714Y-86600019D01*
X187767714Y-86600019D02*
X187958190Y-86600019D01*
X187958190Y-86600019D02*
X188053428Y-86552400D01*
X188053428Y-86552400D02*
X188101047Y-86504780D01*
X188101047Y-86504780D02*
X188148666Y-86409542D01*
X188148666Y-86409542D02*
X188148666Y-86171447D01*
X188148666Y-86171447D02*
X188101047Y-86076209D01*
X188101047Y-86076209D02*
X188053428Y-86028590D01*
X188053428Y-86028590D02*
X187958190Y-85980971D01*
X187958190Y-85980971D02*
X187767714Y-85980971D01*
X187767714Y-85980971D02*
X187672476Y-86028590D01*
X187672476Y-86028590D02*
X187624857Y-86076209D01*
X187624857Y-86076209D02*
X187577238Y-86171447D01*
X199372476Y-47500019D02*
X199372476Y-48214304D01*
X199372476Y-48214304D02*
X199324857Y-48357161D01*
X199324857Y-48357161D02*
X199229619Y-48452400D01*
X199229619Y-48452400D02*
X199086762Y-48500019D01*
X199086762Y-48500019D02*
X198991524Y-48500019D01*
X200372476Y-48500019D02*
X199801048Y-48500019D01*
X200086762Y-48500019D02*
X200086762Y-47500019D01*
X200086762Y-47500019D02*
X199991524Y-47642876D01*
X199991524Y-47642876D02*
X199896286Y-47738114D01*
X199896286Y-47738114D02*
X199801048Y-47785733D01*
X200991524Y-47500019D02*
X201086762Y-47500019D01*
X201086762Y-47500019D02*
X201182000Y-47547638D01*
X201182000Y-47547638D02*
X201229619Y-47595257D01*
X201229619Y-47595257D02*
X201277238Y-47690495D01*
X201277238Y-47690495D02*
X201324857Y-47880971D01*
X201324857Y-47880971D02*
X201324857Y-48119066D01*
X201324857Y-48119066D02*
X201277238Y-48309542D01*
X201277238Y-48309542D02*
X201229619Y-48404780D01*
X201229619Y-48404780D02*
X201182000Y-48452400D01*
X201182000Y-48452400D02*
X201086762Y-48500019D01*
X201086762Y-48500019D02*
X200991524Y-48500019D01*
X200991524Y-48500019D02*
X200896286Y-48452400D01*
X200896286Y-48452400D02*
X200848667Y-48404780D01*
X200848667Y-48404780D02*
X200801048Y-48309542D01*
X200801048Y-48309542D02*
X200753429Y-48119066D01*
X200753429Y-48119066D02*
X200753429Y-47880971D01*
X200753429Y-47880971D02*
X200801048Y-47690495D01*
X200801048Y-47690495D02*
X200848667Y-47595257D01*
X200848667Y-47595257D02*
X200896286Y-47547638D01*
X200896286Y-47547638D02*
X200991524Y-47500019D01*
X144500333Y-102019580D02*
X144452714Y-102067200D01*
X144452714Y-102067200D02*
X144309857Y-102114819D01*
X144309857Y-102114819D02*
X144214619Y-102114819D01*
X144214619Y-102114819D02*
X144071762Y-102067200D01*
X144071762Y-102067200D02*
X143976524Y-101971961D01*
X143976524Y-101971961D02*
X143928905Y-101876723D01*
X143928905Y-101876723D02*
X143881286Y-101686247D01*
X143881286Y-101686247D02*
X143881286Y-101543390D01*
X143881286Y-101543390D02*
X143928905Y-101352914D01*
X143928905Y-101352914D02*
X143976524Y-101257676D01*
X143976524Y-101257676D02*
X144071762Y-101162438D01*
X144071762Y-101162438D02*
X144214619Y-101114819D01*
X144214619Y-101114819D02*
X144309857Y-101114819D01*
X144309857Y-101114819D02*
X144452714Y-101162438D01*
X144452714Y-101162438D02*
X144500333Y-101210057D01*
X145452714Y-102114819D02*
X144881286Y-102114819D01*
X145167000Y-102114819D02*
X145167000Y-101114819D01*
X145167000Y-101114819D02*
X145071762Y-101257676D01*
X145071762Y-101257676D02*
X144976524Y-101352914D01*
X144976524Y-101352914D02*
X144881286Y-101400533D01*
X165936819Y-94314723D02*
X166651104Y-94314723D01*
X166651104Y-94314723D02*
X166793961Y-94362342D01*
X166793961Y-94362342D02*
X166889200Y-94457580D01*
X166889200Y-94457580D02*
X166936819Y-94600437D01*
X166936819Y-94600437D02*
X166936819Y-94695675D01*
X166032057Y-93886151D02*
X165984438Y-93838532D01*
X165984438Y-93838532D02*
X165936819Y-93743294D01*
X165936819Y-93743294D02*
X165936819Y-93505199D01*
X165936819Y-93505199D02*
X165984438Y-93409961D01*
X165984438Y-93409961D02*
X166032057Y-93362342D01*
X166032057Y-93362342D02*
X166127295Y-93314723D01*
X166127295Y-93314723D02*
X166222533Y-93314723D01*
X166222533Y-93314723D02*
X166365390Y-93362342D01*
X166365390Y-93362342D02*
X166936819Y-93933770D01*
X166936819Y-93933770D02*
X166936819Y-93314723D01*
X165936819Y-92695675D02*
X165936819Y-92600437D01*
X165936819Y-92600437D02*
X165984438Y-92505199D01*
X165984438Y-92505199D02*
X166032057Y-92457580D01*
X166032057Y-92457580D02*
X166127295Y-92409961D01*
X166127295Y-92409961D02*
X166317771Y-92362342D01*
X166317771Y-92362342D02*
X166555866Y-92362342D01*
X166555866Y-92362342D02*
X166746342Y-92409961D01*
X166746342Y-92409961D02*
X166841580Y-92457580D01*
X166841580Y-92457580D02*
X166889200Y-92505199D01*
X166889200Y-92505199D02*
X166936819Y-92600437D01*
X166936819Y-92600437D02*
X166936819Y-92695675D01*
X166936819Y-92695675D02*
X166889200Y-92790913D01*
X166889200Y-92790913D02*
X166841580Y-92838532D01*
X166841580Y-92838532D02*
X166746342Y-92886151D01*
X166746342Y-92886151D02*
X166555866Y-92933770D01*
X166555866Y-92933770D02*
X166317771Y-92933770D01*
X166317771Y-92933770D02*
X166127295Y-92886151D01*
X166127295Y-92886151D02*
X166032057Y-92838532D01*
X166032057Y-92838532D02*
X165984438Y-92790913D01*
X165984438Y-92790913D02*
X165936819Y-92695675D01*
X122192476Y-110114819D02*
X122192476Y-110829104D01*
X122192476Y-110829104D02*
X122144857Y-110971961D01*
X122144857Y-110971961D02*
X122049619Y-111067200D01*
X122049619Y-111067200D02*
X121906762Y-111114819D01*
X121906762Y-111114819D02*
X121811524Y-111114819D01*
X122621048Y-110210057D02*
X122668667Y-110162438D01*
X122668667Y-110162438D02*
X122763905Y-110114819D01*
X122763905Y-110114819D02*
X123002000Y-110114819D01*
X123002000Y-110114819D02*
X123097238Y-110162438D01*
X123097238Y-110162438D02*
X123144857Y-110210057D01*
X123144857Y-110210057D02*
X123192476Y-110305295D01*
X123192476Y-110305295D02*
X123192476Y-110400533D01*
X123192476Y-110400533D02*
X123144857Y-110543390D01*
X123144857Y-110543390D02*
X122573429Y-111114819D01*
X122573429Y-111114819D02*
X123192476Y-111114819D01*
X123525810Y-110114819D02*
X124144857Y-110114819D01*
X124144857Y-110114819D02*
X123811524Y-110495771D01*
X123811524Y-110495771D02*
X123954381Y-110495771D01*
X123954381Y-110495771D02*
X124049619Y-110543390D01*
X124049619Y-110543390D02*
X124097238Y-110591009D01*
X124097238Y-110591009D02*
X124144857Y-110686247D01*
X124144857Y-110686247D02*
X124144857Y-110924342D01*
X124144857Y-110924342D02*
X124097238Y-111019580D01*
X124097238Y-111019580D02*
X124049619Y-111067200D01*
X124049619Y-111067200D02*
X123954381Y-111114819D01*
X123954381Y-111114819D02*
X123668667Y-111114819D01*
X123668667Y-111114819D02*
X123573429Y-111067200D01*
X123573429Y-111067200D02*
X123525810Y-111019580D01*
D12*
%TO.C,J14*%
X194832000Y-79325200D02*
X194832000Y-80575200D01*
X195122000Y-79615200D02*
X195122000Y-85585200D01*
X195122000Y-85585200D02*
X205242000Y-85585200D01*
X195132000Y-79625200D02*
X195132000Y-80375200D01*
X195132000Y-80375200D02*
X196932000Y-80375200D01*
X195132000Y-81875200D02*
X195882000Y-81875200D01*
X195882000Y-81875200D02*
X195882000Y-84825200D01*
X195882000Y-84825200D02*
X200182000Y-84825200D01*
X196082000Y-79325200D02*
X194832000Y-79325200D01*
X196932000Y-79625200D02*
X195132000Y-79625200D01*
X196932000Y-80375200D02*
X196932000Y-79625200D01*
X198432000Y-79625200D02*
X198432000Y-80375200D01*
X198432000Y-80375200D02*
X201932000Y-80375200D01*
X201932000Y-79625200D02*
X198432000Y-79625200D01*
X201932000Y-80375200D02*
X201932000Y-79625200D01*
X203432000Y-79625200D02*
X203432000Y-80375200D01*
X203432000Y-80375200D02*
X205232000Y-80375200D01*
X204482000Y-81875200D02*
X204482000Y-84825200D01*
X204482000Y-84825200D02*
X200182000Y-84825200D01*
X205232000Y-79625200D02*
X203432000Y-79625200D01*
X205232000Y-80375200D02*
X205232000Y-79625200D01*
X205232000Y-81875200D02*
X204482000Y-81875200D01*
X205242000Y-79615200D02*
X195122000Y-79615200D01*
X205242000Y-85585200D02*
X205242000Y-79615200D01*
%TO.C,J7*%
X182132000Y-94565200D02*
X182132000Y-95815200D01*
X182422000Y-94855200D02*
X182422000Y-100825200D01*
X182422000Y-100825200D02*
X192542000Y-100825200D01*
X182432000Y-94865200D02*
X182432000Y-95615200D01*
X182432000Y-95615200D02*
X184232000Y-95615200D01*
X182432000Y-97115200D02*
X183182000Y-97115200D01*
X183182000Y-97115200D02*
X183182000Y-100065200D01*
X183182000Y-100065200D02*
X187482000Y-100065200D01*
X183382000Y-94565200D02*
X182132000Y-94565200D01*
X184232000Y-94865200D02*
X182432000Y-94865200D01*
X184232000Y-95615200D02*
X184232000Y-94865200D01*
X185732000Y-94865200D02*
X185732000Y-95615200D01*
X185732000Y-95615200D02*
X189232000Y-95615200D01*
X189232000Y-94865200D02*
X185732000Y-94865200D01*
X189232000Y-95615200D02*
X189232000Y-94865200D01*
X190732000Y-94865200D02*
X190732000Y-95615200D01*
X190732000Y-95615200D02*
X192532000Y-95615200D01*
X191782000Y-97115200D02*
X191782000Y-100065200D01*
X191782000Y-100065200D02*
X187482000Y-100065200D01*
X192532000Y-94865200D02*
X190732000Y-94865200D01*
X192532000Y-95615200D02*
X192532000Y-94865200D01*
X192532000Y-97115200D02*
X191782000Y-97115200D01*
X192542000Y-94855200D02*
X182422000Y-94855200D01*
X192542000Y-100825200D02*
X192542000Y-94855200D01*
%TO.C,C2*%
X156505748Y-102750000D02*
X157928252Y-102750000D01*
X156505748Y-104570000D02*
X157928252Y-104570000D01*
%TO.C,J11*%
X194832000Y-56465200D02*
X194832000Y-57715200D01*
X195122000Y-56755200D02*
X195122000Y-62725200D01*
X195122000Y-62725200D02*
X205242000Y-62725200D01*
X195132000Y-56765200D02*
X195132000Y-57515200D01*
X195132000Y-57515200D02*
X196932000Y-57515200D01*
X195132000Y-59015200D02*
X195882000Y-59015200D01*
X195882000Y-59015200D02*
X195882000Y-61965200D01*
X195882000Y-61965200D02*
X200182000Y-61965200D01*
X196082000Y-56465200D02*
X194832000Y-56465200D01*
X196932000Y-56765200D02*
X195132000Y-56765200D01*
X196932000Y-57515200D02*
X196932000Y-56765200D01*
X198432000Y-56765200D02*
X198432000Y-57515200D01*
X198432000Y-57515200D02*
X201932000Y-57515200D01*
X201932000Y-56765200D02*
X198432000Y-56765200D01*
X201932000Y-57515200D02*
X201932000Y-56765200D01*
X203432000Y-56765200D02*
X203432000Y-57515200D01*
X203432000Y-57515200D02*
X205232000Y-57515200D01*
X204482000Y-59015200D02*
X204482000Y-61965200D01*
X204482000Y-61965200D02*
X200182000Y-61965200D01*
X205232000Y-56765200D02*
X203432000Y-56765200D01*
X205232000Y-57515200D02*
X205232000Y-56765200D01*
X205232000Y-59015200D02*
X204482000Y-59015200D01*
X205242000Y-56755200D02*
X195122000Y-56755200D01*
X205242000Y-62725200D02*
X205242000Y-56755200D01*
%TO.C,J13*%
X194832000Y-71705200D02*
X194832000Y-72955200D01*
X195122000Y-71995200D02*
X195122000Y-77965200D01*
X195122000Y-77965200D02*
X205242000Y-77965200D01*
X195132000Y-72005200D02*
X195132000Y-72755200D01*
X195132000Y-72755200D02*
X196932000Y-72755200D01*
X195132000Y-74255200D02*
X195882000Y-74255200D01*
X195882000Y-74255200D02*
X195882000Y-77205200D01*
X195882000Y-77205200D02*
X200182000Y-77205200D01*
X196082000Y-71705200D02*
X194832000Y-71705200D01*
X196932000Y-72005200D02*
X195132000Y-72005200D01*
X196932000Y-72755200D02*
X196932000Y-72005200D01*
X198432000Y-72005200D02*
X198432000Y-72755200D01*
X198432000Y-72755200D02*
X201932000Y-72755200D01*
X201932000Y-72005200D02*
X198432000Y-72005200D01*
X201932000Y-72755200D02*
X201932000Y-72005200D01*
X203432000Y-72005200D02*
X203432000Y-72755200D01*
X203432000Y-72755200D02*
X205232000Y-72755200D01*
X204482000Y-74255200D02*
X204482000Y-77205200D01*
X204482000Y-77205200D02*
X200182000Y-77205200D01*
X205232000Y-72005200D02*
X203432000Y-72005200D01*
X205232000Y-72755200D02*
X205232000Y-72005200D01*
X205232000Y-74255200D02*
X204482000Y-74255200D01*
X205242000Y-71995200D02*
X195122000Y-71995200D01*
X205242000Y-77965200D02*
X205242000Y-71995200D01*
%TO.C,J15*%
X194832000Y-86945200D02*
X194832000Y-88195200D01*
X195122000Y-87235200D02*
X195122000Y-93205200D01*
X195122000Y-93205200D02*
X205242000Y-93205200D01*
X195132000Y-87245200D02*
X195132000Y-87995200D01*
X195132000Y-87995200D02*
X196932000Y-87995200D01*
X195132000Y-89495200D02*
X195882000Y-89495200D01*
X195882000Y-89495200D02*
X195882000Y-92445200D01*
X195882000Y-92445200D02*
X200182000Y-92445200D01*
X196082000Y-86945200D02*
X194832000Y-86945200D01*
X196932000Y-87245200D02*
X195132000Y-87245200D01*
X196932000Y-87995200D02*
X196932000Y-87245200D01*
X198432000Y-87245200D02*
X198432000Y-87995200D01*
X198432000Y-87995200D02*
X201932000Y-87995200D01*
X201932000Y-87245200D02*
X198432000Y-87245200D01*
X201932000Y-87995200D02*
X201932000Y-87245200D01*
X203432000Y-87245200D02*
X203432000Y-87995200D01*
X203432000Y-87995200D02*
X205232000Y-87995200D01*
X204482000Y-89495200D02*
X204482000Y-92445200D01*
X204482000Y-92445200D02*
X200182000Y-92445200D01*
X205232000Y-87245200D02*
X203432000Y-87245200D01*
X205232000Y-87995200D02*
X205232000Y-87245200D01*
X205232000Y-89495200D02*
X204482000Y-89495200D01*
X205242000Y-87235200D02*
X195122000Y-87235200D01*
X205242000Y-93205200D02*
X205242000Y-87235200D01*
%TO.C,J12*%
X194832000Y-64085200D02*
X194832000Y-65335200D01*
X195122000Y-64375200D02*
X195122000Y-70345200D01*
X195122000Y-70345200D02*
X205242000Y-70345200D01*
X195132000Y-64385200D02*
X195132000Y-65135200D01*
X195132000Y-65135200D02*
X196932000Y-65135200D01*
X195132000Y-66635200D02*
X195882000Y-66635200D01*
X195882000Y-66635200D02*
X195882000Y-69585200D01*
X195882000Y-69585200D02*
X200182000Y-69585200D01*
X196082000Y-64085200D02*
X194832000Y-64085200D01*
X196932000Y-64385200D02*
X195132000Y-64385200D01*
X196932000Y-65135200D02*
X196932000Y-64385200D01*
X198432000Y-64385200D02*
X198432000Y-65135200D01*
X198432000Y-65135200D02*
X201932000Y-65135200D01*
X201932000Y-64385200D02*
X198432000Y-64385200D01*
X201932000Y-65135200D02*
X201932000Y-64385200D01*
X203432000Y-64385200D02*
X203432000Y-65135200D01*
X203432000Y-65135200D02*
X205232000Y-65135200D01*
X204482000Y-66635200D02*
X204482000Y-69585200D01*
X204482000Y-69585200D02*
X200182000Y-69585200D01*
X205232000Y-64385200D02*
X203432000Y-64385200D01*
X205232000Y-65135200D02*
X205232000Y-64385200D01*
X205232000Y-66635200D02*
X204482000Y-66635200D01*
X205242000Y-64375200D02*
X195122000Y-64375200D01*
X205242000Y-70345200D02*
X205242000Y-64375200D01*
%TO.C,J17*%
X194832000Y-102185200D02*
X194832000Y-103435200D01*
X195122000Y-102475200D02*
X195122000Y-108445200D01*
X195122000Y-108445200D02*
X205242000Y-108445200D01*
X195132000Y-102485200D02*
X195132000Y-103235200D01*
X195132000Y-103235200D02*
X196932000Y-103235200D01*
X195132000Y-104735200D02*
X195882000Y-104735200D01*
X195882000Y-104735200D02*
X195882000Y-107685200D01*
X195882000Y-107685200D02*
X200182000Y-107685200D01*
X196082000Y-102185200D02*
X194832000Y-102185200D01*
X196932000Y-102485200D02*
X195132000Y-102485200D01*
X196932000Y-103235200D02*
X196932000Y-102485200D01*
X198432000Y-102485200D02*
X198432000Y-103235200D01*
X198432000Y-103235200D02*
X201932000Y-103235200D01*
X201932000Y-102485200D02*
X198432000Y-102485200D01*
X201932000Y-103235200D02*
X201932000Y-102485200D01*
X203432000Y-102485200D02*
X203432000Y-103235200D01*
X203432000Y-103235200D02*
X205232000Y-103235200D01*
X204482000Y-104735200D02*
X204482000Y-107685200D01*
X204482000Y-107685200D02*
X200182000Y-107685200D01*
X205232000Y-102485200D02*
X203432000Y-102485200D01*
X205232000Y-103235200D02*
X205232000Y-102485200D01*
X205232000Y-104735200D02*
X204482000Y-104735200D01*
X205242000Y-102475200D02*
X195122000Y-102475200D01*
X205242000Y-108445200D02*
X205242000Y-102475200D01*
%TO.C,J16*%
X194832000Y-94565200D02*
X194832000Y-95815200D01*
X195122000Y-94855200D02*
X195122000Y-100825200D01*
X195122000Y-100825200D02*
X205242000Y-100825200D01*
X195132000Y-94865200D02*
X195132000Y-95615200D01*
X195132000Y-95615200D02*
X196932000Y-95615200D01*
X195132000Y-97115200D02*
X195882000Y-97115200D01*
X195882000Y-97115200D02*
X195882000Y-100065200D01*
X195882000Y-100065200D02*
X200182000Y-100065200D01*
X196082000Y-94565200D02*
X194832000Y-94565200D01*
X196932000Y-94865200D02*
X195132000Y-94865200D01*
X196932000Y-95615200D02*
X196932000Y-94865200D01*
X198432000Y-94865200D02*
X198432000Y-95615200D01*
X198432000Y-95615200D02*
X201932000Y-95615200D01*
X201932000Y-94865200D02*
X198432000Y-94865200D01*
X201932000Y-95615200D02*
X201932000Y-94865200D01*
X203432000Y-94865200D02*
X203432000Y-95615200D01*
X203432000Y-95615200D02*
X205232000Y-95615200D01*
X204482000Y-97115200D02*
X204482000Y-100065200D01*
X204482000Y-100065200D02*
X200182000Y-100065200D01*
X205232000Y-94865200D02*
X203432000Y-94865200D01*
X205232000Y-95615200D02*
X205232000Y-94865200D01*
X205232000Y-97115200D02*
X204482000Y-97115200D01*
X205242000Y-94855200D02*
X195122000Y-94855200D01*
X205242000Y-100825200D02*
X205242000Y-94855200D01*
%TO.C,J5*%
X182132000Y-79325200D02*
X182132000Y-80575200D01*
X182422000Y-79615200D02*
X182422000Y-85585200D01*
X182422000Y-85585200D02*
X192542000Y-85585200D01*
X182432000Y-79625200D02*
X182432000Y-80375200D01*
X182432000Y-80375200D02*
X184232000Y-80375200D01*
X182432000Y-81875200D02*
X183182000Y-81875200D01*
X183182000Y-81875200D02*
X183182000Y-84825200D01*
X183182000Y-84825200D02*
X187482000Y-84825200D01*
X183382000Y-79325200D02*
X182132000Y-79325200D01*
X184232000Y-79625200D02*
X182432000Y-79625200D01*
X184232000Y-80375200D02*
X184232000Y-79625200D01*
X185732000Y-79625200D02*
X185732000Y-80375200D01*
X185732000Y-80375200D02*
X189232000Y-80375200D01*
X189232000Y-79625200D02*
X185732000Y-79625200D01*
X189232000Y-80375200D02*
X189232000Y-79625200D01*
X190732000Y-79625200D02*
X190732000Y-80375200D01*
X190732000Y-80375200D02*
X192532000Y-80375200D01*
X191782000Y-81875200D02*
X191782000Y-84825200D01*
X191782000Y-84825200D02*
X187482000Y-84825200D01*
X192532000Y-79625200D02*
X190732000Y-79625200D01*
X192532000Y-80375200D02*
X192532000Y-79625200D01*
X192532000Y-81875200D02*
X191782000Y-81875200D01*
X192542000Y-79615200D02*
X182422000Y-79615200D01*
X192542000Y-85585200D02*
X192542000Y-79615200D01*
%TO.C,J1*%
X182132000Y-48970000D02*
X182132000Y-50220000D01*
X182422000Y-49260000D02*
X182422000Y-55230000D01*
X182422000Y-55230000D02*
X192542000Y-55230000D01*
X182432000Y-49270000D02*
X182432000Y-50020000D01*
X182432000Y-50020000D02*
X184232000Y-50020000D01*
X182432000Y-51520000D02*
X183182000Y-51520000D01*
X183182000Y-51520000D02*
X183182000Y-54470000D01*
X183182000Y-54470000D02*
X187482000Y-54470000D01*
X183382000Y-48970000D02*
X182132000Y-48970000D01*
X184232000Y-49270000D02*
X182432000Y-49270000D01*
X184232000Y-50020000D02*
X184232000Y-49270000D01*
X185732000Y-49270000D02*
X185732000Y-50020000D01*
X185732000Y-50020000D02*
X189232000Y-50020000D01*
X189232000Y-49270000D02*
X185732000Y-49270000D01*
X189232000Y-50020000D02*
X189232000Y-49270000D01*
X190732000Y-49270000D02*
X190732000Y-50020000D01*
X190732000Y-50020000D02*
X192532000Y-50020000D01*
X191782000Y-51520000D02*
X191782000Y-54470000D01*
X191782000Y-54470000D02*
X187482000Y-54470000D01*
X192532000Y-49270000D02*
X190732000Y-49270000D01*
X192532000Y-50020000D02*
X192532000Y-49270000D01*
X192532000Y-51520000D02*
X191782000Y-51520000D01*
X192542000Y-49260000D02*
X182422000Y-49260000D01*
X192542000Y-55230000D02*
X192542000Y-49260000D01*
%TO.C,U1*%
X147532000Y-104610000D02*
X147532000Y-98600000D01*
X154352000Y-102360000D02*
X154352000Y-98600000D01*
X147532000Y-98600000D02*
X148792000Y-98600000D01*
X154352000Y-98600000D02*
X153092000Y-98600000D01*
%TO.C,J8*%
X182132000Y-102185200D02*
X182132000Y-103435200D01*
X182422000Y-102475200D02*
X182422000Y-108445200D01*
X182422000Y-108445200D02*
X192542000Y-108445200D01*
X182432000Y-102485200D02*
X182432000Y-103235200D01*
X182432000Y-103235200D02*
X184232000Y-103235200D01*
X182432000Y-104735200D02*
X183182000Y-104735200D01*
X183182000Y-104735200D02*
X183182000Y-107685200D01*
X183182000Y-107685200D02*
X187482000Y-107685200D01*
X183382000Y-102185200D02*
X182132000Y-102185200D01*
X184232000Y-102485200D02*
X182432000Y-102485200D01*
X184232000Y-103235200D02*
X184232000Y-102485200D01*
X185732000Y-102485200D02*
X185732000Y-103235200D01*
X185732000Y-103235200D02*
X189232000Y-103235200D01*
X189232000Y-102485200D02*
X185732000Y-102485200D01*
X189232000Y-103235200D02*
X189232000Y-102485200D01*
X190732000Y-102485200D02*
X190732000Y-103235200D01*
X190732000Y-103235200D02*
X192532000Y-103235200D01*
X191782000Y-104735200D02*
X191782000Y-107685200D01*
X191782000Y-107685200D02*
X187482000Y-107685200D01*
X192532000Y-102485200D02*
X190732000Y-102485200D01*
X192532000Y-103235200D02*
X192532000Y-102485200D01*
X192532000Y-104735200D02*
X191782000Y-104735200D01*
X192542000Y-102475200D02*
X182422000Y-102475200D01*
X192542000Y-108445200D02*
X192542000Y-102475200D01*
%TO.C,R1*%
X173892000Y-65335200D02*
X173892000Y-66105200D01*
X175262000Y-66105200D02*
X172522000Y-66105200D01*
X172522000Y-66105200D02*
X172522000Y-72645200D01*
X175262000Y-72645200D02*
X175262000Y-66105200D01*
X172522000Y-72645200D02*
X175262000Y-72645200D01*
X173892000Y-73415200D02*
X173892000Y-72645200D01*
%TO.C,J4*%
X182132000Y-71705200D02*
X182132000Y-72955200D01*
X182422000Y-71995200D02*
X182422000Y-77965200D01*
X182422000Y-77965200D02*
X192542000Y-77965200D01*
X182432000Y-72005200D02*
X182432000Y-72755200D01*
X182432000Y-72755200D02*
X184232000Y-72755200D01*
X182432000Y-74255200D02*
X183182000Y-74255200D01*
X183182000Y-74255200D02*
X183182000Y-77205200D01*
X183182000Y-77205200D02*
X187482000Y-77205200D01*
X183382000Y-71705200D02*
X182132000Y-71705200D01*
X184232000Y-72005200D02*
X182432000Y-72005200D01*
X184232000Y-72755200D02*
X184232000Y-72005200D01*
X185732000Y-72005200D02*
X185732000Y-72755200D01*
X185732000Y-72755200D02*
X189232000Y-72755200D01*
X189232000Y-72005200D02*
X185732000Y-72005200D01*
X189232000Y-72755200D02*
X189232000Y-72005200D01*
X190732000Y-72005200D02*
X190732000Y-72755200D01*
X190732000Y-72755200D02*
X192532000Y-72755200D01*
X191782000Y-74255200D02*
X191782000Y-77205200D01*
X191782000Y-77205200D02*
X187482000Y-77205200D01*
X192532000Y-72005200D02*
X190732000Y-72005200D01*
X192532000Y-72755200D02*
X192532000Y-72005200D01*
X192532000Y-74255200D02*
X191782000Y-74255200D01*
X192542000Y-71995200D02*
X182422000Y-71995200D01*
X192542000Y-77965200D02*
X192542000Y-71995200D01*
%TO.C,SW1*%
X174937000Y-109180000D02*
X173437000Y-109180000D01*
X170937000Y-110430000D02*
X170937000Y-114930000D01*
X177437000Y-114930000D02*
X177437000Y-110430000D01*
X173437000Y-116180000D02*
X174937000Y-116180000D01*
%TO.C,J9*%
X182132000Y-109805200D02*
X182132000Y-111055200D01*
X182422000Y-110095200D02*
X182422000Y-116065200D01*
X182422000Y-116065200D02*
X192542000Y-116065200D01*
X182432000Y-110105200D02*
X182432000Y-110855200D01*
X182432000Y-110855200D02*
X184232000Y-110855200D01*
X182432000Y-112355200D02*
X183182000Y-112355200D01*
X183182000Y-112355200D02*
X183182000Y-115305200D01*
X183182000Y-115305200D02*
X187482000Y-115305200D01*
X183382000Y-109805200D02*
X182132000Y-109805200D01*
X184232000Y-110105200D02*
X182432000Y-110105200D01*
X184232000Y-110855200D02*
X184232000Y-110105200D01*
X185732000Y-110105200D02*
X185732000Y-110855200D01*
X185732000Y-110855200D02*
X189232000Y-110855200D01*
X189232000Y-110105200D02*
X185732000Y-110105200D01*
X189232000Y-110855200D02*
X189232000Y-110105200D01*
X190732000Y-110105200D02*
X190732000Y-110855200D01*
X190732000Y-110855200D02*
X192532000Y-110855200D01*
X191782000Y-112355200D02*
X191782000Y-115305200D01*
X191782000Y-115305200D02*
X187482000Y-115305200D01*
X192532000Y-110105200D02*
X190732000Y-110105200D01*
X192532000Y-110855200D02*
X192532000Y-110105200D01*
X192532000Y-112355200D02*
X191782000Y-112355200D01*
X192542000Y-110095200D02*
X182422000Y-110095200D01*
X192542000Y-116065200D02*
X192542000Y-110095200D01*
%TO.C,R3*%
X126002000Y-107270000D02*
X126002000Y-106500000D01*
X124632000Y-106500000D02*
X127372000Y-106500000D01*
X127372000Y-106500000D02*
X127372000Y-99960000D01*
X124632000Y-99960000D02*
X124632000Y-106500000D01*
X127372000Y-99960000D02*
X124632000Y-99960000D01*
X126002000Y-99190000D02*
X126002000Y-99960000D01*
%TO.C,J3*%
X182132000Y-64085200D02*
X182132000Y-65335200D01*
X182422000Y-64375200D02*
X182422000Y-70345200D01*
X182422000Y-70345200D02*
X192542000Y-70345200D01*
X182432000Y-64385200D02*
X182432000Y-65135200D01*
X182432000Y-65135200D02*
X184232000Y-65135200D01*
X182432000Y-66635200D02*
X183182000Y-66635200D01*
X183182000Y-66635200D02*
X183182000Y-69585200D01*
X183182000Y-69585200D02*
X187482000Y-69585200D01*
X183382000Y-64085200D02*
X182132000Y-64085200D01*
X184232000Y-64385200D02*
X182432000Y-64385200D01*
X184232000Y-65135200D02*
X184232000Y-64385200D01*
X185732000Y-64385200D02*
X185732000Y-65135200D01*
X185732000Y-65135200D02*
X189232000Y-65135200D01*
X189232000Y-64385200D02*
X185732000Y-64385200D01*
X189232000Y-65135200D02*
X189232000Y-64385200D01*
X190732000Y-64385200D02*
X190732000Y-65135200D01*
X190732000Y-65135200D02*
X192532000Y-65135200D01*
X191782000Y-66635200D02*
X191782000Y-69585200D01*
X191782000Y-69585200D02*
X187482000Y-69585200D01*
X192532000Y-64385200D02*
X190732000Y-64385200D01*
X192532000Y-65135200D02*
X192532000Y-64385200D01*
X192532000Y-66635200D02*
X191782000Y-66635200D01*
X192542000Y-64375200D02*
X182422000Y-64375200D01*
X192542000Y-70345200D02*
X192542000Y-64375200D01*
%TO.C,J19*%
X164942000Y-62965200D02*
X166272000Y-62965200D01*
X164942000Y-64295200D02*
X164942000Y-62965200D01*
X164942000Y-65565200D02*
X164942000Y-78325200D01*
X164942000Y-65565200D02*
X167542000Y-65565200D01*
X164942000Y-78325200D02*
X170142000Y-78325200D01*
X167542000Y-62965200D02*
X170142000Y-62965200D01*
X167542000Y-65565200D02*
X167542000Y-62965200D01*
X170142000Y-62965200D02*
X170142000Y-78325200D01*
%TO.C,J2*%
X182132000Y-56465200D02*
X182132000Y-57715200D01*
X182422000Y-56755200D02*
X182422000Y-62725200D01*
X182422000Y-62725200D02*
X192542000Y-62725200D01*
X182432000Y-56765200D02*
X182432000Y-57515200D01*
X182432000Y-57515200D02*
X184232000Y-57515200D01*
X182432000Y-59015200D02*
X183182000Y-59015200D01*
X183182000Y-59015200D02*
X183182000Y-61965200D01*
X183182000Y-61965200D02*
X187482000Y-61965200D01*
X183382000Y-56465200D02*
X182132000Y-56465200D01*
X184232000Y-56765200D02*
X182432000Y-56765200D01*
X184232000Y-57515200D02*
X184232000Y-56765200D01*
X185732000Y-56765200D02*
X185732000Y-57515200D01*
X185732000Y-57515200D02*
X189232000Y-57515200D01*
X189232000Y-56765200D02*
X185732000Y-56765200D01*
X189232000Y-57515200D02*
X189232000Y-56765200D01*
X190732000Y-56765200D02*
X190732000Y-57515200D01*
X190732000Y-57515200D02*
X192532000Y-57515200D01*
X191782000Y-59015200D02*
X191782000Y-61965200D01*
X191782000Y-61965200D02*
X187482000Y-61965200D01*
X192532000Y-56765200D02*
X190732000Y-56765200D01*
X192532000Y-57515200D02*
X192532000Y-56765200D01*
X192532000Y-59015200D02*
X191782000Y-59015200D01*
X192542000Y-56755200D02*
X182422000Y-56755200D01*
X192542000Y-62725200D02*
X192542000Y-56755200D01*
D10*
%TO.C,A2*%
X133342000Y-119450000D02*
X112842000Y-119450000D01*
X110592000Y-117200000D02*
X110592000Y-60200000D01*
X135592000Y-117200000D02*
X135592000Y-60200000D01*
X133342000Y-57950000D02*
X112842000Y-57950000D01*
X110592000Y-117200000D02*
G75*
G03*
X112842000Y-119450000I2250000J0D01*
G01*
X133342000Y-119450000D02*
G75*
G03*
X135592000Y-117200000I0J2250000D01*
G01*
X112842000Y-57950000D02*
G75*
G03*
X110592000Y-60200000I0J-2250000D01*
G01*
X135592000Y-60200000D02*
G75*
G03*
X133342000Y-57950000I-2250000J0D01*
G01*
D12*
%TO.C,J18*%
X194832000Y-109805200D02*
X194832000Y-111055200D01*
X195122000Y-110095200D02*
X195122000Y-116065200D01*
X195122000Y-116065200D02*
X205242000Y-116065200D01*
X195132000Y-110105200D02*
X195132000Y-110855200D01*
X195132000Y-110855200D02*
X196932000Y-110855200D01*
X195132000Y-112355200D02*
X195882000Y-112355200D01*
X195882000Y-112355200D02*
X195882000Y-115305200D01*
X195882000Y-115305200D02*
X200182000Y-115305200D01*
X196082000Y-109805200D02*
X194832000Y-109805200D01*
X196932000Y-110105200D02*
X195132000Y-110105200D01*
X196932000Y-110855200D02*
X196932000Y-110105200D01*
X198432000Y-110105200D02*
X198432000Y-110855200D01*
X198432000Y-110855200D02*
X201932000Y-110855200D01*
X201932000Y-110105200D02*
X198432000Y-110105200D01*
X201932000Y-110855200D02*
X201932000Y-110105200D01*
X203432000Y-110105200D02*
X203432000Y-110855200D01*
X203432000Y-110855200D02*
X205232000Y-110855200D01*
X204482000Y-112355200D02*
X204482000Y-115305200D01*
X204482000Y-115305200D02*
X200182000Y-115305200D01*
X205232000Y-110105200D02*
X203432000Y-110105200D01*
X205232000Y-110855200D02*
X205232000Y-110105200D01*
X205232000Y-112355200D02*
X204482000Y-112355200D01*
X205242000Y-110095200D02*
X195122000Y-110095200D01*
X205242000Y-116065200D02*
X205242000Y-110095200D01*
%TO.C,R2*%
X120002000Y-99190000D02*
X120002000Y-99960000D01*
X121372000Y-99960000D02*
X118632000Y-99960000D01*
X118632000Y-99960000D02*
X118632000Y-106500000D01*
X121372000Y-106500000D02*
X121372000Y-99960000D01*
X118632000Y-106500000D02*
X121372000Y-106500000D01*
X120002000Y-107270000D02*
X120002000Y-106500000D01*
D10*
%TO.C,A1*%
X161282000Y-119450000D02*
X140782000Y-119450000D01*
X138532000Y-117200000D02*
X138532000Y-60200000D01*
X163532000Y-117200000D02*
X163532000Y-60200000D01*
X161282000Y-57950000D02*
X140782000Y-57950000D01*
X138532000Y-117200000D02*
G75*
G03*
X140782000Y-119450000I2250000J0D01*
G01*
X161282000Y-119450000D02*
G75*
G03*
X163532000Y-117200000I0J2250000D01*
G01*
X140782000Y-57950000D02*
G75*
G03*
X138532000Y-60200000I0J-2250000D01*
G01*
X163532000Y-60200000D02*
G75*
G03*
X161282000Y-57950000I-2250000J0D01*
G01*
D12*
%TO.C,J6*%
X182132000Y-86945200D02*
X182132000Y-88195200D01*
X182422000Y-87235200D02*
X182422000Y-93205200D01*
X182422000Y-93205200D02*
X192542000Y-93205200D01*
X182432000Y-87245200D02*
X182432000Y-87995200D01*
X182432000Y-87995200D02*
X184232000Y-87995200D01*
X182432000Y-89495200D02*
X183182000Y-89495200D01*
X183182000Y-89495200D02*
X183182000Y-92445200D01*
X183182000Y-92445200D02*
X187482000Y-92445200D01*
X183382000Y-86945200D02*
X182132000Y-86945200D01*
X184232000Y-87245200D02*
X182432000Y-87245200D01*
X184232000Y-87995200D02*
X184232000Y-87245200D01*
X185732000Y-87245200D02*
X185732000Y-87995200D01*
X185732000Y-87995200D02*
X189232000Y-87995200D01*
X189232000Y-87245200D02*
X185732000Y-87245200D01*
X189232000Y-87995200D02*
X189232000Y-87245200D01*
X190732000Y-87245200D02*
X190732000Y-87995200D01*
X190732000Y-87995200D02*
X192532000Y-87995200D01*
X191782000Y-89495200D02*
X191782000Y-92445200D01*
X191782000Y-92445200D02*
X187482000Y-92445200D01*
X192532000Y-87245200D02*
X190732000Y-87245200D01*
X192532000Y-87995200D02*
X192532000Y-87245200D01*
X192532000Y-89495200D02*
X191782000Y-89495200D01*
X192542000Y-87235200D02*
X182422000Y-87235200D01*
X192542000Y-93205200D02*
X192542000Y-87235200D01*
%TO.C,J10*%
X194832000Y-48845200D02*
X194832000Y-50095200D01*
X195122000Y-49135200D02*
X195122000Y-55105200D01*
X195122000Y-55105200D02*
X205242000Y-55105200D01*
X195132000Y-49145200D02*
X195132000Y-49895200D01*
X195132000Y-49895200D02*
X196932000Y-49895200D01*
X195132000Y-51395200D02*
X195882000Y-51395200D01*
X195882000Y-51395200D02*
X195882000Y-54345200D01*
X195882000Y-54345200D02*
X200182000Y-54345200D01*
X196082000Y-48845200D02*
X194832000Y-48845200D01*
X196932000Y-49145200D02*
X195132000Y-49145200D01*
X196932000Y-49895200D02*
X196932000Y-49145200D01*
X198432000Y-49145200D02*
X198432000Y-49895200D01*
X198432000Y-49895200D02*
X201932000Y-49895200D01*
X201932000Y-49145200D02*
X198432000Y-49145200D01*
X201932000Y-49895200D02*
X201932000Y-49145200D01*
X203432000Y-49145200D02*
X203432000Y-49895200D01*
X203432000Y-49895200D02*
X205232000Y-49895200D01*
X204482000Y-51395200D02*
X204482000Y-54345200D01*
X204482000Y-54345200D02*
X200182000Y-54345200D01*
X205232000Y-49145200D02*
X203432000Y-49145200D01*
X205232000Y-49895200D02*
X205232000Y-49145200D01*
X205232000Y-51395200D02*
X204482000Y-51395200D01*
X205242000Y-49135200D02*
X195122000Y-49135200D01*
X205242000Y-55105200D02*
X205242000Y-49135200D01*
%TO.C,C1*%
X145378252Y-104570000D02*
X143955748Y-104570000D01*
X145378252Y-102750000D02*
X143955748Y-102750000D01*
%TO.C,J20*%
X167482000Y-96105200D02*
X167482000Y-94775200D01*
X168812000Y-96105200D02*
X167482000Y-96105200D01*
X170082000Y-96105200D02*
X175222000Y-96105200D01*
X170082000Y-96105200D02*
X170082000Y-93505200D01*
X175222000Y-96105200D02*
X175222000Y-90905200D01*
X167482000Y-93505200D02*
X167482000Y-90905200D01*
X170082000Y-93505200D02*
X167482000Y-93505200D01*
X167482000Y-90905200D02*
X175222000Y-90905200D01*
%TD*%
M02*
