%TF.GenerationSoftware,KiCad,Pcbnew,7.0.10-1.fc39*%
%TF.CreationDate,2024-03-03T09:54:11-06:00*%
%TF.ProjectId,mkr-sensor-shield-with-modem,6d6b722d-7365-46e7-936f-722d73686965,rev?*%
%TF.SameCoordinates,Original*%
%TF.FileFunction,Copper,L1,Top*%
%TF.FilePolarity,Positive*%
%FSLAX46Y46*%
G04 Gerber Fmt 4.6, Leading zero omitted, Abs format (unit mm)*
G04 Created by KiCad (PCBNEW 7.0.10-1.fc39) date 2024-03-03 09:54:11*
%MOMM*%
%LPD*%
G01*
G04 APERTURE LIST*
G04 Aperture macros list*
%AMRoundRect*
0 Rectangle with rounded corners*
0 $1 Rounding radius*
0 $2 $3 $4 $5 $6 $7 $8 $9 X,Y pos of 4 corners*
0 Add a 4 corners polygon primitive as box body*
4,1,4,$2,$3,$4,$5,$6,$7,$8,$9,$2,$3,0*
0 Add four circle primitives for the rounded corners*
1,1,$1+$1,$2,$3*
1,1,$1+$1,$4,$5*
1,1,$1+$1,$6,$7*
1,1,$1+$1,$8,$9*
0 Add four rect primitives between the rounded corners*
20,1,$1+$1,$2,$3,$4,$5,0*
20,1,$1+$1,$4,$5,$6,$7,0*
20,1,$1+$1,$6,$7,$8,$9,0*
20,1,$1+$1,$8,$9,$2,$3,0*%
G04 Aperture macros list end*
%TA.AperFunction,ComponentPad*%
%ADD10RoundRect,0.250000X-0.600000X-0.725000X0.600000X-0.725000X0.600000X0.725000X-0.600000X0.725000X0*%
%TD*%
%TA.AperFunction,ComponentPad*%
%ADD11O,1.700000X1.950000*%
%TD*%
%TA.AperFunction,SMDPad,CuDef*%
%ADD12RoundRect,0.250000X-0.325000X-0.650000X0.325000X-0.650000X0.325000X0.650000X-0.325000X0.650000X0*%
%TD*%
%TA.AperFunction,ComponentPad*%
%ADD13RoundRect,0.750000X-0.750000X-1.750000X0.750000X-1.750000X0.750000X1.750000X-0.750000X1.750000X0*%
%TD*%
%TA.AperFunction,SMDPad,CuDef*%
%ADD14R,1.500000X2.000000*%
%TD*%
%TA.AperFunction,SMDPad,CuDef*%
%ADD15R,3.800000X2.000000*%
%TD*%
%TA.AperFunction,ComponentPad*%
%ADD16C,1.600000*%
%TD*%
%TA.AperFunction,ComponentPad*%
%ADD17O,1.600000X1.600000*%
%TD*%
%TA.AperFunction,ComponentPad*%
%ADD18C,2.000000*%
%TD*%
%TA.AperFunction,ComponentPad*%
%ADD19R,1.700000X1.700000*%
%TD*%
%TA.AperFunction,ComponentPad*%
%ADD20O,1.700000X1.700000*%
%TD*%
%TA.AperFunction,ComponentPad*%
%ADD21C,1.727200*%
%TD*%
%TA.AperFunction,ComponentPad*%
%ADD22R,1.727200X1.727200*%
%TD*%
%TA.AperFunction,SMDPad,CuDef*%
%ADD23RoundRect,0.250000X0.325000X0.650000X-0.325000X0.650000X-0.325000X-0.650000X0.325000X-0.650000X0*%
%TD*%
%TA.AperFunction,ViaPad*%
%ADD24C,0.800000*%
%TD*%
%TA.AperFunction,Conductor*%
%ADD25C,0.250000*%
%TD*%
%TA.AperFunction,Conductor*%
%ADD26C,1.500000*%
%TD*%
%TA.AperFunction,Conductor*%
%ADD27C,1.000000*%
%TD*%
G04 APERTURE END LIST*
D10*
%TO.P,J14,1,Pin_1*%
%TO.N,+3.3V*%
X197682000Y-82075200D03*
D11*
%TO.P,J14,2,Pin_2*%
%TO.N,DATA*%
X200182000Y-82075200D03*
%TO.P,J14,3,Pin_3*%
%TO.N,GND*%
X202682000Y-82075200D03*
%TD*%
D10*
%TO.P,J7,1,Pin_1*%
%TO.N,+3.3V*%
X184982000Y-97315200D03*
D11*
%TO.P,J7,2,Pin_2*%
%TO.N,DATA*%
X187482000Y-97315200D03*
%TO.P,J7,3,Pin_3*%
%TO.N,GND*%
X189982000Y-97315200D03*
%TD*%
D12*
%TO.P,C2,1*%
%TO.N,Net-(U1-OUT)*%
X155742000Y-103660000D03*
%TO.P,C2,2*%
%TO.N,GND*%
X158692000Y-103660000D03*
%TD*%
D10*
%TO.P,J11,1,Pin_1*%
%TO.N,+3.3V*%
X197682000Y-59215200D03*
D11*
%TO.P,J11,2,Pin_2*%
%TO.N,DATA*%
X200182000Y-59215200D03*
%TO.P,J11,3,Pin_3*%
%TO.N,GND*%
X202682000Y-59215200D03*
%TD*%
D10*
%TO.P,J13,1,Pin_1*%
%TO.N,+3.3V*%
X197682000Y-74455200D03*
D11*
%TO.P,J13,2,Pin_2*%
%TO.N,DATA*%
X200182000Y-74455200D03*
%TO.P,J13,3,Pin_3*%
%TO.N,GND*%
X202682000Y-74455200D03*
%TD*%
D10*
%TO.P,J15,1,Pin_1*%
%TO.N,+3.3V*%
X197682000Y-89695200D03*
D11*
%TO.P,J15,2,Pin_2*%
%TO.N,DATA*%
X200182000Y-89695200D03*
%TO.P,J15,3,Pin_3*%
%TO.N,GND*%
X202682000Y-89695200D03*
%TD*%
D10*
%TO.P,J12,1,Pin_1*%
%TO.N,+3.3V*%
X197682000Y-66835200D03*
D11*
%TO.P,J12,2,Pin_2*%
%TO.N,DATA*%
X200182000Y-66835200D03*
%TO.P,J12,3,Pin_3*%
%TO.N,GND*%
X202682000Y-66835200D03*
%TD*%
D13*
%TO.P,J21,1,Pin_1*%
%TO.N,Net-(J21-Pin_1)*%
X147942000Y-114660000D03*
%TO.P,J21,2,Pin_2*%
%TO.N,GND*%
X153942000Y-114660000D03*
%TD*%
D10*
%TO.P,J17,1,Pin_1*%
%TO.N,+3.3V*%
X197682000Y-104935200D03*
D11*
%TO.P,J17,2,Pin_2*%
%TO.N,DATA*%
X200182000Y-104935200D03*
%TO.P,J17,3,Pin_3*%
%TO.N,GND*%
X202682000Y-104935200D03*
%TD*%
D10*
%TO.P,J16,1,Pin_1*%
%TO.N,+3.3V*%
X197682000Y-97315200D03*
D11*
%TO.P,J16,2,Pin_2*%
%TO.N,DATA*%
X200182000Y-97315200D03*
%TO.P,J16,3,Pin_3*%
%TO.N,GND*%
X202682000Y-97315200D03*
%TD*%
D10*
%TO.P,J5,1,Pin_1*%
%TO.N,+3.3V*%
X184982000Y-82075200D03*
D11*
%TO.P,J5,2,Pin_2*%
%TO.N,DATA*%
X187482000Y-82075200D03*
%TO.P,J5,3,Pin_3*%
%TO.N,GND*%
X189982000Y-82075200D03*
%TD*%
D10*
%TO.P,J1,1,Pin_1*%
%TO.N,+3.3V*%
X184982000Y-51720000D03*
D11*
%TO.P,J1,2,Pin_2*%
%TO.N,DATA*%
X187482000Y-51720000D03*
%TO.P,J1,3,Pin_3*%
%TO.N,GND*%
X189982000Y-51720000D03*
%TD*%
D14*
%TO.P,U1,1,IN*%
%TO.N,Net-(J21-Pin_1)*%
X148642000Y-103660000D03*
%TO.P,U1,2,GND*%
%TO.N,GND*%
X150942000Y-103660000D03*
%TO.P,U1,3,OUT*%
%TO.N,Net-(U1-OUT)*%
X153242000Y-103660000D03*
D15*
%TO.P,U1,4*%
%TO.N,N/C*%
X150942000Y-97360000D03*
%TD*%
D10*
%TO.P,J8,1,Pin_1*%
%TO.N,+3.3V*%
X184982000Y-104935200D03*
D11*
%TO.P,J8,2,Pin_2*%
%TO.N,DATA*%
X187482000Y-104935200D03*
%TO.P,J8,3,Pin_3*%
%TO.N,GND*%
X189982000Y-104935200D03*
%TD*%
D16*
%TO.P,R1,1*%
%TO.N,DATA*%
X173892000Y-64295200D03*
D17*
%TO.P,R1,2*%
%TO.N,+3.3V*%
X173892000Y-74455200D03*
%TD*%
D10*
%TO.P,J4,1,Pin_1*%
%TO.N,+3.3V*%
X184982000Y-74455200D03*
D11*
%TO.P,J4,2,Pin_2*%
%TO.N,DATA*%
X187482000Y-74455200D03*
%TO.P,J4,3,Pin_3*%
%TO.N,GND*%
X189982000Y-74455200D03*
%TD*%
D18*
%TO.P,SW1,1,1*%
%TO.N,/RST*%
X176437000Y-109430000D03*
X176437000Y-115930000D03*
%TO.P,SW1,2,2*%
%TO.N,GND*%
X171937000Y-109430000D03*
X171937000Y-115930000D03*
%TD*%
D10*
%TO.P,J9,1,Pin_1*%
%TO.N,+3.3V*%
X184982000Y-112555200D03*
D11*
%TO.P,J9,2,Pin_2*%
%TO.N,DATA*%
X187482000Y-112555200D03*
%TO.P,J9,3,Pin_3*%
%TO.N,GND*%
X189982000Y-112555200D03*
%TD*%
D16*
%TO.P,R3,1*%
%TO.N,GND*%
X126002000Y-108310000D03*
D17*
%TO.P,R3,2*%
%TO.N,/A2*%
X126002000Y-98150000D03*
%TD*%
D10*
%TO.P,J3,1,Pin_1*%
%TO.N,+3.3V*%
X184982000Y-66835200D03*
D11*
%TO.P,J3,2,Pin_2*%
%TO.N,DATA*%
X187482000Y-66835200D03*
%TO.P,J3,3,Pin_3*%
%TO.N,GND*%
X189982000Y-66835200D03*
%TD*%
D19*
%TO.P,J19,1,Pin_1*%
%TO.N,/D5*%
X166272000Y-64295200D03*
D20*
%TO.P,J19,2,Pin_2*%
%TO.N,DATA*%
X168812000Y-64295200D03*
%TO.P,J19,3,Pin_3*%
%TO.N,/D4*%
X166272000Y-66835200D03*
%TO.P,J19,4,Pin_4*%
%TO.N,DATA*%
X168812000Y-66835200D03*
%TO.P,J19,5,Pin_5*%
%TO.N,/D3*%
X166272000Y-69375200D03*
%TO.P,J19,6,Pin_6*%
%TO.N,DATA*%
X168812000Y-69375200D03*
%TO.P,J19,7,Pin_7*%
%TO.N,/D2*%
X166272000Y-71915200D03*
%TO.P,J19,8,Pin_8*%
%TO.N,DATA*%
X168812000Y-71915200D03*
%TO.P,J19,9,Pin_9*%
%TO.N,/D1*%
X166272000Y-74455200D03*
%TO.P,J19,10,Pin_10*%
%TO.N,DATA*%
X168812000Y-74455200D03*
%TO.P,J19,11,Pin_11*%
%TO.N,/D0*%
X166272000Y-76995200D03*
%TO.P,J19,12,Pin_12*%
%TO.N,DATA*%
X168812000Y-76995200D03*
%TD*%
D10*
%TO.P,J2,1,Pin_1*%
%TO.N,+3.3V*%
X184982000Y-59215200D03*
D11*
%TO.P,J2,2,Pin_2*%
%TO.N,DATA*%
X187482000Y-59215200D03*
%TO.P,J2,3,Pin_3*%
%TO.N,GND*%
X189982000Y-59215200D03*
%TD*%
D21*
%TO.P,A2,3V3,3.3V*%
%TO.N,+3.3V*%
X112932000Y-92235200D03*
%TO.P,A2,5V,5V*%
%TO.N,Net-(J23-Pin_1)*%
X112932000Y-97315200D03*
%TO.P,A2,A0,A0/DAC*%
%TO.N,/A0*%
X133252000Y-94775200D03*
%TO.P,A2,A1,A1*%
%TO.N,/A1*%
X133252000Y-92235200D03*
%TO.P,A2,A2,A2*%
%TO.N,/A2*%
X133252000Y-89695200D03*
%TO.P,A2,A3,A3*%
%TO.N,/A3*%
X133252000Y-87155200D03*
%TO.P,A2,A4,A4*%
%TO.N,/A4*%
X133252000Y-84615200D03*
%TO.P,A2,A5,A5*%
%TO.N,/A5*%
X133252000Y-82075200D03*
%TO.P,A2,A6,A6*%
%TO.N,/A6*%
X133252000Y-79535200D03*
%TO.P,A2,AREF,AREF*%
%TO.N,/AREF*%
X133252000Y-97315200D03*
%TO.P,A2,D0,D0*%
%TO.N,/D0*%
X133252000Y-76995200D03*
%TO.P,A2,D1,D1*%
%TO.N,/D1*%
X133252000Y-74455200D03*
%TO.P,A2,D2,D2*%
%TO.N,/D2*%
X133252000Y-71915200D03*
%TO.P,A2,D3,D3*%
%TO.N,/D3*%
X133252000Y-69375200D03*
%TO.P,A2,D4,D4*%
%TO.N,/D4*%
X133252000Y-66835200D03*
%TO.P,A2,D5,D5*%
%TO.N,/D5*%
X133252000Y-64295200D03*
%TO.P,A2,D6,D6*%
%TO.N,/D6*%
X112932000Y-64295200D03*
%TO.P,A2,D7,D7*%
%TO.N,/D7*%
X112932000Y-66835200D03*
%TO.P,A2,D8,D8_MOSI*%
%TO.N,/D8*%
X112932000Y-69375200D03*
%TO.P,A2,D9,D9_SCK*%
%TO.N,/D9*%
X112932000Y-71915200D03*
%TO.P,A2,D10,D10_MISO*%
%TO.N,/D10*%
X112932000Y-74455200D03*
%TO.P,A2,D11,D11/SDA*%
%TO.N,/D11*%
X112932000Y-76995200D03*
%TO.P,A2,D12,D12/SCL*%
%TO.N,/D12*%
X112932000Y-79535200D03*
%TO.P,A2,D13,D13/RX*%
%TO.N,/D13*%
X112932000Y-82075200D03*
%TO.P,A2,D14,D14/TX*%
%TO.N,/D14*%
X112932000Y-84615200D03*
D22*
%TO.P,A2,GND,GND*%
%TO.N,GND*%
X112932000Y-89695200D03*
D21*
%TO.P,A2,RST,RESET*%
%TO.N,/RST*%
X112932000Y-87155200D03*
%TO.P,A2,VIN,VIN*%
%TO.N,unconnected-(A2-PadVIN)*%
X112932000Y-94775200D03*
%TD*%
D10*
%TO.P,J18,1,Pin_1*%
%TO.N,+3.3V*%
X197682000Y-112555200D03*
D11*
%TO.P,J18,2,Pin_2*%
%TO.N,DATA*%
X200182000Y-112555200D03*
%TO.P,J18,3,Pin_3*%
%TO.N,GND*%
X202682000Y-112555200D03*
%TD*%
D16*
%TO.P,R2,1*%
%TO.N,/A2*%
X120002000Y-98150000D03*
D17*
%TO.P,R2,2*%
%TO.N,Net-(J23-Pin_1)*%
X120002000Y-108310000D03*
%TD*%
D21*
%TO.P,A1,3V3,3.3V*%
%TO.N,+3.3V*%
X140872000Y-92235200D03*
%TO.P,A1,5V,5V*%
%TO.N,unconnected-(A1-Pad5V)*%
X140872000Y-97315200D03*
%TO.P,A1,A0,A0/DAC*%
%TO.N,/A0*%
X161192000Y-94775200D03*
%TO.P,A1,A1,A1*%
%TO.N,/A1*%
X161192000Y-92235200D03*
%TO.P,A1,A2,A2*%
%TO.N,/A2*%
X161192000Y-89695200D03*
%TO.P,A1,A3,A3*%
%TO.N,/A3*%
X161192000Y-87155200D03*
%TO.P,A1,A4,A4*%
%TO.N,/A4*%
X161192000Y-84615200D03*
%TO.P,A1,A5,A5*%
%TO.N,/A5*%
X161192000Y-82075200D03*
%TO.P,A1,A6,A6*%
%TO.N,/A6*%
X161192000Y-79535200D03*
%TO.P,A1,AREF,AREF*%
%TO.N,/AREF*%
X161192000Y-97315200D03*
%TO.P,A1,D0,D0*%
%TO.N,/D0*%
X161192000Y-76995200D03*
%TO.P,A1,D1,D1*%
%TO.N,/D1*%
X161192000Y-74455200D03*
%TO.P,A1,D2,D2*%
%TO.N,/D2*%
X161192000Y-71915200D03*
%TO.P,A1,D3,D3*%
%TO.N,/D3*%
X161192000Y-69375200D03*
%TO.P,A1,D4,D4*%
%TO.N,/D4*%
X161192000Y-66835200D03*
%TO.P,A1,D5,D5*%
%TO.N,/D5*%
X161192000Y-64295200D03*
%TO.P,A1,D6,D6*%
%TO.N,/D6*%
X140872000Y-64295200D03*
%TO.P,A1,D7,D7*%
%TO.N,/D7*%
X140872000Y-66835200D03*
%TO.P,A1,D8,D8_MOSI*%
%TO.N,/D8*%
X140872000Y-69375200D03*
%TO.P,A1,D9,D9_SCK*%
%TO.N,/D9*%
X140872000Y-71915200D03*
%TO.P,A1,D10,D10_MISO*%
%TO.N,/D10*%
X140872000Y-74455200D03*
%TO.P,A1,D11,D11/SDA*%
%TO.N,/D11*%
X140872000Y-76995200D03*
%TO.P,A1,D12,D12/SCL*%
%TO.N,/D12*%
X140872000Y-79535200D03*
%TO.P,A1,D13,D13/RX*%
%TO.N,/D13*%
X140872000Y-82075200D03*
%TO.P,A1,D14,D14/TX*%
%TO.N,/D14*%
X140872000Y-84615200D03*
D22*
%TO.P,A1,GND,GND*%
%TO.N,GND*%
X140872000Y-89695200D03*
D21*
%TO.P,A1,RST,RESET*%
%TO.N,/RST*%
X140872000Y-87155200D03*
%TO.P,A1,VIN,VIN*%
%TO.N,Net-(U1-OUT)*%
X140872000Y-94775200D03*
%TD*%
D10*
%TO.P,J6,1,Pin_1*%
%TO.N,+3.3V*%
X184982000Y-89695200D03*
D11*
%TO.P,J6,2,Pin_2*%
%TO.N,DATA*%
X187482000Y-89695200D03*
%TO.P,J6,3,Pin_3*%
%TO.N,GND*%
X189982000Y-89695200D03*
%TD*%
D10*
%TO.P,J10,1,Pin_1*%
%TO.N,+3.3V*%
X197682000Y-51595200D03*
D11*
%TO.P,J10,2,Pin_2*%
%TO.N,DATA*%
X200182000Y-51595200D03*
%TO.P,J10,3,Pin_3*%
%TO.N,GND*%
X202682000Y-51595200D03*
%TD*%
D23*
%TO.P,C1,1*%
%TO.N,Net-(J21-Pin_1)*%
X146142000Y-103660000D03*
%TO.P,C1,2*%
%TO.N,GND*%
X143192000Y-103660000D03*
%TD*%
D19*
%TO.P,J20,1,Pin_1*%
%TO.N,GND*%
X168812000Y-94775200D03*
D20*
%TO.P,J20,2,Pin_2*%
X168812000Y-92235200D03*
%TO.P,J20,3,Pin_3*%
%TO.N,/A0*%
X171352000Y-94775200D03*
%TO.P,J20,4,Pin_4*%
%TO.N,/A1*%
X171352000Y-92235200D03*
%TO.P,J20,5,Pin_5*%
%TO.N,+3.3V*%
X173892000Y-94775200D03*
%TO.P,J20,6,Pin_6*%
X173892000Y-92235200D03*
%TD*%
D13*
%TO.P,J23,1,Pin_1*%
%TO.N,Net-(J23-Pin_1)*%
X120002000Y-114660000D03*
%TO.P,J23,2,Pin_2*%
%TO.N,GND*%
X126002000Y-114660000D03*
%TD*%
D24*
%TO.N,GND*%
X159962000Y-103660000D03*
X141922000Y-103660000D03*
X150942000Y-105565000D03*
%TD*%
D25*
%TO.N,/A0*%
X137062000Y-93505200D02*
X135792000Y-94775200D01*
X166272000Y-97315200D02*
X163732000Y-94775200D01*
X135792000Y-94775200D02*
X133252000Y-94775200D01*
X158017000Y-93505200D02*
X137062000Y-93505200D01*
X171352000Y-94775200D02*
X171352000Y-96045200D01*
X161192000Y-94775200D02*
X159287000Y-94775200D01*
X163732000Y-94775200D02*
X161192000Y-94775200D01*
X171352000Y-96045200D02*
X170082000Y-97315200D01*
X170082000Y-97315200D02*
X166272000Y-97315200D01*
X159287000Y-94775200D02*
X158017000Y-93505200D01*
%TO.N,/A1*%
X171352000Y-92235200D02*
X171352000Y-90965200D01*
X166272000Y-89695200D02*
X163732000Y-92235200D01*
X170082000Y-89695200D02*
X166272000Y-89695200D01*
X135792000Y-92235200D02*
X133252000Y-92235200D01*
X171352000Y-90965200D02*
X170082000Y-89695200D01*
X163732000Y-92235200D02*
X161192000Y-92235200D01*
X161192000Y-92235200D02*
X159287000Y-92235200D01*
X159287000Y-92235200D02*
X158017000Y-90965200D01*
X137062000Y-90965200D02*
X135792000Y-92235200D01*
X158017000Y-90965200D02*
X137062000Y-90965200D01*
%TO.N,/A2*%
X126002000Y-93770200D02*
X130077000Y-89695200D01*
X126002000Y-98150000D02*
X126002000Y-93770200D01*
X158017000Y-88425200D02*
X159287000Y-89695200D01*
X135792000Y-89695200D02*
X133252000Y-89695200D01*
X130077000Y-89695200D02*
X133252000Y-89695200D01*
D26*
X120002000Y-98150000D02*
X126002000Y-98150000D01*
D25*
X137062000Y-88425200D02*
X135792000Y-89695200D01*
X161192000Y-89695200D02*
X159287000Y-89695200D01*
X158017000Y-88425200D02*
X137062000Y-88425200D01*
%TO.N,/A3*%
X137062000Y-85885200D02*
X135792000Y-87155200D01*
X158017000Y-85885200D02*
X137062000Y-85885200D01*
X161192000Y-87155200D02*
X159287000Y-87155200D01*
X159287000Y-87155200D02*
X158017000Y-85885200D01*
X135792000Y-87155200D02*
X133252000Y-87155200D01*
%TO.N,/A4*%
X158017000Y-83345200D02*
X137062000Y-83345200D01*
X159287000Y-84615200D02*
X158017000Y-83345200D01*
X161192000Y-84615200D02*
X159287000Y-84615200D01*
X135792000Y-84615200D02*
X133252000Y-84615200D01*
X137062000Y-83345200D02*
X135792000Y-84615200D01*
%TO.N,/A5*%
X159287000Y-82075200D02*
X158017000Y-80805200D01*
X135792000Y-82075200D02*
X133252000Y-82075200D01*
X158017000Y-80805200D02*
X137062000Y-80805200D01*
X137062000Y-80805200D02*
X135792000Y-82075200D01*
X161192000Y-82075200D02*
X159287000Y-82075200D01*
%TO.N,/A6*%
X161192000Y-79535200D02*
X159287000Y-79535200D01*
X158017000Y-78265200D02*
X137062000Y-78265200D01*
X159287000Y-79535200D02*
X158017000Y-78265200D01*
X135792000Y-79535200D02*
X133252000Y-79535200D01*
X137062000Y-78265200D02*
X135792000Y-79535200D01*
%TO.N,/D0*%
X135792000Y-76995200D02*
X133252000Y-76995200D01*
X158017000Y-75725200D02*
X137062000Y-75725200D01*
X159287000Y-76995200D02*
X158017000Y-75725200D01*
D27*
X166272000Y-76995200D02*
X161192000Y-76995200D01*
D25*
X137062000Y-75725200D02*
X135792000Y-76995200D01*
X161192000Y-76995200D02*
X159287000Y-76995200D01*
%TO.N,/D1*%
X161192000Y-74455200D02*
X159287000Y-74455200D01*
D27*
X166272000Y-74455200D02*
X161192000Y-74455200D01*
D25*
X159287000Y-74455200D02*
X158017000Y-73185200D01*
X137062000Y-73185200D02*
X135792000Y-74455200D01*
X158017000Y-73185200D02*
X137062000Y-73185200D01*
X135792000Y-74455200D02*
X133252000Y-74455200D01*
%TO.N,/D2*%
X135792000Y-71915200D02*
X133252000Y-71915200D01*
X137062000Y-70645200D02*
X135792000Y-71915200D01*
X159287000Y-71915200D02*
X158017000Y-70645200D01*
X161192000Y-71915200D02*
X159287000Y-71915200D01*
X158017000Y-70645200D02*
X137062000Y-70645200D01*
D27*
X166272000Y-71915200D02*
X161192000Y-71915200D01*
D25*
%TO.N,/D3*%
X137062000Y-68105200D02*
X135792000Y-69375200D01*
X161192000Y-69375200D02*
X159287000Y-69375200D01*
X158017000Y-68105200D02*
X137062000Y-68105200D01*
X135792000Y-69375200D02*
X133252000Y-69375200D01*
D27*
X166272000Y-69375200D02*
X161192000Y-69375200D01*
D25*
X159287000Y-69375200D02*
X158017000Y-68105200D01*
%TO.N,/D4*%
X135792000Y-66835200D02*
X133252000Y-66835200D01*
X161192000Y-66835200D02*
X159287000Y-66835200D01*
X158017000Y-65565200D02*
X137062000Y-65565200D01*
X159287000Y-66835200D02*
X158017000Y-65565200D01*
X137062000Y-65565200D02*
X135792000Y-66835200D01*
D27*
X166272000Y-66835200D02*
X161192000Y-66835200D01*
D25*
%TO.N,/D5*%
X133252000Y-64295200D02*
X135792000Y-64295200D01*
X158017000Y-63025200D02*
X159287000Y-64295200D01*
D27*
X166272000Y-64295200D02*
X161192000Y-64295200D01*
D25*
X159287000Y-64295200D02*
X161192000Y-64295200D01*
X137062000Y-63025200D02*
X158017000Y-63025200D01*
X135792000Y-64295200D02*
X137062000Y-63025200D01*
%TO.N,/D6*%
X112932000Y-64295200D02*
X114202000Y-65565200D01*
X137062000Y-64295200D02*
X140872000Y-64295200D01*
X114202000Y-65565200D02*
X135792000Y-65565200D01*
X135792000Y-65565200D02*
X137062000Y-64295200D01*
%TO.N,/D7*%
X112932000Y-66835200D02*
X114202000Y-68105200D01*
X114202000Y-68105200D02*
X135792000Y-68105200D01*
X137062000Y-66835200D02*
X140872000Y-66835200D01*
X135792000Y-68105200D02*
X137062000Y-66835200D01*
%TO.N,/D8*%
X135792000Y-70645200D02*
X137062000Y-69375200D01*
X112932000Y-69375200D02*
X114202000Y-70645200D01*
X114202000Y-70645200D02*
X135792000Y-70645200D01*
X137062000Y-69375200D02*
X140872000Y-69375200D01*
%TO.N,/D9*%
X114202000Y-73185200D02*
X135792000Y-73185200D01*
X112932000Y-71915200D02*
X114202000Y-73185200D01*
X135792000Y-73185200D02*
X137062000Y-71915200D01*
X137062000Y-71915200D02*
X140872000Y-71915200D01*
%TO.N,/D10*%
X135792000Y-75725200D02*
X137062000Y-74455200D01*
X137062000Y-74455200D02*
X140872000Y-74455200D01*
X112932000Y-74455200D02*
X114202000Y-75725200D01*
X114202000Y-75725200D02*
X135792000Y-75725200D01*
%TO.N,/D11*%
X112932000Y-76995200D02*
X114202000Y-78265200D01*
X114202000Y-78265200D02*
X135792000Y-78265200D01*
X135792000Y-78265200D02*
X137062000Y-76995200D01*
X137062000Y-76995200D02*
X140872000Y-76995200D01*
%TO.N,/D12*%
X114202000Y-80805200D02*
X135792000Y-80805200D01*
X137062000Y-79535200D02*
X140872000Y-79535200D01*
X112932000Y-79535200D02*
X114202000Y-80805200D01*
X135792000Y-80805200D02*
X137062000Y-79535200D01*
%TO.N,/D13*%
X112932000Y-82075200D02*
X114202000Y-83345200D01*
X140872000Y-82075200D02*
X137062000Y-82075200D01*
X135792000Y-83345200D02*
X137062000Y-82075200D01*
X114202000Y-83345200D02*
X135792000Y-83345200D01*
%TO.N,/D14*%
X112932000Y-84615200D02*
X114202000Y-85885200D01*
X137062000Y-84615200D02*
X140872000Y-84615200D01*
X135792000Y-85885200D02*
X137062000Y-84615200D01*
X114202000Y-85885200D02*
X135792000Y-85885200D01*
D26*
%TO.N,GND*%
X126002000Y-108310000D02*
X126002000Y-114660000D01*
D27*
X159962000Y-103660000D02*
X158692000Y-103660000D01*
X150942000Y-103660000D02*
X150942000Y-105565000D01*
X141922000Y-103660000D02*
X143192000Y-103660000D01*
D25*
%TO.N,/RST*%
X176437000Y-109430000D02*
X176437000Y-115930000D01*
X140872000Y-87155200D02*
X158017000Y-87155200D01*
X137062000Y-87155200D02*
X135792000Y-88425200D01*
X176437000Y-109430000D02*
X176437000Y-89700200D01*
X176437000Y-89700200D02*
X175162000Y-88425200D01*
X175162000Y-88425200D02*
X159287000Y-88425200D01*
X159287000Y-88425200D02*
X158017000Y-87155200D01*
X114202000Y-88425200D02*
X112932000Y-87155200D01*
X135792000Y-88425200D02*
X114202000Y-88425200D01*
X140872000Y-87155200D02*
X137062000Y-87155200D01*
D27*
%TO.N,DATA*%
X200182000Y-66835200D02*
X200182000Y-74455200D01*
X200182000Y-74455200D02*
X200182000Y-82075200D01*
X187482000Y-89695200D02*
X187482000Y-97315200D01*
X200182000Y-104935200D02*
X200182000Y-112555200D01*
X198952000Y-47785200D02*
X187522000Y-47785200D01*
X200182000Y-51595200D02*
X200182000Y-59215200D01*
X200182000Y-89695200D02*
X200182000Y-97315200D01*
X187482000Y-97315200D02*
X187482000Y-104935200D01*
X187482000Y-47825200D02*
X187522000Y-47785200D01*
X200182000Y-49015200D02*
X198952000Y-47785200D01*
X173892000Y-52865200D02*
X173892000Y-64295200D01*
X187482000Y-82075200D02*
X187482000Y-89695200D01*
X168812000Y-64295200D02*
X173892000Y-64295200D01*
X200182000Y-97315200D02*
X200182000Y-104935200D01*
X200182000Y-51595200D02*
X200182000Y-49015200D01*
X187522000Y-47785200D02*
X178972000Y-47785200D01*
X187482000Y-66835200D02*
X187482000Y-74455200D01*
X187482000Y-74455200D02*
X187482000Y-82075200D01*
X187482000Y-51720000D02*
X187482000Y-47825200D01*
X187482000Y-59215200D02*
X187482000Y-66835200D01*
X200182000Y-82075200D02*
X200182000Y-89695200D01*
X187482000Y-51720000D02*
X187482000Y-59215200D01*
X168812000Y-64295200D02*
X168812000Y-76995200D01*
X178972000Y-47785200D02*
X173892000Y-52865200D01*
X187482000Y-104935200D02*
X187482000Y-112555200D01*
X200182000Y-59215200D02*
X200182000Y-66835200D01*
D26*
%TO.N,Net-(J23-Pin_1)*%
X112932000Y-101240000D02*
X120002000Y-108310000D01*
X120002000Y-108310000D02*
X120002000Y-114660000D01*
X112932000Y-97315200D02*
X112932000Y-101240000D01*
D27*
%TO.N,Net-(J21-Pin_1)*%
X147942000Y-103660000D02*
X146142000Y-103660000D01*
X147942000Y-114660000D02*
X147942000Y-103660000D01*
X148642000Y-103660000D02*
X147942000Y-103660000D01*
%TO.N,Net-(U1-OUT)*%
X152242000Y-100660000D02*
X153242000Y-101660000D01*
X147942000Y-100660000D02*
X152242000Y-100660000D01*
X153242000Y-103660000D02*
X155742000Y-103660000D01*
X142057200Y-94775200D02*
X147942000Y-100660000D01*
X153242000Y-101660000D02*
X153242000Y-103660000D01*
X140872000Y-94775200D02*
X142057200Y-94775200D01*
%TD*%
M02*
