%TF.GenerationSoftware,KiCad,Pcbnew,7.0.10-1.fc39*%
%TF.CreationDate,2024-03-03T09:54:11-06:00*%
%TF.ProjectId,mkr-sensor-shield-with-modem,6d6b722d-7365-46e7-936f-722d73686965,rev?*%
%TF.SameCoordinates,Original*%
%TF.FileFunction,Legend,Bot*%
%TF.FilePolarity,Positive*%
%FSLAX46Y46*%
G04 Gerber Fmt 4.6, Leading zero omitted, Abs format (unit mm)*
G04 Created by KiCad (PCBNEW 7.0.10-1.fc39) date 2024-03-03 09:54:11*
%MOMM*%
%LPD*%
G01*
G04 APERTURE LIST*
%ADD10C,0.150000*%
G04 APERTURE END LIST*
D10*
X131801819Y-76257105D02*
X130801819Y-76257105D01*
X130801819Y-76257105D02*
X130801819Y-76495200D01*
X130801819Y-76495200D02*
X130849438Y-76638057D01*
X130849438Y-76638057D02*
X130944676Y-76733295D01*
X130944676Y-76733295D02*
X131039914Y-76780914D01*
X131039914Y-76780914D02*
X131230390Y-76828533D01*
X131230390Y-76828533D02*
X131373247Y-76828533D01*
X131373247Y-76828533D02*
X131563723Y-76780914D01*
X131563723Y-76780914D02*
X131658961Y-76733295D01*
X131658961Y-76733295D02*
X131754200Y-76638057D01*
X131754200Y-76638057D02*
X131801819Y-76495200D01*
X131801819Y-76495200D02*
X131801819Y-76257105D01*
X130801819Y-77447581D02*
X130801819Y-77542819D01*
X130801819Y-77542819D02*
X130849438Y-77638057D01*
X130849438Y-77638057D02*
X130897057Y-77685676D01*
X130897057Y-77685676D02*
X130992295Y-77733295D01*
X130992295Y-77733295D02*
X131182771Y-77780914D01*
X131182771Y-77780914D02*
X131420866Y-77780914D01*
X131420866Y-77780914D02*
X131611342Y-77733295D01*
X131611342Y-77733295D02*
X131706580Y-77685676D01*
X131706580Y-77685676D02*
X131754200Y-77638057D01*
X131754200Y-77638057D02*
X131801819Y-77542819D01*
X131801819Y-77542819D02*
X131801819Y-77447581D01*
X131801819Y-77447581D02*
X131754200Y-77352343D01*
X131754200Y-77352343D02*
X131706580Y-77304724D01*
X131706580Y-77304724D02*
X131611342Y-77257105D01*
X131611342Y-77257105D02*
X131420866Y-77209486D01*
X131420866Y-77209486D02*
X131182771Y-77209486D01*
X131182771Y-77209486D02*
X130992295Y-77257105D01*
X130992295Y-77257105D02*
X130897057Y-77304724D01*
X130897057Y-77304724D02*
X130849438Y-77352343D01*
X130849438Y-77352343D02*
X130801819Y-77447581D01*
X159741819Y-76257105D02*
X158741819Y-76257105D01*
X158741819Y-76257105D02*
X158741819Y-76495200D01*
X158741819Y-76495200D02*
X158789438Y-76638057D01*
X158789438Y-76638057D02*
X158884676Y-76733295D01*
X158884676Y-76733295D02*
X158979914Y-76780914D01*
X158979914Y-76780914D02*
X159170390Y-76828533D01*
X159170390Y-76828533D02*
X159313247Y-76828533D01*
X159313247Y-76828533D02*
X159503723Y-76780914D01*
X159503723Y-76780914D02*
X159598961Y-76733295D01*
X159598961Y-76733295D02*
X159694200Y-76638057D01*
X159694200Y-76638057D02*
X159741819Y-76495200D01*
X159741819Y-76495200D02*
X159741819Y-76257105D01*
X158741819Y-77447581D02*
X158741819Y-77542819D01*
X158741819Y-77542819D02*
X158789438Y-77638057D01*
X158789438Y-77638057D02*
X158837057Y-77685676D01*
X158837057Y-77685676D02*
X158932295Y-77733295D01*
X158932295Y-77733295D02*
X159122771Y-77780914D01*
X159122771Y-77780914D02*
X159360866Y-77780914D01*
X159360866Y-77780914D02*
X159551342Y-77733295D01*
X159551342Y-77733295D02*
X159646580Y-77685676D01*
X159646580Y-77685676D02*
X159694200Y-77638057D01*
X159694200Y-77638057D02*
X159741819Y-77542819D01*
X159741819Y-77542819D02*
X159741819Y-77447581D01*
X159741819Y-77447581D02*
X159694200Y-77352343D01*
X159694200Y-77352343D02*
X159646580Y-77304724D01*
X159646580Y-77304724D02*
X159551342Y-77257105D01*
X159551342Y-77257105D02*
X159360866Y-77209486D01*
X159360866Y-77209486D02*
X159122771Y-77209486D01*
X159122771Y-77209486D02*
X158932295Y-77257105D01*
X158932295Y-77257105D02*
X158837057Y-77304724D01*
X158837057Y-77304724D02*
X158789438Y-77352343D01*
X158789438Y-77352343D02*
X158741819Y-77447581D01*
M02*
