M48
; DRILL file {KiCad 7.0.10-1.fc39} date Sun 03 Mar 2024 09:54:32 AM CST
; FORMAT={-:-/ absolute / metric / decimal}
; #@! TF.CreationDate,2024-03-03T09:54:32-06:00
; #@! TF.GenerationSoftware,Kicad,Pcbnew,7.0.10-1.fc39
; #@! TF.FileFunction,Plated,1,2,PTH
FMAT,2
METRIC
; #@! TA.AperFunction,Plated,PTH,ViaDrill
T1C0.400
; #@! TA.AperFunction,Plated,PTH,ComponentDrill
T2C0.800
; #@! TA.AperFunction,Plated,PTH,ComponentDrill
T3C0.950
; #@! TA.AperFunction,Plated,PTH,ComponentDrill
T4C1.000
; #@! TA.AperFunction,Plated,PTH,ComponentDrill
T5C1.016
; #@! TA.AperFunction,Plated,PTH,ComponentDrill
T6C1.100
; #@! TA.AperFunction,Plated,PTH,ComponentDrill
T7C1.500
%
G90
G05
T1
X141.922Y-103.66
X150.942Y-105.565
X159.962Y-103.66
T2
X120.002Y-98.15
X120.002Y-108.31
X126.002Y-98.15
X126.002Y-108.31
X173.892Y-64.295
X173.892Y-74.455
T3
X184.982Y-51.72
X184.982Y-59.215
X184.982Y-66.835
X184.982Y-74.455
X184.982Y-82.075
X184.982Y-89.695
X184.982Y-97.315
X184.982Y-104.935
X184.982Y-112.555
X187.482Y-51.72
X187.482Y-59.215
X187.482Y-66.835
X187.482Y-74.455
X187.482Y-82.075
X187.482Y-89.695
X187.482Y-97.315
X187.482Y-104.935
X187.482Y-112.555
X189.982Y-51.72
X189.982Y-59.215
X189.982Y-66.835
X189.982Y-74.455
X189.982Y-82.075
X189.982Y-89.695
X189.982Y-97.315
X189.982Y-104.935
X189.982Y-112.555
X197.682Y-51.595
X197.682Y-59.215
X197.682Y-66.835
X197.682Y-74.455
X197.682Y-82.075
X197.682Y-89.695
X197.682Y-97.315
X197.682Y-104.935
X197.682Y-112.555
X200.182Y-51.595
X200.182Y-59.215
X200.182Y-66.835
X200.182Y-74.455
X200.182Y-82.075
X200.182Y-89.695
X200.182Y-97.315
X200.182Y-104.935
X200.182Y-112.555
X202.682Y-51.595
X202.682Y-59.215
X202.682Y-66.835
X202.682Y-74.455
X202.682Y-82.075
X202.682Y-89.695
X202.682Y-97.315
X202.682Y-104.935
X202.682Y-112.555
T4
X166.272Y-64.295
X166.272Y-66.835
X166.272Y-69.375
X166.272Y-71.915
X166.272Y-74.455
X166.272Y-76.995
X168.812Y-64.295
X168.812Y-66.835
X168.812Y-69.375
X168.812Y-71.915
X168.812Y-74.455
X168.812Y-76.995
X168.812Y-92.235
X168.812Y-94.775
X171.352Y-92.235
X171.352Y-94.775
X173.892Y-92.235
X173.892Y-94.775
T5
X112.932Y-64.295
X112.932Y-66.835
X112.932Y-69.375
X112.932Y-71.915
X112.932Y-74.455
X112.932Y-76.995
X112.932Y-79.535
X112.932Y-82.075
X112.932Y-84.615
X112.932Y-87.155
X112.932Y-89.695
X112.932Y-92.235
X112.932Y-94.775
X112.932Y-97.315
X133.252Y-64.295
X133.252Y-66.835
X133.252Y-69.375
X133.252Y-71.915
X133.252Y-74.455
X133.252Y-76.995
X133.252Y-79.535
X133.252Y-82.075
X133.252Y-84.615
X133.252Y-87.155
X133.252Y-89.695
X133.252Y-92.235
X133.252Y-94.775
X133.252Y-97.315
X140.872Y-64.295
X140.872Y-66.835
X140.872Y-69.375
X140.872Y-71.915
X140.872Y-74.455
X140.872Y-76.995
X140.872Y-79.535
X140.872Y-82.075
X140.872Y-84.615
X140.872Y-87.155
X140.872Y-89.695
X140.872Y-92.235
X140.872Y-94.775
X140.872Y-97.315
X161.192Y-64.295
X161.192Y-66.835
X161.192Y-69.375
X161.192Y-71.915
X161.192Y-74.455
X161.192Y-76.995
X161.192Y-79.535
X161.192Y-82.075
X161.192Y-84.615
X161.192Y-87.155
X161.192Y-89.695
X161.192Y-92.235
X161.192Y-94.775
X161.192Y-97.315
T6
X171.937Y-109.43
X171.937Y-115.93
X176.437Y-109.43
X176.437Y-115.93
T7
X120.002Y-114.66
X126.002Y-114.66
X147.942Y-114.66
X153.942Y-114.66
M30
