%TF.GenerationSoftware,KiCad,Pcbnew,7.0.10-1.fc39*%
%TF.CreationDate,2024-02-14T22:36:14-06:00*%
%TF.ProjectId,mkr-sensor-shield,6d6b722d-7365-46e7-936f-722d73686965,rev?*%
%TF.SameCoordinates,Original*%
%TF.FileFunction,Copper,L1,Top*%
%TF.FilePolarity,Positive*%
%FSLAX46Y46*%
G04 Gerber Fmt 4.6, Leading zero omitted, Abs format (unit mm)*
G04 Created by KiCad (PCBNEW 7.0.10-1.fc39) date 2024-02-14 22:36:14*
%MOMM*%
%LPD*%
G01*
G04 APERTURE LIST*
G04 Aperture macros list*
%AMRoundRect*
0 Rectangle with rounded corners*
0 $1 Rounding radius*
0 $2 $3 $4 $5 $6 $7 $8 $9 X,Y pos of 4 corners*
0 Add a 4 corners polygon primitive as box body*
4,1,4,$2,$3,$4,$5,$6,$7,$8,$9,$2,$3,0*
0 Add four circle primitives for the rounded corners*
1,1,$1+$1,$2,$3*
1,1,$1+$1,$4,$5*
1,1,$1+$1,$6,$7*
1,1,$1+$1,$8,$9*
0 Add four rect primitives between the rounded corners*
20,1,$1+$1,$2,$3,$4,$5,0*
20,1,$1+$1,$4,$5,$6,$7,0*
20,1,$1+$1,$6,$7,$8,$9,0*
20,1,$1+$1,$8,$9,$2,$3,0*%
G04 Aperture macros list end*
%TA.AperFunction,ComponentPad*%
%ADD10RoundRect,0.250000X0.725000X-0.600000X0.725000X0.600000X-0.725000X0.600000X-0.725000X-0.600000X0*%
%TD*%
%TA.AperFunction,ComponentPad*%
%ADD11O,1.950000X1.700000*%
%TD*%
%TA.AperFunction,ComponentPad*%
%ADD12C,2.000000*%
%TD*%
%TA.AperFunction,ComponentPad*%
%ADD13C,1.727200*%
%TD*%
%TA.AperFunction,ComponentPad*%
%ADD14R,1.727200X1.727200*%
%TD*%
%TA.AperFunction,ComponentPad*%
%ADD15R,1.700000X1.700000*%
%TD*%
%TA.AperFunction,ComponentPad*%
%ADD16O,1.700000X1.700000*%
%TD*%
%TA.AperFunction,ComponentPad*%
%ADD17C,1.600000*%
%TD*%
%TA.AperFunction,ComponentPad*%
%ADD18O,1.600000X1.600000*%
%TD*%
%TA.AperFunction,Conductor*%
%ADD19C,1.000000*%
%TD*%
G04 APERTURE END LIST*
D10*
%TO.P,J5,1,Pin_1*%
%TO.N,+3.3V*%
X164110001Y-141125001D03*
D11*
%TO.P,J5,2,Pin_2*%
%TO.N,DATA*%
X164110001Y-138625001D03*
%TO.P,J5,3,Pin_3*%
%TO.N,GND*%
X164110001Y-136125001D03*
%TD*%
D10*
%TO.P,J10,1,Pin_1*%
%TO.N,+3.3V*%
X143790001Y-128425001D03*
D11*
%TO.P,J10,2,Pin_2*%
%TO.N,DATA*%
X143790001Y-125925001D03*
%TO.P,J10,3,Pin_3*%
%TO.N,GND*%
X143790001Y-123425001D03*
%TD*%
D10*
%TO.P,J18,1,Pin_1*%
%TO.N,+3.3V*%
X153950001Y-115725001D03*
D11*
%TO.P,J18,2,Pin_2*%
%TO.N,DATA*%
X153950001Y-113225001D03*
%TO.P,J18,3,Pin_3*%
%TO.N,GND*%
X153950001Y-110725001D03*
%TD*%
D10*
%TO.P,J15,1,Pin_1*%
%TO.N,+3.3V*%
X184430001Y-115725001D03*
D11*
%TO.P,J15,2,Pin_2*%
%TO.N,DATA*%
X184430001Y-113225001D03*
%TO.P,J15,3,Pin_3*%
%TO.N,GND*%
X184430001Y-110725001D03*
%TD*%
D12*
%TO.P,SW1,1,1*%
%TO.N,Net-(A1-RESET)*%
X139804801Y-83335001D03*
X146304801Y-83335001D03*
%TO.P,SW1,2,2*%
%TO.N,GND*%
X139804801Y-87835001D03*
X146304801Y-87835001D03*
%TD*%
D10*
%TO.P,J7,1,Pin_1*%
%TO.N,+3.3V*%
X184430001Y-141125001D03*
D11*
%TO.P,J7,2,Pin_2*%
%TO.N,DATA*%
X184430001Y-138625001D03*
%TO.P,J7,3,Pin_3*%
%TO.N,GND*%
X184430001Y-136125001D03*
%TD*%
D10*
%TO.P,J9,1,Pin_1*%
%TO.N,+3.3V*%
X133630001Y-128425001D03*
D11*
%TO.P,J9,2,Pin_2*%
%TO.N,DATA*%
X133630001Y-125925001D03*
%TO.P,J9,3,Pin_3*%
%TO.N,GND*%
X133630001Y-123425001D03*
%TD*%
D10*
%TO.P,J16,1,Pin_1*%
%TO.N,+3.3V*%
X133630001Y-115725001D03*
D11*
%TO.P,J16,2,Pin_2*%
%TO.N,DATA*%
X133630001Y-113225001D03*
%TO.P,J16,3,Pin_3*%
%TO.N,GND*%
X133630001Y-110725001D03*
%TD*%
D10*
%TO.P,J6,1,Pin_1*%
%TO.N,+3.3V*%
X174270001Y-141125001D03*
D11*
%TO.P,J6,2,Pin_2*%
%TO.N,DATA*%
X174270001Y-138625001D03*
%TO.P,J6,3,Pin_3*%
%TO.N,GND*%
X174270001Y-136125001D03*
%TD*%
D13*
%TO.P,A1,3V3,3.3V*%
%TO.N,+3.3V*%
X156474801Y-57355001D03*
%TO.P,A1,5V,5V*%
%TO.N,unconnected-(A1-Pad5V)*%
X151394801Y-57355001D03*
%TO.P,A1,A0,A0/DAC*%
%TO.N,Net-(A1-A0{slash}DAC)*%
X153934801Y-77675001D03*
%TO.P,A1,A1,A1*%
%TO.N,Net-(J20-Pin_4)*%
X156474801Y-77675001D03*
%TO.P,A1,A2,A2*%
%TO.N,unconnected-(A1-PadA2)*%
X159014801Y-77675001D03*
%TO.P,A1,A3,A3*%
%TO.N,unconnected-(A1-PadA3)*%
X161554801Y-77675001D03*
%TO.P,A1,A4,A4*%
%TO.N,unconnected-(A1-PadA4)*%
X164094801Y-77675001D03*
%TO.P,A1,A5,A5*%
%TO.N,unconnected-(A1-PadA5)*%
X166634801Y-77675001D03*
%TO.P,A1,A6,A6*%
%TO.N,unconnected-(A1-PadA6)*%
X169174801Y-77675001D03*
%TO.P,A1,AREF,AREF*%
%TO.N,unconnected-(A1-PadAREF)*%
X151394801Y-77675001D03*
%TO.P,A1,D0,D0*%
%TO.N,Net-(J1-Pin_11)*%
X171714801Y-77675001D03*
%TO.P,A1,D1,D1*%
%TO.N,Net-(J1-Pin_9)*%
X174254801Y-77675001D03*
%TO.P,A1,D2,D2*%
%TO.N,Net-(J1-Pin_7)*%
X176794801Y-77675001D03*
%TO.P,A1,D3,D3*%
%TO.N,Net-(J1-Pin_5)*%
X179334801Y-77675001D03*
%TO.P,A1,D4,D4*%
%TO.N,Net-(J1-Pin_3)*%
X181874801Y-77675001D03*
%TO.P,A1,D5,D5*%
%TO.N,Net-(J1-Pin_1)*%
X184414801Y-77675001D03*
%TO.P,A1,D6,D6*%
%TO.N,unconnected-(A1-PadD6)*%
X184414801Y-57355001D03*
%TO.P,A1,D7,D7*%
%TO.N,unconnected-(A1-PadD7)*%
X181874801Y-57355001D03*
%TO.P,A1,D8,D8_MOSI*%
%TO.N,unconnected-(A1-D8_MOSI-PadD8)*%
X179334801Y-57355001D03*
%TO.P,A1,D9,D9_SCK*%
%TO.N,unconnected-(A1-D9_SCK-PadD9)*%
X176794801Y-57355001D03*
%TO.P,A1,D10,D10_MISO*%
%TO.N,unconnected-(A1-D10_MISO-PadD10)*%
X174254801Y-57355001D03*
%TO.P,A1,D11,D11/SDA*%
%TO.N,unconnected-(A1-D11{slash}SDA-PadD11)*%
X171714801Y-57355001D03*
%TO.P,A1,D12,D12/SCL*%
%TO.N,unconnected-(A1-D12{slash}SCL-PadD12)*%
X169174801Y-57355001D03*
%TO.P,A1,D13,D13/RX*%
%TO.N,unconnected-(A1-D13{slash}RX-PadD13)*%
X166634801Y-57355001D03*
%TO.P,A1,D14,D14/TX*%
%TO.N,unconnected-(A1-D14{slash}TX-PadD14)*%
X164094801Y-57355001D03*
D14*
%TO.P,A1,GND,GND*%
%TO.N,GND*%
X159014801Y-57355001D03*
D13*
%TO.P,A1,RST,RESET*%
%TO.N,Net-(A1-RESET)*%
X161554801Y-57355001D03*
%TO.P,A1,VIN,VIN*%
%TO.N,unconnected-(A1-PadVIN)*%
X153934801Y-57355001D03*
%TD*%
D10*
%TO.P,J17,1,Pin_1*%
%TO.N,+3.3V*%
X143790001Y-115725001D03*
D11*
%TO.P,J17,2,Pin_2*%
%TO.N,DATA*%
X143790001Y-113225001D03*
%TO.P,J17,3,Pin_3*%
%TO.N,GND*%
X143790001Y-110725001D03*
%TD*%
D10*
%TO.P,J3,1,Pin_1*%
%TO.N,+3.3V*%
X143790001Y-141125001D03*
D11*
%TO.P,J3,2,Pin_2*%
%TO.N,DATA*%
X143790001Y-138625001D03*
%TO.P,J3,3,Pin_3*%
%TO.N,GND*%
X143790001Y-136125001D03*
%TD*%
D10*
%TO.P,J8,1,Pin_1*%
%TO.N,+3.3V*%
X184430001Y-128425001D03*
D11*
%TO.P,J8,2,Pin_2*%
%TO.N,DATA*%
X184430001Y-125925001D03*
%TO.P,J8,3,Pin_3*%
%TO.N,GND*%
X184430001Y-123425001D03*
%TD*%
D10*
%TO.P,J2,1,Pin_1*%
%TO.N,+3.3V*%
X133630001Y-141125001D03*
D11*
%TO.P,J2,2,Pin_2*%
%TO.N,DATA*%
X133630001Y-138625001D03*
%TO.P,J2,3,Pin_3*%
%TO.N,GND*%
X133630001Y-136125001D03*
%TD*%
D10*
%TO.P,J14,1,Pin_1*%
%TO.N,+3.3V*%
X174270001Y-115725001D03*
D11*
%TO.P,J14,2,Pin_2*%
%TO.N,DATA*%
X174270001Y-113225001D03*
%TO.P,J14,3,Pin_3*%
%TO.N,GND*%
X174270001Y-110725001D03*
%TD*%
D10*
%TO.P,J19,1,Pin_1*%
%TO.N,+3.3V*%
X164110001Y-115725001D03*
D11*
%TO.P,J19,2,Pin_2*%
%TO.N,DATA*%
X164110001Y-113225001D03*
%TO.P,J19,3,Pin_3*%
%TO.N,GND*%
X164110001Y-110725001D03*
%TD*%
D15*
%TO.P,J1,1,Pin_1*%
%TO.N,Net-(J1-Pin_1)*%
X184414801Y-82755001D03*
D16*
%TO.P,J1,2,Pin_2*%
%TO.N,DATA*%
X184414801Y-85295001D03*
%TO.P,J1,3,Pin_3*%
%TO.N,Net-(J1-Pin_3)*%
X181874801Y-82755001D03*
%TO.P,J1,4,Pin_4*%
%TO.N,DATA*%
X181874801Y-85295001D03*
%TO.P,J1,5,Pin_5*%
%TO.N,Net-(J1-Pin_5)*%
X179334801Y-82755001D03*
%TO.P,J1,6,Pin_6*%
%TO.N,DATA*%
X179334801Y-85295001D03*
%TO.P,J1,7,Pin_7*%
%TO.N,Net-(J1-Pin_7)*%
X176794801Y-82755001D03*
%TO.P,J1,8,Pin_8*%
%TO.N,DATA*%
X176794801Y-85295001D03*
%TO.P,J1,9,Pin_9*%
%TO.N,Net-(J1-Pin_9)*%
X174254801Y-82755001D03*
%TO.P,J1,10,Pin_10*%
%TO.N,DATA*%
X174254801Y-85295001D03*
%TO.P,J1,11,Pin_11*%
%TO.N,Net-(J1-Pin_11)*%
X171714801Y-82755001D03*
%TO.P,J1,12,Pin_12*%
%TO.N,DATA*%
X171714801Y-85295001D03*
%TD*%
D10*
%TO.P,J12,1,Pin_1*%
%TO.N,+3.3V*%
X164110001Y-128425001D03*
D11*
%TO.P,J12,2,Pin_2*%
%TO.N,DATA*%
X164110001Y-125925001D03*
%TO.P,J12,3,Pin_3*%
%TO.N,GND*%
X164110001Y-123425001D03*
%TD*%
D10*
%TO.P,J11,1,Pin_1*%
%TO.N,+3.3V*%
X153950001Y-128425001D03*
D11*
%TO.P,J11,2,Pin_2*%
%TO.N,DATA*%
X153950001Y-125925001D03*
%TO.P,J11,3,Pin_3*%
%TO.N,GND*%
X153950001Y-123425001D03*
%TD*%
D10*
%TO.P,J4,1,Pin_1*%
%TO.N,+3.3V*%
X153950001Y-141125001D03*
D11*
%TO.P,J4,2,Pin_2*%
%TO.N,DATA*%
X153950001Y-138625001D03*
%TO.P,J4,3,Pin_3*%
%TO.N,GND*%
X153950001Y-136125001D03*
%TD*%
D17*
%TO.P,R1,1*%
%TO.N,DATA*%
X184404801Y-90375001D03*
D18*
%TO.P,R1,2*%
%TO.N,+3.3V*%
X174244801Y-90375001D03*
%TD*%
D10*
%TO.P,J13,1,Pin_1*%
%TO.N,+3.3V*%
X174270001Y-128425001D03*
D11*
%TO.P,J13,2,Pin_2*%
%TO.N,DATA*%
X174270001Y-125925001D03*
%TO.P,J13,3,Pin_3*%
%TO.N,GND*%
X174270001Y-123425001D03*
%TD*%
D15*
%TO.P,J20,1,Pin_1*%
%TO.N,GND*%
X153924801Y-85295001D03*
D16*
%TO.P,J20,2,Pin_2*%
X156464801Y-85295001D03*
%TO.P,J20,3,Pin_3*%
%TO.N,Net-(A1-A0{slash}DAC)*%
X153924801Y-87835001D03*
%TO.P,J20,4,Pin_4*%
%TO.N,Net-(J20-Pin_4)*%
X156464801Y-87835001D03*
%TO.P,J20,5,Pin_5*%
%TO.N,+3.3V*%
X153924801Y-90375001D03*
%TO.P,J20,6,Pin_6*%
X156464801Y-90375001D03*
%TD*%
D19*
%TO.N,+3.3V*%
X136170001Y-84025001D02*
X136170001Y-87835001D01*
X128550001Y-128425001D02*
X128550001Y-115725001D01*
X136170001Y-87835001D02*
X136170001Y-90375001D01*
X181890001Y-128425001D02*
X184430001Y-128425001D01*
X128590001Y-108105001D02*
X136170001Y-100525001D01*
X136170001Y-90375001D02*
X136170001Y-100525001D01*
X136170001Y-80189801D02*
X136170001Y-80215001D01*
X181890001Y-115725001D02*
X184430001Y-115725001D01*
X128550001Y-128425001D02*
X181890001Y-128425001D01*
X136170001Y-80215001D02*
X136170001Y-84025001D01*
X128550001Y-108105001D02*
X128590001Y-108105001D01*
X128550001Y-128425001D02*
X128550001Y-141125001D01*
X156474801Y-59885001D02*
X136170001Y-80189801D01*
X156474801Y-57355001D02*
X156474801Y-59885001D01*
X128550001Y-141125001D02*
X184430001Y-141125001D01*
X174244801Y-90375001D02*
X153924801Y-90375001D01*
X153924801Y-90375001D02*
X136170001Y-90375001D01*
X128550001Y-115725001D02*
X181890001Y-115725001D01*
X128550001Y-115725001D02*
X128550001Y-108105001D01*
%TO.N,Net-(A1-A0{slash}DAC)*%
X153934801Y-80205001D02*
X151384801Y-82755001D01*
X151384801Y-82755001D02*
X151384801Y-87835001D01*
X151384801Y-87835001D02*
X153924801Y-87835001D01*
X153934801Y-77675001D02*
X153934801Y-80205001D01*
%TO.N,Net-(J20-Pin_4)*%
X156464801Y-80215001D02*
X159004801Y-82755001D01*
X159004801Y-82755001D02*
X159004801Y-87835001D01*
X156474801Y-77675001D02*
X156474801Y-80205001D01*
X156474801Y-80205001D02*
X156464801Y-80215001D01*
X159004801Y-87835001D02*
X156464801Y-87835001D01*
%TO.N,Net-(J1-Pin_1)*%
X184414801Y-77675001D02*
X184414801Y-82755001D01*
%TO.N,Net-(J1-Pin_3)*%
X181874801Y-77675001D02*
X181874801Y-82755001D01*
%TO.N,Net-(J1-Pin_5)*%
X179334801Y-77675001D02*
X179334801Y-82755001D01*
%TO.N,Net-(J1-Pin_7)*%
X176794801Y-77675001D02*
X176794801Y-82755001D01*
%TO.N,Net-(J1-Pin_9)*%
X174254801Y-77675001D02*
X174254801Y-82755001D01*
%TO.N,Net-(J1-Pin_11)*%
X171714801Y-77675001D02*
X171714801Y-82755001D01*
%TO.N,Net-(A1-RESET)*%
X161554801Y-59885001D02*
X146304801Y-75135001D01*
X139804801Y-83335001D02*
X146304801Y-83335001D01*
X139804801Y-81635001D02*
X139804801Y-83335001D01*
X161554801Y-57355001D02*
X161554801Y-59885001D01*
X146304801Y-75135001D02*
X139804801Y-81635001D01*
%TO.N,DATA*%
X192050001Y-113225001D02*
X192050001Y-108145001D01*
X171714801Y-85295001D02*
X184414801Y-85295001D01*
X133630001Y-125925001D02*
X192050001Y-125925001D01*
X192050001Y-113225001D02*
X192050001Y-125925001D01*
X184414801Y-100509801D02*
X184414801Y-85295001D01*
X133630001Y-138625001D02*
X192050001Y-138625001D01*
X192050001Y-138625001D02*
X192050001Y-125925001D01*
X192050001Y-108145001D02*
X184414801Y-100509801D01*
X133630001Y-113225001D02*
X192050001Y-113225001D01*
%TD*%
M02*
