%TF.GenerationSoftware,KiCad,Pcbnew,7.0.10-1.fc39*%
%TF.CreationDate,2024-02-14T22:36:16-06:00*%
%TF.ProjectId,mkr-sensor-shield,6d6b722d-7365-46e7-936f-722d73686965,rev?*%
%TF.SameCoordinates,Original*%
%TF.FileFunction,AssemblyDrawing,Top*%
%FSLAX46Y46*%
G04 Gerber Fmt 4.6, Leading zero omitted, Abs format (unit mm)*
G04 Created by KiCad (PCBNEW 7.0.10-1.fc39) date 2024-02-14 22:36:16*
%MOMM*%
%LPD*%
G01*
G04 APERTURE LIST*
%ADD10C,0.150000*%
%ADD11C,0.075000*%
%ADD12C,0.100000*%
G04 APERTURE END LIST*
D10*
X169069581Y-143934525D02*
X169117201Y-143982144D01*
X169117201Y-143982144D02*
X169164820Y-144125001D01*
X169164820Y-144125001D02*
X169164820Y-144220239D01*
X169164820Y-144220239D02*
X169117201Y-144363096D01*
X169117201Y-144363096D02*
X169021962Y-144458334D01*
X169021962Y-144458334D02*
X168926724Y-144505953D01*
X168926724Y-144505953D02*
X168736248Y-144553572D01*
X168736248Y-144553572D02*
X168593391Y-144553572D01*
X168593391Y-144553572D02*
X168402915Y-144505953D01*
X168402915Y-144505953D02*
X168307677Y-144458334D01*
X168307677Y-144458334D02*
X168212439Y-144363096D01*
X168212439Y-144363096D02*
X168164820Y-144220239D01*
X168164820Y-144220239D02*
X168164820Y-144125001D01*
X168164820Y-144125001D02*
X168212439Y-143982144D01*
X168212439Y-143982144D02*
X168260058Y-143934525D01*
X169164820Y-143363096D02*
X169117201Y-143458334D01*
X169117201Y-143458334D02*
X169069581Y-143505953D01*
X169069581Y-143505953D02*
X168974343Y-143553572D01*
X168974343Y-143553572D02*
X168688629Y-143553572D01*
X168688629Y-143553572D02*
X168593391Y-143505953D01*
X168593391Y-143505953D02*
X168545772Y-143458334D01*
X168545772Y-143458334D02*
X168498153Y-143363096D01*
X168498153Y-143363096D02*
X168498153Y-143220239D01*
X168498153Y-143220239D02*
X168545772Y-143125001D01*
X168545772Y-143125001D02*
X168593391Y-143077382D01*
X168593391Y-143077382D02*
X168688629Y-143029763D01*
X168688629Y-143029763D02*
X168974343Y-143029763D01*
X168974343Y-143029763D02*
X169069581Y-143077382D01*
X169069581Y-143077382D02*
X169117201Y-143125001D01*
X169117201Y-143125001D02*
X169164820Y-143220239D01*
X169164820Y-143220239D02*
X169164820Y-143363096D01*
X168498153Y-142601191D02*
X169164820Y-142601191D01*
X168593391Y-142601191D02*
X168545772Y-142553572D01*
X168545772Y-142553572D02*
X168498153Y-142458334D01*
X168498153Y-142458334D02*
X168498153Y-142315477D01*
X168498153Y-142315477D02*
X168545772Y-142220239D01*
X168545772Y-142220239D02*
X168641010Y-142172620D01*
X168641010Y-142172620D02*
X169164820Y-142172620D01*
X168498153Y-141696429D02*
X169164820Y-141696429D01*
X168593391Y-141696429D02*
X168545772Y-141648810D01*
X168545772Y-141648810D02*
X168498153Y-141553572D01*
X168498153Y-141553572D02*
X168498153Y-141410715D01*
X168498153Y-141410715D02*
X168545772Y-141315477D01*
X168545772Y-141315477D02*
X168641010Y-141267858D01*
X168641010Y-141267858D02*
X169164820Y-141267858D01*
X169260058Y-141029763D02*
X169260058Y-140267858D01*
X168164820Y-139839286D02*
X168164820Y-139744048D01*
X168164820Y-139744048D02*
X168212439Y-139648810D01*
X168212439Y-139648810D02*
X168260058Y-139601191D01*
X168260058Y-139601191D02*
X168355296Y-139553572D01*
X168355296Y-139553572D02*
X168545772Y-139505953D01*
X168545772Y-139505953D02*
X168783867Y-139505953D01*
X168783867Y-139505953D02*
X168974343Y-139553572D01*
X168974343Y-139553572D02*
X169069581Y-139601191D01*
X169069581Y-139601191D02*
X169117201Y-139648810D01*
X169117201Y-139648810D02*
X169164820Y-139744048D01*
X169164820Y-139744048D02*
X169164820Y-139839286D01*
X169164820Y-139839286D02*
X169117201Y-139934524D01*
X169117201Y-139934524D02*
X169069581Y-139982143D01*
X169069581Y-139982143D02*
X168974343Y-140029762D01*
X168974343Y-140029762D02*
X168783867Y-140077381D01*
X168783867Y-140077381D02*
X168545772Y-140077381D01*
X168545772Y-140077381D02*
X168355296Y-140029762D01*
X168355296Y-140029762D02*
X168260058Y-139982143D01*
X168260058Y-139982143D02*
X168212439Y-139934524D01*
X168212439Y-139934524D02*
X168164820Y-139839286D01*
X169164820Y-138553572D02*
X169164820Y-139125000D01*
X169164820Y-138839286D02*
X168164820Y-138839286D01*
X168164820Y-138839286D02*
X168307677Y-138934524D01*
X168307677Y-138934524D02*
X168402915Y-139029762D01*
X168402915Y-139029762D02*
X168450534Y-139125000D01*
X169164820Y-138220238D02*
X168498153Y-137696429D01*
X168498153Y-138220238D02*
X169164820Y-137696429D01*
X168164820Y-137125000D02*
X168164820Y-137029762D01*
X168164820Y-137029762D02*
X168212439Y-136934524D01*
X168212439Y-136934524D02*
X168260058Y-136886905D01*
X168260058Y-136886905D02*
X168355296Y-136839286D01*
X168355296Y-136839286D02*
X168545772Y-136791667D01*
X168545772Y-136791667D02*
X168783867Y-136791667D01*
X168783867Y-136791667D02*
X168974343Y-136839286D01*
X168974343Y-136839286D02*
X169069581Y-136886905D01*
X169069581Y-136886905D02*
X169117201Y-136934524D01*
X169117201Y-136934524D02*
X169164820Y-137029762D01*
X169164820Y-137029762D02*
X169164820Y-137125000D01*
X169164820Y-137125000D02*
X169117201Y-137220238D01*
X169117201Y-137220238D02*
X169069581Y-137267857D01*
X169069581Y-137267857D02*
X168974343Y-137315476D01*
X168974343Y-137315476D02*
X168783867Y-137363095D01*
X168783867Y-137363095D02*
X168545772Y-137363095D01*
X168545772Y-137363095D02*
X168355296Y-137315476D01*
X168355296Y-137315476D02*
X168260058Y-137267857D01*
X168260058Y-137267857D02*
X168212439Y-137220238D01*
X168212439Y-137220238D02*
X168164820Y-137125000D01*
X168164820Y-136458333D02*
X168164820Y-135839286D01*
X168164820Y-135839286D02*
X168545772Y-136172619D01*
X168545772Y-136172619D02*
X168545772Y-136029762D01*
X168545772Y-136029762D02*
X168593391Y-135934524D01*
X168593391Y-135934524D02*
X168641010Y-135886905D01*
X168641010Y-135886905D02*
X168736248Y-135839286D01*
X168736248Y-135839286D02*
X168974343Y-135839286D01*
X168974343Y-135839286D02*
X169069581Y-135886905D01*
X169069581Y-135886905D02*
X169117201Y-135934524D01*
X169117201Y-135934524D02*
X169164820Y-136029762D01*
X169164820Y-136029762D02*
X169164820Y-136315476D01*
X169164820Y-136315476D02*
X169117201Y-136410714D01*
X169117201Y-136410714D02*
X169069581Y-136458333D01*
X169260058Y-135648810D02*
X169260058Y-134886905D01*
X169164820Y-134648809D02*
X168164820Y-134648809D01*
X168164820Y-134648809D02*
X168164820Y-134267857D01*
X168164820Y-134267857D02*
X168212439Y-134172619D01*
X168212439Y-134172619D02*
X168260058Y-134125000D01*
X168260058Y-134125000D02*
X168355296Y-134077381D01*
X168355296Y-134077381D02*
X168498153Y-134077381D01*
X168498153Y-134077381D02*
X168593391Y-134125000D01*
X168593391Y-134125000D02*
X168641010Y-134172619D01*
X168641010Y-134172619D02*
X168688629Y-134267857D01*
X168688629Y-134267857D02*
X168688629Y-134648809D01*
X169164820Y-133648809D02*
X168498153Y-133648809D01*
X168164820Y-133648809D02*
X168212439Y-133696428D01*
X168212439Y-133696428D02*
X168260058Y-133648809D01*
X168260058Y-133648809D02*
X168212439Y-133601190D01*
X168212439Y-133601190D02*
X168164820Y-133648809D01*
X168164820Y-133648809D02*
X168260058Y-133648809D01*
X168498153Y-133172619D02*
X169164820Y-133172619D01*
X168593391Y-133172619D02*
X168545772Y-133125000D01*
X168545772Y-133125000D02*
X168498153Y-133029762D01*
X168498153Y-133029762D02*
X168498153Y-132886905D01*
X168498153Y-132886905D02*
X168545772Y-132791667D01*
X168545772Y-132791667D02*
X168641010Y-132744048D01*
X168641010Y-132744048D02*
X169164820Y-132744048D01*
X166264820Y-138958334D02*
X166979105Y-138958334D01*
X166979105Y-138958334D02*
X167121962Y-139005953D01*
X167121962Y-139005953D02*
X167217201Y-139101191D01*
X167217201Y-139101191D02*
X167264820Y-139244048D01*
X167264820Y-139244048D02*
X167264820Y-139339286D01*
X166264820Y-138005953D02*
X166264820Y-138482143D01*
X166264820Y-138482143D02*
X166741010Y-138529762D01*
X166741010Y-138529762D02*
X166693391Y-138482143D01*
X166693391Y-138482143D02*
X166645772Y-138386905D01*
X166645772Y-138386905D02*
X166645772Y-138148810D01*
X166645772Y-138148810D02*
X166693391Y-138053572D01*
X166693391Y-138053572D02*
X166741010Y-138005953D01*
X166741010Y-138005953D02*
X166836248Y-137958334D01*
X166836248Y-137958334D02*
X167074343Y-137958334D01*
X167074343Y-137958334D02*
X167169581Y-138005953D01*
X167169581Y-138005953D02*
X167217201Y-138053572D01*
X167217201Y-138053572D02*
X167264820Y-138148810D01*
X167264820Y-138148810D02*
X167264820Y-138386905D01*
X167264820Y-138386905D02*
X167217201Y-138482143D01*
X167217201Y-138482143D02*
X167169581Y-138529762D01*
X148749581Y-131234525D02*
X148797201Y-131282144D01*
X148797201Y-131282144D02*
X148844820Y-131425001D01*
X148844820Y-131425001D02*
X148844820Y-131520239D01*
X148844820Y-131520239D02*
X148797201Y-131663096D01*
X148797201Y-131663096D02*
X148701962Y-131758334D01*
X148701962Y-131758334D02*
X148606724Y-131805953D01*
X148606724Y-131805953D02*
X148416248Y-131853572D01*
X148416248Y-131853572D02*
X148273391Y-131853572D01*
X148273391Y-131853572D02*
X148082915Y-131805953D01*
X148082915Y-131805953D02*
X147987677Y-131758334D01*
X147987677Y-131758334D02*
X147892439Y-131663096D01*
X147892439Y-131663096D02*
X147844820Y-131520239D01*
X147844820Y-131520239D02*
X147844820Y-131425001D01*
X147844820Y-131425001D02*
X147892439Y-131282144D01*
X147892439Y-131282144D02*
X147940058Y-131234525D01*
X148844820Y-130663096D02*
X148797201Y-130758334D01*
X148797201Y-130758334D02*
X148749581Y-130805953D01*
X148749581Y-130805953D02*
X148654343Y-130853572D01*
X148654343Y-130853572D02*
X148368629Y-130853572D01*
X148368629Y-130853572D02*
X148273391Y-130805953D01*
X148273391Y-130805953D02*
X148225772Y-130758334D01*
X148225772Y-130758334D02*
X148178153Y-130663096D01*
X148178153Y-130663096D02*
X148178153Y-130520239D01*
X148178153Y-130520239D02*
X148225772Y-130425001D01*
X148225772Y-130425001D02*
X148273391Y-130377382D01*
X148273391Y-130377382D02*
X148368629Y-130329763D01*
X148368629Y-130329763D02*
X148654343Y-130329763D01*
X148654343Y-130329763D02*
X148749581Y-130377382D01*
X148749581Y-130377382D02*
X148797201Y-130425001D01*
X148797201Y-130425001D02*
X148844820Y-130520239D01*
X148844820Y-130520239D02*
X148844820Y-130663096D01*
X148178153Y-129901191D02*
X148844820Y-129901191D01*
X148273391Y-129901191D02*
X148225772Y-129853572D01*
X148225772Y-129853572D02*
X148178153Y-129758334D01*
X148178153Y-129758334D02*
X148178153Y-129615477D01*
X148178153Y-129615477D02*
X148225772Y-129520239D01*
X148225772Y-129520239D02*
X148321010Y-129472620D01*
X148321010Y-129472620D02*
X148844820Y-129472620D01*
X148178153Y-128996429D02*
X148844820Y-128996429D01*
X148273391Y-128996429D02*
X148225772Y-128948810D01*
X148225772Y-128948810D02*
X148178153Y-128853572D01*
X148178153Y-128853572D02*
X148178153Y-128710715D01*
X148178153Y-128710715D02*
X148225772Y-128615477D01*
X148225772Y-128615477D02*
X148321010Y-128567858D01*
X148321010Y-128567858D02*
X148844820Y-128567858D01*
X148940058Y-128329763D02*
X148940058Y-127567858D01*
X147844820Y-127139286D02*
X147844820Y-127044048D01*
X147844820Y-127044048D02*
X147892439Y-126948810D01*
X147892439Y-126948810D02*
X147940058Y-126901191D01*
X147940058Y-126901191D02*
X148035296Y-126853572D01*
X148035296Y-126853572D02*
X148225772Y-126805953D01*
X148225772Y-126805953D02*
X148463867Y-126805953D01*
X148463867Y-126805953D02*
X148654343Y-126853572D01*
X148654343Y-126853572D02*
X148749581Y-126901191D01*
X148749581Y-126901191D02*
X148797201Y-126948810D01*
X148797201Y-126948810D02*
X148844820Y-127044048D01*
X148844820Y-127044048D02*
X148844820Y-127139286D01*
X148844820Y-127139286D02*
X148797201Y-127234524D01*
X148797201Y-127234524D02*
X148749581Y-127282143D01*
X148749581Y-127282143D02*
X148654343Y-127329762D01*
X148654343Y-127329762D02*
X148463867Y-127377381D01*
X148463867Y-127377381D02*
X148225772Y-127377381D01*
X148225772Y-127377381D02*
X148035296Y-127329762D01*
X148035296Y-127329762D02*
X147940058Y-127282143D01*
X147940058Y-127282143D02*
X147892439Y-127234524D01*
X147892439Y-127234524D02*
X147844820Y-127139286D01*
X148844820Y-125853572D02*
X148844820Y-126425000D01*
X148844820Y-126139286D02*
X147844820Y-126139286D01*
X147844820Y-126139286D02*
X147987677Y-126234524D01*
X147987677Y-126234524D02*
X148082915Y-126329762D01*
X148082915Y-126329762D02*
X148130534Y-126425000D01*
X148844820Y-125520238D02*
X148178153Y-124996429D01*
X148178153Y-125520238D02*
X148844820Y-124996429D01*
X147844820Y-124425000D02*
X147844820Y-124329762D01*
X147844820Y-124329762D02*
X147892439Y-124234524D01*
X147892439Y-124234524D02*
X147940058Y-124186905D01*
X147940058Y-124186905D02*
X148035296Y-124139286D01*
X148035296Y-124139286D02*
X148225772Y-124091667D01*
X148225772Y-124091667D02*
X148463867Y-124091667D01*
X148463867Y-124091667D02*
X148654343Y-124139286D01*
X148654343Y-124139286D02*
X148749581Y-124186905D01*
X148749581Y-124186905D02*
X148797201Y-124234524D01*
X148797201Y-124234524D02*
X148844820Y-124329762D01*
X148844820Y-124329762D02*
X148844820Y-124425000D01*
X148844820Y-124425000D02*
X148797201Y-124520238D01*
X148797201Y-124520238D02*
X148749581Y-124567857D01*
X148749581Y-124567857D02*
X148654343Y-124615476D01*
X148654343Y-124615476D02*
X148463867Y-124663095D01*
X148463867Y-124663095D02*
X148225772Y-124663095D01*
X148225772Y-124663095D02*
X148035296Y-124615476D01*
X148035296Y-124615476D02*
X147940058Y-124567857D01*
X147940058Y-124567857D02*
X147892439Y-124520238D01*
X147892439Y-124520238D02*
X147844820Y-124425000D01*
X147844820Y-123758333D02*
X147844820Y-123139286D01*
X147844820Y-123139286D02*
X148225772Y-123472619D01*
X148225772Y-123472619D02*
X148225772Y-123329762D01*
X148225772Y-123329762D02*
X148273391Y-123234524D01*
X148273391Y-123234524D02*
X148321010Y-123186905D01*
X148321010Y-123186905D02*
X148416248Y-123139286D01*
X148416248Y-123139286D02*
X148654343Y-123139286D01*
X148654343Y-123139286D02*
X148749581Y-123186905D01*
X148749581Y-123186905D02*
X148797201Y-123234524D01*
X148797201Y-123234524D02*
X148844820Y-123329762D01*
X148844820Y-123329762D02*
X148844820Y-123615476D01*
X148844820Y-123615476D02*
X148797201Y-123710714D01*
X148797201Y-123710714D02*
X148749581Y-123758333D01*
X148940058Y-122948810D02*
X148940058Y-122186905D01*
X148844820Y-121948809D02*
X147844820Y-121948809D01*
X147844820Y-121948809D02*
X147844820Y-121567857D01*
X147844820Y-121567857D02*
X147892439Y-121472619D01*
X147892439Y-121472619D02*
X147940058Y-121425000D01*
X147940058Y-121425000D02*
X148035296Y-121377381D01*
X148035296Y-121377381D02*
X148178153Y-121377381D01*
X148178153Y-121377381D02*
X148273391Y-121425000D01*
X148273391Y-121425000D02*
X148321010Y-121472619D01*
X148321010Y-121472619D02*
X148368629Y-121567857D01*
X148368629Y-121567857D02*
X148368629Y-121948809D01*
X148844820Y-120948809D02*
X148178153Y-120948809D01*
X147844820Y-120948809D02*
X147892439Y-120996428D01*
X147892439Y-120996428D02*
X147940058Y-120948809D01*
X147940058Y-120948809D02*
X147892439Y-120901190D01*
X147892439Y-120901190D02*
X147844820Y-120948809D01*
X147844820Y-120948809D02*
X147940058Y-120948809D01*
X148178153Y-120472619D02*
X148844820Y-120472619D01*
X148273391Y-120472619D02*
X148225772Y-120425000D01*
X148225772Y-120425000D02*
X148178153Y-120329762D01*
X148178153Y-120329762D02*
X148178153Y-120186905D01*
X148178153Y-120186905D02*
X148225772Y-120091667D01*
X148225772Y-120091667D02*
X148321010Y-120044048D01*
X148321010Y-120044048D02*
X148844820Y-120044048D01*
X145944820Y-126734524D02*
X146659105Y-126734524D01*
X146659105Y-126734524D02*
X146801962Y-126782143D01*
X146801962Y-126782143D02*
X146897201Y-126877381D01*
X146897201Y-126877381D02*
X146944820Y-127020238D01*
X146944820Y-127020238D02*
X146944820Y-127115476D01*
X146944820Y-125734524D02*
X146944820Y-126305952D01*
X146944820Y-126020238D02*
X145944820Y-126020238D01*
X145944820Y-126020238D02*
X146087677Y-126115476D01*
X146087677Y-126115476D02*
X146182915Y-126210714D01*
X146182915Y-126210714D02*
X146230534Y-126305952D01*
X145944820Y-125115476D02*
X145944820Y-125020238D01*
X145944820Y-125020238D02*
X145992439Y-124925000D01*
X145992439Y-124925000D02*
X146040058Y-124877381D01*
X146040058Y-124877381D02*
X146135296Y-124829762D01*
X146135296Y-124829762D02*
X146325772Y-124782143D01*
X146325772Y-124782143D02*
X146563867Y-124782143D01*
X146563867Y-124782143D02*
X146754343Y-124829762D01*
X146754343Y-124829762D02*
X146849581Y-124877381D01*
X146849581Y-124877381D02*
X146897201Y-124925000D01*
X146897201Y-124925000D02*
X146944820Y-125020238D01*
X146944820Y-125020238D02*
X146944820Y-125115476D01*
X146944820Y-125115476D02*
X146897201Y-125210714D01*
X146897201Y-125210714D02*
X146849581Y-125258333D01*
X146849581Y-125258333D02*
X146754343Y-125305952D01*
X146754343Y-125305952D02*
X146563867Y-125353571D01*
X146563867Y-125353571D02*
X146325772Y-125353571D01*
X146325772Y-125353571D02*
X146135296Y-125305952D01*
X146135296Y-125305952D02*
X146040058Y-125258333D01*
X146040058Y-125258333D02*
X145992439Y-125210714D01*
X145992439Y-125210714D02*
X145944820Y-125115476D01*
X158909581Y-118534525D02*
X158957201Y-118582144D01*
X158957201Y-118582144D02*
X159004820Y-118725001D01*
X159004820Y-118725001D02*
X159004820Y-118820239D01*
X159004820Y-118820239D02*
X158957201Y-118963096D01*
X158957201Y-118963096D02*
X158861962Y-119058334D01*
X158861962Y-119058334D02*
X158766724Y-119105953D01*
X158766724Y-119105953D02*
X158576248Y-119153572D01*
X158576248Y-119153572D02*
X158433391Y-119153572D01*
X158433391Y-119153572D02*
X158242915Y-119105953D01*
X158242915Y-119105953D02*
X158147677Y-119058334D01*
X158147677Y-119058334D02*
X158052439Y-118963096D01*
X158052439Y-118963096D02*
X158004820Y-118820239D01*
X158004820Y-118820239D02*
X158004820Y-118725001D01*
X158004820Y-118725001D02*
X158052439Y-118582144D01*
X158052439Y-118582144D02*
X158100058Y-118534525D01*
X159004820Y-117963096D02*
X158957201Y-118058334D01*
X158957201Y-118058334D02*
X158909581Y-118105953D01*
X158909581Y-118105953D02*
X158814343Y-118153572D01*
X158814343Y-118153572D02*
X158528629Y-118153572D01*
X158528629Y-118153572D02*
X158433391Y-118105953D01*
X158433391Y-118105953D02*
X158385772Y-118058334D01*
X158385772Y-118058334D02*
X158338153Y-117963096D01*
X158338153Y-117963096D02*
X158338153Y-117820239D01*
X158338153Y-117820239D02*
X158385772Y-117725001D01*
X158385772Y-117725001D02*
X158433391Y-117677382D01*
X158433391Y-117677382D02*
X158528629Y-117629763D01*
X158528629Y-117629763D02*
X158814343Y-117629763D01*
X158814343Y-117629763D02*
X158909581Y-117677382D01*
X158909581Y-117677382D02*
X158957201Y-117725001D01*
X158957201Y-117725001D02*
X159004820Y-117820239D01*
X159004820Y-117820239D02*
X159004820Y-117963096D01*
X158338153Y-117201191D02*
X159004820Y-117201191D01*
X158433391Y-117201191D02*
X158385772Y-117153572D01*
X158385772Y-117153572D02*
X158338153Y-117058334D01*
X158338153Y-117058334D02*
X158338153Y-116915477D01*
X158338153Y-116915477D02*
X158385772Y-116820239D01*
X158385772Y-116820239D02*
X158481010Y-116772620D01*
X158481010Y-116772620D02*
X159004820Y-116772620D01*
X158338153Y-116296429D02*
X159004820Y-116296429D01*
X158433391Y-116296429D02*
X158385772Y-116248810D01*
X158385772Y-116248810D02*
X158338153Y-116153572D01*
X158338153Y-116153572D02*
X158338153Y-116010715D01*
X158338153Y-116010715D02*
X158385772Y-115915477D01*
X158385772Y-115915477D02*
X158481010Y-115867858D01*
X158481010Y-115867858D02*
X159004820Y-115867858D01*
X159100058Y-115629763D02*
X159100058Y-114867858D01*
X158004820Y-114439286D02*
X158004820Y-114344048D01*
X158004820Y-114344048D02*
X158052439Y-114248810D01*
X158052439Y-114248810D02*
X158100058Y-114201191D01*
X158100058Y-114201191D02*
X158195296Y-114153572D01*
X158195296Y-114153572D02*
X158385772Y-114105953D01*
X158385772Y-114105953D02*
X158623867Y-114105953D01*
X158623867Y-114105953D02*
X158814343Y-114153572D01*
X158814343Y-114153572D02*
X158909581Y-114201191D01*
X158909581Y-114201191D02*
X158957201Y-114248810D01*
X158957201Y-114248810D02*
X159004820Y-114344048D01*
X159004820Y-114344048D02*
X159004820Y-114439286D01*
X159004820Y-114439286D02*
X158957201Y-114534524D01*
X158957201Y-114534524D02*
X158909581Y-114582143D01*
X158909581Y-114582143D02*
X158814343Y-114629762D01*
X158814343Y-114629762D02*
X158623867Y-114677381D01*
X158623867Y-114677381D02*
X158385772Y-114677381D01*
X158385772Y-114677381D02*
X158195296Y-114629762D01*
X158195296Y-114629762D02*
X158100058Y-114582143D01*
X158100058Y-114582143D02*
X158052439Y-114534524D01*
X158052439Y-114534524D02*
X158004820Y-114439286D01*
X159004820Y-113153572D02*
X159004820Y-113725000D01*
X159004820Y-113439286D02*
X158004820Y-113439286D01*
X158004820Y-113439286D02*
X158147677Y-113534524D01*
X158147677Y-113534524D02*
X158242915Y-113629762D01*
X158242915Y-113629762D02*
X158290534Y-113725000D01*
X159004820Y-112820238D02*
X158338153Y-112296429D01*
X158338153Y-112820238D02*
X159004820Y-112296429D01*
X158004820Y-111725000D02*
X158004820Y-111629762D01*
X158004820Y-111629762D02*
X158052439Y-111534524D01*
X158052439Y-111534524D02*
X158100058Y-111486905D01*
X158100058Y-111486905D02*
X158195296Y-111439286D01*
X158195296Y-111439286D02*
X158385772Y-111391667D01*
X158385772Y-111391667D02*
X158623867Y-111391667D01*
X158623867Y-111391667D02*
X158814343Y-111439286D01*
X158814343Y-111439286D02*
X158909581Y-111486905D01*
X158909581Y-111486905D02*
X158957201Y-111534524D01*
X158957201Y-111534524D02*
X159004820Y-111629762D01*
X159004820Y-111629762D02*
X159004820Y-111725000D01*
X159004820Y-111725000D02*
X158957201Y-111820238D01*
X158957201Y-111820238D02*
X158909581Y-111867857D01*
X158909581Y-111867857D02*
X158814343Y-111915476D01*
X158814343Y-111915476D02*
X158623867Y-111963095D01*
X158623867Y-111963095D02*
X158385772Y-111963095D01*
X158385772Y-111963095D02*
X158195296Y-111915476D01*
X158195296Y-111915476D02*
X158100058Y-111867857D01*
X158100058Y-111867857D02*
X158052439Y-111820238D01*
X158052439Y-111820238D02*
X158004820Y-111725000D01*
X158004820Y-111058333D02*
X158004820Y-110439286D01*
X158004820Y-110439286D02*
X158385772Y-110772619D01*
X158385772Y-110772619D02*
X158385772Y-110629762D01*
X158385772Y-110629762D02*
X158433391Y-110534524D01*
X158433391Y-110534524D02*
X158481010Y-110486905D01*
X158481010Y-110486905D02*
X158576248Y-110439286D01*
X158576248Y-110439286D02*
X158814343Y-110439286D01*
X158814343Y-110439286D02*
X158909581Y-110486905D01*
X158909581Y-110486905D02*
X158957201Y-110534524D01*
X158957201Y-110534524D02*
X159004820Y-110629762D01*
X159004820Y-110629762D02*
X159004820Y-110915476D01*
X159004820Y-110915476D02*
X158957201Y-111010714D01*
X158957201Y-111010714D02*
X158909581Y-111058333D01*
X159100058Y-110248810D02*
X159100058Y-109486905D01*
X159004820Y-109248809D02*
X158004820Y-109248809D01*
X158004820Y-109248809D02*
X158004820Y-108867857D01*
X158004820Y-108867857D02*
X158052439Y-108772619D01*
X158052439Y-108772619D02*
X158100058Y-108725000D01*
X158100058Y-108725000D02*
X158195296Y-108677381D01*
X158195296Y-108677381D02*
X158338153Y-108677381D01*
X158338153Y-108677381D02*
X158433391Y-108725000D01*
X158433391Y-108725000D02*
X158481010Y-108772619D01*
X158481010Y-108772619D02*
X158528629Y-108867857D01*
X158528629Y-108867857D02*
X158528629Y-109248809D01*
X159004820Y-108248809D02*
X158338153Y-108248809D01*
X158004820Y-108248809D02*
X158052439Y-108296428D01*
X158052439Y-108296428D02*
X158100058Y-108248809D01*
X158100058Y-108248809D02*
X158052439Y-108201190D01*
X158052439Y-108201190D02*
X158004820Y-108248809D01*
X158004820Y-108248809D02*
X158100058Y-108248809D01*
X158338153Y-107772619D02*
X159004820Y-107772619D01*
X158433391Y-107772619D02*
X158385772Y-107725000D01*
X158385772Y-107725000D02*
X158338153Y-107629762D01*
X158338153Y-107629762D02*
X158338153Y-107486905D01*
X158338153Y-107486905D02*
X158385772Y-107391667D01*
X158385772Y-107391667D02*
X158481010Y-107344048D01*
X158481010Y-107344048D02*
X159004820Y-107344048D01*
X156104820Y-114034524D02*
X156819105Y-114034524D01*
X156819105Y-114034524D02*
X156961962Y-114082143D01*
X156961962Y-114082143D02*
X157057201Y-114177381D01*
X157057201Y-114177381D02*
X157104820Y-114320238D01*
X157104820Y-114320238D02*
X157104820Y-114415476D01*
X157104820Y-113034524D02*
X157104820Y-113605952D01*
X157104820Y-113320238D02*
X156104820Y-113320238D01*
X156104820Y-113320238D02*
X156247677Y-113415476D01*
X156247677Y-113415476D02*
X156342915Y-113510714D01*
X156342915Y-113510714D02*
X156390534Y-113605952D01*
X156533391Y-112463095D02*
X156485772Y-112558333D01*
X156485772Y-112558333D02*
X156438153Y-112605952D01*
X156438153Y-112605952D02*
X156342915Y-112653571D01*
X156342915Y-112653571D02*
X156295296Y-112653571D01*
X156295296Y-112653571D02*
X156200058Y-112605952D01*
X156200058Y-112605952D02*
X156152439Y-112558333D01*
X156152439Y-112558333D02*
X156104820Y-112463095D01*
X156104820Y-112463095D02*
X156104820Y-112272619D01*
X156104820Y-112272619D02*
X156152439Y-112177381D01*
X156152439Y-112177381D02*
X156200058Y-112129762D01*
X156200058Y-112129762D02*
X156295296Y-112082143D01*
X156295296Y-112082143D02*
X156342915Y-112082143D01*
X156342915Y-112082143D02*
X156438153Y-112129762D01*
X156438153Y-112129762D02*
X156485772Y-112177381D01*
X156485772Y-112177381D02*
X156533391Y-112272619D01*
X156533391Y-112272619D02*
X156533391Y-112463095D01*
X156533391Y-112463095D02*
X156581010Y-112558333D01*
X156581010Y-112558333D02*
X156628629Y-112605952D01*
X156628629Y-112605952D02*
X156723867Y-112653571D01*
X156723867Y-112653571D02*
X156914343Y-112653571D01*
X156914343Y-112653571D02*
X157009581Y-112605952D01*
X157009581Y-112605952D02*
X157057201Y-112558333D01*
X157057201Y-112558333D02*
X157104820Y-112463095D01*
X157104820Y-112463095D02*
X157104820Y-112272619D01*
X157104820Y-112272619D02*
X157057201Y-112177381D01*
X157057201Y-112177381D02*
X157009581Y-112129762D01*
X157009581Y-112129762D02*
X156914343Y-112082143D01*
X156914343Y-112082143D02*
X156723867Y-112082143D01*
X156723867Y-112082143D02*
X156628629Y-112129762D01*
X156628629Y-112129762D02*
X156581010Y-112177381D01*
X156581010Y-112177381D02*
X156533391Y-112272619D01*
X189389581Y-118534525D02*
X189437201Y-118582144D01*
X189437201Y-118582144D02*
X189484820Y-118725001D01*
X189484820Y-118725001D02*
X189484820Y-118820239D01*
X189484820Y-118820239D02*
X189437201Y-118963096D01*
X189437201Y-118963096D02*
X189341962Y-119058334D01*
X189341962Y-119058334D02*
X189246724Y-119105953D01*
X189246724Y-119105953D02*
X189056248Y-119153572D01*
X189056248Y-119153572D02*
X188913391Y-119153572D01*
X188913391Y-119153572D02*
X188722915Y-119105953D01*
X188722915Y-119105953D02*
X188627677Y-119058334D01*
X188627677Y-119058334D02*
X188532439Y-118963096D01*
X188532439Y-118963096D02*
X188484820Y-118820239D01*
X188484820Y-118820239D02*
X188484820Y-118725001D01*
X188484820Y-118725001D02*
X188532439Y-118582144D01*
X188532439Y-118582144D02*
X188580058Y-118534525D01*
X189484820Y-117963096D02*
X189437201Y-118058334D01*
X189437201Y-118058334D02*
X189389581Y-118105953D01*
X189389581Y-118105953D02*
X189294343Y-118153572D01*
X189294343Y-118153572D02*
X189008629Y-118153572D01*
X189008629Y-118153572D02*
X188913391Y-118105953D01*
X188913391Y-118105953D02*
X188865772Y-118058334D01*
X188865772Y-118058334D02*
X188818153Y-117963096D01*
X188818153Y-117963096D02*
X188818153Y-117820239D01*
X188818153Y-117820239D02*
X188865772Y-117725001D01*
X188865772Y-117725001D02*
X188913391Y-117677382D01*
X188913391Y-117677382D02*
X189008629Y-117629763D01*
X189008629Y-117629763D02*
X189294343Y-117629763D01*
X189294343Y-117629763D02*
X189389581Y-117677382D01*
X189389581Y-117677382D02*
X189437201Y-117725001D01*
X189437201Y-117725001D02*
X189484820Y-117820239D01*
X189484820Y-117820239D02*
X189484820Y-117963096D01*
X188818153Y-117201191D02*
X189484820Y-117201191D01*
X188913391Y-117201191D02*
X188865772Y-117153572D01*
X188865772Y-117153572D02*
X188818153Y-117058334D01*
X188818153Y-117058334D02*
X188818153Y-116915477D01*
X188818153Y-116915477D02*
X188865772Y-116820239D01*
X188865772Y-116820239D02*
X188961010Y-116772620D01*
X188961010Y-116772620D02*
X189484820Y-116772620D01*
X188818153Y-116296429D02*
X189484820Y-116296429D01*
X188913391Y-116296429D02*
X188865772Y-116248810D01*
X188865772Y-116248810D02*
X188818153Y-116153572D01*
X188818153Y-116153572D02*
X188818153Y-116010715D01*
X188818153Y-116010715D02*
X188865772Y-115915477D01*
X188865772Y-115915477D02*
X188961010Y-115867858D01*
X188961010Y-115867858D02*
X189484820Y-115867858D01*
X189580058Y-115629763D02*
X189580058Y-114867858D01*
X188484820Y-114439286D02*
X188484820Y-114344048D01*
X188484820Y-114344048D02*
X188532439Y-114248810D01*
X188532439Y-114248810D02*
X188580058Y-114201191D01*
X188580058Y-114201191D02*
X188675296Y-114153572D01*
X188675296Y-114153572D02*
X188865772Y-114105953D01*
X188865772Y-114105953D02*
X189103867Y-114105953D01*
X189103867Y-114105953D02*
X189294343Y-114153572D01*
X189294343Y-114153572D02*
X189389581Y-114201191D01*
X189389581Y-114201191D02*
X189437201Y-114248810D01*
X189437201Y-114248810D02*
X189484820Y-114344048D01*
X189484820Y-114344048D02*
X189484820Y-114439286D01*
X189484820Y-114439286D02*
X189437201Y-114534524D01*
X189437201Y-114534524D02*
X189389581Y-114582143D01*
X189389581Y-114582143D02*
X189294343Y-114629762D01*
X189294343Y-114629762D02*
X189103867Y-114677381D01*
X189103867Y-114677381D02*
X188865772Y-114677381D01*
X188865772Y-114677381D02*
X188675296Y-114629762D01*
X188675296Y-114629762D02*
X188580058Y-114582143D01*
X188580058Y-114582143D02*
X188532439Y-114534524D01*
X188532439Y-114534524D02*
X188484820Y-114439286D01*
X189484820Y-113153572D02*
X189484820Y-113725000D01*
X189484820Y-113439286D02*
X188484820Y-113439286D01*
X188484820Y-113439286D02*
X188627677Y-113534524D01*
X188627677Y-113534524D02*
X188722915Y-113629762D01*
X188722915Y-113629762D02*
X188770534Y-113725000D01*
X189484820Y-112820238D02*
X188818153Y-112296429D01*
X188818153Y-112820238D02*
X189484820Y-112296429D01*
X188484820Y-111725000D02*
X188484820Y-111629762D01*
X188484820Y-111629762D02*
X188532439Y-111534524D01*
X188532439Y-111534524D02*
X188580058Y-111486905D01*
X188580058Y-111486905D02*
X188675296Y-111439286D01*
X188675296Y-111439286D02*
X188865772Y-111391667D01*
X188865772Y-111391667D02*
X189103867Y-111391667D01*
X189103867Y-111391667D02*
X189294343Y-111439286D01*
X189294343Y-111439286D02*
X189389581Y-111486905D01*
X189389581Y-111486905D02*
X189437201Y-111534524D01*
X189437201Y-111534524D02*
X189484820Y-111629762D01*
X189484820Y-111629762D02*
X189484820Y-111725000D01*
X189484820Y-111725000D02*
X189437201Y-111820238D01*
X189437201Y-111820238D02*
X189389581Y-111867857D01*
X189389581Y-111867857D02*
X189294343Y-111915476D01*
X189294343Y-111915476D02*
X189103867Y-111963095D01*
X189103867Y-111963095D02*
X188865772Y-111963095D01*
X188865772Y-111963095D02*
X188675296Y-111915476D01*
X188675296Y-111915476D02*
X188580058Y-111867857D01*
X188580058Y-111867857D02*
X188532439Y-111820238D01*
X188532439Y-111820238D02*
X188484820Y-111725000D01*
X188484820Y-111058333D02*
X188484820Y-110439286D01*
X188484820Y-110439286D02*
X188865772Y-110772619D01*
X188865772Y-110772619D02*
X188865772Y-110629762D01*
X188865772Y-110629762D02*
X188913391Y-110534524D01*
X188913391Y-110534524D02*
X188961010Y-110486905D01*
X188961010Y-110486905D02*
X189056248Y-110439286D01*
X189056248Y-110439286D02*
X189294343Y-110439286D01*
X189294343Y-110439286D02*
X189389581Y-110486905D01*
X189389581Y-110486905D02*
X189437201Y-110534524D01*
X189437201Y-110534524D02*
X189484820Y-110629762D01*
X189484820Y-110629762D02*
X189484820Y-110915476D01*
X189484820Y-110915476D02*
X189437201Y-111010714D01*
X189437201Y-111010714D02*
X189389581Y-111058333D01*
X189580058Y-110248810D02*
X189580058Y-109486905D01*
X189484820Y-109248809D02*
X188484820Y-109248809D01*
X188484820Y-109248809D02*
X188484820Y-108867857D01*
X188484820Y-108867857D02*
X188532439Y-108772619D01*
X188532439Y-108772619D02*
X188580058Y-108725000D01*
X188580058Y-108725000D02*
X188675296Y-108677381D01*
X188675296Y-108677381D02*
X188818153Y-108677381D01*
X188818153Y-108677381D02*
X188913391Y-108725000D01*
X188913391Y-108725000D02*
X188961010Y-108772619D01*
X188961010Y-108772619D02*
X189008629Y-108867857D01*
X189008629Y-108867857D02*
X189008629Y-109248809D01*
X189484820Y-108248809D02*
X188818153Y-108248809D01*
X188484820Y-108248809D02*
X188532439Y-108296428D01*
X188532439Y-108296428D02*
X188580058Y-108248809D01*
X188580058Y-108248809D02*
X188532439Y-108201190D01*
X188532439Y-108201190D02*
X188484820Y-108248809D01*
X188484820Y-108248809D02*
X188580058Y-108248809D01*
X188818153Y-107772619D02*
X189484820Y-107772619D01*
X188913391Y-107772619D02*
X188865772Y-107725000D01*
X188865772Y-107725000D02*
X188818153Y-107629762D01*
X188818153Y-107629762D02*
X188818153Y-107486905D01*
X188818153Y-107486905D02*
X188865772Y-107391667D01*
X188865772Y-107391667D02*
X188961010Y-107344048D01*
X188961010Y-107344048D02*
X189484820Y-107344048D01*
X186584820Y-114034524D02*
X187299105Y-114034524D01*
X187299105Y-114034524D02*
X187441962Y-114082143D01*
X187441962Y-114082143D02*
X187537201Y-114177381D01*
X187537201Y-114177381D02*
X187584820Y-114320238D01*
X187584820Y-114320238D02*
X187584820Y-114415476D01*
X187584820Y-113034524D02*
X187584820Y-113605952D01*
X187584820Y-113320238D02*
X186584820Y-113320238D01*
X186584820Y-113320238D02*
X186727677Y-113415476D01*
X186727677Y-113415476D02*
X186822915Y-113510714D01*
X186822915Y-113510714D02*
X186870534Y-113605952D01*
X186584820Y-112129762D02*
X186584820Y-112605952D01*
X186584820Y-112605952D02*
X187061010Y-112653571D01*
X187061010Y-112653571D02*
X187013391Y-112605952D01*
X187013391Y-112605952D02*
X186965772Y-112510714D01*
X186965772Y-112510714D02*
X186965772Y-112272619D01*
X186965772Y-112272619D02*
X187013391Y-112177381D01*
X187013391Y-112177381D02*
X187061010Y-112129762D01*
X187061010Y-112129762D02*
X187156248Y-112082143D01*
X187156248Y-112082143D02*
X187394343Y-112082143D01*
X187394343Y-112082143D02*
X187489581Y-112129762D01*
X187489581Y-112129762D02*
X187537201Y-112177381D01*
X187537201Y-112177381D02*
X187584820Y-112272619D01*
X187584820Y-112272619D02*
X187584820Y-112510714D01*
X187584820Y-112510714D02*
X187537201Y-112605952D01*
X187537201Y-112605952D02*
X187489581Y-112653571D01*
X185424286Y-104519820D02*
X185424286Y-103519820D01*
X185424286Y-103519820D02*
X185757619Y-104234105D01*
X185757619Y-104234105D02*
X186090952Y-103519820D01*
X186090952Y-103519820D02*
X186090952Y-104519820D01*
X186710000Y-104519820D02*
X186614762Y-104472201D01*
X186614762Y-104472201D02*
X186567143Y-104424581D01*
X186567143Y-104424581D02*
X186519524Y-104329343D01*
X186519524Y-104329343D02*
X186519524Y-104043629D01*
X186519524Y-104043629D02*
X186567143Y-103948391D01*
X186567143Y-103948391D02*
X186614762Y-103900772D01*
X186614762Y-103900772D02*
X186710000Y-103853153D01*
X186710000Y-103853153D02*
X186852857Y-103853153D01*
X186852857Y-103853153D02*
X186948095Y-103900772D01*
X186948095Y-103900772D02*
X186995714Y-103948391D01*
X186995714Y-103948391D02*
X187043333Y-104043629D01*
X187043333Y-104043629D02*
X187043333Y-104329343D01*
X187043333Y-104329343D02*
X186995714Y-104424581D01*
X186995714Y-104424581D02*
X186948095Y-104472201D01*
X186948095Y-104472201D02*
X186852857Y-104519820D01*
X186852857Y-104519820D02*
X186710000Y-104519820D01*
X187900476Y-103853153D02*
X187900476Y-104519820D01*
X187471905Y-103853153D02*
X187471905Y-104376962D01*
X187471905Y-104376962D02*
X187519524Y-104472201D01*
X187519524Y-104472201D02*
X187614762Y-104519820D01*
X187614762Y-104519820D02*
X187757619Y-104519820D01*
X187757619Y-104519820D02*
X187852857Y-104472201D01*
X187852857Y-104472201D02*
X187900476Y-104424581D01*
X188376667Y-103853153D02*
X188376667Y-104519820D01*
X188376667Y-103948391D02*
X188424286Y-103900772D01*
X188424286Y-103900772D02*
X188519524Y-103853153D01*
X188519524Y-103853153D02*
X188662381Y-103853153D01*
X188662381Y-103853153D02*
X188757619Y-103900772D01*
X188757619Y-103900772D02*
X188805238Y-103996010D01*
X188805238Y-103996010D02*
X188805238Y-104519820D01*
X189138572Y-103853153D02*
X189519524Y-103853153D01*
X189281429Y-103519820D02*
X189281429Y-104376962D01*
X189281429Y-104376962D02*
X189329048Y-104472201D01*
X189329048Y-104472201D02*
X189424286Y-104519820D01*
X189424286Y-104519820D02*
X189519524Y-104519820D01*
X189852858Y-104519820D02*
X189852858Y-103853153D01*
X189852858Y-103519820D02*
X189805239Y-103567439D01*
X189805239Y-103567439D02*
X189852858Y-103615058D01*
X189852858Y-103615058D02*
X189900477Y-103567439D01*
X189900477Y-103567439D02*
X189852858Y-103519820D01*
X189852858Y-103519820D02*
X189852858Y-103615058D01*
X190329048Y-103853153D02*
X190329048Y-104519820D01*
X190329048Y-103948391D02*
X190376667Y-103900772D01*
X190376667Y-103900772D02*
X190471905Y-103853153D01*
X190471905Y-103853153D02*
X190614762Y-103853153D01*
X190614762Y-103853153D02*
X190710000Y-103900772D01*
X190710000Y-103900772D02*
X190757619Y-103996010D01*
X190757619Y-103996010D02*
X190757619Y-104519820D01*
X191662381Y-103853153D02*
X191662381Y-104662677D01*
X191662381Y-104662677D02*
X191614762Y-104757915D01*
X191614762Y-104757915D02*
X191567143Y-104805534D01*
X191567143Y-104805534D02*
X191471905Y-104853153D01*
X191471905Y-104853153D02*
X191329048Y-104853153D01*
X191329048Y-104853153D02*
X191233810Y-104805534D01*
X191662381Y-104472201D02*
X191567143Y-104519820D01*
X191567143Y-104519820D02*
X191376667Y-104519820D01*
X191376667Y-104519820D02*
X191281429Y-104472201D01*
X191281429Y-104472201D02*
X191233810Y-104424581D01*
X191233810Y-104424581D02*
X191186191Y-104329343D01*
X191186191Y-104329343D02*
X191186191Y-104043629D01*
X191186191Y-104043629D02*
X191233810Y-103948391D01*
X191233810Y-103948391D02*
X191281429Y-103900772D01*
X191281429Y-103900772D02*
X191376667Y-103853153D01*
X191376667Y-103853153D02*
X191567143Y-103853153D01*
X191567143Y-103853153D02*
X191662381Y-103900772D01*
X192138572Y-104519820D02*
X192138572Y-103519820D01*
X192138572Y-103996010D02*
X192710000Y-103996010D01*
X192710000Y-104519820D02*
X192710000Y-103519820D01*
X193329048Y-104519820D02*
X193233810Y-104472201D01*
X193233810Y-104472201D02*
X193186191Y-104424581D01*
X193186191Y-104424581D02*
X193138572Y-104329343D01*
X193138572Y-104329343D02*
X193138572Y-104043629D01*
X193138572Y-104043629D02*
X193186191Y-103948391D01*
X193186191Y-103948391D02*
X193233810Y-103900772D01*
X193233810Y-103900772D02*
X193329048Y-103853153D01*
X193329048Y-103853153D02*
X193471905Y-103853153D01*
X193471905Y-103853153D02*
X193567143Y-103900772D01*
X193567143Y-103900772D02*
X193614762Y-103948391D01*
X193614762Y-103948391D02*
X193662381Y-104043629D01*
X193662381Y-104043629D02*
X193662381Y-104329343D01*
X193662381Y-104329343D02*
X193614762Y-104424581D01*
X193614762Y-104424581D02*
X193567143Y-104472201D01*
X193567143Y-104472201D02*
X193471905Y-104519820D01*
X193471905Y-104519820D02*
X193329048Y-104519820D01*
X194233810Y-104519820D02*
X194138572Y-104472201D01*
X194138572Y-104472201D02*
X194090953Y-104376962D01*
X194090953Y-104376962D02*
X194090953Y-103519820D01*
X194995715Y-104472201D02*
X194900477Y-104519820D01*
X194900477Y-104519820D02*
X194710001Y-104519820D01*
X194710001Y-104519820D02*
X194614763Y-104472201D01*
X194614763Y-104472201D02*
X194567144Y-104376962D01*
X194567144Y-104376962D02*
X194567144Y-103996010D01*
X194567144Y-103996010D02*
X194614763Y-103900772D01*
X194614763Y-103900772D02*
X194710001Y-103853153D01*
X194710001Y-103853153D02*
X194900477Y-103853153D01*
X194900477Y-103853153D02*
X194995715Y-103900772D01*
X194995715Y-103900772D02*
X195043334Y-103996010D01*
X195043334Y-103996010D02*
X195043334Y-104091248D01*
X195043334Y-104091248D02*
X194567144Y-104186486D01*
X188748096Y-99219820D02*
X188748096Y-98219820D01*
X188748096Y-98696010D02*
X189319524Y-98696010D01*
X189319524Y-99219820D02*
X189319524Y-98219820D01*
X190319524Y-99219820D02*
X189748096Y-99219820D01*
X190033810Y-99219820D02*
X190033810Y-98219820D01*
X190033810Y-98219820D02*
X189938572Y-98362677D01*
X189938572Y-98362677D02*
X189843334Y-98457915D01*
X189843334Y-98457915D02*
X189748096Y-98505534D01*
X140507182Y-90442201D02*
X140650039Y-90489820D01*
X140650039Y-90489820D02*
X140888134Y-90489820D01*
X140888134Y-90489820D02*
X140983372Y-90442201D01*
X140983372Y-90442201D02*
X141030991Y-90394581D01*
X141030991Y-90394581D02*
X141078610Y-90299343D01*
X141078610Y-90299343D02*
X141078610Y-90204105D01*
X141078610Y-90204105D02*
X141030991Y-90108867D01*
X141030991Y-90108867D02*
X140983372Y-90061248D01*
X140983372Y-90061248D02*
X140888134Y-90013629D01*
X140888134Y-90013629D02*
X140697658Y-89966010D01*
X140697658Y-89966010D02*
X140602420Y-89918391D01*
X140602420Y-89918391D02*
X140554801Y-89870772D01*
X140554801Y-89870772D02*
X140507182Y-89775534D01*
X140507182Y-89775534D02*
X140507182Y-89680296D01*
X140507182Y-89680296D02*
X140554801Y-89585058D01*
X140554801Y-89585058D02*
X140602420Y-89537439D01*
X140602420Y-89537439D02*
X140697658Y-89489820D01*
X140697658Y-89489820D02*
X140935753Y-89489820D01*
X140935753Y-89489820D02*
X141078610Y-89537439D01*
X141411944Y-89489820D02*
X141650039Y-90489820D01*
X141650039Y-90489820D02*
X141840515Y-89775534D01*
X141840515Y-89775534D02*
X142030991Y-90489820D01*
X142030991Y-90489820D02*
X142269087Y-89489820D01*
X142411944Y-90585058D02*
X143173848Y-90585058D01*
X143411944Y-90489820D02*
X143411944Y-89489820D01*
X143411944Y-89489820D02*
X143792896Y-89489820D01*
X143792896Y-89489820D02*
X143888134Y-89537439D01*
X143888134Y-89537439D02*
X143935753Y-89585058D01*
X143935753Y-89585058D02*
X143983372Y-89680296D01*
X143983372Y-89680296D02*
X143983372Y-89823153D01*
X143983372Y-89823153D02*
X143935753Y-89918391D01*
X143935753Y-89918391D02*
X143888134Y-89966010D01*
X143888134Y-89966010D02*
X143792896Y-90013629D01*
X143792896Y-90013629D02*
X143411944Y-90013629D01*
X144840515Y-89823153D02*
X144840515Y-90489820D01*
X144411944Y-89823153D02*
X144411944Y-90346962D01*
X144411944Y-90346962D02*
X144459563Y-90442201D01*
X144459563Y-90442201D02*
X144554801Y-90489820D01*
X144554801Y-90489820D02*
X144697658Y-90489820D01*
X144697658Y-90489820D02*
X144792896Y-90442201D01*
X144792896Y-90442201D02*
X144840515Y-90394581D01*
X145269087Y-90442201D02*
X145364325Y-90489820D01*
X145364325Y-90489820D02*
X145554801Y-90489820D01*
X145554801Y-90489820D02*
X145650039Y-90442201D01*
X145650039Y-90442201D02*
X145697658Y-90346962D01*
X145697658Y-90346962D02*
X145697658Y-90299343D01*
X145697658Y-90299343D02*
X145650039Y-90204105D01*
X145650039Y-90204105D02*
X145554801Y-90156486D01*
X145554801Y-90156486D02*
X145411944Y-90156486D01*
X145411944Y-90156486D02*
X145316706Y-90108867D01*
X145316706Y-90108867D02*
X145269087Y-90013629D01*
X145269087Y-90013629D02*
X145269087Y-89966010D01*
X145269087Y-89966010D02*
X145316706Y-89870772D01*
X145316706Y-89870772D02*
X145411944Y-89823153D01*
X145411944Y-89823153D02*
X145554801Y-89823153D01*
X145554801Y-89823153D02*
X145650039Y-89870772D01*
X146126230Y-90489820D02*
X146126230Y-89489820D01*
X146554801Y-90489820D02*
X146554801Y-89966010D01*
X146554801Y-89966010D02*
X146507182Y-89870772D01*
X146507182Y-89870772D02*
X146411944Y-89823153D01*
X146411944Y-89823153D02*
X146269087Y-89823153D01*
X146269087Y-89823153D02*
X146173849Y-89870772D01*
X146173849Y-89870772D02*
X146126230Y-89918391D01*
X141721468Y-85992201D02*
X141864325Y-86039820D01*
X141864325Y-86039820D02*
X142102420Y-86039820D01*
X142102420Y-86039820D02*
X142197658Y-85992201D01*
X142197658Y-85992201D02*
X142245277Y-85944581D01*
X142245277Y-85944581D02*
X142292896Y-85849343D01*
X142292896Y-85849343D02*
X142292896Y-85754105D01*
X142292896Y-85754105D02*
X142245277Y-85658867D01*
X142245277Y-85658867D02*
X142197658Y-85611248D01*
X142197658Y-85611248D02*
X142102420Y-85563629D01*
X142102420Y-85563629D02*
X141911944Y-85516010D01*
X141911944Y-85516010D02*
X141816706Y-85468391D01*
X141816706Y-85468391D02*
X141769087Y-85420772D01*
X141769087Y-85420772D02*
X141721468Y-85325534D01*
X141721468Y-85325534D02*
X141721468Y-85230296D01*
X141721468Y-85230296D02*
X141769087Y-85135058D01*
X141769087Y-85135058D02*
X141816706Y-85087439D01*
X141816706Y-85087439D02*
X141911944Y-85039820D01*
X141911944Y-85039820D02*
X142150039Y-85039820D01*
X142150039Y-85039820D02*
X142292896Y-85087439D01*
X142626230Y-85039820D02*
X142864325Y-86039820D01*
X142864325Y-86039820D02*
X143054801Y-85325534D01*
X143054801Y-85325534D02*
X143245277Y-86039820D01*
X143245277Y-86039820D02*
X143483373Y-85039820D01*
X144388134Y-86039820D02*
X143816706Y-86039820D01*
X144102420Y-86039820D02*
X144102420Y-85039820D01*
X144102420Y-85039820D02*
X144007182Y-85182677D01*
X144007182Y-85182677D02*
X143911944Y-85277915D01*
X143911944Y-85277915D02*
X143816706Y-85325534D01*
X189389581Y-143934525D02*
X189437201Y-143982144D01*
X189437201Y-143982144D02*
X189484820Y-144125001D01*
X189484820Y-144125001D02*
X189484820Y-144220239D01*
X189484820Y-144220239D02*
X189437201Y-144363096D01*
X189437201Y-144363096D02*
X189341962Y-144458334D01*
X189341962Y-144458334D02*
X189246724Y-144505953D01*
X189246724Y-144505953D02*
X189056248Y-144553572D01*
X189056248Y-144553572D02*
X188913391Y-144553572D01*
X188913391Y-144553572D02*
X188722915Y-144505953D01*
X188722915Y-144505953D02*
X188627677Y-144458334D01*
X188627677Y-144458334D02*
X188532439Y-144363096D01*
X188532439Y-144363096D02*
X188484820Y-144220239D01*
X188484820Y-144220239D02*
X188484820Y-144125001D01*
X188484820Y-144125001D02*
X188532439Y-143982144D01*
X188532439Y-143982144D02*
X188580058Y-143934525D01*
X189484820Y-143363096D02*
X189437201Y-143458334D01*
X189437201Y-143458334D02*
X189389581Y-143505953D01*
X189389581Y-143505953D02*
X189294343Y-143553572D01*
X189294343Y-143553572D02*
X189008629Y-143553572D01*
X189008629Y-143553572D02*
X188913391Y-143505953D01*
X188913391Y-143505953D02*
X188865772Y-143458334D01*
X188865772Y-143458334D02*
X188818153Y-143363096D01*
X188818153Y-143363096D02*
X188818153Y-143220239D01*
X188818153Y-143220239D02*
X188865772Y-143125001D01*
X188865772Y-143125001D02*
X188913391Y-143077382D01*
X188913391Y-143077382D02*
X189008629Y-143029763D01*
X189008629Y-143029763D02*
X189294343Y-143029763D01*
X189294343Y-143029763D02*
X189389581Y-143077382D01*
X189389581Y-143077382D02*
X189437201Y-143125001D01*
X189437201Y-143125001D02*
X189484820Y-143220239D01*
X189484820Y-143220239D02*
X189484820Y-143363096D01*
X188818153Y-142601191D02*
X189484820Y-142601191D01*
X188913391Y-142601191D02*
X188865772Y-142553572D01*
X188865772Y-142553572D02*
X188818153Y-142458334D01*
X188818153Y-142458334D02*
X188818153Y-142315477D01*
X188818153Y-142315477D02*
X188865772Y-142220239D01*
X188865772Y-142220239D02*
X188961010Y-142172620D01*
X188961010Y-142172620D02*
X189484820Y-142172620D01*
X188818153Y-141696429D02*
X189484820Y-141696429D01*
X188913391Y-141696429D02*
X188865772Y-141648810D01*
X188865772Y-141648810D02*
X188818153Y-141553572D01*
X188818153Y-141553572D02*
X188818153Y-141410715D01*
X188818153Y-141410715D02*
X188865772Y-141315477D01*
X188865772Y-141315477D02*
X188961010Y-141267858D01*
X188961010Y-141267858D02*
X189484820Y-141267858D01*
X189580058Y-141029763D02*
X189580058Y-140267858D01*
X188484820Y-139839286D02*
X188484820Y-139744048D01*
X188484820Y-139744048D02*
X188532439Y-139648810D01*
X188532439Y-139648810D02*
X188580058Y-139601191D01*
X188580058Y-139601191D02*
X188675296Y-139553572D01*
X188675296Y-139553572D02*
X188865772Y-139505953D01*
X188865772Y-139505953D02*
X189103867Y-139505953D01*
X189103867Y-139505953D02*
X189294343Y-139553572D01*
X189294343Y-139553572D02*
X189389581Y-139601191D01*
X189389581Y-139601191D02*
X189437201Y-139648810D01*
X189437201Y-139648810D02*
X189484820Y-139744048D01*
X189484820Y-139744048D02*
X189484820Y-139839286D01*
X189484820Y-139839286D02*
X189437201Y-139934524D01*
X189437201Y-139934524D02*
X189389581Y-139982143D01*
X189389581Y-139982143D02*
X189294343Y-140029762D01*
X189294343Y-140029762D02*
X189103867Y-140077381D01*
X189103867Y-140077381D02*
X188865772Y-140077381D01*
X188865772Y-140077381D02*
X188675296Y-140029762D01*
X188675296Y-140029762D02*
X188580058Y-139982143D01*
X188580058Y-139982143D02*
X188532439Y-139934524D01*
X188532439Y-139934524D02*
X188484820Y-139839286D01*
X189484820Y-138553572D02*
X189484820Y-139125000D01*
X189484820Y-138839286D02*
X188484820Y-138839286D01*
X188484820Y-138839286D02*
X188627677Y-138934524D01*
X188627677Y-138934524D02*
X188722915Y-139029762D01*
X188722915Y-139029762D02*
X188770534Y-139125000D01*
X189484820Y-138220238D02*
X188818153Y-137696429D01*
X188818153Y-138220238D02*
X189484820Y-137696429D01*
X188484820Y-137125000D02*
X188484820Y-137029762D01*
X188484820Y-137029762D02*
X188532439Y-136934524D01*
X188532439Y-136934524D02*
X188580058Y-136886905D01*
X188580058Y-136886905D02*
X188675296Y-136839286D01*
X188675296Y-136839286D02*
X188865772Y-136791667D01*
X188865772Y-136791667D02*
X189103867Y-136791667D01*
X189103867Y-136791667D02*
X189294343Y-136839286D01*
X189294343Y-136839286D02*
X189389581Y-136886905D01*
X189389581Y-136886905D02*
X189437201Y-136934524D01*
X189437201Y-136934524D02*
X189484820Y-137029762D01*
X189484820Y-137029762D02*
X189484820Y-137125000D01*
X189484820Y-137125000D02*
X189437201Y-137220238D01*
X189437201Y-137220238D02*
X189389581Y-137267857D01*
X189389581Y-137267857D02*
X189294343Y-137315476D01*
X189294343Y-137315476D02*
X189103867Y-137363095D01*
X189103867Y-137363095D02*
X188865772Y-137363095D01*
X188865772Y-137363095D02*
X188675296Y-137315476D01*
X188675296Y-137315476D02*
X188580058Y-137267857D01*
X188580058Y-137267857D02*
X188532439Y-137220238D01*
X188532439Y-137220238D02*
X188484820Y-137125000D01*
X188484820Y-136458333D02*
X188484820Y-135839286D01*
X188484820Y-135839286D02*
X188865772Y-136172619D01*
X188865772Y-136172619D02*
X188865772Y-136029762D01*
X188865772Y-136029762D02*
X188913391Y-135934524D01*
X188913391Y-135934524D02*
X188961010Y-135886905D01*
X188961010Y-135886905D02*
X189056248Y-135839286D01*
X189056248Y-135839286D02*
X189294343Y-135839286D01*
X189294343Y-135839286D02*
X189389581Y-135886905D01*
X189389581Y-135886905D02*
X189437201Y-135934524D01*
X189437201Y-135934524D02*
X189484820Y-136029762D01*
X189484820Y-136029762D02*
X189484820Y-136315476D01*
X189484820Y-136315476D02*
X189437201Y-136410714D01*
X189437201Y-136410714D02*
X189389581Y-136458333D01*
X189580058Y-135648810D02*
X189580058Y-134886905D01*
X189484820Y-134648809D02*
X188484820Y-134648809D01*
X188484820Y-134648809D02*
X188484820Y-134267857D01*
X188484820Y-134267857D02*
X188532439Y-134172619D01*
X188532439Y-134172619D02*
X188580058Y-134125000D01*
X188580058Y-134125000D02*
X188675296Y-134077381D01*
X188675296Y-134077381D02*
X188818153Y-134077381D01*
X188818153Y-134077381D02*
X188913391Y-134125000D01*
X188913391Y-134125000D02*
X188961010Y-134172619D01*
X188961010Y-134172619D02*
X189008629Y-134267857D01*
X189008629Y-134267857D02*
X189008629Y-134648809D01*
X189484820Y-133648809D02*
X188818153Y-133648809D01*
X188484820Y-133648809D02*
X188532439Y-133696428D01*
X188532439Y-133696428D02*
X188580058Y-133648809D01*
X188580058Y-133648809D02*
X188532439Y-133601190D01*
X188532439Y-133601190D02*
X188484820Y-133648809D01*
X188484820Y-133648809D02*
X188580058Y-133648809D01*
X188818153Y-133172619D02*
X189484820Y-133172619D01*
X188913391Y-133172619D02*
X188865772Y-133125000D01*
X188865772Y-133125000D02*
X188818153Y-133029762D01*
X188818153Y-133029762D02*
X188818153Y-132886905D01*
X188818153Y-132886905D02*
X188865772Y-132791667D01*
X188865772Y-132791667D02*
X188961010Y-132744048D01*
X188961010Y-132744048D02*
X189484820Y-132744048D01*
X186584820Y-138958334D02*
X187299105Y-138958334D01*
X187299105Y-138958334D02*
X187441962Y-139005953D01*
X187441962Y-139005953D02*
X187537201Y-139101191D01*
X187537201Y-139101191D02*
X187584820Y-139244048D01*
X187584820Y-139244048D02*
X187584820Y-139339286D01*
X186584820Y-138577381D02*
X186584820Y-137910715D01*
X186584820Y-137910715D02*
X187584820Y-138339286D01*
X138589581Y-131234525D02*
X138637201Y-131282144D01*
X138637201Y-131282144D02*
X138684820Y-131425001D01*
X138684820Y-131425001D02*
X138684820Y-131520239D01*
X138684820Y-131520239D02*
X138637201Y-131663096D01*
X138637201Y-131663096D02*
X138541962Y-131758334D01*
X138541962Y-131758334D02*
X138446724Y-131805953D01*
X138446724Y-131805953D02*
X138256248Y-131853572D01*
X138256248Y-131853572D02*
X138113391Y-131853572D01*
X138113391Y-131853572D02*
X137922915Y-131805953D01*
X137922915Y-131805953D02*
X137827677Y-131758334D01*
X137827677Y-131758334D02*
X137732439Y-131663096D01*
X137732439Y-131663096D02*
X137684820Y-131520239D01*
X137684820Y-131520239D02*
X137684820Y-131425001D01*
X137684820Y-131425001D02*
X137732439Y-131282144D01*
X137732439Y-131282144D02*
X137780058Y-131234525D01*
X138684820Y-130663096D02*
X138637201Y-130758334D01*
X138637201Y-130758334D02*
X138589581Y-130805953D01*
X138589581Y-130805953D02*
X138494343Y-130853572D01*
X138494343Y-130853572D02*
X138208629Y-130853572D01*
X138208629Y-130853572D02*
X138113391Y-130805953D01*
X138113391Y-130805953D02*
X138065772Y-130758334D01*
X138065772Y-130758334D02*
X138018153Y-130663096D01*
X138018153Y-130663096D02*
X138018153Y-130520239D01*
X138018153Y-130520239D02*
X138065772Y-130425001D01*
X138065772Y-130425001D02*
X138113391Y-130377382D01*
X138113391Y-130377382D02*
X138208629Y-130329763D01*
X138208629Y-130329763D02*
X138494343Y-130329763D01*
X138494343Y-130329763D02*
X138589581Y-130377382D01*
X138589581Y-130377382D02*
X138637201Y-130425001D01*
X138637201Y-130425001D02*
X138684820Y-130520239D01*
X138684820Y-130520239D02*
X138684820Y-130663096D01*
X138018153Y-129901191D02*
X138684820Y-129901191D01*
X138113391Y-129901191D02*
X138065772Y-129853572D01*
X138065772Y-129853572D02*
X138018153Y-129758334D01*
X138018153Y-129758334D02*
X138018153Y-129615477D01*
X138018153Y-129615477D02*
X138065772Y-129520239D01*
X138065772Y-129520239D02*
X138161010Y-129472620D01*
X138161010Y-129472620D02*
X138684820Y-129472620D01*
X138018153Y-128996429D02*
X138684820Y-128996429D01*
X138113391Y-128996429D02*
X138065772Y-128948810D01*
X138065772Y-128948810D02*
X138018153Y-128853572D01*
X138018153Y-128853572D02*
X138018153Y-128710715D01*
X138018153Y-128710715D02*
X138065772Y-128615477D01*
X138065772Y-128615477D02*
X138161010Y-128567858D01*
X138161010Y-128567858D02*
X138684820Y-128567858D01*
X138780058Y-128329763D02*
X138780058Y-127567858D01*
X137684820Y-127139286D02*
X137684820Y-127044048D01*
X137684820Y-127044048D02*
X137732439Y-126948810D01*
X137732439Y-126948810D02*
X137780058Y-126901191D01*
X137780058Y-126901191D02*
X137875296Y-126853572D01*
X137875296Y-126853572D02*
X138065772Y-126805953D01*
X138065772Y-126805953D02*
X138303867Y-126805953D01*
X138303867Y-126805953D02*
X138494343Y-126853572D01*
X138494343Y-126853572D02*
X138589581Y-126901191D01*
X138589581Y-126901191D02*
X138637201Y-126948810D01*
X138637201Y-126948810D02*
X138684820Y-127044048D01*
X138684820Y-127044048D02*
X138684820Y-127139286D01*
X138684820Y-127139286D02*
X138637201Y-127234524D01*
X138637201Y-127234524D02*
X138589581Y-127282143D01*
X138589581Y-127282143D02*
X138494343Y-127329762D01*
X138494343Y-127329762D02*
X138303867Y-127377381D01*
X138303867Y-127377381D02*
X138065772Y-127377381D01*
X138065772Y-127377381D02*
X137875296Y-127329762D01*
X137875296Y-127329762D02*
X137780058Y-127282143D01*
X137780058Y-127282143D02*
X137732439Y-127234524D01*
X137732439Y-127234524D02*
X137684820Y-127139286D01*
X138684820Y-125853572D02*
X138684820Y-126425000D01*
X138684820Y-126139286D02*
X137684820Y-126139286D01*
X137684820Y-126139286D02*
X137827677Y-126234524D01*
X137827677Y-126234524D02*
X137922915Y-126329762D01*
X137922915Y-126329762D02*
X137970534Y-126425000D01*
X138684820Y-125520238D02*
X138018153Y-124996429D01*
X138018153Y-125520238D02*
X138684820Y-124996429D01*
X137684820Y-124425000D02*
X137684820Y-124329762D01*
X137684820Y-124329762D02*
X137732439Y-124234524D01*
X137732439Y-124234524D02*
X137780058Y-124186905D01*
X137780058Y-124186905D02*
X137875296Y-124139286D01*
X137875296Y-124139286D02*
X138065772Y-124091667D01*
X138065772Y-124091667D02*
X138303867Y-124091667D01*
X138303867Y-124091667D02*
X138494343Y-124139286D01*
X138494343Y-124139286D02*
X138589581Y-124186905D01*
X138589581Y-124186905D02*
X138637201Y-124234524D01*
X138637201Y-124234524D02*
X138684820Y-124329762D01*
X138684820Y-124329762D02*
X138684820Y-124425000D01*
X138684820Y-124425000D02*
X138637201Y-124520238D01*
X138637201Y-124520238D02*
X138589581Y-124567857D01*
X138589581Y-124567857D02*
X138494343Y-124615476D01*
X138494343Y-124615476D02*
X138303867Y-124663095D01*
X138303867Y-124663095D02*
X138065772Y-124663095D01*
X138065772Y-124663095D02*
X137875296Y-124615476D01*
X137875296Y-124615476D02*
X137780058Y-124567857D01*
X137780058Y-124567857D02*
X137732439Y-124520238D01*
X137732439Y-124520238D02*
X137684820Y-124425000D01*
X137684820Y-123758333D02*
X137684820Y-123139286D01*
X137684820Y-123139286D02*
X138065772Y-123472619D01*
X138065772Y-123472619D02*
X138065772Y-123329762D01*
X138065772Y-123329762D02*
X138113391Y-123234524D01*
X138113391Y-123234524D02*
X138161010Y-123186905D01*
X138161010Y-123186905D02*
X138256248Y-123139286D01*
X138256248Y-123139286D02*
X138494343Y-123139286D01*
X138494343Y-123139286D02*
X138589581Y-123186905D01*
X138589581Y-123186905D02*
X138637201Y-123234524D01*
X138637201Y-123234524D02*
X138684820Y-123329762D01*
X138684820Y-123329762D02*
X138684820Y-123615476D01*
X138684820Y-123615476D02*
X138637201Y-123710714D01*
X138637201Y-123710714D02*
X138589581Y-123758333D01*
X138780058Y-122948810D02*
X138780058Y-122186905D01*
X138684820Y-121948809D02*
X137684820Y-121948809D01*
X137684820Y-121948809D02*
X137684820Y-121567857D01*
X137684820Y-121567857D02*
X137732439Y-121472619D01*
X137732439Y-121472619D02*
X137780058Y-121425000D01*
X137780058Y-121425000D02*
X137875296Y-121377381D01*
X137875296Y-121377381D02*
X138018153Y-121377381D01*
X138018153Y-121377381D02*
X138113391Y-121425000D01*
X138113391Y-121425000D02*
X138161010Y-121472619D01*
X138161010Y-121472619D02*
X138208629Y-121567857D01*
X138208629Y-121567857D02*
X138208629Y-121948809D01*
X138684820Y-120948809D02*
X138018153Y-120948809D01*
X137684820Y-120948809D02*
X137732439Y-120996428D01*
X137732439Y-120996428D02*
X137780058Y-120948809D01*
X137780058Y-120948809D02*
X137732439Y-120901190D01*
X137732439Y-120901190D02*
X137684820Y-120948809D01*
X137684820Y-120948809D02*
X137780058Y-120948809D01*
X138018153Y-120472619D02*
X138684820Y-120472619D01*
X138113391Y-120472619D02*
X138065772Y-120425000D01*
X138065772Y-120425000D02*
X138018153Y-120329762D01*
X138018153Y-120329762D02*
X138018153Y-120186905D01*
X138018153Y-120186905D02*
X138065772Y-120091667D01*
X138065772Y-120091667D02*
X138161010Y-120044048D01*
X138161010Y-120044048D02*
X138684820Y-120044048D01*
X135784820Y-126258334D02*
X136499105Y-126258334D01*
X136499105Y-126258334D02*
X136641962Y-126305953D01*
X136641962Y-126305953D02*
X136737201Y-126401191D01*
X136737201Y-126401191D02*
X136784820Y-126544048D01*
X136784820Y-126544048D02*
X136784820Y-126639286D01*
X136784820Y-125734524D02*
X136784820Y-125544048D01*
X136784820Y-125544048D02*
X136737201Y-125448810D01*
X136737201Y-125448810D02*
X136689581Y-125401191D01*
X136689581Y-125401191D02*
X136546724Y-125305953D01*
X136546724Y-125305953D02*
X136356248Y-125258334D01*
X136356248Y-125258334D02*
X135975296Y-125258334D01*
X135975296Y-125258334D02*
X135880058Y-125305953D01*
X135880058Y-125305953D02*
X135832439Y-125353572D01*
X135832439Y-125353572D02*
X135784820Y-125448810D01*
X135784820Y-125448810D02*
X135784820Y-125639286D01*
X135784820Y-125639286D02*
X135832439Y-125734524D01*
X135832439Y-125734524D02*
X135880058Y-125782143D01*
X135880058Y-125782143D02*
X135975296Y-125829762D01*
X135975296Y-125829762D02*
X136213391Y-125829762D01*
X136213391Y-125829762D02*
X136308629Y-125782143D01*
X136308629Y-125782143D02*
X136356248Y-125734524D01*
X136356248Y-125734524D02*
X136403867Y-125639286D01*
X136403867Y-125639286D02*
X136403867Y-125448810D01*
X136403867Y-125448810D02*
X136356248Y-125353572D01*
X136356248Y-125353572D02*
X136308629Y-125305953D01*
X136308629Y-125305953D02*
X136213391Y-125258334D01*
X138589581Y-118534525D02*
X138637201Y-118582144D01*
X138637201Y-118582144D02*
X138684820Y-118725001D01*
X138684820Y-118725001D02*
X138684820Y-118820239D01*
X138684820Y-118820239D02*
X138637201Y-118963096D01*
X138637201Y-118963096D02*
X138541962Y-119058334D01*
X138541962Y-119058334D02*
X138446724Y-119105953D01*
X138446724Y-119105953D02*
X138256248Y-119153572D01*
X138256248Y-119153572D02*
X138113391Y-119153572D01*
X138113391Y-119153572D02*
X137922915Y-119105953D01*
X137922915Y-119105953D02*
X137827677Y-119058334D01*
X137827677Y-119058334D02*
X137732439Y-118963096D01*
X137732439Y-118963096D02*
X137684820Y-118820239D01*
X137684820Y-118820239D02*
X137684820Y-118725001D01*
X137684820Y-118725001D02*
X137732439Y-118582144D01*
X137732439Y-118582144D02*
X137780058Y-118534525D01*
X138684820Y-117963096D02*
X138637201Y-118058334D01*
X138637201Y-118058334D02*
X138589581Y-118105953D01*
X138589581Y-118105953D02*
X138494343Y-118153572D01*
X138494343Y-118153572D02*
X138208629Y-118153572D01*
X138208629Y-118153572D02*
X138113391Y-118105953D01*
X138113391Y-118105953D02*
X138065772Y-118058334D01*
X138065772Y-118058334D02*
X138018153Y-117963096D01*
X138018153Y-117963096D02*
X138018153Y-117820239D01*
X138018153Y-117820239D02*
X138065772Y-117725001D01*
X138065772Y-117725001D02*
X138113391Y-117677382D01*
X138113391Y-117677382D02*
X138208629Y-117629763D01*
X138208629Y-117629763D02*
X138494343Y-117629763D01*
X138494343Y-117629763D02*
X138589581Y-117677382D01*
X138589581Y-117677382D02*
X138637201Y-117725001D01*
X138637201Y-117725001D02*
X138684820Y-117820239D01*
X138684820Y-117820239D02*
X138684820Y-117963096D01*
X138018153Y-117201191D02*
X138684820Y-117201191D01*
X138113391Y-117201191D02*
X138065772Y-117153572D01*
X138065772Y-117153572D02*
X138018153Y-117058334D01*
X138018153Y-117058334D02*
X138018153Y-116915477D01*
X138018153Y-116915477D02*
X138065772Y-116820239D01*
X138065772Y-116820239D02*
X138161010Y-116772620D01*
X138161010Y-116772620D02*
X138684820Y-116772620D01*
X138018153Y-116296429D02*
X138684820Y-116296429D01*
X138113391Y-116296429D02*
X138065772Y-116248810D01*
X138065772Y-116248810D02*
X138018153Y-116153572D01*
X138018153Y-116153572D02*
X138018153Y-116010715D01*
X138018153Y-116010715D02*
X138065772Y-115915477D01*
X138065772Y-115915477D02*
X138161010Y-115867858D01*
X138161010Y-115867858D02*
X138684820Y-115867858D01*
X138780058Y-115629763D02*
X138780058Y-114867858D01*
X137684820Y-114439286D02*
X137684820Y-114344048D01*
X137684820Y-114344048D02*
X137732439Y-114248810D01*
X137732439Y-114248810D02*
X137780058Y-114201191D01*
X137780058Y-114201191D02*
X137875296Y-114153572D01*
X137875296Y-114153572D02*
X138065772Y-114105953D01*
X138065772Y-114105953D02*
X138303867Y-114105953D01*
X138303867Y-114105953D02*
X138494343Y-114153572D01*
X138494343Y-114153572D02*
X138589581Y-114201191D01*
X138589581Y-114201191D02*
X138637201Y-114248810D01*
X138637201Y-114248810D02*
X138684820Y-114344048D01*
X138684820Y-114344048D02*
X138684820Y-114439286D01*
X138684820Y-114439286D02*
X138637201Y-114534524D01*
X138637201Y-114534524D02*
X138589581Y-114582143D01*
X138589581Y-114582143D02*
X138494343Y-114629762D01*
X138494343Y-114629762D02*
X138303867Y-114677381D01*
X138303867Y-114677381D02*
X138065772Y-114677381D01*
X138065772Y-114677381D02*
X137875296Y-114629762D01*
X137875296Y-114629762D02*
X137780058Y-114582143D01*
X137780058Y-114582143D02*
X137732439Y-114534524D01*
X137732439Y-114534524D02*
X137684820Y-114439286D01*
X138684820Y-113153572D02*
X138684820Y-113725000D01*
X138684820Y-113439286D02*
X137684820Y-113439286D01*
X137684820Y-113439286D02*
X137827677Y-113534524D01*
X137827677Y-113534524D02*
X137922915Y-113629762D01*
X137922915Y-113629762D02*
X137970534Y-113725000D01*
X138684820Y-112820238D02*
X138018153Y-112296429D01*
X138018153Y-112820238D02*
X138684820Y-112296429D01*
X137684820Y-111725000D02*
X137684820Y-111629762D01*
X137684820Y-111629762D02*
X137732439Y-111534524D01*
X137732439Y-111534524D02*
X137780058Y-111486905D01*
X137780058Y-111486905D02*
X137875296Y-111439286D01*
X137875296Y-111439286D02*
X138065772Y-111391667D01*
X138065772Y-111391667D02*
X138303867Y-111391667D01*
X138303867Y-111391667D02*
X138494343Y-111439286D01*
X138494343Y-111439286D02*
X138589581Y-111486905D01*
X138589581Y-111486905D02*
X138637201Y-111534524D01*
X138637201Y-111534524D02*
X138684820Y-111629762D01*
X138684820Y-111629762D02*
X138684820Y-111725000D01*
X138684820Y-111725000D02*
X138637201Y-111820238D01*
X138637201Y-111820238D02*
X138589581Y-111867857D01*
X138589581Y-111867857D02*
X138494343Y-111915476D01*
X138494343Y-111915476D02*
X138303867Y-111963095D01*
X138303867Y-111963095D02*
X138065772Y-111963095D01*
X138065772Y-111963095D02*
X137875296Y-111915476D01*
X137875296Y-111915476D02*
X137780058Y-111867857D01*
X137780058Y-111867857D02*
X137732439Y-111820238D01*
X137732439Y-111820238D02*
X137684820Y-111725000D01*
X137684820Y-111058333D02*
X137684820Y-110439286D01*
X137684820Y-110439286D02*
X138065772Y-110772619D01*
X138065772Y-110772619D02*
X138065772Y-110629762D01*
X138065772Y-110629762D02*
X138113391Y-110534524D01*
X138113391Y-110534524D02*
X138161010Y-110486905D01*
X138161010Y-110486905D02*
X138256248Y-110439286D01*
X138256248Y-110439286D02*
X138494343Y-110439286D01*
X138494343Y-110439286D02*
X138589581Y-110486905D01*
X138589581Y-110486905D02*
X138637201Y-110534524D01*
X138637201Y-110534524D02*
X138684820Y-110629762D01*
X138684820Y-110629762D02*
X138684820Y-110915476D01*
X138684820Y-110915476D02*
X138637201Y-111010714D01*
X138637201Y-111010714D02*
X138589581Y-111058333D01*
X138780058Y-110248810D02*
X138780058Y-109486905D01*
X138684820Y-109248809D02*
X137684820Y-109248809D01*
X137684820Y-109248809D02*
X137684820Y-108867857D01*
X137684820Y-108867857D02*
X137732439Y-108772619D01*
X137732439Y-108772619D02*
X137780058Y-108725000D01*
X137780058Y-108725000D02*
X137875296Y-108677381D01*
X137875296Y-108677381D02*
X138018153Y-108677381D01*
X138018153Y-108677381D02*
X138113391Y-108725000D01*
X138113391Y-108725000D02*
X138161010Y-108772619D01*
X138161010Y-108772619D02*
X138208629Y-108867857D01*
X138208629Y-108867857D02*
X138208629Y-109248809D01*
X138684820Y-108248809D02*
X138018153Y-108248809D01*
X137684820Y-108248809D02*
X137732439Y-108296428D01*
X137732439Y-108296428D02*
X137780058Y-108248809D01*
X137780058Y-108248809D02*
X137732439Y-108201190D01*
X137732439Y-108201190D02*
X137684820Y-108248809D01*
X137684820Y-108248809D02*
X137780058Y-108248809D01*
X138018153Y-107772619D02*
X138684820Y-107772619D01*
X138113391Y-107772619D02*
X138065772Y-107725000D01*
X138065772Y-107725000D02*
X138018153Y-107629762D01*
X138018153Y-107629762D02*
X138018153Y-107486905D01*
X138018153Y-107486905D02*
X138065772Y-107391667D01*
X138065772Y-107391667D02*
X138161010Y-107344048D01*
X138161010Y-107344048D02*
X138684820Y-107344048D01*
X135784820Y-114034524D02*
X136499105Y-114034524D01*
X136499105Y-114034524D02*
X136641962Y-114082143D01*
X136641962Y-114082143D02*
X136737201Y-114177381D01*
X136737201Y-114177381D02*
X136784820Y-114320238D01*
X136784820Y-114320238D02*
X136784820Y-114415476D01*
X136784820Y-113034524D02*
X136784820Y-113605952D01*
X136784820Y-113320238D02*
X135784820Y-113320238D01*
X135784820Y-113320238D02*
X135927677Y-113415476D01*
X135927677Y-113415476D02*
X136022915Y-113510714D01*
X136022915Y-113510714D02*
X136070534Y-113605952D01*
X135784820Y-112177381D02*
X135784820Y-112367857D01*
X135784820Y-112367857D02*
X135832439Y-112463095D01*
X135832439Y-112463095D02*
X135880058Y-112510714D01*
X135880058Y-112510714D02*
X136022915Y-112605952D01*
X136022915Y-112605952D02*
X136213391Y-112653571D01*
X136213391Y-112653571D02*
X136594343Y-112653571D01*
X136594343Y-112653571D02*
X136689581Y-112605952D01*
X136689581Y-112605952D02*
X136737201Y-112558333D01*
X136737201Y-112558333D02*
X136784820Y-112463095D01*
X136784820Y-112463095D02*
X136784820Y-112272619D01*
X136784820Y-112272619D02*
X136737201Y-112177381D01*
X136737201Y-112177381D02*
X136689581Y-112129762D01*
X136689581Y-112129762D02*
X136594343Y-112082143D01*
X136594343Y-112082143D02*
X136356248Y-112082143D01*
X136356248Y-112082143D02*
X136261010Y-112129762D01*
X136261010Y-112129762D02*
X136213391Y-112177381D01*
X136213391Y-112177381D02*
X136165772Y-112272619D01*
X136165772Y-112272619D02*
X136165772Y-112463095D01*
X136165772Y-112463095D02*
X136213391Y-112558333D01*
X136213391Y-112558333D02*
X136261010Y-112605952D01*
X136261010Y-112605952D02*
X136356248Y-112653571D01*
X179229581Y-143934525D02*
X179277201Y-143982144D01*
X179277201Y-143982144D02*
X179324820Y-144125001D01*
X179324820Y-144125001D02*
X179324820Y-144220239D01*
X179324820Y-144220239D02*
X179277201Y-144363096D01*
X179277201Y-144363096D02*
X179181962Y-144458334D01*
X179181962Y-144458334D02*
X179086724Y-144505953D01*
X179086724Y-144505953D02*
X178896248Y-144553572D01*
X178896248Y-144553572D02*
X178753391Y-144553572D01*
X178753391Y-144553572D02*
X178562915Y-144505953D01*
X178562915Y-144505953D02*
X178467677Y-144458334D01*
X178467677Y-144458334D02*
X178372439Y-144363096D01*
X178372439Y-144363096D02*
X178324820Y-144220239D01*
X178324820Y-144220239D02*
X178324820Y-144125001D01*
X178324820Y-144125001D02*
X178372439Y-143982144D01*
X178372439Y-143982144D02*
X178420058Y-143934525D01*
X179324820Y-143363096D02*
X179277201Y-143458334D01*
X179277201Y-143458334D02*
X179229581Y-143505953D01*
X179229581Y-143505953D02*
X179134343Y-143553572D01*
X179134343Y-143553572D02*
X178848629Y-143553572D01*
X178848629Y-143553572D02*
X178753391Y-143505953D01*
X178753391Y-143505953D02*
X178705772Y-143458334D01*
X178705772Y-143458334D02*
X178658153Y-143363096D01*
X178658153Y-143363096D02*
X178658153Y-143220239D01*
X178658153Y-143220239D02*
X178705772Y-143125001D01*
X178705772Y-143125001D02*
X178753391Y-143077382D01*
X178753391Y-143077382D02*
X178848629Y-143029763D01*
X178848629Y-143029763D02*
X179134343Y-143029763D01*
X179134343Y-143029763D02*
X179229581Y-143077382D01*
X179229581Y-143077382D02*
X179277201Y-143125001D01*
X179277201Y-143125001D02*
X179324820Y-143220239D01*
X179324820Y-143220239D02*
X179324820Y-143363096D01*
X178658153Y-142601191D02*
X179324820Y-142601191D01*
X178753391Y-142601191D02*
X178705772Y-142553572D01*
X178705772Y-142553572D02*
X178658153Y-142458334D01*
X178658153Y-142458334D02*
X178658153Y-142315477D01*
X178658153Y-142315477D02*
X178705772Y-142220239D01*
X178705772Y-142220239D02*
X178801010Y-142172620D01*
X178801010Y-142172620D02*
X179324820Y-142172620D01*
X178658153Y-141696429D02*
X179324820Y-141696429D01*
X178753391Y-141696429D02*
X178705772Y-141648810D01*
X178705772Y-141648810D02*
X178658153Y-141553572D01*
X178658153Y-141553572D02*
X178658153Y-141410715D01*
X178658153Y-141410715D02*
X178705772Y-141315477D01*
X178705772Y-141315477D02*
X178801010Y-141267858D01*
X178801010Y-141267858D02*
X179324820Y-141267858D01*
X179420058Y-141029763D02*
X179420058Y-140267858D01*
X178324820Y-139839286D02*
X178324820Y-139744048D01*
X178324820Y-139744048D02*
X178372439Y-139648810D01*
X178372439Y-139648810D02*
X178420058Y-139601191D01*
X178420058Y-139601191D02*
X178515296Y-139553572D01*
X178515296Y-139553572D02*
X178705772Y-139505953D01*
X178705772Y-139505953D02*
X178943867Y-139505953D01*
X178943867Y-139505953D02*
X179134343Y-139553572D01*
X179134343Y-139553572D02*
X179229581Y-139601191D01*
X179229581Y-139601191D02*
X179277201Y-139648810D01*
X179277201Y-139648810D02*
X179324820Y-139744048D01*
X179324820Y-139744048D02*
X179324820Y-139839286D01*
X179324820Y-139839286D02*
X179277201Y-139934524D01*
X179277201Y-139934524D02*
X179229581Y-139982143D01*
X179229581Y-139982143D02*
X179134343Y-140029762D01*
X179134343Y-140029762D02*
X178943867Y-140077381D01*
X178943867Y-140077381D02*
X178705772Y-140077381D01*
X178705772Y-140077381D02*
X178515296Y-140029762D01*
X178515296Y-140029762D02*
X178420058Y-139982143D01*
X178420058Y-139982143D02*
X178372439Y-139934524D01*
X178372439Y-139934524D02*
X178324820Y-139839286D01*
X179324820Y-138553572D02*
X179324820Y-139125000D01*
X179324820Y-138839286D02*
X178324820Y-138839286D01*
X178324820Y-138839286D02*
X178467677Y-138934524D01*
X178467677Y-138934524D02*
X178562915Y-139029762D01*
X178562915Y-139029762D02*
X178610534Y-139125000D01*
X179324820Y-138220238D02*
X178658153Y-137696429D01*
X178658153Y-138220238D02*
X179324820Y-137696429D01*
X178324820Y-137125000D02*
X178324820Y-137029762D01*
X178324820Y-137029762D02*
X178372439Y-136934524D01*
X178372439Y-136934524D02*
X178420058Y-136886905D01*
X178420058Y-136886905D02*
X178515296Y-136839286D01*
X178515296Y-136839286D02*
X178705772Y-136791667D01*
X178705772Y-136791667D02*
X178943867Y-136791667D01*
X178943867Y-136791667D02*
X179134343Y-136839286D01*
X179134343Y-136839286D02*
X179229581Y-136886905D01*
X179229581Y-136886905D02*
X179277201Y-136934524D01*
X179277201Y-136934524D02*
X179324820Y-137029762D01*
X179324820Y-137029762D02*
X179324820Y-137125000D01*
X179324820Y-137125000D02*
X179277201Y-137220238D01*
X179277201Y-137220238D02*
X179229581Y-137267857D01*
X179229581Y-137267857D02*
X179134343Y-137315476D01*
X179134343Y-137315476D02*
X178943867Y-137363095D01*
X178943867Y-137363095D02*
X178705772Y-137363095D01*
X178705772Y-137363095D02*
X178515296Y-137315476D01*
X178515296Y-137315476D02*
X178420058Y-137267857D01*
X178420058Y-137267857D02*
X178372439Y-137220238D01*
X178372439Y-137220238D02*
X178324820Y-137125000D01*
X178324820Y-136458333D02*
X178324820Y-135839286D01*
X178324820Y-135839286D02*
X178705772Y-136172619D01*
X178705772Y-136172619D02*
X178705772Y-136029762D01*
X178705772Y-136029762D02*
X178753391Y-135934524D01*
X178753391Y-135934524D02*
X178801010Y-135886905D01*
X178801010Y-135886905D02*
X178896248Y-135839286D01*
X178896248Y-135839286D02*
X179134343Y-135839286D01*
X179134343Y-135839286D02*
X179229581Y-135886905D01*
X179229581Y-135886905D02*
X179277201Y-135934524D01*
X179277201Y-135934524D02*
X179324820Y-136029762D01*
X179324820Y-136029762D02*
X179324820Y-136315476D01*
X179324820Y-136315476D02*
X179277201Y-136410714D01*
X179277201Y-136410714D02*
X179229581Y-136458333D01*
X179420058Y-135648810D02*
X179420058Y-134886905D01*
X179324820Y-134648809D02*
X178324820Y-134648809D01*
X178324820Y-134648809D02*
X178324820Y-134267857D01*
X178324820Y-134267857D02*
X178372439Y-134172619D01*
X178372439Y-134172619D02*
X178420058Y-134125000D01*
X178420058Y-134125000D02*
X178515296Y-134077381D01*
X178515296Y-134077381D02*
X178658153Y-134077381D01*
X178658153Y-134077381D02*
X178753391Y-134125000D01*
X178753391Y-134125000D02*
X178801010Y-134172619D01*
X178801010Y-134172619D02*
X178848629Y-134267857D01*
X178848629Y-134267857D02*
X178848629Y-134648809D01*
X179324820Y-133648809D02*
X178658153Y-133648809D01*
X178324820Y-133648809D02*
X178372439Y-133696428D01*
X178372439Y-133696428D02*
X178420058Y-133648809D01*
X178420058Y-133648809D02*
X178372439Y-133601190D01*
X178372439Y-133601190D02*
X178324820Y-133648809D01*
X178324820Y-133648809D02*
X178420058Y-133648809D01*
X178658153Y-133172619D02*
X179324820Y-133172619D01*
X178753391Y-133172619D02*
X178705772Y-133125000D01*
X178705772Y-133125000D02*
X178658153Y-133029762D01*
X178658153Y-133029762D02*
X178658153Y-132886905D01*
X178658153Y-132886905D02*
X178705772Y-132791667D01*
X178705772Y-132791667D02*
X178801010Y-132744048D01*
X178801010Y-132744048D02*
X179324820Y-132744048D01*
X176424820Y-138958334D02*
X177139105Y-138958334D01*
X177139105Y-138958334D02*
X177281962Y-139005953D01*
X177281962Y-139005953D02*
X177377201Y-139101191D01*
X177377201Y-139101191D02*
X177424820Y-139244048D01*
X177424820Y-139244048D02*
X177424820Y-139339286D01*
X176424820Y-138053572D02*
X176424820Y-138244048D01*
X176424820Y-138244048D02*
X176472439Y-138339286D01*
X176472439Y-138339286D02*
X176520058Y-138386905D01*
X176520058Y-138386905D02*
X176662915Y-138482143D01*
X176662915Y-138482143D02*
X176853391Y-138529762D01*
X176853391Y-138529762D02*
X177234343Y-138529762D01*
X177234343Y-138529762D02*
X177329581Y-138482143D01*
X177329581Y-138482143D02*
X177377201Y-138434524D01*
X177377201Y-138434524D02*
X177424820Y-138339286D01*
X177424820Y-138339286D02*
X177424820Y-138148810D01*
X177424820Y-138148810D02*
X177377201Y-138053572D01*
X177377201Y-138053572D02*
X177329581Y-138005953D01*
X177329581Y-138005953D02*
X177234343Y-137958334D01*
X177234343Y-137958334D02*
X176996248Y-137958334D01*
X176996248Y-137958334D02*
X176901010Y-138005953D01*
X176901010Y-138005953D02*
X176853391Y-138053572D01*
X176853391Y-138053572D02*
X176805772Y-138148810D01*
X176805772Y-138148810D02*
X176805772Y-138339286D01*
X176805772Y-138339286D02*
X176853391Y-138434524D01*
X176853391Y-138434524D02*
X176901010Y-138482143D01*
X176901010Y-138482143D02*
X176996248Y-138529762D01*
X143057619Y-54084105D02*
X143533809Y-54084105D01*
X142962381Y-54369820D02*
X143295714Y-53369820D01*
X143295714Y-53369820D02*
X143629047Y-54369820D01*
X143962381Y-54369820D02*
X143962381Y-53703153D01*
X143962381Y-53893629D02*
X144010000Y-53798391D01*
X144010000Y-53798391D02*
X144057619Y-53750772D01*
X144057619Y-53750772D02*
X144152857Y-53703153D01*
X144152857Y-53703153D02*
X144248095Y-53703153D01*
X145010000Y-54369820D02*
X145010000Y-53369820D01*
X145010000Y-54322201D02*
X144914762Y-54369820D01*
X144914762Y-54369820D02*
X144724286Y-54369820D01*
X144724286Y-54369820D02*
X144629048Y-54322201D01*
X144629048Y-54322201D02*
X144581429Y-54274581D01*
X144581429Y-54274581D02*
X144533810Y-54179343D01*
X144533810Y-54179343D02*
X144533810Y-53893629D01*
X144533810Y-53893629D02*
X144581429Y-53798391D01*
X144581429Y-53798391D02*
X144629048Y-53750772D01*
X144629048Y-53750772D02*
X144724286Y-53703153D01*
X144724286Y-53703153D02*
X144914762Y-53703153D01*
X144914762Y-53703153D02*
X145010000Y-53750772D01*
X145914762Y-53703153D02*
X145914762Y-54369820D01*
X145486191Y-53703153D02*
X145486191Y-54226962D01*
X145486191Y-54226962D02*
X145533810Y-54322201D01*
X145533810Y-54322201D02*
X145629048Y-54369820D01*
X145629048Y-54369820D02*
X145771905Y-54369820D01*
X145771905Y-54369820D02*
X145867143Y-54322201D01*
X145867143Y-54322201D02*
X145914762Y-54274581D01*
X146390953Y-54369820D02*
X146390953Y-53703153D01*
X146390953Y-53369820D02*
X146343334Y-53417439D01*
X146343334Y-53417439D02*
X146390953Y-53465058D01*
X146390953Y-53465058D02*
X146438572Y-53417439D01*
X146438572Y-53417439D02*
X146390953Y-53369820D01*
X146390953Y-53369820D02*
X146390953Y-53465058D01*
X146867143Y-53703153D02*
X146867143Y-54369820D01*
X146867143Y-53798391D02*
X146914762Y-53750772D01*
X146914762Y-53750772D02*
X147010000Y-53703153D01*
X147010000Y-53703153D02*
X147152857Y-53703153D01*
X147152857Y-53703153D02*
X147248095Y-53750772D01*
X147248095Y-53750772D02*
X147295714Y-53846010D01*
X147295714Y-53846010D02*
X147295714Y-54369820D01*
X147914762Y-54369820D02*
X147819524Y-54322201D01*
X147819524Y-54322201D02*
X147771905Y-54274581D01*
X147771905Y-54274581D02*
X147724286Y-54179343D01*
X147724286Y-54179343D02*
X147724286Y-53893629D01*
X147724286Y-53893629D02*
X147771905Y-53798391D01*
X147771905Y-53798391D02*
X147819524Y-53750772D01*
X147819524Y-53750772D02*
X147914762Y-53703153D01*
X147914762Y-53703153D02*
X148057619Y-53703153D01*
X148057619Y-53703153D02*
X148152857Y-53750772D01*
X148152857Y-53750772D02*
X148200476Y-53798391D01*
X148200476Y-53798391D02*
X148248095Y-53893629D01*
X148248095Y-53893629D02*
X148248095Y-54179343D01*
X148248095Y-54179343D02*
X148200476Y-54274581D01*
X148200476Y-54274581D02*
X148152857Y-54322201D01*
X148152857Y-54322201D02*
X148057619Y-54369820D01*
X148057619Y-54369820D02*
X147914762Y-54369820D01*
X148438572Y-54465058D02*
X149200476Y-54465058D01*
X149438572Y-54369820D02*
X149438572Y-53369820D01*
X149438572Y-53369820D02*
X149771905Y-54084105D01*
X149771905Y-54084105D02*
X150105238Y-53369820D01*
X150105238Y-53369820D02*
X150105238Y-54369820D01*
X150581429Y-54369820D02*
X150581429Y-53369820D01*
X151152857Y-54369820D02*
X150724286Y-53798391D01*
X151152857Y-53369820D02*
X150581429Y-53941248D01*
X152152857Y-54369820D02*
X151819524Y-53893629D01*
X151581429Y-54369820D02*
X151581429Y-53369820D01*
X151581429Y-53369820D02*
X151962381Y-53369820D01*
X151962381Y-53369820D02*
X152057619Y-53417439D01*
X152057619Y-53417439D02*
X152105238Y-53465058D01*
X152105238Y-53465058D02*
X152152857Y-53560296D01*
X152152857Y-53560296D02*
X152152857Y-53703153D01*
X152152857Y-53703153D02*
X152105238Y-53798391D01*
X152105238Y-53798391D02*
X152057619Y-53846010D01*
X152057619Y-53846010D02*
X151962381Y-53893629D01*
X151962381Y-53893629D02*
X151581429Y-53893629D01*
X152343334Y-54465058D02*
X153105238Y-54465058D01*
X153248096Y-53369820D02*
X153914762Y-53369820D01*
X153914762Y-53369820D02*
X153248096Y-54369820D01*
X153248096Y-54369820D02*
X153914762Y-54369820D01*
X154676667Y-54322201D02*
X154581429Y-54369820D01*
X154581429Y-54369820D02*
X154390953Y-54369820D01*
X154390953Y-54369820D02*
X154295715Y-54322201D01*
X154295715Y-54322201D02*
X154248096Y-54226962D01*
X154248096Y-54226962D02*
X154248096Y-53846010D01*
X154248096Y-53846010D02*
X154295715Y-53750772D01*
X154295715Y-53750772D02*
X154390953Y-53703153D01*
X154390953Y-53703153D02*
X154581429Y-53703153D01*
X154581429Y-53703153D02*
X154676667Y-53750772D01*
X154676667Y-53750772D02*
X154724286Y-53846010D01*
X154724286Y-53846010D02*
X154724286Y-53941248D01*
X154724286Y-53941248D02*
X154248096Y-54036486D01*
X155152858Y-54369820D02*
X155152858Y-53703153D01*
X155152858Y-53893629D02*
X155200477Y-53798391D01*
X155200477Y-53798391D02*
X155248096Y-53750772D01*
X155248096Y-53750772D02*
X155343334Y-53703153D01*
X155343334Y-53703153D02*
X155438572Y-53703153D01*
X155914763Y-54369820D02*
X155819525Y-54322201D01*
X155819525Y-54322201D02*
X155771906Y-54274581D01*
X155771906Y-54274581D02*
X155724287Y-54179343D01*
X155724287Y-54179343D02*
X155724287Y-53893629D01*
X155724287Y-53893629D02*
X155771906Y-53798391D01*
X155771906Y-53798391D02*
X155819525Y-53750772D01*
X155819525Y-53750772D02*
X155914763Y-53703153D01*
X155914763Y-53703153D02*
X156057620Y-53703153D01*
X156057620Y-53703153D02*
X156152858Y-53750772D01*
X156152858Y-53750772D02*
X156200477Y-53798391D01*
X156200477Y-53798391D02*
X156248096Y-53893629D01*
X156248096Y-53893629D02*
X156248096Y-54179343D01*
X156248096Y-54179343D02*
X156200477Y-54274581D01*
X156200477Y-54274581D02*
X156152858Y-54322201D01*
X156152858Y-54322201D02*
X156057620Y-54369820D01*
X156057620Y-54369820D02*
X155914763Y-54369820D01*
X156438573Y-54465058D02*
X157200477Y-54465058D01*
X157390954Y-54322201D02*
X157533811Y-54369820D01*
X157533811Y-54369820D02*
X157771906Y-54369820D01*
X157771906Y-54369820D02*
X157867144Y-54322201D01*
X157867144Y-54322201D02*
X157914763Y-54274581D01*
X157914763Y-54274581D02*
X157962382Y-54179343D01*
X157962382Y-54179343D02*
X157962382Y-54084105D01*
X157962382Y-54084105D02*
X157914763Y-53988867D01*
X157914763Y-53988867D02*
X157867144Y-53941248D01*
X157867144Y-53941248D02*
X157771906Y-53893629D01*
X157771906Y-53893629D02*
X157581430Y-53846010D01*
X157581430Y-53846010D02*
X157486192Y-53798391D01*
X157486192Y-53798391D02*
X157438573Y-53750772D01*
X157438573Y-53750772D02*
X157390954Y-53655534D01*
X157390954Y-53655534D02*
X157390954Y-53560296D01*
X157390954Y-53560296D02*
X157438573Y-53465058D01*
X157438573Y-53465058D02*
X157486192Y-53417439D01*
X157486192Y-53417439D02*
X157581430Y-53369820D01*
X157581430Y-53369820D02*
X157819525Y-53369820D01*
X157819525Y-53369820D02*
X157962382Y-53417439D01*
X158533811Y-54369820D02*
X158438573Y-54322201D01*
X158438573Y-54322201D02*
X158390954Y-54274581D01*
X158390954Y-54274581D02*
X158343335Y-54179343D01*
X158343335Y-54179343D02*
X158343335Y-53893629D01*
X158343335Y-53893629D02*
X158390954Y-53798391D01*
X158390954Y-53798391D02*
X158438573Y-53750772D01*
X158438573Y-53750772D02*
X158533811Y-53703153D01*
X158533811Y-53703153D02*
X158676668Y-53703153D01*
X158676668Y-53703153D02*
X158771906Y-53750772D01*
X158771906Y-53750772D02*
X158819525Y-53798391D01*
X158819525Y-53798391D02*
X158867144Y-53893629D01*
X158867144Y-53893629D02*
X158867144Y-54179343D01*
X158867144Y-54179343D02*
X158819525Y-54274581D01*
X158819525Y-54274581D02*
X158771906Y-54322201D01*
X158771906Y-54322201D02*
X158676668Y-54369820D01*
X158676668Y-54369820D02*
X158533811Y-54369820D01*
X159724287Y-54322201D02*
X159629049Y-54369820D01*
X159629049Y-54369820D02*
X159438573Y-54369820D01*
X159438573Y-54369820D02*
X159343335Y-54322201D01*
X159343335Y-54322201D02*
X159295716Y-54274581D01*
X159295716Y-54274581D02*
X159248097Y-54179343D01*
X159248097Y-54179343D02*
X159248097Y-53893629D01*
X159248097Y-53893629D02*
X159295716Y-53798391D01*
X159295716Y-53798391D02*
X159343335Y-53750772D01*
X159343335Y-53750772D02*
X159438573Y-53703153D01*
X159438573Y-53703153D02*
X159629049Y-53703153D01*
X159629049Y-53703153D02*
X159724287Y-53750772D01*
X160152859Y-54369820D02*
X160152859Y-53369820D01*
X160248097Y-53988867D02*
X160533811Y-54369820D01*
X160533811Y-53703153D02*
X160152859Y-54084105D01*
X161343335Y-54322201D02*
X161248097Y-54369820D01*
X161248097Y-54369820D02*
X161057621Y-54369820D01*
X161057621Y-54369820D02*
X160962383Y-54322201D01*
X160962383Y-54322201D02*
X160914764Y-54226962D01*
X160914764Y-54226962D02*
X160914764Y-53846010D01*
X160914764Y-53846010D02*
X160962383Y-53750772D01*
X160962383Y-53750772D02*
X161057621Y-53703153D01*
X161057621Y-53703153D02*
X161248097Y-53703153D01*
X161248097Y-53703153D02*
X161343335Y-53750772D01*
X161343335Y-53750772D02*
X161390954Y-53846010D01*
X161390954Y-53846010D02*
X161390954Y-53941248D01*
X161390954Y-53941248D02*
X160914764Y-54036486D01*
X161676669Y-53703153D02*
X162057621Y-53703153D01*
X161819526Y-53369820D02*
X161819526Y-54226962D01*
X161819526Y-54226962D02*
X161867145Y-54322201D01*
X161867145Y-54322201D02*
X161962383Y-54369820D01*
X161962383Y-54369820D02*
X162057621Y-54369820D01*
D11*
X128262410Y-68145953D02*
X128667172Y-68145953D01*
X128667172Y-68145953D02*
X128714791Y-68122143D01*
X128714791Y-68122143D02*
X128738601Y-68098334D01*
X128738601Y-68098334D02*
X128762410Y-68050715D01*
X128762410Y-68050715D02*
X128762410Y-67955477D01*
X128762410Y-67955477D02*
X128738601Y-67907858D01*
X128738601Y-67907858D02*
X128714791Y-67884048D01*
X128714791Y-67884048D02*
X128667172Y-67860239D01*
X128667172Y-67860239D02*
X128262410Y-67860239D01*
X128738601Y-67645952D02*
X128762410Y-67574524D01*
X128762410Y-67574524D02*
X128762410Y-67455476D01*
X128762410Y-67455476D02*
X128738601Y-67407857D01*
X128738601Y-67407857D02*
X128714791Y-67384048D01*
X128714791Y-67384048D02*
X128667172Y-67360238D01*
X128667172Y-67360238D02*
X128619553Y-67360238D01*
X128619553Y-67360238D02*
X128571934Y-67384048D01*
X128571934Y-67384048D02*
X128548124Y-67407857D01*
X128548124Y-67407857D02*
X128524315Y-67455476D01*
X128524315Y-67455476D02*
X128500505Y-67550714D01*
X128500505Y-67550714D02*
X128476696Y-67598333D01*
X128476696Y-67598333D02*
X128452886Y-67622143D01*
X128452886Y-67622143D02*
X128405267Y-67645952D01*
X128405267Y-67645952D02*
X128357648Y-67645952D01*
X128357648Y-67645952D02*
X128310029Y-67622143D01*
X128310029Y-67622143D02*
X128286220Y-67598333D01*
X128286220Y-67598333D02*
X128262410Y-67550714D01*
X128262410Y-67550714D02*
X128262410Y-67431667D01*
X128262410Y-67431667D02*
X128286220Y-67360238D01*
X128500505Y-66979286D02*
X128524315Y-66907858D01*
X128524315Y-66907858D02*
X128548124Y-66884048D01*
X128548124Y-66884048D02*
X128595743Y-66860239D01*
X128595743Y-66860239D02*
X128667172Y-66860239D01*
X128667172Y-66860239D02*
X128714791Y-66884048D01*
X128714791Y-66884048D02*
X128738601Y-66907858D01*
X128738601Y-66907858D02*
X128762410Y-66955477D01*
X128762410Y-66955477D02*
X128762410Y-67145953D01*
X128762410Y-67145953D02*
X128262410Y-67145953D01*
X128262410Y-67145953D02*
X128262410Y-66979286D01*
X128262410Y-66979286D02*
X128286220Y-66931667D01*
X128286220Y-66931667D02*
X128310029Y-66907858D01*
X128310029Y-66907858D02*
X128357648Y-66884048D01*
X128357648Y-66884048D02*
X128405267Y-66884048D01*
X128405267Y-66884048D02*
X128452886Y-66907858D01*
X128452886Y-66907858D02*
X128476696Y-66931667D01*
X128476696Y-66931667D02*
X128500505Y-66979286D01*
X128500505Y-66979286D02*
X128500505Y-67145953D01*
X191638601Y-69251476D02*
X191662410Y-69180048D01*
X191662410Y-69180048D02*
X191662410Y-69061000D01*
X191662410Y-69061000D02*
X191638601Y-69013381D01*
X191638601Y-69013381D02*
X191614791Y-68989572D01*
X191614791Y-68989572D02*
X191567172Y-68965762D01*
X191567172Y-68965762D02*
X191519553Y-68965762D01*
X191519553Y-68965762D02*
X191471934Y-68989572D01*
X191471934Y-68989572D02*
X191448124Y-69013381D01*
X191448124Y-69013381D02*
X191424315Y-69061000D01*
X191424315Y-69061000D02*
X191400505Y-69156238D01*
X191400505Y-69156238D02*
X191376696Y-69203857D01*
X191376696Y-69203857D02*
X191352886Y-69227667D01*
X191352886Y-69227667D02*
X191305267Y-69251476D01*
X191305267Y-69251476D02*
X191257648Y-69251476D01*
X191257648Y-69251476D02*
X191210029Y-69227667D01*
X191210029Y-69227667D02*
X191186220Y-69203857D01*
X191186220Y-69203857D02*
X191162410Y-69156238D01*
X191162410Y-69156238D02*
X191162410Y-69037191D01*
X191162410Y-69037191D02*
X191186220Y-68965762D01*
X191662410Y-68751477D02*
X191162410Y-68751477D01*
X191162410Y-68751477D02*
X191162410Y-68632429D01*
X191162410Y-68632429D02*
X191186220Y-68561001D01*
X191186220Y-68561001D02*
X191233839Y-68513382D01*
X191233839Y-68513382D02*
X191281458Y-68489572D01*
X191281458Y-68489572D02*
X191376696Y-68465763D01*
X191376696Y-68465763D02*
X191448124Y-68465763D01*
X191448124Y-68465763D02*
X191543362Y-68489572D01*
X191543362Y-68489572D02*
X191590981Y-68513382D01*
X191590981Y-68513382D02*
X191638601Y-68561001D01*
X191638601Y-68561001D02*
X191662410Y-68632429D01*
X191662410Y-68632429D02*
X191662410Y-68751477D01*
X191614791Y-67584811D02*
X191638601Y-67608620D01*
X191638601Y-67608620D02*
X191662410Y-67680049D01*
X191662410Y-67680049D02*
X191662410Y-67727668D01*
X191662410Y-67727668D02*
X191638601Y-67799096D01*
X191638601Y-67799096D02*
X191590981Y-67846715D01*
X191590981Y-67846715D02*
X191543362Y-67870525D01*
X191543362Y-67870525D02*
X191448124Y-67894334D01*
X191448124Y-67894334D02*
X191376696Y-67894334D01*
X191376696Y-67894334D02*
X191281458Y-67870525D01*
X191281458Y-67870525D02*
X191233839Y-67846715D01*
X191233839Y-67846715D02*
X191186220Y-67799096D01*
X191186220Y-67799096D02*
X191162410Y-67727668D01*
X191162410Y-67727668D02*
X191162410Y-67680049D01*
X191162410Y-67680049D02*
X191186220Y-67608620D01*
X191186220Y-67608620D02*
X191210029Y-67584811D01*
X191662410Y-67156239D02*
X191400505Y-67156239D01*
X191400505Y-67156239D02*
X191352886Y-67180049D01*
X191352886Y-67180049D02*
X191329077Y-67227668D01*
X191329077Y-67227668D02*
X191329077Y-67322906D01*
X191329077Y-67322906D02*
X191352886Y-67370525D01*
X191638601Y-67156239D02*
X191662410Y-67203858D01*
X191662410Y-67203858D02*
X191662410Y-67322906D01*
X191662410Y-67322906D02*
X191638601Y-67370525D01*
X191638601Y-67370525D02*
X191590981Y-67394334D01*
X191590981Y-67394334D02*
X191543362Y-67394334D01*
X191543362Y-67394334D02*
X191495743Y-67370525D01*
X191495743Y-67370525D02*
X191471934Y-67322906D01*
X191471934Y-67322906D02*
X191471934Y-67203858D01*
X191471934Y-67203858D02*
X191448124Y-67156239D01*
X191662410Y-66918144D02*
X191329077Y-66918144D01*
X191424315Y-66918144D02*
X191376696Y-66894334D01*
X191376696Y-66894334D02*
X191352886Y-66870525D01*
X191352886Y-66870525D02*
X191329077Y-66822906D01*
X191329077Y-66822906D02*
X191329077Y-66775287D01*
X191662410Y-66394334D02*
X191162410Y-66394334D01*
X191638601Y-66394334D02*
X191662410Y-66441953D01*
X191662410Y-66441953D02*
X191662410Y-66537191D01*
X191662410Y-66537191D02*
X191638601Y-66584810D01*
X191638601Y-66584810D02*
X191614791Y-66608620D01*
X191614791Y-66608620D02*
X191567172Y-66632429D01*
X191567172Y-66632429D02*
X191424315Y-66632429D01*
X191424315Y-66632429D02*
X191376696Y-66608620D01*
X191376696Y-66608620D02*
X191352886Y-66584810D01*
X191352886Y-66584810D02*
X191329077Y-66537191D01*
X191329077Y-66537191D02*
X191329077Y-66441953D01*
X191329077Y-66441953D02*
X191352886Y-66394334D01*
D10*
X148749581Y-118534525D02*
X148797201Y-118582144D01*
X148797201Y-118582144D02*
X148844820Y-118725001D01*
X148844820Y-118725001D02*
X148844820Y-118820239D01*
X148844820Y-118820239D02*
X148797201Y-118963096D01*
X148797201Y-118963096D02*
X148701962Y-119058334D01*
X148701962Y-119058334D02*
X148606724Y-119105953D01*
X148606724Y-119105953D02*
X148416248Y-119153572D01*
X148416248Y-119153572D02*
X148273391Y-119153572D01*
X148273391Y-119153572D02*
X148082915Y-119105953D01*
X148082915Y-119105953D02*
X147987677Y-119058334D01*
X147987677Y-119058334D02*
X147892439Y-118963096D01*
X147892439Y-118963096D02*
X147844820Y-118820239D01*
X147844820Y-118820239D02*
X147844820Y-118725001D01*
X147844820Y-118725001D02*
X147892439Y-118582144D01*
X147892439Y-118582144D02*
X147940058Y-118534525D01*
X148844820Y-117963096D02*
X148797201Y-118058334D01*
X148797201Y-118058334D02*
X148749581Y-118105953D01*
X148749581Y-118105953D02*
X148654343Y-118153572D01*
X148654343Y-118153572D02*
X148368629Y-118153572D01*
X148368629Y-118153572D02*
X148273391Y-118105953D01*
X148273391Y-118105953D02*
X148225772Y-118058334D01*
X148225772Y-118058334D02*
X148178153Y-117963096D01*
X148178153Y-117963096D02*
X148178153Y-117820239D01*
X148178153Y-117820239D02*
X148225772Y-117725001D01*
X148225772Y-117725001D02*
X148273391Y-117677382D01*
X148273391Y-117677382D02*
X148368629Y-117629763D01*
X148368629Y-117629763D02*
X148654343Y-117629763D01*
X148654343Y-117629763D02*
X148749581Y-117677382D01*
X148749581Y-117677382D02*
X148797201Y-117725001D01*
X148797201Y-117725001D02*
X148844820Y-117820239D01*
X148844820Y-117820239D02*
X148844820Y-117963096D01*
X148178153Y-117201191D02*
X148844820Y-117201191D01*
X148273391Y-117201191D02*
X148225772Y-117153572D01*
X148225772Y-117153572D02*
X148178153Y-117058334D01*
X148178153Y-117058334D02*
X148178153Y-116915477D01*
X148178153Y-116915477D02*
X148225772Y-116820239D01*
X148225772Y-116820239D02*
X148321010Y-116772620D01*
X148321010Y-116772620D02*
X148844820Y-116772620D01*
X148178153Y-116296429D02*
X148844820Y-116296429D01*
X148273391Y-116296429D02*
X148225772Y-116248810D01*
X148225772Y-116248810D02*
X148178153Y-116153572D01*
X148178153Y-116153572D02*
X148178153Y-116010715D01*
X148178153Y-116010715D02*
X148225772Y-115915477D01*
X148225772Y-115915477D02*
X148321010Y-115867858D01*
X148321010Y-115867858D02*
X148844820Y-115867858D01*
X148940058Y-115629763D02*
X148940058Y-114867858D01*
X147844820Y-114439286D02*
X147844820Y-114344048D01*
X147844820Y-114344048D02*
X147892439Y-114248810D01*
X147892439Y-114248810D02*
X147940058Y-114201191D01*
X147940058Y-114201191D02*
X148035296Y-114153572D01*
X148035296Y-114153572D02*
X148225772Y-114105953D01*
X148225772Y-114105953D02*
X148463867Y-114105953D01*
X148463867Y-114105953D02*
X148654343Y-114153572D01*
X148654343Y-114153572D02*
X148749581Y-114201191D01*
X148749581Y-114201191D02*
X148797201Y-114248810D01*
X148797201Y-114248810D02*
X148844820Y-114344048D01*
X148844820Y-114344048D02*
X148844820Y-114439286D01*
X148844820Y-114439286D02*
X148797201Y-114534524D01*
X148797201Y-114534524D02*
X148749581Y-114582143D01*
X148749581Y-114582143D02*
X148654343Y-114629762D01*
X148654343Y-114629762D02*
X148463867Y-114677381D01*
X148463867Y-114677381D02*
X148225772Y-114677381D01*
X148225772Y-114677381D02*
X148035296Y-114629762D01*
X148035296Y-114629762D02*
X147940058Y-114582143D01*
X147940058Y-114582143D02*
X147892439Y-114534524D01*
X147892439Y-114534524D02*
X147844820Y-114439286D01*
X148844820Y-113153572D02*
X148844820Y-113725000D01*
X148844820Y-113439286D02*
X147844820Y-113439286D01*
X147844820Y-113439286D02*
X147987677Y-113534524D01*
X147987677Y-113534524D02*
X148082915Y-113629762D01*
X148082915Y-113629762D02*
X148130534Y-113725000D01*
X148844820Y-112820238D02*
X148178153Y-112296429D01*
X148178153Y-112820238D02*
X148844820Y-112296429D01*
X147844820Y-111725000D02*
X147844820Y-111629762D01*
X147844820Y-111629762D02*
X147892439Y-111534524D01*
X147892439Y-111534524D02*
X147940058Y-111486905D01*
X147940058Y-111486905D02*
X148035296Y-111439286D01*
X148035296Y-111439286D02*
X148225772Y-111391667D01*
X148225772Y-111391667D02*
X148463867Y-111391667D01*
X148463867Y-111391667D02*
X148654343Y-111439286D01*
X148654343Y-111439286D02*
X148749581Y-111486905D01*
X148749581Y-111486905D02*
X148797201Y-111534524D01*
X148797201Y-111534524D02*
X148844820Y-111629762D01*
X148844820Y-111629762D02*
X148844820Y-111725000D01*
X148844820Y-111725000D02*
X148797201Y-111820238D01*
X148797201Y-111820238D02*
X148749581Y-111867857D01*
X148749581Y-111867857D02*
X148654343Y-111915476D01*
X148654343Y-111915476D02*
X148463867Y-111963095D01*
X148463867Y-111963095D02*
X148225772Y-111963095D01*
X148225772Y-111963095D02*
X148035296Y-111915476D01*
X148035296Y-111915476D02*
X147940058Y-111867857D01*
X147940058Y-111867857D02*
X147892439Y-111820238D01*
X147892439Y-111820238D02*
X147844820Y-111725000D01*
X147844820Y-111058333D02*
X147844820Y-110439286D01*
X147844820Y-110439286D02*
X148225772Y-110772619D01*
X148225772Y-110772619D02*
X148225772Y-110629762D01*
X148225772Y-110629762D02*
X148273391Y-110534524D01*
X148273391Y-110534524D02*
X148321010Y-110486905D01*
X148321010Y-110486905D02*
X148416248Y-110439286D01*
X148416248Y-110439286D02*
X148654343Y-110439286D01*
X148654343Y-110439286D02*
X148749581Y-110486905D01*
X148749581Y-110486905D02*
X148797201Y-110534524D01*
X148797201Y-110534524D02*
X148844820Y-110629762D01*
X148844820Y-110629762D02*
X148844820Y-110915476D01*
X148844820Y-110915476D02*
X148797201Y-111010714D01*
X148797201Y-111010714D02*
X148749581Y-111058333D01*
X148940058Y-110248810D02*
X148940058Y-109486905D01*
X148844820Y-109248809D02*
X147844820Y-109248809D01*
X147844820Y-109248809D02*
X147844820Y-108867857D01*
X147844820Y-108867857D02*
X147892439Y-108772619D01*
X147892439Y-108772619D02*
X147940058Y-108725000D01*
X147940058Y-108725000D02*
X148035296Y-108677381D01*
X148035296Y-108677381D02*
X148178153Y-108677381D01*
X148178153Y-108677381D02*
X148273391Y-108725000D01*
X148273391Y-108725000D02*
X148321010Y-108772619D01*
X148321010Y-108772619D02*
X148368629Y-108867857D01*
X148368629Y-108867857D02*
X148368629Y-109248809D01*
X148844820Y-108248809D02*
X148178153Y-108248809D01*
X147844820Y-108248809D02*
X147892439Y-108296428D01*
X147892439Y-108296428D02*
X147940058Y-108248809D01*
X147940058Y-108248809D02*
X147892439Y-108201190D01*
X147892439Y-108201190D02*
X147844820Y-108248809D01*
X147844820Y-108248809D02*
X147940058Y-108248809D01*
X148178153Y-107772619D02*
X148844820Y-107772619D01*
X148273391Y-107772619D02*
X148225772Y-107725000D01*
X148225772Y-107725000D02*
X148178153Y-107629762D01*
X148178153Y-107629762D02*
X148178153Y-107486905D01*
X148178153Y-107486905D02*
X148225772Y-107391667D01*
X148225772Y-107391667D02*
X148321010Y-107344048D01*
X148321010Y-107344048D02*
X148844820Y-107344048D01*
X145944820Y-114034524D02*
X146659105Y-114034524D01*
X146659105Y-114034524D02*
X146801962Y-114082143D01*
X146801962Y-114082143D02*
X146897201Y-114177381D01*
X146897201Y-114177381D02*
X146944820Y-114320238D01*
X146944820Y-114320238D02*
X146944820Y-114415476D01*
X146944820Y-113034524D02*
X146944820Y-113605952D01*
X146944820Y-113320238D02*
X145944820Y-113320238D01*
X145944820Y-113320238D02*
X146087677Y-113415476D01*
X146087677Y-113415476D02*
X146182915Y-113510714D01*
X146182915Y-113510714D02*
X146230534Y-113605952D01*
X145944820Y-112701190D02*
X145944820Y-112034524D01*
X145944820Y-112034524D02*
X146944820Y-112463095D01*
X148749581Y-143934525D02*
X148797201Y-143982144D01*
X148797201Y-143982144D02*
X148844820Y-144125001D01*
X148844820Y-144125001D02*
X148844820Y-144220239D01*
X148844820Y-144220239D02*
X148797201Y-144363096D01*
X148797201Y-144363096D02*
X148701962Y-144458334D01*
X148701962Y-144458334D02*
X148606724Y-144505953D01*
X148606724Y-144505953D02*
X148416248Y-144553572D01*
X148416248Y-144553572D02*
X148273391Y-144553572D01*
X148273391Y-144553572D02*
X148082915Y-144505953D01*
X148082915Y-144505953D02*
X147987677Y-144458334D01*
X147987677Y-144458334D02*
X147892439Y-144363096D01*
X147892439Y-144363096D02*
X147844820Y-144220239D01*
X147844820Y-144220239D02*
X147844820Y-144125001D01*
X147844820Y-144125001D02*
X147892439Y-143982144D01*
X147892439Y-143982144D02*
X147940058Y-143934525D01*
X148844820Y-143363096D02*
X148797201Y-143458334D01*
X148797201Y-143458334D02*
X148749581Y-143505953D01*
X148749581Y-143505953D02*
X148654343Y-143553572D01*
X148654343Y-143553572D02*
X148368629Y-143553572D01*
X148368629Y-143553572D02*
X148273391Y-143505953D01*
X148273391Y-143505953D02*
X148225772Y-143458334D01*
X148225772Y-143458334D02*
X148178153Y-143363096D01*
X148178153Y-143363096D02*
X148178153Y-143220239D01*
X148178153Y-143220239D02*
X148225772Y-143125001D01*
X148225772Y-143125001D02*
X148273391Y-143077382D01*
X148273391Y-143077382D02*
X148368629Y-143029763D01*
X148368629Y-143029763D02*
X148654343Y-143029763D01*
X148654343Y-143029763D02*
X148749581Y-143077382D01*
X148749581Y-143077382D02*
X148797201Y-143125001D01*
X148797201Y-143125001D02*
X148844820Y-143220239D01*
X148844820Y-143220239D02*
X148844820Y-143363096D01*
X148178153Y-142601191D02*
X148844820Y-142601191D01*
X148273391Y-142601191D02*
X148225772Y-142553572D01*
X148225772Y-142553572D02*
X148178153Y-142458334D01*
X148178153Y-142458334D02*
X148178153Y-142315477D01*
X148178153Y-142315477D02*
X148225772Y-142220239D01*
X148225772Y-142220239D02*
X148321010Y-142172620D01*
X148321010Y-142172620D02*
X148844820Y-142172620D01*
X148178153Y-141696429D02*
X148844820Y-141696429D01*
X148273391Y-141696429D02*
X148225772Y-141648810D01*
X148225772Y-141648810D02*
X148178153Y-141553572D01*
X148178153Y-141553572D02*
X148178153Y-141410715D01*
X148178153Y-141410715D02*
X148225772Y-141315477D01*
X148225772Y-141315477D02*
X148321010Y-141267858D01*
X148321010Y-141267858D02*
X148844820Y-141267858D01*
X148940058Y-141029763D02*
X148940058Y-140267858D01*
X147844820Y-139839286D02*
X147844820Y-139744048D01*
X147844820Y-139744048D02*
X147892439Y-139648810D01*
X147892439Y-139648810D02*
X147940058Y-139601191D01*
X147940058Y-139601191D02*
X148035296Y-139553572D01*
X148035296Y-139553572D02*
X148225772Y-139505953D01*
X148225772Y-139505953D02*
X148463867Y-139505953D01*
X148463867Y-139505953D02*
X148654343Y-139553572D01*
X148654343Y-139553572D02*
X148749581Y-139601191D01*
X148749581Y-139601191D02*
X148797201Y-139648810D01*
X148797201Y-139648810D02*
X148844820Y-139744048D01*
X148844820Y-139744048D02*
X148844820Y-139839286D01*
X148844820Y-139839286D02*
X148797201Y-139934524D01*
X148797201Y-139934524D02*
X148749581Y-139982143D01*
X148749581Y-139982143D02*
X148654343Y-140029762D01*
X148654343Y-140029762D02*
X148463867Y-140077381D01*
X148463867Y-140077381D02*
X148225772Y-140077381D01*
X148225772Y-140077381D02*
X148035296Y-140029762D01*
X148035296Y-140029762D02*
X147940058Y-139982143D01*
X147940058Y-139982143D02*
X147892439Y-139934524D01*
X147892439Y-139934524D02*
X147844820Y-139839286D01*
X148844820Y-138553572D02*
X148844820Y-139125000D01*
X148844820Y-138839286D02*
X147844820Y-138839286D01*
X147844820Y-138839286D02*
X147987677Y-138934524D01*
X147987677Y-138934524D02*
X148082915Y-139029762D01*
X148082915Y-139029762D02*
X148130534Y-139125000D01*
X148844820Y-138220238D02*
X148178153Y-137696429D01*
X148178153Y-138220238D02*
X148844820Y-137696429D01*
X147844820Y-137125000D02*
X147844820Y-137029762D01*
X147844820Y-137029762D02*
X147892439Y-136934524D01*
X147892439Y-136934524D02*
X147940058Y-136886905D01*
X147940058Y-136886905D02*
X148035296Y-136839286D01*
X148035296Y-136839286D02*
X148225772Y-136791667D01*
X148225772Y-136791667D02*
X148463867Y-136791667D01*
X148463867Y-136791667D02*
X148654343Y-136839286D01*
X148654343Y-136839286D02*
X148749581Y-136886905D01*
X148749581Y-136886905D02*
X148797201Y-136934524D01*
X148797201Y-136934524D02*
X148844820Y-137029762D01*
X148844820Y-137029762D02*
X148844820Y-137125000D01*
X148844820Y-137125000D02*
X148797201Y-137220238D01*
X148797201Y-137220238D02*
X148749581Y-137267857D01*
X148749581Y-137267857D02*
X148654343Y-137315476D01*
X148654343Y-137315476D02*
X148463867Y-137363095D01*
X148463867Y-137363095D02*
X148225772Y-137363095D01*
X148225772Y-137363095D02*
X148035296Y-137315476D01*
X148035296Y-137315476D02*
X147940058Y-137267857D01*
X147940058Y-137267857D02*
X147892439Y-137220238D01*
X147892439Y-137220238D02*
X147844820Y-137125000D01*
X147844820Y-136458333D02*
X147844820Y-135839286D01*
X147844820Y-135839286D02*
X148225772Y-136172619D01*
X148225772Y-136172619D02*
X148225772Y-136029762D01*
X148225772Y-136029762D02*
X148273391Y-135934524D01*
X148273391Y-135934524D02*
X148321010Y-135886905D01*
X148321010Y-135886905D02*
X148416248Y-135839286D01*
X148416248Y-135839286D02*
X148654343Y-135839286D01*
X148654343Y-135839286D02*
X148749581Y-135886905D01*
X148749581Y-135886905D02*
X148797201Y-135934524D01*
X148797201Y-135934524D02*
X148844820Y-136029762D01*
X148844820Y-136029762D02*
X148844820Y-136315476D01*
X148844820Y-136315476D02*
X148797201Y-136410714D01*
X148797201Y-136410714D02*
X148749581Y-136458333D01*
X148940058Y-135648810D02*
X148940058Y-134886905D01*
X148844820Y-134648809D02*
X147844820Y-134648809D01*
X147844820Y-134648809D02*
X147844820Y-134267857D01*
X147844820Y-134267857D02*
X147892439Y-134172619D01*
X147892439Y-134172619D02*
X147940058Y-134125000D01*
X147940058Y-134125000D02*
X148035296Y-134077381D01*
X148035296Y-134077381D02*
X148178153Y-134077381D01*
X148178153Y-134077381D02*
X148273391Y-134125000D01*
X148273391Y-134125000D02*
X148321010Y-134172619D01*
X148321010Y-134172619D02*
X148368629Y-134267857D01*
X148368629Y-134267857D02*
X148368629Y-134648809D01*
X148844820Y-133648809D02*
X148178153Y-133648809D01*
X147844820Y-133648809D02*
X147892439Y-133696428D01*
X147892439Y-133696428D02*
X147940058Y-133648809D01*
X147940058Y-133648809D02*
X147892439Y-133601190D01*
X147892439Y-133601190D02*
X147844820Y-133648809D01*
X147844820Y-133648809D02*
X147940058Y-133648809D01*
X148178153Y-133172619D02*
X148844820Y-133172619D01*
X148273391Y-133172619D02*
X148225772Y-133125000D01*
X148225772Y-133125000D02*
X148178153Y-133029762D01*
X148178153Y-133029762D02*
X148178153Y-132886905D01*
X148178153Y-132886905D02*
X148225772Y-132791667D01*
X148225772Y-132791667D02*
X148321010Y-132744048D01*
X148321010Y-132744048D02*
X148844820Y-132744048D01*
X145944820Y-138958334D02*
X146659105Y-138958334D01*
X146659105Y-138958334D02*
X146801962Y-139005953D01*
X146801962Y-139005953D02*
X146897201Y-139101191D01*
X146897201Y-139101191D02*
X146944820Y-139244048D01*
X146944820Y-139244048D02*
X146944820Y-139339286D01*
X145944820Y-138577381D02*
X145944820Y-137958334D01*
X145944820Y-137958334D02*
X146325772Y-138291667D01*
X146325772Y-138291667D02*
X146325772Y-138148810D01*
X146325772Y-138148810D02*
X146373391Y-138053572D01*
X146373391Y-138053572D02*
X146421010Y-138005953D01*
X146421010Y-138005953D02*
X146516248Y-137958334D01*
X146516248Y-137958334D02*
X146754343Y-137958334D01*
X146754343Y-137958334D02*
X146849581Y-138005953D01*
X146849581Y-138005953D02*
X146897201Y-138053572D01*
X146897201Y-138053572D02*
X146944820Y-138148810D01*
X146944820Y-138148810D02*
X146944820Y-138434524D01*
X146944820Y-138434524D02*
X146897201Y-138529762D01*
X146897201Y-138529762D02*
X146849581Y-138577381D01*
X189389581Y-131234525D02*
X189437201Y-131282144D01*
X189437201Y-131282144D02*
X189484820Y-131425001D01*
X189484820Y-131425001D02*
X189484820Y-131520239D01*
X189484820Y-131520239D02*
X189437201Y-131663096D01*
X189437201Y-131663096D02*
X189341962Y-131758334D01*
X189341962Y-131758334D02*
X189246724Y-131805953D01*
X189246724Y-131805953D02*
X189056248Y-131853572D01*
X189056248Y-131853572D02*
X188913391Y-131853572D01*
X188913391Y-131853572D02*
X188722915Y-131805953D01*
X188722915Y-131805953D02*
X188627677Y-131758334D01*
X188627677Y-131758334D02*
X188532439Y-131663096D01*
X188532439Y-131663096D02*
X188484820Y-131520239D01*
X188484820Y-131520239D02*
X188484820Y-131425001D01*
X188484820Y-131425001D02*
X188532439Y-131282144D01*
X188532439Y-131282144D02*
X188580058Y-131234525D01*
X189484820Y-130663096D02*
X189437201Y-130758334D01*
X189437201Y-130758334D02*
X189389581Y-130805953D01*
X189389581Y-130805953D02*
X189294343Y-130853572D01*
X189294343Y-130853572D02*
X189008629Y-130853572D01*
X189008629Y-130853572D02*
X188913391Y-130805953D01*
X188913391Y-130805953D02*
X188865772Y-130758334D01*
X188865772Y-130758334D02*
X188818153Y-130663096D01*
X188818153Y-130663096D02*
X188818153Y-130520239D01*
X188818153Y-130520239D02*
X188865772Y-130425001D01*
X188865772Y-130425001D02*
X188913391Y-130377382D01*
X188913391Y-130377382D02*
X189008629Y-130329763D01*
X189008629Y-130329763D02*
X189294343Y-130329763D01*
X189294343Y-130329763D02*
X189389581Y-130377382D01*
X189389581Y-130377382D02*
X189437201Y-130425001D01*
X189437201Y-130425001D02*
X189484820Y-130520239D01*
X189484820Y-130520239D02*
X189484820Y-130663096D01*
X188818153Y-129901191D02*
X189484820Y-129901191D01*
X188913391Y-129901191D02*
X188865772Y-129853572D01*
X188865772Y-129853572D02*
X188818153Y-129758334D01*
X188818153Y-129758334D02*
X188818153Y-129615477D01*
X188818153Y-129615477D02*
X188865772Y-129520239D01*
X188865772Y-129520239D02*
X188961010Y-129472620D01*
X188961010Y-129472620D02*
X189484820Y-129472620D01*
X188818153Y-128996429D02*
X189484820Y-128996429D01*
X188913391Y-128996429D02*
X188865772Y-128948810D01*
X188865772Y-128948810D02*
X188818153Y-128853572D01*
X188818153Y-128853572D02*
X188818153Y-128710715D01*
X188818153Y-128710715D02*
X188865772Y-128615477D01*
X188865772Y-128615477D02*
X188961010Y-128567858D01*
X188961010Y-128567858D02*
X189484820Y-128567858D01*
X189580058Y-128329763D02*
X189580058Y-127567858D01*
X188484820Y-127139286D02*
X188484820Y-127044048D01*
X188484820Y-127044048D02*
X188532439Y-126948810D01*
X188532439Y-126948810D02*
X188580058Y-126901191D01*
X188580058Y-126901191D02*
X188675296Y-126853572D01*
X188675296Y-126853572D02*
X188865772Y-126805953D01*
X188865772Y-126805953D02*
X189103867Y-126805953D01*
X189103867Y-126805953D02*
X189294343Y-126853572D01*
X189294343Y-126853572D02*
X189389581Y-126901191D01*
X189389581Y-126901191D02*
X189437201Y-126948810D01*
X189437201Y-126948810D02*
X189484820Y-127044048D01*
X189484820Y-127044048D02*
X189484820Y-127139286D01*
X189484820Y-127139286D02*
X189437201Y-127234524D01*
X189437201Y-127234524D02*
X189389581Y-127282143D01*
X189389581Y-127282143D02*
X189294343Y-127329762D01*
X189294343Y-127329762D02*
X189103867Y-127377381D01*
X189103867Y-127377381D02*
X188865772Y-127377381D01*
X188865772Y-127377381D02*
X188675296Y-127329762D01*
X188675296Y-127329762D02*
X188580058Y-127282143D01*
X188580058Y-127282143D02*
X188532439Y-127234524D01*
X188532439Y-127234524D02*
X188484820Y-127139286D01*
X189484820Y-125853572D02*
X189484820Y-126425000D01*
X189484820Y-126139286D02*
X188484820Y-126139286D01*
X188484820Y-126139286D02*
X188627677Y-126234524D01*
X188627677Y-126234524D02*
X188722915Y-126329762D01*
X188722915Y-126329762D02*
X188770534Y-126425000D01*
X189484820Y-125520238D02*
X188818153Y-124996429D01*
X188818153Y-125520238D02*
X189484820Y-124996429D01*
X188484820Y-124425000D02*
X188484820Y-124329762D01*
X188484820Y-124329762D02*
X188532439Y-124234524D01*
X188532439Y-124234524D02*
X188580058Y-124186905D01*
X188580058Y-124186905D02*
X188675296Y-124139286D01*
X188675296Y-124139286D02*
X188865772Y-124091667D01*
X188865772Y-124091667D02*
X189103867Y-124091667D01*
X189103867Y-124091667D02*
X189294343Y-124139286D01*
X189294343Y-124139286D02*
X189389581Y-124186905D01*
X189389581Y-124186905D02*
X189437201Y-124234524D01*
X189437201Y-124234524D02*
X189484820Y-124329762D01*
X189484820Y-124329762D02*
X189484820Y-124425000D01*
X189484820Y-124425000D02*
X189437201Y-124520238D01*
X189437201Y-124520238D02*
X189389581Y-124567857D01*
X189389581Y-124567857D02*
X189294343Y-124615476D01*
X189294343Y-124615476D02*
X189103867Y-124663095D01*
X189103867Y-124663095D02*
X188865772Y-124663095D01*
X188865772Y-124663095D02*
X188675296Y-124615476D01*
X188675296Y-124615476D02*
X188580058Y-124567857D01*
X188580058Y-124567857D02*
X188532439Y-124520238D01*
X188532439Y-124520238D02*
X188484820Y-124425000D01*
X188484820Y-123758333D02*
X188484820Y-123139286D01*
X188484820Y-123139286D02*
X188865772Y-123472619D01*
X188865772Y-123472619D02*
X188865772Y-123329762D01*
X188865772Y-123329762D02*
X188913391Y-123234524D01*
X188913391Y-123234524D02*
X188961010Y-123186905D01*
X188961010Y-123186905D02*
X189056248Y-123139286D01*
X189056248Y-123139286D02*
X189294343Y-123139286D01*
X189294343Y-123139286D02*
X189389581Y-123186905D01*
X189389581Y-123186905D02*
X189437201Y-123234524D01*
X189437201Y-123234524D02*
X189484820Y-123329762D01*
X189484820Y-123329762D02*
X189484820Y-123615476D01*
X189484820Y-123615476D02*
X189437201Y-123710714D01*
X189437201Y-123710714D02*
X189389581Y-123758333D01*
X189580058Y-122948810D02*
X189580058Y-122186905D01*
X189484820Y-121948809D02*
X188484820Y-121948809D01*
X188484820Y-121948809D02*
X188484820Y-121567857D01*
X188484820Y-121567857D02*
X188532439Y-121472619D01*
X188532439Y-121472619D02*
X188580058Y-121425000D01*
X188580058Y-121425000D02*
X188675296Y-121377381D01*
X188675296Y-121377381D02*
X188818153Y-121377381D01*
X188818153Y-121377381D02*
X188913391Y-121425000D01*
X188913391Y-121425000D02*
X188961010Y-121472619D01*
X188961010Y-121472619D02*
X189008629Y-121567857D01*
X189008629Y-121567857D02*
X189008629Y-121948809D01*
X189484820Y-120948809D02*
X188818153Y-120948809D01*
X188484820Y-120948809D02*
X188532439Y-120996428D01*
X188532439Y-120996428D02*
X188580058Y-120948809D01*
X188580058Y-120948809D02*
X188532439Y-120901190D01*
X188532439Y-120901190D02*
X188484820Y-120948809D01*
X188484820Y-120948809D02*
X188580058Y-120948809D01*
X188818153Y-120472619D02*
X189484820Y-120472619D01*
X188913391Y-120472619D02*
X188865772Y-120425000D01*
X188865772Y-120425000D02*
X188818153Y-120329762D01*
X188818153Y-120329762D02*
X188818153Y-120186905D01*
X188818153Y-120186905D02*
X188865772Y-120091667D01*
X188865772Y-120091667D02*
X188961010Y-120044048D01*
X188961010Y-120044048D02*
X189484820Y-120044048D01*
X186584820Y-126258334D02*
X187299105Y-126258334D01*
X187299105Y-126258334D02*
X187441962Y-126305953D01*
X187441962Y-126305953D02*
X187537201Y-126401191D01*
X187537201Y-126401191D02*
X187584820Y-126544048D01*
X187584820Y-126544048D02*
X187584820Y-126639286D01*
X187013391Y-125639286D02*
X186965772Y-125734524D01*
X186965772Y-125734524D02*
X186918153Y-125782143D01*
X186918153Y-125782143D02*
X186822915Y-125829762D01*
X186822915Y-125829762D02*
X186775296Y-125829762D01*
X186775296Y-125829762D02*
X186680058Y-125782143D01*
X186680058Y-125782143D02*
X186632439Y-125734524D01*
X186632439Y-125734524D02*
X186584820Y-125639286D01*
X186584820Y-125639286D02*
X186584820Y-125448810D01*
X186584820Y-125448810D02*
X186632439Y-125353572D01*
X186632439Y-125353572D02*
X186680058Y-125305953D01*
X186680058Y-125305953D02*
X186775296Y-125258334D01*
X186775296Y-125258334D02*
X186822915Y-125258334D01*
X186822915Y-125258334D02*
X186918153Y-125305953D01*
X186918153Y-125305953D02*
X186965772Y-125353572D01*
X186965772Y-125353572D02*
X187013391Y-125448810D01*
X187013391Y-125448810D02*
X187013391Y-125639286D01*
X187013391Y-125639286D02*
X187061010Y-125734524D01*
X187061010Y-125734524D02*
X187108629Y-125782143D01*
X187108629Y-125782143D02*
X187203867Y-125829762D01*
X187203867Y-125829762D02*
X187394343Y-125829762D01*
X187394343Y-125829762D02*
X187489581Y-125782143D01*
X187489581Y-125782143D02*
X187537201Y-125734524D01*
X187537201Y-125734524D02*
X187584820Y-125639286D01*
X187584820Y-125639286D02*
X187584820Y-125448810D01*
X187584820Y-125448810D02*
X187537201Y-125353572D01*
X187537201Y-125353572D02*
X187489581Y-125305953D01*
X187489581Y-125305953D02*
X187394343Y-125258334D01*
X187394343Y-125258334D02*
X187203867Y-125258334D01*
X187203867Y-125258334D02*
X187108629Y-125305953D01*
X187108629Y-125305953D02*
X187061010Y-125353572D01*
X187061010Y-125353572D02*
X187013391Y-125448810D01*
X138589581Y-143934525D02*
X138637201Y-143982144D01*
X138637201Y-143982144D02*
X138684820Y-144125001D01*
X138684820Y-144125001D02*
X138684820Y-144220239D01*
X138684820Y-144220239D02*
X138637201Y-144363096D01*
X138637201Y-144363096D02*
X138541962Y-144458334D01*
X138541962Y-144458334D02*
X138446724Y-144505953D01*
X138446724Y-144505953D02*
X138256248Y-144553572D01*
X138256248Y-144553572D02*
X138113391Y-144553572D01*
X138113391Y-144553572D02*
X137922915Y-144505953D01*
X137922915Y-144505953D02*
X137827677Y-144458334D01*
X137827677Y-144458334D02*
X137732439Y-144363096D01*
X137732439Y-144363096D02*
X137684820Y-144220239D01*
X137684820Y-144220239D02*
X137684820Y-144125001D01*
X137684820Y-144125001D02*
X137732439Y-143982144D01*
X137732439Y-143982144D02*
X137780058Y-143934525D01*
X138684820Y-143363096D02*
X138637201Y-143458334D01*
X138637201Y-143458334D02*
X138589581Y-143505953D01*
X138589581Y-143505953D02*
X138494343Y-143553572D01*
X138494343Y-143553572D02*
X138208629Y-143553572D01*
X138208629Y-143553572D02*
X138113391Y-143505953D01*
X138113391Y-143505953D02*
X138065772Y-143458334D01*
X138065772Y-143458334D02*
X138018153Y-143363096D01*
X138018153Y-143363096D02*
X138018153Y-143220239D01*
X138018153Y-143220239D02*
X138065772Y-143125001D01*
X138065772Y-143125001D02*
X138113391Y-143077382D01*
X138113391Y-143077382D02*
X138208629Y-143029763D01*
X138208629Y-143029763D02*
X138494343Y-143029763D01*
X138494343Y-143029763D02*
X138589581Y-143077382D01*
X138589581Y-143077382D02*
X138637201Y-143125001D01*
X138637201Y-143125001D02*
X138684820Y-143220239D01*
X138684820Y-143220239D02*
X138684820Y-143363096D01*
X138018153Y-142601191D02*
X138684820Y-142601191D01*
X138113391Y-142601191D02*
X138065772Y-142553572D01*
X138065772Y-142553572D02*
X138018153Y-142458334D01*
X138018153Y-142458334D02*
X138018153Y-142315477D01*
X138018153Y-142315477D02*
X138065772Y-142220239D01*
X138065772Y-142220239D02*
X138161010Y-142172620D01*
X138161010Y-142172620D02*
X138684820Y-142172620D01*
X138018153Y-141696429D02*
X138684820Y-141696429D01*
X138113391Y-141696429D02*
X138065772Y-141648810D01*
X138065772Y-141648810D02*
X138018153Y-141553572D01*
X138018153Y-141553572D02*
X138018153Y-141410715D01*
X138018153Y-141410715D02*
X138065772Y-141315477D01*
X138065772Y-141315477D02*
X138161010Y-141267858D01*
X138161010Y-141267858D02*
X138684820Y-141267858D01*
X138780058Y-141029763D02*
X138780058Y-140267858D01*
X137684820Y-139839286D02*
X137684820Y-139744048D01*
X137684820Y-139744048D02*
X137732439Y-139648810D01*
X137732439Y-139648810D02*
X137780058Y-139601191D01*
X137780058Y-139601191D02*
X137875296Y-139553572D01*
X137875296Y-139553572D02*
X138065772Y-139505953D01*
X138065772Y-139505953D02*
X138303867Y-139505953D01*
X138303867Y-139505953D02*
X138494343Y-139553572D01*
X138494343Y-139553572D02*
X138589581Y-139601191D01*
X138589581Y-139601191D02*
X138637201Y-139648810D01*
X138637201Y-139648810D02*
X138684820Y-139744048D01*
X138684820Y-139744048D02*
X138684820Y-139839286D01*
X138684820Y-139839286D02*
X138637201Y-139934524D01*
X138637201Y-139934524D02*
X138589581Y-139982143D01*
X138589581Y-139982143D02*
X138494343Y-140029762D01*
X138494343Y-140029762D02*
X138303867Y-140077381D01*
X138303867Y-140077381D02*
X138065772Y-140077381D01*
X138065772Y-140077381D02*
X137875296Y-140029762D01*
X137875296Y-140029762D02*
X137780058Y-139982143D01*
X137780058Y-139982143D02*
X137732439Y-139934524D01*
X137732439Y-139934524D02*
X137684820Y-139839286D01*
X138684820Y-138553572D02*
X138684820Y-139125000D01*
X138684820Y-138839286D02*
X137684820Y-138839286D01*
X137684820Y-138839286D02*
X137827677Y-138934524D01*
X137827677Y-138934524D02*
X137922915Y-139029762D01*
X137922915Y-139029762D02*
X137970534Y-139125000D01*
X138684820Y-138220238D02*
X138018153Y-137696429D01*
X138018153Y-138220238D02*
X138684820Y-137696429D01*
X137684820Y-137125000D02*
X137684820Y-137029762D01*
X137684820Y-137029762D02*
X137732439Y-136934524D01*
X137732439Y-136934524D02*
X137780058Y-136886905D01*
X137780058Y-136886905D02*
X137875296Y-136839286D01*
X137875296Y-136839286D02*
X138065772Y-136791667D01*
X138065772Y-136791667D02*
X138303867Y-136791667D01*
X138303867Y-136791667D02*
X138494343Y-136839286D01*
X138494343Y-136839286D02*
X138589581Y-136886905D01*
X138589581Y-136886905D02*
X138637201Y-136934524D01*
X138637201Y-136934524D02*
X138684820Y-137029762D01*
X138684820Y-137029762D02*
X138684820Y-137125000D01*
X138684820Y-137125000D02*
X138637201Y-137220238D01*
X138637201Y-137220238D02*
X138589581Y-137267857D01*
X138589581Y-137267857D02*
X138494343Y-137315476D01*
X138494343Y-137315476D02*
X138303867Y-137363095D01*
X138303867Y-137363095D02*
X138065772Y-137363095D01*
X138065772Y-137363095D02*
X137875296Y-137315476D01*
X137875296Y-137315476D02*
X137780058Y-137267857D01*
X137780058Y-137267857D02*
X137732439Y-137220238D01*
X137732439Y-137220238D02*
X137684820Y-137125000D01*
X137684820Y-136458333D02*
X137684820Y-135839286D01*
X137684820Y-135839286D02*
X138065772Y-136172619D01*
X138065772Y-136172619D02*
X138065772Y-136029762D01*
X138065772Y-136029762D02*
X138113391Y-135934524D01*
X138113391Y-135934524D02*
X138161010Y-135886905D01*
X138161010Y-135886905D02*
X138256248Y-135839286D01*
X138256248Y-135839286D02*
X138494343Y-135839286D01*
X138494343Y-135839286D02*
X138589581Y-135886905D01*
X138589581Y-135886905D02*
X138637201Y-135934524D01*
X138637201Y-135934524D02*
X138684820Y-136029762D01*
X138684820Y-136029762D02*
X138684820Y-136315476D01*
X138684820Y-136315476D02*
X138637201Y-136410714D01*
X138637201Y-136410714D02*
X138589581Y-136458333D01*
X138780058Y-135648810D02*
X138780058Y-134886905D01*
X138684820Y-134648809D02*
X137684820Y-134648809D01*
X137684820Y-134648809D02*
X137684820Y-134267857D01*
X137684820Y-134267857D02*
X137732439Y-134172619D01*
X137732439Y-134172619D02*
X137780058Y-134125000D01*
X137780058Y-134125000D02*
X137875296Y-134077381D01*
X137875296Y-134077381D02*
X138018153Y-134077381D01*
X138018153Y-134077381D02*
X138113391Y-134125000D01*
X138113391Y-134125000D02*
X138161010Y-134172619D01*
X138161010Y-134172619D02*
X138208629Y-134267857D01*
X138208629Y-134267857D02*
X138208629Y-134648809D01*
X138684820Y-133648809D02*
X138018153Y-133648809D01*
X137684820Y-133648809D02*
X137732439Y-133696428D01*
X137732439Y-133696428D02*
X137780058Y-133648809D01*
X137780058Y-133648809D02*
X137732439Y-133601190D01*
X137732439Y-133601190D02*
X137684820Y-133648809D01*
X137684820Y-133648809D02*
X137780058Y-133648809D01*
X138018153Y-133172619D02*
X138684820Y-133172619D01*
X138113391Y-133172619D02*
X138065772Y-133125000D01*
X138065772Y-133125000D02*
X138018153Y-133029762D01*
X138018153Y-133029762D02*
X138018153Y-132886905D01*
X138018153Y-132886905D02*
X138065772Y-132791667D01*
X138065772Y-132791667D02*
X138161010Y-132744048D01*
X138161010Y-132744048D02*
X138684820Y-132744048D01*
X135784820Y-138958334D02*
X136499105Y-138958334D01*
X136499105Y-138958334D02*
X136641962Y-139005953D01*
X136641962Y-139005953D02*
X136737201Y-139101191D01*
X136737201Y-139101191D02*
X136784820Y-139244048D01*
X136784820Y-139244048D02*
X136784820Y-139339286D01*
X135880058Y-138529762D02*
X135832439Y-138482143D01*
X135832439Y-138482143D02*
X135784820Y-138386905D01*
X135784820Y-138386905D02*
X135784820Y-138148810D01*
X135784820Y-138148810D02*
X135832439Y-138053572D01*
X135832439Y-138053572D02*
X135880058Y-138005953D01*
X135880058Y-138005953D02*
X135975296Y-137958334D01*
X135975296Y-137958334D02*
X136070534Y-137958334D01*
X136070534Y-137958334D02*
X136213391Y-138005953D01*
X136213391Y-138005953D02*
X136784820Y-138577381D01*
X136784820Y-138577381D02*
X136784820Y-137958334D01*
X179229581Y-118534525D02*
X179277201Y-118582144D01*
X179277201Y-118582144D02*
X179324820Y-118725001D01*
X179324820Y-118725001D02*
X179324820Y-118820239D01*
X179324820Y-118820239D02*
X179277201Y-118963096D01*
X179277201Y-118963096D02*
X179181962Y-119058334D01*
X179181962Y-119058334D02*
X179086724Y-119105953D01*
X179086724Y-119105953D02*
X178896248Y-119153572D01*
X178896248Y-119153572D02*
X178753391Y-119153572D01*
X178753391Y-119153572D02*
X178562915Y-119105953D01*
X178562915Y-119105953D02*
X178467677Y-119058334D01*
X178467677Y-119058334D02*
X178372439Y-118963096D01*
X178372439Y-118963096D02*
X178324820Y-118820239D01*
X178324820Y-118820239D02*
X178324820Y-118725001D01*
X178324820Y-118725001D02*
X178372439Y-118582144D01*
X178372439Y-118582144D02*
X178420058Y-118534525D01*
X179324820Y-117963096D02*
X179277201Y-118058334D01*
X179277201Y-118058334D02*
X179229581Y-118105953D01*
X179229581Y-118105953D02*
X179134343Y-118153572D01*
X179134343Y-118153572D02*
X178848629Y-118153572D01*
X178848629Y-118153572D02*
X178753391Y-118105953D01*
X178753391Y-118105953D02*
X178705772Y-118058334D01*
X178705772Y-118058334D02*
X178658153Y-117963096D01*
X178658153Y-117963096D02*
X178658153Y-117820239D01*
X178658153Y-117820239D02*
X178705772Y-117725001D01*
X178705772Y-117725001D02*
X178753391Y-117677382D01*
X178753391Y-117677382D02*
X178848629Y-117629763D01*
X178848629Y-117629763D02*
X179134343Y-117629763D01*
X179134343Y-117629763D02*
X179229581Y-117677382D01*
X179229581Y-117677382D02*
X179277201Y-117725001D01*
X179277201Y-117725001D02*
X179324820Y-117820239D01*
X179324820Y-117820239D02*
X179324820Y-117963096D01*
X178658153Y-117201191D02*
X179324820Y-117201191D01*
X178753391Y-117201191D02*
X178705772Y-117153572D01*
X178705772Y-117153572D02*
X178658153Y-117058334D01*
X178658153Y-117058334D02*
X178658153Y-116915477D01*
X178658153Y-116915477D02*
X178705772Y-116820239D01*
X178705772Y-116820239D02*
X178801010Y-116772620D01*
X178801010Y-116772620D02*
X179324820Y-116772620D01*
X178658153Y-116296429D02*
X179324820Y-116296429D01*
X178753391Y-116296429D02*
X178705772Y-116248810D01*
X178705772Y-116248810D02*
X178658153Y-116153572D01*
X178658153Y-116153572D02*
X178658153Y-116010715D01*
X178658153Y-116010715D02*
X178705772Y-115915477D01*
X178705772Y-115915477D02*
X178801010Y-115867858D01*
X178801010Y-115867858D02*
X179324820Y-115867858D01*
X179420058Y-115629763D02*
X179420058Y-114867858D01*
X178324820Y-114439286D02*
X178324820Y-114344048D01*
X178324820Y-114344048D02*
X178372439Y-114248810D01*
X178372439Y-114248810D02*
X178420058Y-114201191D01*
X178420058Y-114201191D02*
X178515296Y-114153572D01*
X178515296Y-114153572D02*
X178705772Y-114105953D01*
X178705772Y-114105953D02*
X178943867Y-114105953D01*
X178943867Y-114105953D02*
X179134343Y-114153572D01*
X179134343Y-114153572D02*
X179229581Y-114201191D01*
X179229581Y-114201191D02*
X179277201Y-114248810D01*
X179277201Y-114248810D02*
X179324820Y-114344048D01*
X179324820Y-114344048D02*
X179324820Y-114439286D01*
X179324820Y-114439286D02*
X179277201Y-114534524D01*
X179277201Y-114534524D02*
X179229581Y-114582143D01*
X179229581Y-114582143D02*
X179134343Y-114629762D01*
X179134343Y-114629762D02*
X178943867Y-114677381D01*
X178943867Y-114677381D02*
X178705772Y-114677381D01*
X178705772Y-114677381D02*
X178515296Y-114629762D01*
X178515296Y-114629762D02*
X178420058Y-114582143D01*
X178420058Y-114582143D02*
X178372439Y-114534524D01*
X178372439Y-114534524D02*
X178324820Y-114439286D01*
X179324820Y-113153572D02*
X179324820Y-113725000D01*
X179324820Y-113439286D02*
X178324820Y-113439286D01*
X178324820Y-113439286D02*
X178467677Y-113534524D01*
X178467677Y-113534524D02*
X178562915Y-113629762D01*
X178562915Y-113629762D02*
X178610534Y-113725000D01*
X179324820Y-112820238D02*
X178658153Y-112296429D01*
X178658153Y-112820238D02*
X179324820Y-112296429D01*
X178324820Y-111725000D02*
X178324820Y-111629762D01*
X178324820Y-111629762D02*
X178372439Y-111534524D01*
X178372439Y-111534524D02*
X178420058Y-111486905D01*
X178420058Y-111486905D02*
X178515296Y-111439286D01*
X178515296Y-111439286D02*
X178705772Y-111391667D01*
X178705772Y-111391667D02*
X178943867Y-111391667D01*
X178943867Y-111391667D02*
X179134343Y-111439286D01*
X179134343Y-111439286D02*
X179229581Y-111486905D01*
X179229581Y-111486905D02*
X179277201Y-111534524D01*
X179277201Y-111534524D02*
X179324820Y-111629762D01*
X179324820Y-111629762D02*
X179324820Y-111725000D01*
X179324820Y-111725000D02*
X179277201Y-111820238D01*
X179277201Y-111820238D02*
X179229581Y-111867857D01*
X179229581Y-111867857D02*
X179134343Y-111915476D01*
X179134343Y-111915476D02*
X178943867Y-111963095D01*
X178943867Y-111963095D02*
X178705772Y-111963095D01*
X178705772Y-111963095D02*
X178515296Y-111915476D01*
X178515296Y-111915476D02*
X178420058Y-111867857D01*
X178420058Y-111867857D02*
X178372439Y-111820238D01*
X178372439Y-111820238D02*
X178324820Y-111725000D01*
X178324820Y-111058333D02*
X178324820Y-110439286D01*
X178324820Y-110439286D02*
X178705772Y-110772619D01*
X178705772Y-110772619D02*
X178705772Y-110629762D01*
X178705772Y-110629762D02*
X178753391Y-110534524D01*
X178753391Y-110534524D02*
X178801010Y-110486905D01*
X178801010Y-110486905D02*
X178896248Y-110439286D01*
X178896248Y-110439286D02*
X179134343Y-110439286D01*
X179134343Y-110439286D02*
X179229581Y-110486905D01*
X179229581Y-110486905D02*
X179277201Y-110534524D01*
X179277201Y-110534524D02*
X179324820Y-110629762D01*
X179324820Y-110629762D02*
X179324820Y-110915476D01*
X179324820Y-110915476D02*
X179277201Y-111010714D01*
X179277201Y-111010714D02*
X179229581Y-111058333D01*
X179420058Y-110248810D02*
X179420058Y-109486905D01*
X179324820Y-109248809D02*
X178324820Y-109248809D01*
X178324820Y-109248809D02*
X178324820Y-108867857D01*
X178324820Y-108867857D02*
X178372439Y-108772619D01*
X178372439Y-108772619D02*
X178420058Y-108725000D01*
X178420058Y-108725000D02*
X178515296Y-108677381D01*
X178515296Y-108677381D02*
X178658153Y-108677381D01*
X178658153Y-108677381D02*
X178753391Y-108725000D01*
X178753391Y-108725000D02*
X178801010Y-108772619D01*
X178801010Y-108772619D02*
X178848629Y-108867857D01*
X178848629Y-108867857D02*
X178848629Y-109248809D01*
X179324820Y-108248809D02*
X178658153Y-108248809D01*
X178324820Y-108248809D02*
X178372439Y-108296428D01*
X178372439Y-108296428D02*
X178420058Y-108248809D01*
X178420058Y-108248809D02*
X178372439Y-108201190D01*
X178372439Y-108201190D02*
X178324820Y-108248809D01*
X178324820Y-108248809D02*
X178420058Y-108248809D01*
X178658153Y-107772619D02*
X179324820Y-107772619D01*
X178753391Y-107772619D02*
X178705772Y-107725000D01*
X178705772Y-107725000D02*
X178658153Y-107629762D01*
X178658153Y-107629762D02*
X178658153Y-107486905D01*
X178658153Y-107486905D02*
X178705772Y-107391667D01*
X178705772Y-107391667D02*
X178801010Y-107344048D01*
X178801010Y-107344048D02*
X179324820Y-107344048D01*
X176424820Y-114034524D02*
X177139105Y-114034524D01*
X177139105Y-114034524D02*
X177281962Y-114082143D01*
X177281962Y-114082143D02*
X177377201Y-114177381D01*
X177377201Y-114177381D02*
X177424820Y-114320238D01*
X177424820Y-114320238D02*
X177424820Y-114415476D01*
X177424820Y-113034524D02*
X177424820Y-113605952D01*
X177424820Y-113320238D02*
X176424820Y-113320238D01*
X176424820Y-113320238D02*
X176567677Y-113415476D01*
X176567677Y-113415476D02*
X176662915Y-113510714D01*
X176662915Y-113510714D02*
X176710534Y-113605952D01*
X176758153Y-112177381D02*
X177424820Y-112177381D01*
X176377201Y-112415476D02*
X177091486Y-112653571D01*
X177091486Y-112653571D02*
X177091486Y-112034524D01*
X169069581Y-118534525D02*
X169117201Y-118582144D01*
X169117201Y-118582144D02*
X169164820Y-118725001D01*
X169164820Y-118725001D02*
X169164820Y-118820239D01*
X169164820Y-118820239D02*
X169117201Y-118963096D01*
X169117201Y-118963096D02*
X169021962Y-119058334D01*
X169021962Y-119058334D02*
X168926724Y-119105953D01*
X168926724Y-119105953D02*
X168736248Y-119153572D01*
X168736248Y-119153572D02*
X168593391Y-119153572D01*
X168593391Y-119153572D02*
X168402915Y-119105953D01*
X168402915Y-119105953D02*
X168307677Y-119058334D01*
X168307677Y-119058334D02*
X168212439Y-118963096D01*
X168212439Y-118963096D02*
X168164820Y-118820239D01*
X168164820Y-118820239D02*
X168164820Y-118725001D01*
X168164820Y-118725001D02*
X168212439Y-118582144D01*
X168212439Y-118582144D02*
X168260058Y-118534525D01*
X169164820Y-117963096D02*
X169117201Y-118058334D01*
X169117201Y-118058334D02*
X169069581Y-118105953D01*
X169069581Y-118105953D02*
X168974343Y-118153572D01*
X168974343Y-118153572D02*
X168688629Y-118153572D01*
X168688629Y-118153572D02*
X168593391Y-118105953D01*
X168593391Y-118105953D02*
X168545772Y-118058334D01*
X168545772Y-118058334D02*
X168498153Y-117963096D01*
X168498153Y-117963096D02*
X168498153Y-117820239D01*
X168498153Y-117820239D02*
X168545772Y-117725001D01*
X168545772Y-117725001D02*
X168593391Y-117677382D01*
X168593391Y-117677382D02*
X168688629Y-117629763D01*
X168688629Y-117629763D02*
X168974343Y-117629763D01*
X168974343Y-117629763D02*
X169069581Y-117677382D01*
X169069581Y-117677382D02*
X169117201Y-117725001D01*
X169117201Y-117725001D02*
X169164820Y-117820239D01*
X169164820Y-117820239D02*
X169164820Y-117963096D01*
X168498153Y-117201191D02*
X169164820Y-117201191D01*
X168593391Y-117201191D02*
X168545772Y-117153572D01*
X168545772Y-117153572D02*
X168498153Y-117058334D01*
X168498153Y-117058334D02*
X168498153Y-116915477D01*
X168498153Y-116915477D02*
X168545772Y-116820239D01*
X168545772Y-116820239D02*
X168641010Y-116772620D01*
X168641010Y-116772620D02*
X169164820Y-116772620D01*
X168498153Y-116296429D02*
X169164820Y-116296429D01*
X168593391Y-116296429D02*
X168545772Y-116248810D01*
X168545772Y-116248810D02*
X168498153Y-116153572D01*
X168498153Y-116153572D02*
X168498153Y-116010715D01*
X168498153Y-116010715D02*
X168545772Y-115915477D01*
X168545772Y-115915477D02*
X168641010Y-115867858D01*
X168641010Y-115867858D02*
X169164820Y-115867858D01*
X169260058Y-115629763D02*
X169260058Y-114867858D01*
X168164820Y-114439286D02*
X168164820Y-114344048D01*
X168164820Y-114344048D02*
X168212439Y-114248810D01*
X168212439Y-114248810D02*
X168260058Y-114201191D01*
X168260058Y-114201191D02*
X168355296Y-114153572D01*
X168355296Y-114153572D02*
X168545772Y-114105953D01*
X168545772Y-114105953D02*
X168783867Y-114105953D01*
X168783867Y-114105953D02*
X168974343Y-114153572D01*
X168974343Y-114153572D02*
X169069581Y-114201191D01*
X169069581Y-114201191D02*
X169117201Y-114248810D01*
X169117201Y-114248810D02*
X169164820Y-114344048D01*
X169164820Y-114344048D02*
X169164820Y-114439286D01*
X169164820Y-114439286D02*
X169117201Y-114534524D01*
X169117201Y-114534524D02*
X169069581Y-114582143D01*
X169069581Y-114582143D02*
X168974343Y-114629762D01*
X168974343Y-114629762D02*
X168783867Y-114677381D01*
X168783867Y-114677381D02*
X168545772Y-114677381D01*
X168545772Y-114677381D02*
X168355296Y-114629762D01*
X168355296Y-114629762D02*
X168260058Y-114582143D01*
X168260058Y-114582143D02*
X168212439Y-114534524D01*
X168212439Y-114534524D02*
X168164820Y-114439286D01*
X169164820Y-113153572D02*
X169164820Y-113725000D01*
X169164820Y-113439286D02*
X168164820Y-113439286D01*
X168164820Y-113439286D02*
X168307677Y-113534524D01*
X168307677Y-113534524D02*
X168402915Y-113629762D01*
X168402915Y-113629762D02*
X168450534Y-113725000D01*
X169164820Y-112820238D02*
X168498153Y-112296429D01*
X168498153Y-112820238D02*
X169164820Y-112296429D01*
X168164820Y-111725000D02*
X168164820Y-111629762D01*
X168164820Y-111629762D02*
X168212439Y-111534524D01*
X168212439Y-111534524D02*
X168260058Y-111486905D01*
X168260058Y-111486905D02*
X168355296Y-111439286D01*
X168355296Y-111439286D02*
X168545772Y-111391667D01*
X168545772Y-111391667D02*
X168783867Y-111391667D01*
X168783867Y-111391667D02*
X168974343Y-111439286D01*
X168974343Y-111439286D02*
X169069581Y-111486905D01*
X169069581Y-111486905D02*
X169117201Y-111534524D01*
X169117201Y-111534524D02*
X169164820Y-111629762D01*
X169164820Y-111629762D02*
X169164820Y-111725000D01*
X169164820Y-111725000D02*
X169117201Y-111820238D01*
X169117201Y-111820238D02*
X169069581Y-111867857D01*
X169069581Y-111867857D02*
X168974343Y-111915476D01*
X168974343Y-111915476D02*
X168783867Y-111963095D01*
X168783867Y-111963095D02*
X168545772Y-111963095D01*
X168545772Y-111963095D02*
X168355296Y-111915476D01*
X168355296Y-111915476D02*
X168260058Y-111867857D01*
X168260058Y-111867857D02*
X168212439Y-111820238D01*
X168212439Y-111820238D02*
X168164820Y-111725000D01*
X168164820Y-111058333D02*
X168164820Y-110439286D01*
X168164820Y-110439286D02*
X168545772Y-110772619D01*
X168545772Y-110772619D02*
X168545772Y-110629762D01*
X168545772Y-110629762D02*
X168593391Y-110534524D01*
X168593391Y-110534524D02*
X168641010Y-110486905D01*
X168641010Y-110486905D02*
X168736248Y-110439286D01*
X168736248Y-110439286D02*
X168974343Y-110439286D01*
X168974343Y-110439286D02*
X169069581Y-110486905D01*
X169069581Y-110486905D02*
X169117201Y-110534524D01*
X169117201Y-110534524D02*
X169164820Y-110629762D01*
X169164820Y-110629762D02*
X169164820Y-110915476D01*
X169164820Y-110915476D02*
X169117201Y-111010714D01*
X169117201Y-111010714D02*
X169069581Y-111058333D01*
X169260058Y-110248810D02*
X169260058Y-109486905D01*
X169164820Y-109248809D02*
X168164820Y-109248809D01*
X168164820Y-109248809D02*
X168164820Y-108867857D01*
X168164820Y-108867857D02*
X168212439Y-108772619D01*
X168212439Y-108772619D02*
X168260058Y-108725000D01*
X168260058Y-108725000D02*
X168355296Y-108677381D01*
X168355296Y-108677381D02*
X168498153Y-108677381D01*
X168498153Y-108677381D02*
X168593391Y-108725000D01*
X168593391Y-108725000D02*
X168641010Y-108772619D01*
X168641010Y-108772619D02*
X168688629Y-108867857D01*
X168688629Y-108867857D02*
X168688629Y-109248809D01*
X169164820Y-108248809D02*
X168498153Y-108248809D01*
X168164820Y-108248809D02*
X168212439Y-108296428D01*
X168212439Y-108296428D02*
X168260058Y-108248809D01*
X168260058Y-108248809D02*
X168212439Y-108201190D01*
X168212439Y-108201190D02*
X168164820Y-108248809D01*
X168164820Y-108248809D02*
X168260058Y-108248809D01*
X168498153Y-107772619D02*
X169164820Y-107772619D01*
X168593391Y-107772619D02*
X168545772Y-107725000D01*
X168545772Y-107725000D02*
X168498153Y-107629762D01*
X168498153Y-107629762D02*
X168498153Y-107486905D01*
X168498153Y-107486905D02*
X168545772Y-107391667D01*
X168545772Y-107391667D02*
X168641010Y-107344048D01*
X168641010Y-107344048D02*
X169164820Y-107344048D01*
X166264820Y-114034524D02*
X166979105Y-114034524D01*
X166979105Y-114034524D02*
X167121962Y-114082143D01*
X167121962Y-114082143D02*
X167217201Y-114177381D01*
X167217201Y-114177381D02*
X167264820Y-114320238D01*
X167264820Y-114320238D02*
X167264820Y-114415476D01*
X167264820Y-113034524D02*
X167264820Y-113605952D01*
X167264820Y-113320238D02*
X166264820Y-113320238D01*
X166264820Y-113320238D02*
X166407677Y-113415476D01*
X166407677Y-113415476D02*
X166502915Y-113510714D01*
X166502915Y-113510714D02*
X166550534Y-113605952D01*
X167264820Y-112558333D02*
X167264820Y-112367857D01*
X167264820Y-112367857D02*
X167217201Y-112272619D01*
X167217201Y-112272619D02*
X167169581Y-112225000D01*
X167169581Y-112225000D02*
X167026724Y-112129762D01*
X167026724Y-112129762D02*
X166836248Y-112082143D01*
X166836248Y-112082143D02*
X166455296Y-112082143D01*
X166455296Y-112082143D02*
X166360058Y-112129762D01*
X166360058Y-112129762D02*
X166312439Y-112177381D01*
X166312439Y-112177381D02*
X166264820Y-112272619D01*
X166264820Y-112272619D02*
X166264820Y-112463095D01*
X166264820Y-112463095D02*
X166312439Y-112558333D01*
X166312439Y-112558333D02*
X166360058Y-112605952D01*
X166360058Y-112605952D02*
X166455296Y-112653571D01*
X166455296Y-112653571D02*
X166693391Y-112653571D01*
X166693391Y-112653571D02*
X166788629Y-112605952D01*
X166788629Y-112605952D02*
X166836248Y-112558333D01*
X166836248Y-112558333D02*
X166883867Y-112463095D01*
X166883867Y-112463095D02*
X166883867Y-112272619D01*
X166883867Y-112272619D02*
X166836248Y-112177381D01*
X166836248Y-112177381D02*
X166788629Y-112129762D01*
X166788629Y-112129762D02*
X166693391Y-112082143D01*
X169744381Y-91667859D02*
X169792001Y-91715478D01*
X169792001Y-91715478D02*
X169839620Y-91858335D01*
X169839620Y-91858335D02*
X169839620Y-91953573D01*
X169839620Y-91953573D02*
X169792001Y-92096430D01*
X169792001Y-92096430D02*
X169696762Y-92191668D01*
X169696762Y-92191668D02*
X169601524Y-92239287D01*
X169601524Y-92239287D02*
X169411048Y-92286906D01*
X169411048Y-92286906D02*
X169268191Y-92286906D01*
X169268191Y-92286906D02*
X169077715Y-92239287D01*
X169077715Y-92239287D02*
X168982477Y-92191668D01*
X168982477Y-92191668D02*
X168887239Y-92096430D01*
X168887239Y-92096430D02*
X168839620Y-91953573D01*
X168839620Y-91953573D02*
X168839620Y-91858335D01*
X168839620Y-91858335D02*
X168887239Y-91715478D01*
X168887239Y-91715478D02*
X168934858Y-91667859D01*
X169839620Y-91096430D02*
X169792001Y-91191668D01*
X169792001Y-91191668D02*
X169744381Y-91239287D01*
X169744381Y-91239287D02*
X169649143Y-91286906D01*
X169649143Y-91286906D02*
X169363429Y-91286906D01*
X169363429Y-91286906D02*
X169268191Y-91239287D01*
X169268191Y-91239287D02*
X169220572Y-91191668D01*
X169220572Y-91191668D02*
X169172953Y-91096430D01*
X169172953Y-91096430D02*
X169172953Y-90953573D01*
X169172953Y-90953573D02*
X169220572Y-90858335D01*
X169220572Y-90858335D02*
X169268191Y-90810716D01*
X169268191Y-90810716D02*
X169363429Y-90763097D01*
X169363429Y-90763097D02*
X169649143Y-90763097D01*
X169649143Y-90763097D02*
X169744381Y-90810716D01*
X169744381Y-90810716D02*
X169792001Y-90858335D01*
X169792001Y-90858335D02*
X169839620Y-90953573D01*
X169839620Y-90953573D02*
X169839620Y-91096430D01*
X169172953Y-90334525D02*
X169839620Y-90334525D01*
X169268191Y-90334525D02*
X169220572Y-90286906D01*
X169220572Y-90286906D02*
X169172953Y-90191668D01*
X169172953Y-90191668D02*
X169172953Y-90048811D01*
X169172953Y-90048811D02*
X169220572Y-89953573D01*
X169220572Y-89953573D02*
X169315810Y-89905954D01*
X169315810Y-89905954D02*
X169839620Y-89905954D01*
X169172953Y-89429763D02*
X169839620Y-89429763D01*
X169268191Y-89429763D02*
X169220572Y-89382144D01*
X169220572Y-89382144D02*
X169172953Y-89286906D01*
X169172953Y-89286906D02*
X169172953Y-89144049D01*
X169172953Y-89144049D02*
X169220572Y-89048811D01*
X169220572Y-89048811D02*
X169315810Y-89001192D01*
X169315810Y-89001192D02*
X169839620Y-89001192D01*
X169934858Y-88763097D02*
X169934858Y-88001192D01*
X168839620Y-87572620D02*
X168839620Y-87477382D01*
X168839620Y-87477382D02*
X168887239Y-87382144D01*
X168887239Y-87382144D02*
X168934858Y-87334525D01*
X168934858Y-87334525D02*
X169030096Y-87286906D01*
X169030096Y-87286906D02*
X169220572Y-87239287D01*
X169220572Y-87239287D02*
X169458667Y-87239287D01*
X169458667Y-87239287D02*
X169649143Y-87286906D01*
X169649143Y-87286906D02*
X169744381Y-87334525D01*
X169744381Y-87334525D02*
X169792001Y-87382144D01*
X169792001Y-87382144D02*
X169839620Y-87477382D01*
X169839620Y-87477382D02*
X169839620Y-87572620D01*
X169839620Y-87572620D02*
X169792001Y-87667858D01*
X169792001Y-87667858D02*
X169744381Y-87715477D01*
X169744381Y-87715477D02*
X169649143Y-87763096D01*
X169649143Y-87763096D02*
X169458667Y-87810715D01*
X169458667Y-87810715D02*
X169220572Y-87810715D01*
X169220572Y-87810715D02*
X169030096Y-87763096D01*
X169030096Y-87763096D02*
X168934858Y-87715477D01*
X168934858Y-87715477D02*
X168887239Y-87667858D01*
X168887239Y-87667858D02*
X168839620Y-87572620D01*
X168934858Y-86858334D02*
X168887239Y-86810715D01*
X168887239Y-86810715D02*
X168839620Y-86715477D01*
X168839620Y-86715477D02*
X168839620Y-86477382D01*
X168839620Y-86477382D02*
X168887239Y-86382144D01*
X168887239Y-86382144D02*
X168934858Y-86334525D01*
X168934858Y-86334525D02*
X169030096Y-86286906D01*
X169030096Y-86286906D02*
X169125334Y-86286906D01*
X169125334Y-86286906D02*
X169268191Y-86334525D01*
X169268191Y-86334525D02*
X169839620Y-86905953D01*
X169839620Y-86905953D02*
X169839620Y-86286906D01*
X169839620Y-85953572D02*
X169172953Y-85429763D01*
X169172953Y-85953572D02*
X169839620Y-85429763D01*
X168839620Y-84858334D02*
X168839620Y-84763096D01*
X168839620Y-84763096D02*
X168887239Y-84667858D01*
X168887239Y-84667858D02*
X168934858Y-84620239D01*
X168934858Y-84620239D02*
X169030096Y-84572620D01*
X169030096Y-84572620D02*
X169220572Y-84525001D01*
X169220572Y-84525001D02*
X169458667Y-84525001D01*
X169458667Y-84525001D02*
X169649143Y-84572620D01*
X169649143Y-84572620D02*
X169744381Y-84620239D01*
X169744381Y-84620239D02*
X169792001Y-84667858D01*
X169792001Y-84667858D02*
X169839620Y-84763096D01*
X169839620Y-84763096D02*
X169839620Y-84858334D01*
X169839620Y-84858334D02*
X169792001Y-84953572D01*
X169792001Y-84953572D02*
X169744381Y-85001191D01*
X169744381Y-85001191D02*
X169649143Y-85048810D01*
X169649143Y-85048810D02*
X169458667Y-85096429D01*
X169458667Y-85096429D02*
X169220572Y-85096429D01*
X169220572Y-85096429D02*
X169030096Y-85048810D01*
X169030096Y-85048810D02*
X168934858Y-85001191D01*
X168934858Y-85001191D02*
X168887239Y-84953572D01*
X168887239Y-84953572D02*
X168839620Y-84858334D01*
X168839620Y-83667858D02*
X168839620Y-83858334D01*
X168839620Y-83858334D02*
X168887239Y-83953572D01*
X168887239Y-83953572D02*
X168934858Y-84001191D01*
X168934858Y-84001191D02*
X169077715Y-84096429D01*
X169077715Y-84096429D02*
X169268191Y-84144048D01*
X169268191Y-84144048D02*
X169649143Y-84144048D01*
X169649143Y-84144048D02*
X169744381Y-84096429D01*
X169744381Y-84096429D02*
X169792001Y-84048810D01*
X169792001Y-84048810D02*
X169839620Y-83953572D01*
X169839620Y-83953572D02*
X169839620Y-83763096D01*
X169839620Y-83763096D02*
X169792001Y-83667858D01*
X169792001Y-83667858D02*
X169744381Y-83620239D01*
X169744381Y-83620239D02*
X169649143Y-83572620D01*
X169649143Y-83572620D02*
X169411048Y-83572620D01*
X169411048Y-83572620D02*
X169315810Y-83620239D01*
X169315810Y-83620239D02*
X169268191Y-83667858D01*
X169268191Y-83667858D02*
X169220572Y-83763096D01*
X169220572Y-83763096D02*
X169220572Y-83953572D01*
X169220572Y-83953572D02*
X169268191Y-84048810D01*
X169268191Y-84048810D02*
X169315810Y-84096429D01*
X169315810Y-84096429D02*
X169411048Y-84144048D01*
X169934858Y-83382144D02*
X169934858Y-82620239D01*
X168839620Y-82191667D02*
X168839620Y-82001191D01*
X168839620Y-82001191D02*
X168887239Y-81905953D01*
X168887239Y-81905953D02*
X168982477Y-81810715D01*
X168982477Y-81810715D02*
X169172953Y-81763096D01*
X169172953Y-81763096D02*
X169506286Y-81763096D01*
X169506286Y-81763096D02*
X169696762Y-81810715D01*
X169696762Y-81810715D02*
X169792001Y-81905953D01*
X169792001Y-81905953D02*
X169839620Y-82001191D01*
X169839620Y-82001191D02*
X169839620Y-82191667D01*
X169839620Y-82191667D02*
X169792001Y-82286905D01*
X169792001Y-82286905D02*
X169696762Y-82382143D01*
X169696762Y-82382143D02*
X169506286Y-82429762D01*
X169506286Y-82429762D02*
X169172953Y-82429762D01*
X169172953Y-82429762D02*
X168982477Y-82382143D01*
X168982477Y-82382143D02*
X168887239Y-82286905D01*
X168887239Y-82286905D02*
X168839620Y-82191667D01*
X169839620Y-80905953D02*
X168839620Y-80905953D01*
X169792001Y-80905953D02*
X169839620Y-81001191D01*
X169839620Y-81001191D02*
X169839620Y-81191667D01*
X169839620Y-81191667D02*
X169792001Y-81286905D01*
X169792001Y-81286905D02*
X169744381Y-81334524D01*
X169744381Y-81334524D02*
X169649143Y-81382143D01*
X169649143Y-81382143D02*
X169363429Y-81382143D01*
X169363429Y-81382143D02*
X169268191Y-81334524D01*
X169268191Y-81334524D02*
X169220572Y-81286905D01*
X169220572Y-81286905D02*
X169172953Y-81191667D01*
X169172953Y-81191667D02*
X169172953Y-81001191D01*
X169172953Y-81001191D02*
X169220572Y-80905953D01*
X169839620Y-80001191D02*
X168839620Y-80001191D01*
X169792001Y-80001191D02*
X169839620Y-80096429D01*
X169839620Y-80096429D02*
X169839620Y-80286905D01*
X169839620Y-80286905D02*
X169792001Y-80382143D01*
X169792001Y-80382143D02*
X169744381Y-80429762D01*
X169744381Y-80429762D02*
X169649143Y-80477381D01*
X169649143Y-80477381D02*
X169363429Y-80477381D01*
X169363429Y-80477381D02*
X169268191Y-80429762D01*
X169268191Y-80429762D02*
X169220572Y-80382143D01*
X169220572Y-80382143D02*
X169172953Y-80286905D01*
X169172953Y-80286905D02*
X169172953Y-80096429D01*
X169172953Y-80096429D02*
X169220572Y-80001191D01*
X169934858Y-79763096D02*
X169934858Y-79001191D01*
X169315810Y-78763095D02*
X169315810Y-78429762D01*
X169839620Y-78286905D02*
X169839620Y-78763095D01*
X169839620Y-78763095D02*
X168839620Y-78763095D01*
X168839620Y-78763095D02*
X168839620Y-78286905D01*
X169172953Y-77953571D02*
X169839620Y-77715476D01*
X169839620Y-77715476D02*
X169172953Y-77477381D01*
X169792001Y-76715476D02*
X169839620Y-76810714D01*
X169839620Y-76810714D02*
X169839620Y-77001190D01*
X169839620Y-77001190D02*
X169792001Y-77096428D01*
X169792001Y-77096428D02*
X169696762Y-77144047D01*
X169696762Y-77144047D02*
X169315810Y-77144047D01*
X169315810Y-77144047D02*
X169220572Y-77096428D01*
X169220572Y-77096428D02*
X169172953Y-77001190D01*
X169172953Y-77001190D02*
X169172953Y-76810714D01*
X169172953Y-76810714D02*
X169220572Y-76715476D01*
X169220572Y-76715476D02*
X169315810Y-76667857D01*
X169315810Y-76667857D02*
X169411048Y-76667857D01*
X169411048Y-76667857D02*
X169506286Y-77144047D01*
X169172953Y-76239285D02*
X169839620Y-76239285D01*
X169268191Y-76239285D02*
X169220572Y-76191666D01*
X169220572Y-76191666D02*
X169172953Y-76096428D01*
X169172953Y-76096428D02*
X169172953Y-75953571D01*
X169172953Y-75953571D02*
X169220572Y-75858333D01*
X169220572Y-75858333D02*
X169315810Y-75810714D01*
X169315810Y-75810714D02*
X169839620Y-75810714D01*
X177731467Y-83479820D02*
X177731467Y-84194105D01*
X177731467Y-84194105D02*
X177683848Y-84336962D01*
X177683848Y-84336962D02*
X177588610Y-84432201D01*
X177588610Y-84432201D02*
X177445753Y-84479820D01*
X177445753Y-84479820D02*
X177350515Y-84479820D01*
X178731467Y-84479820D02*
X178160039Y-84479820D01*
X178445753Y-84479820D02*
X178445753Y-83479820D01*
X178445753Y-83479820D02*
X178350515Y-83622677D01*
X178350515Y-83622677D02*
X178255277Y-83717915D01*
X178255277Y-83717915D02*
X178160039Y-83765534D01*
X169069581Y-131234525D02*
X169117201Y-131282144D01*
X169117201Y-131282144D02*
X169164820Y-131425001D01*
X169164820Y-131425001D02*
X169164820Y-131520239D01*
X169164820Y-131520239D02*
X169117201Y-131663096D01*
X169117201Y-131663096D02*
X169021962Y-131758334D01*
X169021962Y-131758334D02*
X168926724Y-131805953D01*
X168926724Y-131805953D02*
X168736248Y-131853572D01*
X168736248Y-131853572D02*
X168593391Y-131853572D01*
X168593391Y-131853572D02*
X168402915Y-131805953D01*
X168402915Y-131805953D02*
X168307677Y-131758334D01*
X168307677Y-131758334D02*
X168212439Y-131663096D01*
X168212439Y-131663096D02*
X168164820Y-131520239D01*
X168164820Y-131520239D02*
X168164820Y-131425001D01*
X168164820Y-131425001D02*
X168212439Y-131282144D01*
X168212439Y-131282144D02*
X168260058Y-131234525D01*
X169164820Y-130663096D02*
X169117201Y-130758334D01*
X169117201Y-130758334D02*
X169069581Y-130805953D01*
X169069581Y-130805953D02*
X168974343Y-130853572D01*
X168974343Y-130853572D02*
X168688629Y-130853572D01*
X168688629Y-130853572D02*
X168593391Y-130805953D01*
X168593391Y-130805953D02*
X168545772Y-130758334D01*
X168545772Y-130758334D02*
X168498153Y-130663096D01*
X168498153Y-130663096D02*
X168498153Y-130520239D01*
X168498153Y-130520239D02*
X168545772Y-130425001D01*
X168545772Y-130425001D02*
X168593391Y-130377382D01*
X168593391Y-130377382D02*
X168688629Y-130329763D01*
X168688629Y-130329763D02*
X168974343Y-130329763D01*
X168974343Y-130329763D02*
X169069581Y-130377382D01*
X169069581Y-130377382D02*
X169117201Y-130425001D01*
X169117201Y-130425001D02*
X169164820Y-130520239D01*
X169164820Y-130520239D02*
X169164820Y-130663096D01*
X168498153Y-129901191D02*
X169164820Y-129901191D01*
X168593391Y-129901191D02*
X168545772Y-129853572D01*
X168545772Y-129853572D02*
X168498153Y-129758334D01*
X168498153Y-129758334D02*
X168498153Y-129615477D01*
X168498153Y-129615477D02*
X168545772Y-129520239D01*
X168545772Y-129520239D02*
X168641010Y-129472620D01*
X168641010Y-129472620D02*
X169164820Y-129472620D01*
X168498153Y-128996429D02*
X169164820Y-128996429D01*
X168593391Y-128996429D02*
X168545772Y-128948810D01*
X168545772Y-128948810D02*
X168498153Y-128853572D01*
X168498153Y-128853572D02*
X168498153Y-128710715D01*
X168498153Y-128710715D02*
X168545772Y-128615477D01*
X168545772Y-128615477D02*
X168641010Y-128567858D01*
X168641010Y-128567858D02*
X169164820Y-128567858D01*
X169260058Y-128329763D02*
X169260058Y-127567858D01*
X168164820Y-127139286D02*
X168164820Y-127044048D01*
X168164820Y-127044048D02*
X168212439Y-126948810D01*
X168212439Y-126948810D02*
X168260058Y-126901191D01*
X168260058Y-126901191D02*
X168355296Y-126853572D01*
X168355296Y-126853572D02*
X168545772Y-126805953D01*
X168545772Y-126805953D02*
X168783867Y-126805953D01*
X168783867Y-126805953D02*
X168974343Y-126853572D01*
X168974343Y-126853572D02*
X169069581Y-126901191D01*
X169069581Y-126901191D02*
X169117201Y-126948810D01*
X169117201Y-126948810D02*
X169164820Y-127044048D01*
X169164820Y-127044048D02*
X169164820Y-127139286D01*
X169164820Y-127139286D02*
X169117201Y-127234524D01*
X169117201Y-127234524D02*
X169069581Y-127282143D01*
X169069581Y-127282143D02*
X168974343Y-127329762D01*
X168974343Y-127329762D02*
X168783867Y-127377381D01*
X168783867Y-127377381D02*
X168545772Y-127377381D01*
X168545772Y-127377381D02*
X168355296Y-127329762D01*
X168355296Y-127329762D02*
X168260058Y-127282143D01*
X168260058Y-127282143D02*
X168212439Y-127234524D01*
X168212439Y-127234524D02*
X168164820Y-127139286D01*
X169164820Y-125853572D02*
X169164820Y-126425000D01*
X169164820Y-126139286D02*
X168164820Y-126139286D01*
X168164820Y-126139286D02*
X168307677Y-126234524D01*
X168307677Y-126234524D02*
X168402915Y-126329762D01*
X168402915Y-126329762D02*
X168450534Y-126425000D01*
X169164820Y-125520238D02*
X168498153Y-124996429D01*
X168498153Y-125520238D02*
X169164820Y-124996429D01*
X168164820Y-124425000D02*
X168164820Y-124329762D01*
X168164820Y-124329762D02*
X168212439Y-124234524D01*
X168212439Y-124234524D02*
X168260058Y-124186905D01*
X168260058Y-124186905D02*
X168355296Y-124139286D01*
X168355296Y-124139286D02*
X168545772Y-124091667D01*
X168545772Y-124091667D02*
X168783867Y-124091667D01*
X168783867Y-124091667D02*
X168974343Y-124139286D01*
X168974343Y-124139286D02*
X169069581Y-124186905D01*
X169069581Y-124186905D02*
X169117201Y-124234524D01*
X169117201Y-124234524D02*
X169164820Y-124329762D01*
X169164820Y-124329762D02*
X169164820Y-124425000D01*
X169164820Y-124425000D02*
X169117201Y-124520238D01*
X169117201Y-124520238D02*
X169069581Y-124567857D01*
X169069581Y-124567857D02*
X168974343Y-124615476D01*
X168974343Y-124615476D02*
X168783867Y-124663095D01*
X168783867Y-124663095D02*
X168545772Y-124663095D01*
X168545772Y-124663095D02*
X168355296Y-124615476D01*
X168355296Y-124615476D02*
X168260058Y-124567857D01*
X168260058Y-124567857D02*
X168212439Y-124520238D01*
X168212439Y-124520238D02*
X168164820Y-124425000D01*
X168164820Y-123758333D02*
X168164820Y-123139286D01*
X168164820Y-123139286D02*
X168545772Y-123472619D01*
X168545772Y-123472619D02*
X168545772Y-123329762D01*
X168545772Y-123329762D02*
X168593391Y-123234524D01*
X168593391Y-123234524D02*
X168641010Y-123186905D01*
X168641010Y-123186905D02*
X168736248Y-123139286D01*
X168736248Y-123139286D02*
X168974343Y-123139286D01*
X168974343Y-123139286D02*
X169069581Y-123186905D01*
X169069581Y-123186905D02*
X169117201Y-123234524D01*
X169117201Y-123234524D02*
X169164820Y-123329762D01*
X169164820Y-123329762D02*
X169164820Y-123615476D01*
X169164820Y-123615476D02*
X169117201Y-123710714D01*
X169117201Y-123710714D02*
X169069581Y-123758333D01*
X169260058Y-122948810D02*
X169260058Y-122186905D01*
X169164820Y-121948809D02*
X168164820Y-121948809D01*
X168164820Y-121948809D02*
X168164820Y-121567857D01*
X168164820Y-121567857D02*
X168212439Y-121472619D01*
X168212439Y-121472619D02*
X168260058Y-121425000D01*
X168260058Y-121425000D02*
X168355296Y-121377381D01*
X168355296Y-121377381D02*
X168498153Y-121377381D01*
X168498153Y-121377381D02*
X168593391Y-121425000D01*
X168593391Y-121425000D02*
X168641010Y-121472619D01*
X168641010Y-121472619D02*
X168688629Y-121567857D01*
X168688629Y-121567857D02*
X168688629Y-121948809D01*
X169164820Y-120948809D02*
X168498153Y-120948809D01*
X168164820Y-120948809D02*
X168212439Y-120996428D01*
X168212439Y-120996428D02*
X168260058Y-120948809D01*
X168260058Y-120948809D02*
X168212439Y-120901190D01*
X168212439Y-120901190D02*
X168164820Y-120948809D01*
X168164820Y-120948809D02*
X168260058Y-120948809D01*
X168498153Y-120472619D02*
X169164820Y-120472619D01*
X168593391Y-120472619D02*
X168545772Y-120425000D01*
X168545772Y-120425000D02*
X168498153Y-120329762D01*
X168498153Y-120329762D02*
X168498153Y-120186905D01*
X168498153Y-120186905D02*
X168545772Y-120091667D01*
X168545772Y-120091667D02*
X168641010Y-120044048D01*
X168641010Y-120044048D02*
X169164820Y-120044048D01*
X166264820Y-126734524D02*
X166979105Y-126734524D01*
X166979105Y-126734524D02*
X167121962Y-126782143D01*
X167121962Y-126782143D02*
X167217201Y-126877381D01*
X167217201Y-126877381D02*
X167264820Y-127020238D01*
X167264820Y-127020238D02*
X167264820Y-127115476D01*
X167264820Y-125734524D02*
X167264820Y-126305952D01*
X167264820Y-126020238D02*
X166264820Y-126020238D01*
X166264820Y-126020238D02*
X166407677Y-126115476D01*
X166407677Y-126115476D02*
X166502915Y-126210714D01*
X166502915Y-126210714D02*
X166550534Y-126305952D01*
X166360058Y-125353571D02*
X166312439Y-125305952D01*
X166312439Y-125305952D02*
X166264820Y-125210714D01*
X166264820Y-125210714D02*
X166264820Y-124972619D01*
X166264820Y-124972619D02*
X166312439Y-124877381D01*
X166312439Y-124877381D02*
X166360058Y-124829762D01*
X166360058Y-124829762D02*
X166455296Y-124782143D01*
X166455296Y-124782143D02*
X166550534Y-124782143D01*
X166550534Y-124782143D02*
X166693391Y-124829762D01*
X166693391Y-124829762D02*
X167264820Y-125401190D01*
X167264820Y-125401190D02*
X167264820Y-124782143D01*
X158909581Y-131234525D02*
X158957201Y-131282144D01*
X158957201Y-131282144D02*
X159004820Y-131425001D01*
X159004820Y-131425001D02*
X159004820Y-131520239D01*
X159004820Y-131520239D02*
X158957201Y-131663096D01*
X158957201Y-131663096D02*
X158861962Y-131758334D01*
X158861962Y-131758334D02*
X158766724Y-131805953D01*
X158766724Y-131805953D02*
X158576248Y-131853572D01*
X158576248Y-131853572D02*
X158433391Y-131853572D01*
X158433391Y-131853572D02*
X158242915Y-131805953D01*
X158242915Y-131805953D02*
X158147677Y-131758334D01*
X158147677Y-131758334D02*
X158052439Y-131663096D01*
X158052439Y-131663096D02*
X158004820Y-131520239D01*
X158004820Y-131520239D02*
X158004820Y-131425001D01*
X158004820Y-131425001D02*
X158052439Y-131282144D01*
X158052439Y-131282144D02*
X158100058Y-131234525D01*
X159004820Y-130663096D02*
X158957201Y-130758334D01*
X158957201Y-130758334D02*
X158909581Y-130805953D01*
X158909581Y-130805953D02*
X158814343Y-130853572D01*
X158814343Y-130853572D02*
X158528629Y-130853572D01*
X158528629Y-130853572D02*
X158433391Y-130805953D01*
X158433391Y-130805953D02*
X158385772Y-130758334D01*
X158385772Y-130758334D02*
X158338153Y-130663096D01*
X158338153Y-130663096D02*
X158338153Y-130520239D01*
X158338153Y-130520239D02*
X158385772Y-130425001D01*
X158385772Y-130425001D02*
X158433391Y-130377382D01*
X158433391Y-130377382D02*
X158528629Y-130329763D01*
X158528629Y-130329763D02*
X158814343Y-130329763D01*
X158814343Y-130329763D02*
X158909581Y-130377382D01*
X158909581Y-130377382D02*
X158957201Y-130425001D01*
X158957201Y-130425001D02*
X159004820Y-130520239D01*
X159004820Y-130520239D02*
X159004820Y-130663096D01*
X158338153Y-129901191D02*
X159004820Y-129901191D01*
X158433391Y-129901191D02*
X158385772Y-129853572D01*
X158385772Y-129853572D02*
X158338153Y-129758334D01*
X158338153Y-129758334D02*
X158338153Y-129615477D01*
X158338153Y-129615477D02*
X158385772Y-129520239D01*
X158385772Y-129520239D02*
X158481010Y-129472620D01*
X158481010Y-129472620D02*
X159004820Y-129472620D01*
X158338153Y-128996429D02*
X159004820Y-128996429D01*
X158433391Y-128996429D02*
X158385772Y-128948810D01*
X158385772Y-128948810D02*
X158338153Y-128853572D01*
X158338153Y-128853572D02*
X158338153Y-128710715D01*
X158338153Y-128710715D02*
X158385772Y-128615477D01*
X158385772Y-128615477D02*
X158481010Y-128567858D01*
X158481010Y-128567858D02*
X159004820Y-128567858D01*
X159100058Y-128329763D02*
X159100058Y-127567858D01*
X158004820Y-127139286D02*
X158004820Y-127044048D01*
X158004820Y-127044048D02*
X158052439Y-126948810D01*
X158052439Y-126948810D02*
X158100058Y-126901191D01*
X158100058Y-126901191D02*
X158195296Y-126853572D01*
X158195296Y-126853572D02*
X158385772Y-126805953D01*
X158385772Y-126805953D02*
X158623867Y-126805953D01*
X158623867Y-126805953D02*
X158814343Y-126853572D01*
X158814343Y-126853572D02*
X158909581Y-126901191D01*
X158909581Y-126901191D02*
X158957201Y-126948810D01*
X158957201Y-126948810D02*
X159004820Y-127044048D01*
X159004820Y-127044048D02*
X159004820Y-127139286D01*
X159004820Y-127139286D02*
X158957201Y-127234524D01*
X158957201Y-127234524D02*
X158909581Y-127282143D01*
X158909581Y-127282143D02*
X158814343Y-127329762D01*
X158814343Y-127329762D02*
X158623867Y-127377381D01*
X158623867Y-127377381D02*
X158385772Y-127377381D01*
X158385772Y-127377381D02*
X158195296Y-127329762D01*
X158195296Y-127329762D02*
X158100058Y-127282143D01*
X158100058Y-127282143D02*
X158052439Y-127234524D01*
X158052439Y-127234524D02*
X158004820Y-127139286D01*
X159004820Y-125853572D02*
X159004820Y-126425000D01*
X159004820Y-126139286D02*
X158004820Y-126139286D01*
X158004820Y-126139286D02*
X158147677Y-126234524D01*
X158147677Y-126234524D02*
X158242915Y-126329762D01*
X158242915Y-126329762D02*
X158290534Y-126425000D01*
X159004820Y-125520238D02*
X158338153Y-124996429D01*
X158338153Y-125520238D02*
X159004820Y-124996429D01*
X158004820Y-124425000D02*
X158004820Y-124329762D01*
X158004820Y-124329762D02*
X158052439Y-124234524D01*
X158052439Y-124234524D02*
X158100058Y-124186905D01*
X158100058Y-124186905D02*
X158195296Y-124139286D01*
X158195296Y-124139286D02*
X158385772Y-124091667D01*
X158385772Y-124091667D02*
X158623867Y-124091667D01*
X158623867Y-124091667D02*
X158814343Y-124139286D01*
X158814343Y-124139286D02*
X158909581Y-124186905D01*
X158909581Y-124186905D02*
X158957201Y-124234524D01*
X158957201Y-124234524D02*
X159004820Y-124329762D01*
X159004820Y-124329762D02*
X159004820Y-124425000D01*
X159004820Y-124425000D02*
X158957201Y-124520238D01*
X158957201Y-124520238D02*
X158909581Y-124567857D01*
X158909581Y-124567857D02*
X158814343Y-124615476D01*
X158814343Y-124615476D02*
X158623867Y-124663095D01*
X158623867Y-124663095D02*
X158385772Y-124663095D01*
X158385772Y-124663095D02*
X158195296Y-124615476D01*
X158195296Y-124615476D02*
X158100058Y-124567857D01*
X158100058Y-124567857D02*
X158052439Y-124520238D01*
X158052439Y-124520238D02*
X158004820Y-124425000D01*
X158004820Y-123758333D02*
X158004820Y-123139286D01*
X158004820Y-123139286D02*
X158385772Y-123472619D01*
X158385772Y-123472619D02*
X158385772Y-123329762D01*
X158385772Y-123329762D02*
X158433391Y-123234524D01*
X158433391Y-123234524D02*
X158481010Y-123186905D01*
X158481010Y-123186905D02*
X158576248Y-123139286D01*
X158576248Y-123139286D02*
X158814343Y-123139286D01*
X158814343Y-123139286D02*
X158909581Y-123186905D01*
X158909581Y-123186905D02*
X158957201Y-123234524D01*
X158957201Y-123234524D02*
X159004820Y-123329762D01*
X159004820Y-123329762D02*
X159004820Y-123615476D01*
X159004820Y-123615476D02*
X158957201Y-123710714D01*
X158957201Y-123710714D02*
X158909581Y-123758333D01*
X159100058Y-122948810D02*
X159100058Y-122186905D01*
X159004820Y-121948809D02*
X158004820Y-121948809D01*
X158004820Y-121948809D02*
X158004820Y-121567857D01*
X158004820Y-121567857D02*
X158052439Y-121472619D01*
X158052439Y-121472619D02*
X158100058Y-121425000D01*
X158100058Y-121425000D02*
X158195296Y-121377381D01*
X158195296Y-121377381D02*
X158338153Y-121377381D01*
X158338153Y-121377381D02*
X158433391Y-121425000D01*
X158433391Y-121425000D02*
X158481010Y-121472619D01*
X158481010Y-121472619D02*
X158528629Y-121567857D01*
X158528629Y-121567857D02*
X158528629Y-121948809D01*
X159004820Y-120948809D02*
X158338153Y-120948809D01*
X158004820Y-120948809D02*
X158052439Y-120996428D01*
X158052439Y-120996428D02*
X158100058Y-120948809D01*
X158100058Y-120948809D02*
X158052439Y-120901190D01*
X158052439Y-120901190D02*
X158004820Y-120948809D01*
X158004820Y-120948809D02*
X158100058Y-120948809D01*
X158338153Y-120472619D02*
X159004820Y-120472619D01*
X158433391Y-120472619D02*
X158385772Y-120425000D01*
X158385772Y-120425000D02*
X158338153Y-120329762D01*
X158338153Y-120329762D02*
X158338153Y-120186905D01*
X158338153Y-120186905D02*
X158385772Y-120091667D01*
X158385772Y-120091667D02*
X158481010Y-120044048D01*
X158481010Y-120044048D02*
X159004820Y-120044048D01*
X156104820Y-126734524D02*
X156819105Y-126734524D01*
X156819105Y-126734524D02*
X156961962Y-126782143D01*
X156961962Y-126782143D02*
X157057201Y-126877381D01*
X157057201Y-126877381D02*
X157104820Y-127020238D01*
X157104820Y-127020238D02*
X157104820Y-127115476D01*
X157104820Y-125734524D02*
X157104820Y-126305952D01*
X157104820Y-126020238D02*
X156104820Y-126020238D01*
X156104820Y-126020238D02*
X156247677Y-126115476D01*
X156247677Y-126115476D02*
X156342915Y-126210714D01*
X156342915Y-126210714D02*
X156390534Y-126305952D01*
X157104820Y-124782143D02*
X157104820Y-125353571D01*
X157104820Y-125067857D02*
X156104820Y-125067857D01*
X156104820Y-125067857D02*
X156247677Y-125163095D01*
X156247677Y-125163095D02*
X156342915Y-125258333D01*
X156342915Y-125258333D02*
X156390534Y-125353571D01*
X158909581Y-143934525D02*
X158957201Y-143982144D01*
X158957201Y-143982144D02*
X159004820Y-144125001D01*
X159004820Y-144125001D02*
X159004820Y-144220239D01*
X159004820Y-144220239D02*
X158957201Y-144363096D01*
X158957201Y-144363096D02*
X158861962Y-144458334D01*
X158861962Y-144458334D02*
X158766724Y-144505953D01*
X158766724Y-144505953D02*
X158576248Y-144553572D01*
X158576248Y-144553572D02*
X158433391Y-144553572D01*
X158433391Y-144553572D02*
X158242915Y-144505953D01*
X158242915Y-144505953D02*
X158147677Y-144458334D01*
X158147677Y-144458334D02*
X158052439Y-144363096D01*
X158052439Y-144363096D02*
X158004820Y-144220239D01*
X158004820Y-144220239D02*
X158004820Y-144125001D01*
X158004820Y-144125001D02*
X158052439Y-143982144D01*
X158052439Y-143982144D02*
X158100058Y-143934525D01*
X159004820Y-143363096D02*
X158957201Y-143458334D01*
X158957201Y-143458334D02*
X158909581Y-143505953D01*
X158909581Y-143505953D02*
X158814343Y-143553572D01*
X158814343Y-143553572D02*
X158528629Y-143553572D01*
X158528629Y-143553572D02*
X158433391Y-143505953D01*
X158433391Y-143505953D02*
X158385772Y-143458334D01*
X158385772Y-143458334D02*
X158338153Y-143363096D01*
X158338153Y-143363096D02*
X158338153Y-143220239D01*
X158338153Y-143220239D02*
X158385772Y-143125001D01*
X158385772Y-143125001D02*
X158433391Y-143077382D01*
X158433391Y-143077382D02*
X158528629Y-143029763D01*
X158528629Y-143029763D02*
X158814343Y-143029763D01*
X158814343Y-143029763D02*
X158909581Y-143077382D01*
X158909581Y-143077382D02*
X158957201Y-143125001D01*
X158957201Y-143125001D02*
X159004820Y-143220239D01*
X159004820Y-143220239D02*
X159004820Y-143363096D01*
X158338153Y-142601191D02*
X159004820Y-142601191D01*
X158433391Y-142601191D02*
X158385772Y-142553572D01*
X158385772Y-142553572D02*
X158338153Y-142458334D01*
X158338153Y-142458334D02*
X158338153Y-142315477D01*
X158338153Y-142315477D02*
X158385772Y-142220239D01*
X158385772Y-142220239D02*
X158481010Y-142172620D01*
X158481010Y-142172620D02*
X159004820Y-142172620D01*
X158338153Y-141696429D02*
X159004820Y-141696429D01*
X158433391Y-141696429D02*
X158385772Y-141648810D01*
X158385772Y-141648810D02*
X158338153Y-141553572D01*
X158338153Y-141553572D02*
X158338153Y-141410715D01*
X158338153Y-141410715D02*
X158385772Y-141315477D01*
X158385772Y-141315477D02*
X158481010Y-141267858D01*
X158481010Y-141267858D02*
X159004820Y-141267858D01*
X159100058Y-141029763D02*
X159100058Y-140267858D01*
X158004820Y-139839286D02*
X158004820Y-139744048D01*
X158004820Y-139744048D02*
X158052439Y-139648810D01*
X158052439Y-139648810D02*
X158100058Y-139601191D01*
X158100058Y-139601191D02*
X158195296Y-139553572D01*
X158195296Y-139553572D02*
X158385772Y-139505953D01*
X158385772Y-139505953D02*
X158623867Y-139505953D01*
X158623867Y-139505953D02*
X158814343Y-139553572D01*
X158814343Y-139553572D02*
X158909581Y-139601191D01*
X158909581Y-139601191D02*
X158957201Y-139648810D01*
X158957201Y-139648810D02*
X159004820Y-139744048D01*
X159004820Y-139744048D02*
X159004820Y-139839286D01*
X159004820Y-139839286D02*
X158957201Y-139934524D01*
X158957201Y-139934524D02*
X158909581Y-139982143D01*
X158909581Y-139982143D02*
X158814343Y-140029762D01*
X158814343Y-140029762D02*
X158623867Y-140077381D01*
X158623867Y-140077381D02*
X158385772Y-140077381D01*
X158385772Y-140077381D02*
X158195296Y-140029762D01*
X158195296Y-140029762D02*
X158100058Y-139982143D01*
X158100058Y-139982143D02*
X158052439Y-139934524D01*
X158052439Y-139934524D02*
X158004820Y-139839286D01*
X159004820Y-138553572D02*
X159004820Y-139125000D01*
X159004820Y-138839286D02*
X158004820Y-138839286D01*
X158004820Y-138839286D02*
X158147677Y-138934524D01*
X158147677Y-138934524D02*
X158242915Y-139029762D01*
X158242915Y-139029762D02*
X158290534Y-139125000D01*
X159004820Y-138220238D02*
X158338153Y-137696429D01*
X158338153Y-138220238D02*
X159004820Y-137696429D01*
X158004820Y-137125000D02*
X158004820Y-137029762D01*
X158004820Y-137029762D02*
X158052439Y-136934524D01*
X158052439Y-136934524D02*
X158100058Y-136886905D01*
X158100058Y-136886905D02*
X158195296Y-136839286D01*
X158195296Y-136839286D02*
X158385772Y-136791667D01*
X158385772Y-136791667D02*
X158623867Y-136791667D01*
X158623867Y-136791667D02*
X158814343Y-136839286D01*
X158814343Y-136839286D02*
X158909581Y-136886905D01*
X158909581Y-136886905D02*
X158957201Y-136934524D01*
X158957201Y-136934524D02*
X159004820Y-137029762D01*
X159004820Y-137029762D02*
X159004820Y-137125000D01*
X159004820Y-137125000D02*
X158957201Y-137220238D01*
X158957201Y-137220238D02*
X158909581Y-137267857D01*
X158909581Y-137267857D02*
X158814343Y-137315476D01*
X158814343Y-137315476D02*
X158623867Y-137363095D01*
X158623867Y-137363095D02*
X158385772Y-137363095D01*
X158385772Y-137363095D02*
X158195296Y-137315476D01*
X158195296Y-137315476D02*
X158100058Y-137267857D01*
X158100058Y-137267857D02*
X158052439Y-137220238D01*
X158052439Y-137220238D02*
X158004820Y-137125000D01*
X158004820Y-136458333D02*
X158004820Y-135839286D01*
X158004820Y-135839286D02*
X158385772Y-136172619D01*
X158385772Y-136172619D02*
X158385772Y-136029762D01*
X158385772Y-136029762D02*
X158433391Y-135934524D01*
X158433391Y-135934524D02*
X158481010Y-135886905D01*
X158481010Y-135886905D02*
X158576248Y-135839286D01*
X158576248Y-135839286D02*
X158814343Y-135839286D01*
X158814343Y-135839286D02*
X158909581Y-135886905D01*
X158909581Y-135886905D02*
X158957201Y-135934524D01*
X158957201Y-135934524D02*
X159004820Y-136029762D01*
X159004820Y-136029762D02*
X159004820Y-136315476D01*
X159004820Y-136315476D02*
X158957201Y-136410714D01*
X158957201Y-136410714D02*
X158909581Y-136458333D01*
X159100058Y-135648810D02*
X159100058Y-134886905D01*
X159004820Y-134648809D02*
X158004820Y-134648809D01*
X158004820Y-134648809D02*
X158004820Y-134267857D01*
X158004820Y-134267857D02*
X158052439Y-134172619D01*
X158052439Y-134172619D02*
X158100058Y-134125000D01*
X158100058Y-134125000D02*
X158195296Y-134077381D01*
X158195296Y-134077381D02*
X158338153Y-134077381D01*
X158338153Y-134077381D02*
X158433391Y-134125000D01*
X158433391Y-134125000D02*
X158481010Y-134172619D01*
X158481010Y-134172619D02*
X158528629Y-134267857D01*
X158528629Y-134267857D02*
X158528629Y-134648809D01*
X159004820Y-133648809D02*
X158338153Y-133648809D01*
X158004820Y-133648809D02*
X158052439Y-133696428D01*
X158052439Y-133696428D02*
X158100058Y-133648809D01*
X158100058Y-133648809D02*
X158052439Y-133601190D01*
X158052439Y-133601190D02*
X158004820Y-133648809D01*
X158004820Y-133648809D02*
X158100058Y-133648809D01*
X158338153Y-133172619D02*
X159004820Y-133172619D01*
X158433391Y-133172619D02*
X158385772Y-133125000D01*
X158385772Y-133125000D02*
X158338153Y-133029762D01*
X158338153Y-133029762D02*
X158338153Y-132886905D01*
X158338153Y-132886905D02*
X158385772Y-132791667D01*
X158385772Y-132791667D02*
X158481010Y-132744048D01*
X158481010Y-132744048D02*
X159004820Y-132744048D01*
X156104820Y-138958334D02*
X156819105Y-138958334D01*
X156819105Y-138958334D02*
X156961962Y-139005953D01*
X156961962Y-139005953D02*
X157057201Y-139101191D01*
X157057201Y-139101191D02*
X157104820Y-139244048D01*
X157104820Y-139244048D02*
X157104820Y-139339286D01*
X156438153Y-138053572D02*
X157104820Y-138053572D01*
X156057201Y-138291667D02*
X156771486Y-138529762D01*
X156771486Y-138529762D02*
X156771486Y-137910715D01*
X178396229Y-87793153D02*
X178396229Y-88459820D01*
X178158134Y-87412201D02*
X177920039Y-88126486D01*
X177920039Y-88126486D02*
X178539086Y-88126486D01*
X178920039Y-88364581D02*
X178967658Y-88412201D01*
X178967658Y-88412201D02*
X178920039Y-88459820D01*
X178920039Y-88459820D02*
X178872420Y-88412201D01*
X178872420Y-88412201D02*
X178920039Y-88364581D01*
X178920039Y-88364581D02*
X178920039Y-88459820D01*
X179300991Y-87459820D02*
X179967657Y-87459820D01*
X179967657Y-87459820D02*
X179539086Y-88459820D01*
X180348610Y-88459820D02*
X180348610Y-87459820D01*
X180443848Y-88078867D02*
X180729562Y-88459820D01*
X180729562Y-87793153D02*
X180348610Y-88174105D01*
X179158134Y-90829820D02*
X178824801Y-90353629D01*
X178586706Y-90829820D02*
X178586706Y-89829820D01*
X178586706Y-89829820D02*
X178967658Y-89829820D01*
X178967658Y-89829820D02*
X179062896Y-89877439D01*
X179062896Y-89877439D02*
X179110515Y-89925058D01*
X179110515Y-89925058D02*
X179158134Y-90020296D01*
X179158134Y-90020296D02*
X179158134Y-90163153D01*
X179158134Y-90163153D02*
X179110515Y-90258391D01*
X179110515Y-90258391D02*
X179062896Y-90306010D01*
X179062896Y-90306010D02*
X178967658Y-90353629D01*
X178967658Y-90353629D02*
X178586706Y-90353629D01*
X180110515Y-90829820D02*
X179539087Y-90829820D01*
X179824801Y-90829820D02*
X179824801Y-89829820D01*
X179824801Y-89829820D02*
X179729563Y-89972677D01*
X179729563Y-89972677D02*
X179634325Y-90067915D01*
X179634325Y-90067915D02*
X179539087Y-90115534D01*
X179229581Y-131234525D02*
X179277201Y-131282144D01*
X179277201Y-131282144D02*
X179324820Y-131425001D01*
X179324820Y-131425001D02*
X179324820Y-131520239D01*
X179324820Y-131520239D02*
X179277201Y-131663096D01*
X179277201Y-131663096D02*
X179181962Y-131758334D01*
X179181962Y-131758334D02*
X179086724Y-131805953D01*
X179086724Y-131805953D02*
X178896248Y-131853572D01*
X178896248Y-131853572D02*
X178753391Y-131853572D01*
X178753391Y-131853572D02*
X178562915Y-131805953D01*
X178562915Y-131805953D02*
X178467677Y-131758334D01*
X178467677Y-131758334D02*
X178372439Y-131663096D01*
X178372439Y-131663096D02*
X178324820Y-131520239D01*
X178324820Y-131520239D02*
X178324820Y-131425001D01*
X178324820Y-131425001D02*
X178372439Y-131282144D01*
X178372439Y-131282144D02*
X178420058Y-131234525D01*
X179324820Y-130663096D02*
X179277201Y-130758334D01*
X179277201Y-130758334D02*
X179229581Y-130805953D01*
X179229581Y-130805953D02*
X179134343Y-130853572D01*
X179134343Y-130853572D02*
X178848629Y-130853572D01*
X178848629Y-130853572D02*
X178753391Y-130805953D01*
X178753391Y-130805953D02*
X178705772Y-130758334D01*
X178705772Y-130758334D02*
X178658153Y-130663096D01*
X178658153Y-130663096D02*
X178658153Y-130520239D01*
X178658153Y-130520239D02*
X178705772Y-130425001D01*
X178705772Y-130425001D02*
X178753391Y-130377382D01*
X178753391Y-130377382D02*
X178848629Y-130329763D01*
X178848629Y-130329763D02*
X179134343Y-130329763D01*
X179134343Y-130329763D02*
X179229581Y-130377382D01*
X179229581Y-130377382D02*
X179277201Y-130425001D01*
X179277201Y-130425001D02*
X179324820Y-130520239D01*
X179324820Y-130520239D02*
X179324820Y-130663096D01*
X178658153Y-129901191D02*
X179324820Y-129901191D01*
X178753391Y-129901191D02*
X178705772Y-129853572D01*
X178705772Y-129853572D02*
X178658153Y-129758334D01*
X178658153Y-129758334D02*
X178658153Y-129615477D01*
X178658153Y-129615477D02*
X178705772Y-129520239D01*
X178705772Y-129520239D02*
X178801010Y-129472620D01*
X178801010Y-129472620D02*
X179324820Y-129472620D01*
X178658153Y-128996429D02*
X179324820Y-128996429D01*
X178753391Y-128996429D02*
X178705772Y-128948810D01*
X178705772Y-128948810D02*
X178658153Y-128853572D01*
X178658153Y-128853572D02*
X178658153Y-128710715D01*
X178658153Y-128710715D02*
X178705772Y-128615477D01*
X178705772Y-128615477D02*
X178801010Y-128567858D01*
X178801010Y-128567858D02*
X179324820Y-128567858D01*
X179420058Y-128329763D02*
X179420058Y-127567858D01*
X178324820Y-127139286D02*
X178324820Y-127044048D01*
X178324820Y-127044048D02*
X178372439Y-126948810D01*
X178372439Y-126948810D02*
X178420058Y-126901191D01*
X178420058Y-126901191D02*
X178515296Y-126853572D01*
X178515296Y-126853572D02*
X178705772Y-126805953D01*
X178705772Y-126805953D02*
X178943867Y-126805953D01*
X178943867Y-126805953D02*
X179134343Y-126853572D01*
X179134343Y-126853572D02*
X179229581Y-126901191D01*
X179229581Y-126901191D02*
X179277201Y-126948810D01*
X179277201Y-126948810D02*
X179324820Y-127044048D01*
X179324820Y-127044048D02*
X179324820Y-127139286D01*
X179324820Y-127139286D02*
X179277201Y-127234524D01*
X179277201Y-127234524D02*
X179229581Y-127282143D01*
X179229581Y-127282143D02*
X179134343Y-127329762D01*
X179134343Y-127329762D02*
X178943867Y-127377381D01*
X178943867Y-127377381D02*
X178705772Y-127377381D01*
X178705772Y-127377381D02*
X178515296Y-127329762D01*
X178515296Y-127329762D02*
X178420058Y-127282143D01*
X178420058Y-127282143D02*
X178372439Y-127234524D01*
X178372439Y-127234524D02*
X178324820Y-127139286D01*
X179324820Y-125853572D02*
X179324820Y-126425000D01*
X179324820Y-126139286D02*
X178324820Y-126139286D01*
X178324820Y-126139286D02*
X178467677Y-126234524D01*
X178467677Y-126234524D02*
X178562915Y-126329762D01*
X178562915Y-126329762D02*
X178610534Y-126425000D01*
X179324820Y-125520238D02*
X178658153Y-124996429D01*
X178658153Y-125520238D02*
X179324820Y-124996429D01*
X178324820Y-124425000D02*
X178324820Y-124329762D01*
X178324820Y-124329762D02*
X178372439Y-124234524D01*
X178372439Y-124234524D02*
X178420058Y-124186905D01*
X178420058Y-124186905D02*
X178515296Y-124139286D01*
X178515296Y-124139286D02*
X178705772Y-124091667D01*
X178705772Y-124091667D02*
X178943867Y-124091667D01*
X178943867Y-124091667D02*
X179134343Y-124139286D01*
X179134343Y-124139286D02*
X179229581Y-124186905D01*
X179229581Y-124186905D02*
X179277201Y-124234524D01*
X179277201Y-124234524D02*
X179324820Y-124329762D01*
X179324820Y-124329762D02*
X179324820Y-124425000D01*
X179324820Y-124425000D02*
X179277201Y-124520238D01*
X179277201Y-124520238D02*
X179229581Y-124567857D01*
X179229581Y-124567857D02*
X179134343Y-124615476D01*
X179134343Y-124615476D02*
X178943867Y-124663095D01*
X178943867Y-124663095D02*
X178705772Y-124663095D01*
X178705772Y-124663095D02*
X178515296Y-124615476D01*
X178515296Y-124615476D02*
X178420058Y-124567857D01*
X178420058Y-124567857D02*
X178372439Y-124520238D01*
X178372439Y-124520238D02*
X178324820Y-124425000D01*
X178324820Y-123758333D02*
X178324820Y-123139286D01*
X178324820Y-123139286D02*
X178705772Y-123472619D01*
X178705772Y-123472619D02*
X178705772Y-123329762D01*
X178705772Y-123329762D02*
X178753391Y-123234524D01*
X178753391Y-123234524D02*
X178801010Y-123186905D01*
X178801010Y-123186905D02*
X178896248Y-123139286D01*
X178896248Y-123139286D02*
X179134343Y-123139286D01*
X179134343Y-123139286D02*
X179229581Y-123186905D01*
X179229581Y-123186905D02*
X179277201Y-123234524D01*
X179277201Y-123234524D02*
X179324820Y-123329762D01*
X179324820Y-123329762D02*
X179324820Y-123615476D01*
X179324820Y-123615476D02*
X179277201Y-123710714D01*
X179277201Y-123710714D02*
X179229581Y-123758333D01*
X179420058Y-122948810D02*
X179420058Y-122186905D01*
X179324820Y-121948809D02*
X178324820Y-121948809D01*
X178324820Y-121948809D02*
X178324820Y-121567857D01*
X178324820Y-121567857D02*
X178372439Y-121472619D01*
X178372439Y-121472619D02*
X178420058Y-121425000D01*
X178420058Y-121425000D02*
X178515296Y-121377381D01*
X178515296Y-121377381D02*
X178658153Y-121377381D01*
X178658153Y-121377381D02*
X178753391Y-121425000D01*
X178753391Y-121425000D02*
X178801010Y-121472619D01*
X178801010Y-121472619D02*
X178848629Y-121567857D01*
X178848629Y-121567857D02*
X178848629Y-121948809D01*
X179324820Y-120948809D02*
X178658153Y-120948809D01*
X178324820Y-120948809D02*
X178372439Y-120996428D01*
X178372439Y-120996428D02*
X178420058Y-120948809D01*
X178420058Y-120948809D02*
X178372439Y-120901190D01*
X178372439Y-120901190D02*
X178324820Y-120948809D01*
X178324820Y-120948809D02*
X178420058Y-120948809D01*
X178658153Y-120472619D02*
X179324820Y-120472619D01*
X178753391Y-120472619D02*
X178705772Y-120425000D01*
X178705772Y-120425000D02*
X178658153Y-120329762D01*
X178658153Y-120329762D02*
X178658153Y-120186905D01*
X178658153Y-120186905D02*
X178705772Y-120091667D01*
X178705772Y-120091667D02*
X178801010Y-120044048D01*
X178801010Y-120044048D02*
X179324820Y-120044048D01*
X176424820Y-126734524D02*
X177139105Y-126734524D01*
X177139105Y-126734524D02*
X177281962Y-126782143D01*
X177281962Y-126782143D02*
X177377201Y-126877381D01*
X177377201Y-126877381D02*
X177424820Y-127020238D01*
X177424820Y-127020238D02*
X177424820Y-127115476D01*
X177424820Y-125734524D02*
X177424820Y-126305952D01*
X177424820Y-126020238D02*
X176424820Y-126020238D01*
X176424820Y-126020238D02*
X176567677Y-126115476D01*
X176567677Y-126115476D02*
X176662915Y-126210714D01*
X176662915Y-126210714D02*
X176710534Y-126305952D01*
X176424820Y-125401190D02*
X176424820Y-124782143D01*
X176424820Y-124782143D02*
X176805772Y-125115476D01*
X176805772Y-125115476D02*
X176805772Y-124972619D01*
X176805772Y-124972619D02*
X176853391Y-124877381D01*
X176853391Y-124877381D02*
X176901010Y-124829762D01*
X176901010Y-124829762D02*
X176996248Y-124782143D01*
X176996248Y-124782143D02*
X177234343Y-124782143D01*
X177234343Y-124782143D02*
X177329581Y-124829762D01*
X177329581Y-124829762D02*
X177377201Y-124877381D01*
X177377201Y-124877381D02*
X177424820Y-124972619D01*
X177424820Y-124972619D02*
X177424820Y-125258333D01*
X177424820Y-125258333D02*
X177377201Y-125353571D01*
X177377201Y-125353571D02*
X177329581Y-125401190D01*
X154649620Y-88644524D02*
X155363905Y-88644524D01*
X155363905Y-88644524D02*
X155506762Y-88692143D01*
X155506762Y-88692143D02*
X155602001Y-88787381D01*
X155602001Y-88787381D02*
X155649620Y-88930238D01*
X155649620Y-88930238D02*
X155649620Y-89025476D01*
X154744858Y-88215952D02*
X154697239Y-88168333D01*
X154697239Y-88168333D02*
X154649620Y-88073095D01*
X154649620Y-88073095D02*
X154649620Y-87835000D01*
X154649620Y-87835000D02*
X154697239Y-87739762D01*
X154697239Y-87739762D02*
X154744858Y-87692143D01*
X154744858Y-87692143D02*
X154840096Y-87644524D01*
X154840096Y-87644524D02*
X154935334Y-87644524D01*
X154935334Y-87644524D02*
X155078191Y-87692143D01*
X155078191Y-87692143D02*
X155649620Y-88263571D01*
X155649620Y-88263571D02*
X155649620Y-87644524D01*
X154649620Y-87025476D02*
X154649620Y-86930238D01*
X154649620Y-86930238D02*
X154697239Y-86835000D01*
X154697239Y-86835000D02*
X154744858Y-86787381D01*
X154744858Y-86787381D02*
X154840096Y-86739762D01*
X154840096Y-86739762D02*
X155030572Y-86692143D01*
X155030572Y-86692143D02*
X155268667Y-86692143D01*
X155268667Y-86692143D02*
X155459143Y-86739762D01*
X155459143Y-86739762D02*
X155554381Y-86787381D01*
X155554381Y-86787381D02*
X155602001Y-86835000D01*
X155602001Y-86835000D02*
X155649620Y-86930238D01*
X155649620Y-86930238D02*
X155649620Y-87025476D01*
X155649620Y-87025476D02*
X155602001Y-87120714D01*
X155602001Y-87120714D02*
X155554381Y-87168333D01*
X155554381Y-87168333D02*
X155459143Y-87215952D01*
X155459143Y-87215952D02*
X155268667Y-87263571D01*
X155268667Y-87263571D02*
X155030572Y-87263571D01*
X155030572Y-87263571D02*
X154840096Y-87215952D01*
X154840096Y-87215952D02*
X154744858Y-87168333D01*
X154744858Y-87168333D02*
X154697239Y-87120714D01*
X154697239Y-87120714D02*
X154649620Y-87025476D01*
D12*
%TO.C,J5*%
X161760001Y-143575001D02*
X167510001Y-143575001D01*
X167510001Y-143575001D02*
X167510001Y-133675001D01*
X161760001Y-141750001D02*
X162760001Y-141125001D01*
X162760001Y-141125001D02*
X161760001Y-140500001D01*
X161760001Y-133675001D02*
X161760001Y-143575001D01*
X167510001Y-133675001D02*
X161760001Y-133675001D01*
%TO.C,J10*%
X141440001Y-130875001D02*
X147190001Y-130875001D01*
X147190001Y-130875001D02*
X147190001Y-120975001D01*
X141440001Y-129050001D02*
X142440001Y-128425001D01*
X142440001Y-128425001D02*
X141440001Y-127800001D01*
X141440001Y-120975001D02*
X141440001Y-130875001D01*
X147190001Y-120975001D02*
X141440001Y-120975001D01*
%TO.C,J18*%
X151600001Y-118175001D02*
X157350001Y-118175001D01*
X157350001Y-118175001D02*
X157350001Y-108275001D01*
X151600001Y-116350001D02*
X152600001Y-115725001D01*
X152600001Y-115725001D02*
X151600001Y-115100001D01*
X151600001Y-108275001D02*
X151600001Y-118175001D01*
X157350001Y-108275001D02*
X151600001Y-108275001D01*
%TO.C,J15*%
X182080001Y-118175001D02*
X187830001Y-118175001D01*
X187830001Y-118175001D02*
X187830001Y-108275001D01*
X182080001Y-116350001D02*
X183080001Y-115725001D01*
X183080001Y-115725001D02*
X182080001Y-115100001D01*
X182080001Y-108275001D02*
X182080001Y-118175001D01*
X187830001Y-108275001D02*
X182080001Y-108275001D01*
%TO.C,SW1*%
X140054801Y-82585001D02*
X143054801Y-82585001D01*
X140054801Y-88585001D02*
X140054801Y-82585001D01*
X143054801Y-82585001D02*
X146054801Y-82585001D01*
X146054801Y-82585001D02*
X146054801Y-88585001D01*
X146054801Y-88585001D02*
X140054801Y-88585001D01*
X145070365Y-85585001D02*
G75*
G03*
X141039237Y-85585001I-2015564J0D01*
G01*
X141039237Y-85585001D02*
G75*
G03*
X145070365Y-85585001I2015564J0D01*
G01*
%TO.C,J7*%
X182080001Y-143575001D02*
X187830001Y-143575001D01*
X187830001Y-143575001D02*
X187830001Y-133675001D01*
X182080001Y-141750001D02*
X183080001Y-141125001D01*
X183080001Y-141125001D02*
X182080001Y-140500001D01*
X182080001Y-133675001D02*
X182080001Y-143575001D01*
X187830001Y-133675001D02*
X182080001Y-133675001D01*
%TO.C,J9*%
X131280001Y-130875001D02*
X137030001Y-130875001D01*
X137030001Y-130875001D02*
X137030001Y-120975001D01*
X131280001Y-129050001D02*
X132280001Y-128425001D01*
X132280001Y-128425001D02*
X131280001Y-127800001D01*
X131280001Y-120975001D02*
X131280001Y-130875001D01*
X137030001Y-120975001D02*
X131280001Y-120975001D01*
%TO.C,J16*%
X131280001Y-118175001D02*
X137030001Y-118175001D01*
X137030001Y-118175001D02*
X137030001Y-108275001D01*
X131280001Y-116350001D02*
X132280001Y-115725001D01*
X132280001Y-115725001D02*
X131280001Y-115100001D01*
X131280001Y-108275001D02*
X131280001Y-118175001D01*
X137030001Y-108275001D02*
X131280001Y-108275001D01*
%TO.C,J6*%
X171920001Y-143575001D02*
X177670001Y-143575001D01*
X177670001Y-143575001D02*
X177670001Y-133675001D01*
X171920001Y-141750001D02*
X172920001Y-141125001D01*
X172920001Y-141125001D02*
X171920001Y-140500001D01*
X171920001Y-133675001D02*
X171920001Y-143575001D01*
X177670001Y-133675001D02*
X171920001Y-133675001D01*
D10*
%TO.C,A1*%
X127810001Y-63451001D02*
X127810001Y-71579001D01*
X127810001Y-71579001D02*
X129260001Y-71579001D01*
X129260001Y-63451001D02*
X127810001Y-63451001D01*
X190760001Y-62311001D02*
X192110001Y-62311001D01*
X192110001Y-62311001D02*
X192110001Y-73311001D01*
X192110001Y-73311001D02*
X190760001Y-73311001D01*
X150124801Y-56085001D02*
X185684801Y-56085001D01*
X185684801Y-56085001D02*
X185684801Y-58625001D01*
X185684801Y-58625001D02*
X150124801Y-58625001D01*
X150124801Y-58625001D02*
X150124801Y-56085001D01*
X150124801Y-76405001D02*
X185684801Y-76405001D01*
X185684801Y-76405001D02*
X185684801Y-78945001D01*
X185684801Y-78945001D02*
X150124801Y-78945001D01*
X150124801Y-78945001D02*
X150124801Y-76405001D01*
X133710001Y-57265001D02*
G75*
G03*
X129310001Y-57265001I-2200000J0D01*
G01*
X129310001Y-57265001D02*
G75*
G03*
X133710001Y-57265001I2200000J0D01*
G01*
X133710001Y-77765001D02*
G75*
G03*
X129310001Y-77765001I-2200000J0D01*
G01*
X129310001Y-77765001D02*
G75*
G03*
X133710001Y-77765001I2200000J0D01*
G01*
X190710001Y-57265001D02*
G75*
G03*
X186310001Y-57265001I-2200000J0D01*
G01*
X186310001Y-57265001D02*
G75*
G03*
X190710001Y-57265001I2200000J0D01*
G01*
X190710001Y-77765001D02*
G75*
G03*
X186310001Y-77765001I-2200000J0D01*
G01*
X186310001Y-77765001D02*
G75*
G03*
X190710001Y-77765001I2200000J0D01*
G01*
D12*
%TO.C,J17*%
X141440001Y-118175001D02*
X147190001Y-118175001D01*
X147190001Y-118175001D02*
X147190001Y-108275001D01*
X141440001Y-116350001D02*
X142440001Y-115725001D01*
X142440001Y-115725001D02*
X141440001Y-115100001D01*
X141440001Y-108275001D02*
X141440001Y-118175001D01*
X147190001Y-108275001D02*
X141440001Y-108275001D01*
%TO.C,J3*%
X141440001Y-143575001D02*
X147190001Y-143575001D01*
X147190001Y-143575001D02*
X147190001Y-133675001D01*
X141440001Y-141750001D02*
X142440001Y-141125001D01*
X142440001Y-141125001D02*
X141440001Y-140500001D01*
X141440001Y-133675001D02*
X141440001Y-143575001D01*
X147190001Y-133675001D02*
X141440001Y-133675001D01*
%TO.C,J8*%
X182080001Y-130875001D02*
X187830001Y-130875001D01*
X187830001Y-130875001D02*
X187830001Y-120975001D01*
X182080001Y-129050001D02*
X183080001Y-128425001D01*
X183080001Y-128425001D02*
X182080001Y-127800001D01*
X182080001Y-120975001D02*
X182080001Y-130875001D01*
X187830001Y-120975001D02*
X182080001Y-120975001D01*
%TO.C,J2*%
X131280001Y-143575001D02*
X137030001Y-143575001D01*
X137030001Y-143575001D02*
X137030001Y-133675001D01*
X131280001Y-141750001D02*
X132280001Y-141125001D01*
X132280001Y-141125001D02*
X131280001Y-140500001D01*
X131280001Y-133675001D02*
X131280001Y-143575001D01*
X137030001Y-133675001D02*
X131280001Y-133675001D01*
%TO.C,J14*%
X171920001Y-118175001D02*
X177670001Y-118175001D01*
X177670001Y-118175001D02*
X177670001Y-108275001D01*
X171920001Y-116350001D02*
X172920001Y-115725001D01*
X172920001Y-115725001D02*
X171920001Y-115100001D01*
X171920001Y-108275001D02*
X171920001Y-118175001D01*
X177670001Y-108275001D02*
X171920001Y-108275001D01*
%TO.C,J19*%
X161760001Y-118175001D02*
X167510001Y-118175001D01*
X167510001Y-118175001D02*
X167510001Y-108275001D01*
X161760001Y-116350001D02*
X162760001Y-115725001D01*
X162760001Y-115725001D02*
X161760001Y-115100001D01*
X161760001Y-108275001D02*
X161760001Y-118175001D01*
X167510001Y-108275001D02*
X161760001Y-108275001D01*
%TO.C,J1*%
X184414801Y-81485001D02*
X185684801Y-82755001D01*
X170444801Y-81485001D02*
X184414801Y-81485001D01*
X185684801Y-82755001D02*
X185684801Y-86565001D01*
X185684801Y-86565001D02*
X170444801Y-86565001D01*
X170444801Y-86565001D02*
X170444801Y-81485001D01*
%TO.C,J12*%
X161760001Y-130875001D02*
X167510001Y-130875001D01*
X167510001Y-130875001D02*
X167510001Y-120975001D01*
X161760001Y-129050001D02*
X162760001Y-128425001D01*
X162760001Y-128425001D02*
X161760001Y-127800001D01*
X161760001Y-120975001D02*
X161760001Y-130875001D01*
X167510001Y-120975001D02*
X161760001Y-120975001D01*
%TO.C,J11*%
X151600001Y-130875001D02*
X157350001Y-130875001D01*
X157350001Y-130875001D02*
X157350001Y-120975001D01*
X151600001Y-129050001D02*
X152600001Y-128425001D01*
X152600001Y-128425001D02*
X151600001Y-127800001D01*
X151600001Y-120975001D02*
X151600001Y-130875001D01*
X157350001Y-120975001D02*
X151600001Y-120975001D01*
%TO.C,J4*%
X151600001Y-143575001D02*
X157350001Y-143575001D01*
X157350001Y-143575001D02*
X157350001Y-133675001D01*
X151600001Y-141750001D02*
X152600001Y-141125001D01*
X152600001Y-141125001D02*
X151600001Y-140500001D01*
X151600001Y-133675001D02*
X151600001Y-143575001D01*
X157350001Y-133675001D02*
X151600001Y-133675001D01*
%TO.C,R1*%
X184404801Y-90375001D02*
X182474801Y-90375001D01*
X182474801Y-91625001D02*
X182474801Y-89125001D01*
X182474801Y-89125001D02*
X176174801Y-89125001D01*
X176174801Y-91625001D02*
X182474801Y-91625001D01*
X176174801Y-89125001D02*
X176174801Y-91625001D01*
X174244801Y-90375001D02*
X176174801Y-90375001D01*
%TO.C,J13*%
X171920001Y-130875001D02*
X177670001Y-130875001D01*
X177670001Y-130875001D02*
X177670001Y-120975001D01*
X171920001Y-129050001D02*
X172920001Y-128425001D01*
X172920001Y-128425001D02*
X171920001Y-127800001D01*
X171920001Y-120975001D02*
X171920001Y-130875001D01*
X177670001Y-120975001D02*
X171920001Y-120975001D01*
%TO.C,J20*%
X152654801Y-85295001D02*
X153924801Y-84025001D01*
X152654801Y-91645001D02*
X152654801Y-85295001D01*
X153924801Y-84025001D02*
X157734801Y-84025001D01*
X157734801Y-84025001D02*
X157734801Y-91645001D01*
X157734801Y-91645001D02*
X152654801Y-91645001D01*
%TD*%
M02*
