M48
; DRILL file {KiCad 7.0.10-1.fc39} date Wed 14 Feb 2024 10:35:42 PM CST
; FORMAT={-:-/ absolute / metric / decimal}
; #@! TF.CreationDate,2024-02-14T22:35:42-06:00
; #@! TF.GenerationSoftware,Kicad,Pcbnew,7.0.10-1.fc39
; #@! TF.FileFunction,Plated,1,2,PTH
FMAT,2
METRIC
; #@! TA.AperFunction,Plated,PTH,ComponentDrill
T1C0.800
; #@! TA.AperFunction,Plated,PTH,ComponentDrill
T2C0.950
; #@! TA.AperFunction,Plated,PTH,ComponentDrill
T3C1.000
; #@! TA.AperFunction,Plated,PTH,ComponentDrill
T4C1.016
; #@! TA.AperFunction,Plated,PTH,ComponentDrill
T5C1.100
%
G90
G05
T1
X174.245Y-90.375
X184.405Y-90.375
T2
X133.63Y-110.725
X133.63Y-113.225
X133.63Y-115.725
X133.63Y-123.425
X133.63Y-125.925
X133.63Y-128.425
X133.63Y-136.125
X133.63Y-138.625
X133.63Y-141.125
X143.79Y-110.725
X143.79Y-113.225
X143.79Y-115.725
X143.79Y-123.425
X143.79Y-125.925
X143.79Y-128.425
X143.79Y-136.125
X143.79Y-138.625
X143.79Y-141.125
X153.95Y-110.725
X153.95Y-113.225
X153.95Y-115.725
X153.95Y-123.425
X153.95Y-125.925
X153.95Y-128.425
X153.95Y-136.125
X153.95Y-138.625
X153.95Y-141.125
X164.11Y-110.725
X164.11Y-113.225
X164.11Y-115.725
X164.11Y-123.425
X164.11Y-125.925
X164.11Y-128.425
X164.11Y-136.125
X164.11Y-138.625
X164.11Y-141.125
X174.27Y-110.725
X174.27Y-113.225
X174.27Y-115.725
X174.27Y-123.425
X174.27Y-125.925
X174.27Y-128.425
X174.27Y-136.125
X174.27Y-138.625
X174.27Y-141.125
X184.43Y-110.725
X184.43Y-113.225
X184.43Y-115.725
X184.43Y-123.425
X184.43Y-125.925
X184.43Y-128.425
X184.43Y-136.125
X184.43Y-138.625
X184.43Y-141.125
T3
X153.925Y-85.295
X153.925Y-87.835
X153.925Y-90.375
X156.465Y-85.295
X156.465Y-87.835
X156.465Y-90.375
X171.715Y-82.755
X171.715Y-85.295
X174.255Y-82.755
X174.255Y-85.295
X176.795Y-82.755
X176.795Y-85.295
X179.335Y-82.755
X179.335Y-85.295
X181.875Y-82.755
X181.875Y-85.295
X184.415Y-82.755
X184.415Y-85.295
T4
X151.395Y-57.355
X151.395Y-77.675
X153.935Y-57.355
X153.935Y-77.675
X156.475Y-57.355
X156.475Y-77.675
X159.015Y-57.355
X159.015Y-77.675
X161.555Y-57.355
X161.555Y-77.675
X164.095Y-57.355
X164.095Y-77.675
X166.635Y-57.355
X166.635Y-77.675
X169.175Y-57.355
X169.175Y-77.675
X171.715Y-57.355
X171.715Y-77.675
X174.255Y-57.355
X174.255Y-77.675
X176.795Y-57.355
X176.795Y-77.675
X179.335Y-57.355
X179.335Y-77.675
X181.875Y-57.355
X181.875Y-77.675
X184.415Y-57.355
X184.415Y-77.675
T5
X139.805Y-83.335
X139.805Y-87.835
X146.305Y-83.335
X146.305Y-87.835
M30
