%TF.GenerationSoftware,KiCad,Pcbnew,7.0.10-1.fc39*%
%TF.CreationDate,2024-02-14T22:36:15-06:00*%
%TF.ProjectId,mkr-sensor-shield,6d6b722d-7365-46e7-936f-722d73686965,rev?*%
%TF.SameCoordinates,Original*%
%TF.FileFunction,Soldermask,Top*%
%TF.FilePolarity,Negative*%
%FSLAX46Y46*%
G04 Gerber Fmt 4.6, Leading zero omitted, Abs format (unit mm)*
G04 Created by KiCad (PCBNEW 7.0.10-1.fc39) date 2024-02-14 22:36:15*
%MOMM*%
%LPD*%
G01*
G04 APERTURE LIST*
G04 Aperture macros list*
%AMRoundRect*
0 Rectangle with rounded corners*
0 $1 Rounding radius*
0 $2 $3 $4 $5 $6 $7 $8 $9 X,Y pos of 4 corners*
0 Add a 4 corners polygon primitive as box body*
4,1,4,$2,$3,$4,$5,$6,$7,$8,$9,$2,$3,0*
0 Add four circle primitives for the rounded corners*
1,1,$1+$1,$2,$3*
1,1,$1+$1,$4,$5*
1,1,$1+$1,$6,$7*
1,1,$1+$1,$8,$9*
0 Add four rect primitives between the rounded corners*
20,1,$1+$1,$2,$3,$4,$5,0*
20,1,$1+$1,$4,$5,$6,$7,0*
20,1,$1+$1,$6,$7,$8,$9,0*
20,1,$1+$1,$8,$9,$2,$3,0*%
G04 Aperture macros list end*
%ADD10RoundRect,0.250000X0.725000X-0.600000X0.725000X0.600000X-0.725000X0.600000X-0.725000X-0.600000X0*%
%ADD11O,1.950000X1.700000*%
%ADD12C,4.300000*%
%ADD13C,2.000000*%
%ADD14C,2.200000*%
%ADD15C,1.727200*%
%ADD16R,1.727200X1.727200*%
%ADD17R,1.700000X1.700000*%
%ADD18O,1.700000X1.700000*%
%ADD19C,1.600000*%
%ADD20O,1.600000X1.600000*%
G04 APERTURE END LIST*
D10*
%TO.C,J5*%
X164110001Y-141125001D03*
D11*
X164110001Y-138625001D03*
X164110001Y-136125001D03*
%TD*%
D10*
%TO.C,J10*%
X143790001Y-128425001D03*
D11*
X143790001Y-125925001D03*
X143790001Y-123425001D03*
%TD*%
D10*
%TO.C,J18*%
X153950001Y-115725001D03*
D11*
X153950001Y-113225001D03*
X153950001Y-110725001D03*
%TD*%
D10*
%TO.C,J15*%
X184430001Y-115725001D03*
D11*
X184430001Y-113225001D03*
X184430001Y-110725001D03*
%TD*%
D12*
%TO.C,H1*%
X190210001Y-98765001D03*
%TD*%
D13*
%TO.C,SW1*%
X139804801Y-83335001D03*
X146304801Y-83335001D03*
X139804801Y-87835001D03*
X146304801Y-87835001D03*
%TD*%
D10*
%TO.C,J7*%
X184430001Y-141125001D03*
D11*
X184430001Y-138625001D03*
X184430001Y-136125001D03*
%TD*%
D10*
%TO.C,J9*%
X133630001Y-128425001D03*
D11*
X133630001Y-125925001D03*
X133630001Y-123425001D03*
%TD*%
D10*
%TO.C,J16*%
X133630001Y-115725001D03*
D11*
X133630001Y-113225001D03*
X133630001Y-110725001D03*
%TD*%
D10*
%TO.C,J6*%
X174270001Y-141125001D03*
D11*
X174270001Y-138625001D03*
X174270001Y-136125001D03*
%TD*%
D14*
%TO.C,A1*%
X131510001Y-57265001D03*
X131510001Y-77765001D03*
X188510001Y-57265001D03*
X188510001Y-77765001D03*
D15*
X156474801Y-57355001D03*
X151394801Y-57355001D03*
X153934801Y-77675001D03*
X156474801Y-77675001D03*
X159014801Y-77675001D03*
X161554801Y-77675001D03*
X164094801Y-77675001D03*
X166634801Y-77675001D03*
X169174801Y-77675001D03*
X151394801Y-77675001D03*
X171714801Y-77675001D03*
X174254801Y-77675001D03*
X176794801Y-77675001D03*
X179334801Y-77675001D03*
X181874801Y-77675001D03*
X184414801Y-77675001D03*
X184414801Y-57355001D03*
X181874801Y-57355001D03*
X179334801Y-57355001D03*
X176794801Y-57355001D03*
X174254801Y-57355001D03*
X171714801Y-57355001D03*
X169174801Y-57355001D03*
X166634801Y-57355001D03*
X164094801Y-57355001D03*
D16*
X159014801Y-57355001D03*
D15*
X161554801Y-57355001D03*
X153934801Y-57355001D03*
%TD*%
D10*
%TO.C,J17*%
X143790001Y-115725001D03*
D11*
X143790001Y-113225001D03*
X143790001Y-110725001D03*
%TD*%
D10*
%TO.C,J3*%
X143790001Y-141125001D03*
D11*
X143790001Y-138625001D03*
X143790001Y-136125001D03*
%TD*%
D10*
%TO.C,J8*%
X184430001Y-128425001D03*
D11*
X184430001Y-125925001D03*
X184430001Y-123425001D03*
%TD*%
D10*
%TO.C,J2*%
X133630001Y-141125001D03*
D11*
X133630001Y-138625001D03*
X133630001Y-136125001D03*
%TD*%
D10*
%TO.C,J14*%
X174270001Y-115725001D03*
D11*
X174270001Y-113225001D03*
X174270001Y-110725001D03*
%TD*%
D10*
%TO.C,J19*%
X164110001Y-115725001D03*
D11*
X164110001Y-113225001D03*
X164110001Y-110725001D03*
%TD*%
D17*
%TO.C,J1*%
X184414801Y-82755001D03*
D18*
X184414801Y-85295001D03*
X181874801Y-82755001D03*
X181874801Y-85295001D03*
X179334801Y-82755001D03*
X179334801Y-85295001D03*
X176794801Y-82755001D03*
X176794801Y-85295001D03*
X174254801Y-82755001D03*
X174254801Y-85295001D03*
X171714801Y-82755001D03*
X171714801Y-85295001D03*
%TD*%
D10*
%TO.C,J12*%
X164110001Y-128425001D03*
D11*
X164110001Y-125925001D03*
X164110001Y-123425001D03*
%TD*%
D10*
%TO.C,J11*%
X153950001Y-128425001D03*
D11*
X153950001Y-125925001D03*
X153950001Y-123425001D03*
%TD*%
D10*
%TO.C,J4*%
X153950001Y-141125001D03*
D11*
X153950001Y-138625001D03*
X153950001Y-136125001D03*
%TD*%
D19*
%TO.C,R1*%
X184404801Y-90375001D03*
D20*
X174244801Y-90375001D03*
%TD*%
D10*
%TO.C,J13*%
X174270001Y-128425001D03*
D11*
X174270001Y-125925001D03*
X174270001Y-123425001D03*
%TD*%
D17*
%TO.C,J20*%
X153924801Y-85295001D03*
D18*
X156464801Y-85295001D03*
X153924801Y-87835001D03*
X156464801Y-87835001D03*
X153924801Y-90375001D03*
X156464801Y-90375001D03*
%TD*%
M02*
