%TF.GenerationSoftware,KiCad,Pcbnew,7.0.10-1.fc39*%
%TF.CreationDate,2024-02-14T22:36:14-06:00*%
%TF.ProjectId,mkr-sensor-shield,6d6b722d-7365-46e7-936f-722d73686965,rev?*%
%TF.SameCoordinates,Original*%
%TF.FileFunction,Copper,L2,Bot*%
%TF.FilePolarity,Positive*%
%FSLAX46Y46*%
G04 Gerber Fmt 4.6, Leading zero omitted, Abs format (unit mm)*
G04 Created by KiCad (PCBNEW 7.0.10-1.fc39) date 2024-02-14 22:36:14*
%MOMM*%
%LPD*%
G01*
G04 APERTURE LIST*
G04 Aperture macros list*
%AMRoundRect*
0 Rectangle with rounded corners*
0 $1 Rounding radius*
0 $2 $3 $4 $5 $6 $7 $8 $9 X,Y pos of 4 corners*
0 Add a 4 corners polygon primitive as box body*
4,1,4,$2,$3,$4,$5,$6,$7,$8,$9,$2,$3,0*
0 Add four circle primitives for the rounded corners*
1,1,$1+$1,$2,$3*
1,1,$1+$1,$4,$5*
1,1,$1+$1,$6,$7*
1,1,$1+$1,$8,$9*
0 Add four rect primitives between the rounded corners*
20,1,$1+$1,$2,$3,$4,$5,0*
20,1,$1+$1,$4,$5,$6,$7,0*
20,1,$1+$1,$6,$7,$8,$9,0*
20,1,$1+$1,$8,$9,$2,$3,0*%
G04 Aperture macros list end*
%TA.AperFunction,ComponentPad*%
%ADD10RoundRect,0.250000X0.725000X-0.600000X0.725000X0.600000X-0.725000X0.600000X-0.725000X-0.600000X0*%
%TD*%
%TA.AperFunction,ComponentPad*%
%ADD11O,1.950000X1.700000*%
%TD*%
%TA.AperFunction,ComponentPad*%
%ADD12C,2.000000*%
%TD*%
%TA.AperFunction,ComponentPad*%
%ADD13C,1.727200*%
%TD*%
%TA.AperFunction,ComponentPad*%
%ADD14R,1.727200X1.727200*%
%TD*%
%TA.AperFunction,ComponentPad*%
%ADD15R,1.700000X1.700000*%
%TD*%
%TA.AperFunction,ComponentPad*%
%ADD16O,1.700000X1.700000*%
%TD*%
%TA.AperFunction,ComponentPad*%
%ADD17C,1.600000*%
%TD*%
%TA.AperFunction,ComponentPad*%
%ADD18O,1.600000X1.600000*%
%TD*%
G04 APERTURE END LIST*
D10*
%TO.P,J5,1,Pin_1*%
%TO.N,+3.3V*%
X164110001Y-141125001D03*
D11*
%TO.P,J5,2,Pin_2*%
%TO.N,DATA*%
X164110001Y-138625001D03*
%TO.P,J5,3,Pin_3*%
%TO.N,GND*%
X164110001Y-136125001D03*
%TD*%
D10*
%TO.P,J10,1,Pin_1*%
%TO.N,+3.3V*%
X143790001Y-128425001D03*
D11*
%TO.P,J10,2,Pin_2*%
%TO.N,DATA*%
X143790001Y-125925001D03*
%TO.P,J10,3,Pin_3*%
%TO.N,GND*%
X143790001Y-123425001D03*
%TD*%
D10*
%TO.P,J18,1,Pin_1*%
%TO.N,+3.3V*%
X153950001Y-115725001D03*
D11*
%TO.P,J18,2,Pin_2*%
%TO.N,DATA*%
X153950001Y-113225001D03*
%TO.P,J18,3,Pin_3*%
%TO.N,GND*%
X153950001Y-110725001D03*
%TD*%
D10*
%TO.P,J15,1,Pin_1*%
%TO.N,+3.3V*%
X184430001Y-115725001D03*
D11*
%TO.P,J15,2,Pin_2*%
%TO.N,DATA*%
X184430001Y-113225001D03*
%TO.P,J15,3,Pin_3*%
%TO.N,GND*%
X184430001Y-110725001D03*
%TD*%
D12*
%TO.P,SW1,1,1*%
%TO.N,Net-(A1-RESET)*%
X139804801Y-83335001D03*
X146304801Y-83335001D03*
%TO.P,SW1,2,2*%
%TO.N,GND*%
X139804801Y-87835001D03*
X146304801Y-87835001D03*
%TD*%
D10*
%TO.P,J7,1,Pin_1*%
%TO.N,+3.3V*%
X184430001Y-141125001D03*
D11*
%TO.P,J7,2,Pin_2*%
%TO.N,DATA*%
X184430001Y-138625001D03*
%TO.P,J7,3,Pin_3*%
%TO.N,GND*%
X184430001Y-136125001D03*
%TD*%
D10*
%TO.P,J9,1,Pin_1*%
%TO.N,+3.3V*%
X133630001Y-128425001D03*
D11*
%TO.P,J9,2,Pin_2*%
%TO.N,DATA*%
X133630001Y-125925001D03*
%TO.P,J9,3,Pin_3*%
%TO.N,GND*%
X133630001Y-123425001D03*
%TD*%
D10*
%TO.P,J16,1,Pin_1*%
%TO.N,+3.3V*%
X133630001Y-115725001D03*
D11*
%TO.P,J16,2,Pin_2*%
%TO.N,DATA*%
X133630001Y-113225001D03*
%TO.P,J16,3,Pin_3*%
%TO.N,GND*%
X133630001Y-110725001D03*
%TD*%
D10*
%TO.P,J6,1,Pin_1*%
%TO.N,+3.3V*%
X174270001Y-141125001D03*
D11*
%TO.P,J6,2,Pin_2*%
%TO.N,DATA*%
X174270001Y-138625001D03*
%TO.P,J6,3,Pin_3*%
%TO.N,GND*%
X174270001Y-136125001D03*
%TD*%
D13*
%TO.P,A1,3V3,3.3V*%
%TO.N,+3.3V*%
X156474801Y-57355001D03*
%TO.P,A1,5V,5V*%
%TO.N,unconnected-(A1-Pad5V)*%
X151394801Y-57355001D03*
%TO.P,A1,A0,A0/DAC*%
%TO.N,Net-(A1-A0{slash}DAC)*%
X153934801Y-77675001D03*
%TO.P,A1,A1,A1*%
%TO.N,Net-(J20-Pin_4)*%
X156474801Y-77675001D03*
%TO.P,A1,A2,A2*%
%TO.N,unconnected-(A1-PadA2)*%
X159014801Y-77675001D03*
%TO.P,A1,A3,A3*%
%TO.N,unconnected-(A1-PadA3)*%
X161554801Y-77675001D03*
%TO.P,A1,A4,A4*%
%TO.N,unconnected-(A1-PadA4)*%
X164094801Y-77675001D03*
%TO.P,A1,A5,A5*%
%TO.N,unconnected-(A1-PadA5)*%
X166634801Y-77675001D03*
%TO.P,A1,A6,A6*%
%TO.N,unconnected-(A1-PadA6)*%
X169174801Y-77675001D03*
%TO.P,A1,AREF,AREF*%
%TO.N,unconnected-(A1-PadAREF)*%
X151394801Y-77675001D03*
%TO.P,A1,D0,D0*%
%TO.N,Net-(J1-Pin_11)*%
X171714801Y-77675001D03*
%TO.P,A1,D1,D1*%
%TO.N,Net-(J1-Pin_9)*%
X174254801Y-77675001D03*
%TO.P,A1,D2,D2*%
%TO.N,Net-(J1-Pin_7)*%
X176794801Y-77675001D03*
%TO.P,A1,D3,D3*%
%TO.N,Net-(J1-Pin_5)*%
X179334801Y-77675001D03*
%TO.P,A1,D4,D4*%
%TO.N,Net-(J1-Pin_3)*%
X181874801Y-77675001D03*
%TO.P,A1,D5,D5*%
%TO.N,Net-(J1-Pin_1)*%
X184414801Y-77675001D03*
%TO.P,A1,D6,D6*%
%TO.N,unconnected-(A1-PadD6)*%
X184414801Y-57355001D03*
%TO.P,A1,D7,D7*%
%TO.N,unconnected-(A1-PadD7)*%
X181874801Y-57355001D03*
%TO.P,A1,D8,D8_MOSI*%
%TO.N,unconnected-(A1-D8_MOSI-PadD8)*%
X179334801Y-57355001D03*
%TO.P,A1,D9,D9_SCK*%
%TO.N,unconnected-(A1-D9_SCK-PadD9)*%
X176794801Y-57355001D03*
%TO.P,A1,D10,D10_MISO*%
%TO.N,unconnected-(A1-D10_MISO-PadD10)*%
X174254801Y-57355001D03*
%TO.P,A1,D11,D11/SDA*%
%TO.N,unconnected-(A1-D11{slash}SDA-PadD11)*%
X171714801Y-57355001D03*
%TO.P,A1,D12,D12/SCL*%
%TO.N,unconnected-(A1-D12{slash}SCL-PadD12)*%
X169174801Y-57355001D03*
%TO.P,A1,D13,D13/RX*%
%TO.N,unconnected-(A1-D13{slash}RX-PadD13)*%
X166634801Y-57355001D03*
%TO.P,A1,D14,D14/TX*%
%TO.N,unconnected-(A1-D14{slash}TX-PadD14)*%
X164094801Y-57355001D03*
D14*
%TO.P,A1,GND,GND*%
%TO.N,GND*%
X159014801Y-57355001D03*
D13*
%TO.P,A1,RST,RESET*%
%TO.N,Net-(A1-RESET)*%
X161554801Y-57355001D03*
%TO.P,A1,VIN,VIN*%
%TO.N,unconnected-(A1-PadVIN)*%
X153934801Y-57355001D03*
%TD*%
D10*
%TO.P,J17,1,Pin_1*%
%TO.N,+3.3V*%
X143790001Y-115725001D03*
D11*
%TO.P,J17,2,Pin_2*%
%TO.N,DATA*%
X143790001Y-113225001D03*
%TO.P,J17,3,Pin_3*%
%TO.N,GND*%
X143790001Y-110725001D03*
%TD*%
D10*
%TO.P,J3,1,Pin_1*%
%TO.N,+3.3V*%
X143790001Y-141125001D03*
D11*
%TO.P,J3,2,Pin_2*%
%TO.N,DATA*%
X143790001Y-138625001D03*
%TO.P,J3,3,Pin_3*%
%TO.N,GND*%
X143790001Y-136125001D03*
%TD*%
D10*
%TO.P,J8,1,Pin_1*%
%TO.N,+3.3V*%
X184430001Y-128425001D03*
D11*
%TO.P,J8,2,Pin_2*%
%TO.N,DATA*%
X184430001Y-125925001D03*
%TO.P,J8,3,Pin_3*%
%TO.N,GND*%
X184430001Y-123425001D03*
%TD*%
D10*
%TO.P,J2,1,Pin_1*%
%TO.N,+3.3V*%
X133630001Y-141125001D03*
D11*
%TO.P,J2,2,Pin_2*%
%TO.N,DATA*%
X133630001Y-138625001D03*
%TO.P,J2,3,Pin_3*%
%TO.N,GND*%
X133630001Y-136125001D03*
%TD*%
D10*
%TO.P,J14,1,Pin_1*%
%TO.N,+3.3V*%
X174270001Y-115725001D03*
D11*
%TO.P,J14,2,Pin_2*%
%TO.N,DATA*%
X174270001Y-113225001D03*
%TO.P,J14,3,Pin_3*%
%TO.N,GND*%
X174270001Y-110725001D03*
%TD*%
D10*
%TO.P,J19,1,Pin_1*%
%TO.N,+3.3V*%
X164110001Y-115725001D03*
D11*
%TO.P,J19,2,Pin_2*%
%TO.N,DATA*%
X164110001Y-113225001D03*
%TO.P,J19,3,Pin_3*%
%TO.N,GND*%
X164110001Y-110725001D03*
%TD*%
D15*
%TO.P,J1,1,Pin_1*%
%TO.N,Net-(J1-Pin_1)*%
X184414801Y-82755001D03*
D16*
%TO.P,J1,2,Pin_2*%
%TO.N,DATA*%
X184414801Y-85295001D03*
%TO.P,J1,3,Pin_3*%
%TO.N,Net-(J1-Pin_3)*%
X181874801Y-82755001D03*
%TO.P,J1,4,Pin_4*%
%TO.N,DATA*%
X181874801Y-85295001D03*
%TO.P,J1,5,Pin_5*%
%TO.N,Net-(J1-Pin_5)*%
X179334801Y-82755001D03*
%TO.P,J1,6,Pin_6*%
%TO.N,DATA*%
X179334801Y-85295001D03*
%TO.P,J1,7,Pin_7*%
%TO.N,Net-(J1-Pin_7)*%
X176794801Y-82755001D03*
%TO.P,J1,8,Pin_8*%
%TO.N,DATA*%
X176794801Y-85295001D03*
%TO.P,J1,9,Pin_9*%
%TO.N,Net-(J1-Pin_9)*%
X174254801Y-82755001D03*
%TO.P,J1,10,Pin_10*%
%TO.N,DATA*%
X174254801Y-85295001D03*
%TO.P,J1,11,Pin_11*%
%TO.N,Net-(J1-Pin_11)*%
X171714801Y-82755001D03*
%TO.P,J1,12,Pin_12*%
%TO.N,DATA*%
X171714801Y-85295001D03*
%TD*%
D10*
%TO.P,J12,1,Pin_1*%
%TO.N,+3.3V*%
X164110001Y-128425001D03*
D11*
%TO.P,J12,2,Pin_2*%
%TO.N,DATA*%
X164110001Y-125925001D03*
%TO.P,J12,3,Pin_3*%
%TO.N,GND*%
X164110001Y-123425001D03*
%TD*%
D10*
%TO.P,J11,1,Pin_1*%
%TO.N,+3.3V*%
X153950001Y-128425001D03*
D11*
%TO.P,J11,2,Pin_2*%
%TO.N,DATA*%
X153950001Y-125925001D03*
%TO.P,J11,3,Pin_3*%
%TO.N,GND*%
X153950001Y-123425001D03*
%TD*%
D10*
%TO.P,J4,1,Pin_1*%
%TO.N,+3.3V*%
X153950001Y-141125001D03*
D11*
%TO.P,J4,2,Pin_2*%
%TO.N,DATA*%
X153950001Y-138625001D03*
%TO.P,J4,3,Pin_3*%
%TO.N,GND*%
X153950001Y-136125001D03*
%TD*%
D17*
%TO.P,R1,1*%
%TO.N,DATA*%
X184404801Y-90375001D03*
D18*
%TO.P,R1,2*%
%TO.N,+3.3V*%
X174244801Y-90375001D03*
%TD*%
D10*
%TO.P,J13,1,Pin_1*%
%TO.N,+3.3V*%
X174270001Y-128425001D03*
D11*
%TO.P,J13,2,Pin_2*%
%TO.N,DATA*%
X174270001Y-125925001D03*
%TO.P,J13,3,Pin_3*%
%TO.N,GND*%
X174270001Y-123425001D03*
%TD*%
D15*
%TO.P,J20,1,Pin_1*%
%TO.N,GND*%
X153924801Y-85295001D03*
D16*
%TO.P,J20,2,Pin_2*%
X156464801Y-85295001D03*
%TO.P,J20,3,Pin_3*%
%TO.N,Net-(A1-A0{slash}DAC)*%
X153924801Y-87835001D03*
%TO.P,J20,4,Pin_4*%
%TO.N,Net-(J20-Pin_4)*%
X156464801Y-87835001D03*
%TO.P,J20,5,Pin_5*%
%TO.N,+3.3V*%
X153924801Y-90375001D03*
%TO.P,J20,6,Pin_6*%
X156464801Y-90375001D03*
%TD*%
%TA.AperFunction,Conductor*%
%TO.N,GND*%
G36*
X195152540Y-48785186D02*
G01*
X195198295Y-48837990D01*
X195209501Y-48889501D01*
X195209501Y-148640501D01*
X195189816Y-148707540D01*
X195137012Y-148753295D01*
X195085501Y-148764501D01*
X125334501Y-148764501D01*
X125267462Y-148744816D01*
X125221707Y-148692012D01*
X125210501Y-148640501D01*
X125210501Y-138625001D01*
X132149342Y-138625001D01*
X132169937Y-138860404D01*
X132169939Y-138860414D01*
X132231095Y-139088656D01*
X132231097Y-139088660D01*
X132231098Y-139088664D01*
X132281032Y-139195747D01*
X132330965Y-139302829D01*
X132330966Y-139302831D01*
X132466506Y-139496403D01*
X132613705Y-139643602D01*
X132647190Y-139704925D01*
X132642206Y-139774617D01*
X132600334Y-139830550D01*
X132591121Y-139836821D01*
X132436348Y-139932286D01*
X132436344Y-139932289D01*
X132312290Y-140056343D01*
X132220188Y-140205664D01*
X132220187Y-140205667D01*
X132165002Y-140372204D01*
X132165002Y-140372205D01*
X132165001Y-140372205D01*
X132154501Y-140474984D01*
X132154501Y-141775002D01*
X132154502Y-141775019D01*
X132165001Y-141877797D01*
X132165002Y-141877800D01*
X132220186Y-142044332D01*
X132220187Y-142044335D01*
X132312289Y-142193657D01*
X132436345Y-142317713D01*
X132585667Y-142409815D01*
X132752204Y-142465000D01*
X132854992Y-142475501D01*
X134405009Y-142475500D01*
X134507798Y-142465000D01*
X134674335Y-142409815D01*
X134823657Y-142317713D01*
X134947713Y-142193657D01*
X135039815Y-142044335D01*
X135095000Y-141877798D01*
X135105501Y-141775010D01*
X135105500Y-140474993D01*
X135095000Y-140372204D01*
X135039815Y-140205667D01*
X134947713Y-140056345D01*
X134823657Y-139932289D01*
X134742659Y-139882329D01*
X134668880Y-139836822D01*
X134622156Y-139784874D01*
X134610933Y-139715911D01*
X134638777Y-139651829D01*
X134646296Y-139643602D01*
X134793496Y-139496402D01*
X134929036Y-139302831D01*
X135028904Y-139088664D01*
X135090064Y-138860409D01*
X135110660Y-138625001D01*
X142309342Y-138625001D01*
X142329937Y-138860404D01*
X142329939Y-138860414D01*
X142391095Y-139088656D01*
X142391097Y-139088660D01*
X142391098Y-139088664D01*
X142441032Y-139195747D01*
X142490965Y-139302829D01*
X142490966Y-139302831D01*
X142626506Y-139496403D01*
X142773705Y-139643602D01*
X142807190Y-139704925D01*
X142802206Y-139774617D01*
X142760334Y-139830550D01*
X142751121Y-139836821D01*
X142596348Y-139932286D01*
X142596344Y-139932289D01*
X142472290Y-140056343D01*
X142380188Y-140205664D01*
X142380187Y-140205667D01*
X142325002Y-140372204D01*
X142325002Y-140372205D01*
X142325001Y-140372205D01*
X142314501Y-140474984D01*
X142314501Y-141775002D01*
X142314502Y-141775019D01*
X142325001Y-141877797D01*
X142325002Y-141877800D01*
X142380186Y-142044332D01*
X142380187Y-142044335D01*
X142472289Y-142193657D01*
X142596345Y-142317713D01*
X142745667Y-142409815D01*
X142912204Y-142465000D01*
X143014992Y-142475501D01*
X144565009Y-142475500D01*
X144667798Y-142465000D01*
X144834335Y-142409815D01*
X144983657Y-142317713D01*
X145107713Y-142193657D01*
X145199815Y-142044335D01*
X145255000Y-141877798D01*
X145265501Y-141775010D01*
X145265500Y-140474993D01*
X145255000Y-140372204D01*
X145199815Y-140205667D01*
X145107713Y-140056345D01*
X144983657Y-139932289D01*
X144902659Y-139882329D01*
X144828880Y-139836822D01*
X144782156Y-139784874D01*
X144770933Y-139715911D01*
X144798777Y-139651829D01*
X144806296Y-139643602D01*
X144953496Y-139496402D01*
X145089036Y-139302831D01*
X145188904Y-139088664D01*
X145250064Y-138860409D01*
X145270660Y-138625001D01*
X152469342Y-138625001D01*
X152489937Y-138860404D01*
X152489939Y-138860414D01*
X152551095Y-139088656D01*
X152551097Y-139088660D01*
X152551098Y-139088664D01*
X152601032Y-139195747D01*
X152650965Y-139302829D01*
X152650966Y-139302831D01*
X152786506Y-139496403D01*
X152933705Y-139643602D01*
X152967190Y-139704925D01*
X152962206Y-139774617D01*
X152920334Y-139830550D01*
X152911121Y-139836821D01*
X152756348Y-139932286D01*
X152756344Y-139932289D01*
X152632290Y-140056343D01*
X152540188Y-140205664D01*
X152540187Y-140205667D01*
X152485002Y-140372204D01*
X152485002Y-140372205D01*
X152485001Y-140372205D01*
X152474501Y-140474984D01*
X152474501Y-141775002D01*
X152474502Y-141775019D01*
X152485001Y-141877797D01*
X152485002Y-141877800D01*
X152540186Y-142044332D01*
X152540187Y-142044335D01*
X152632289Y-142193657D01*
X152756345Y-142317713D01*
X152905667Y-142409815D01*
X153072204Y-142465000D01*
X153174992Y-142475501D01*
X154725009Y-142475500D01*
X154827798Y-142465000D01*
X154994335Y-142409815D01*
X155143657Y-142317713D01*
X155267713Y-142193657D01*
X155359815Y-142044335D01*
X155415000Y-141877798D01*
X155425501Y-141775010D01*
X155425500Y-140474993D01*
X155415000Y-140372204D01*
X155359815Y-140205667D01*
X155267713Y-140056345D01*
X155143657Y-139932289D01*
X155062659Y-139882329D01*
X154988880Y-139836822D01*
X154942156Y-139784874D01*
X154930933Y-139715911D01*
X154958777Y-139651829D01*
X154966296Y-139643602D01*
X155113496Y-139496402D01*
X155249036Y-139302831D01*
X155348904Y-139088664D01*
X155410064Y-138860409D01*
X155430660Y-138625001D01*
X162629342Y-138625001D01*
X162649937Y-138860404D01*
X162649939Y-138860414D01*
X162711095Y-139088656D01*
X162711097Y-139088660D01*
X162711098Y-139088664D01*
X162761032Y-139195747D01*
X162810965Y-139302829D01*
X162810966Y-139302831D01*
X162946506Y-139496403D01*
X163093705Y-139643602D01*
X163127190Y-139704925D01*
X163122206Y-139774617D01*
X163080334Y-139830550D01*
X163071121Y-139836821D01*
X162916348Y-139932286D01*
X162916344Y-139932289D01*
X162792290Y-140056343D01*
X162700188Y-140205664D01*
X162700187Y-140205667D01*
X162645002Y-140372204D01*
X162645002Y-140372205D01*
X162645001Y-140372205D01*
X162634501Y-140474984D01*
X162634501Y-141775002D01*
X162634502Y-141775019D01*
X162645001Y-141877797D01*
X162645002Y-141877800D01*
X162700186Y-142044332D01*
X162700187Y-142044335D01*
X162792289Y-142193657D01*
X162916345Y-142317713D01*
X163065667Y-142409815D01*
X163232204Y-142465000D01*
X163334992Y-142475501D01*
X164885009Y-142475500D01*
X164987798Y-142465000D01*
X165154335Y-142409815D01*
X165303657Y-142317713D01*
X165427713Y-142193657D01*
X165519815Y-142044335D01*
X165575000Y-141877798D01*
X165585501Y-141775010D01*
X165585500Y-140474993D01*
X165575000Y-140372204D01*
X165519815Y-140205667D01*
X165427713Y-140056345D01*
X165303657Y-139932289D01*
X165222659Y-139882329D01*
X165148880Y-139836822D01*
X165102156Y-139784874D01*
X165090933Y-139715911D01*
X165118777Y-139651829D01*
X165126296Y-139643602D01*
X165273496Y-139496402D01*
X165409036Y-139302831D01*
X165508904Y-139088664D01*
X165570064Y-138860409D01*
X165590660Y-138625001D01*
X172789342Y-138625001D01*
X172809937Y-138860404D01*
X172809939Y-138860414D01*
X172871095Y-139088656D01*
X172871097Y-139088660D01*
X172871098Y-139088664D01*
X172921032Y-139195747D01*
X172970965Y-139302829D01*
X172970966Y-139302831D01*
X173106506Y-139496403D01*
X173253705Y-139643602D01*
X173287190Y-139704925D01*
X173282206Y-139774617D01*
X173240334Y-139830550D01*
X173231121Y-139836821D01*
X173076348Y-139932286D01*
X173076344Y-139932289D01*
X172952290Y-140056343D01*
X172860188Y-140205664D01*
X172860187Y-140205667D01*
X172805002Y-140372204D01*
X172805002Y-140372205D01*
X172805001Y-140372205D01*
X172794501Y-140474984D01*
X172794501Y-141775002D01*
X172794502Y-141775019D01*
X172805001Y-141877797D01*
X172805002Y-141877800D01*
X172860186Y-142044332D01*
X172860187Y-142044335D01*
X172952289Y-142193657D01*
X173076345Y-142317713D01*
X173225667Y-142409815D01*
X173392204Y-142465000D01*
X173494992Y-142475501D01*
X175045009Y-142475500D01*
X175147798Y-142465000D01*
X175314335Y-142409815D01*
X175463657Y-142317713D01*
X175587713Y-142193657D01*
X175679815Y-142044335D01*
X175735000Y-141877798D01*
X175745501Y-141775010D01*
X175745500Y-140474993D01*
X175735000Y-140372204D01*
X175679815Y-140205667D01*
X175587713Y-140056345D01*
X175463657Y-139932289D01*
X175382659Y-139882329D01*
X175308880Y-139836822D01*
X175262156Y-139784874D01*
X175250933Y-139715911D01*
X175278777Y-139651829D01*
X175286296Y-139643602D01*
X175433496Y-139496402D01*
X175569036Y-139302831D01*
X175668904Y-139088664D01*
X175730064Y-138860409D01*
X175750660Y-138625001D01*
X182949342Y-138625001D01*
X182969937Y-138860404D01*
X182969939Y-138860414D01*
X183031095Y-139088656D01*
X183031097Y-139088660D01*
X183031098Y-139088664D01*
X183081032Y-139195747D01*
X183130965Y-139302829D01*
X183130966Y-139302831D01*
X183266506Y-139496403D01*
X183413705Y-139643602D01*
X183447190Y-139704925D01*
X183442206Y-139774617D01*
X183400334Y-139830550D01*
X183391121Y-139836821D01*
X183236348Y-139932286D01*
X183236344Y-139932289D01*
X183112290Y-140056343D01*
X183020188Y-140205664D01*
X183020187Y-140205667D01*
X182965002Y-140372204D01*
X182965002Y-140372205D01*
X182965001Y-140372205D01*
X182954501Y-140474984D01*
X182954501Y-141775002D01*
X182954502Y-141775019D01*
X182965001Y-141877797D01*
X182965002Y-141877800D01*
X183020186Y-142044332D01*
X183020187Y-142044335D01*
X183112289Y-142193657D01*
X183236345Y-142317713D01*
X183385667Y-142409815D01*
X183552204Y-142465000D01*
X183654992Y-142475501D01*
X185205009Y-142475500D01*
X185307798Y-142465000D01*
X185474335Y-142409815D01*
X185623657Y-142317713D01*
X185747713Y-142193657D01*
X185839815Y-142044335D01*
X185895000Y-141877798D01*
X185905501Y-141775010D01*
X185905500Y-140474993D01*
X185895000Y-140372204D01*
X185839815Y-140205667D01*
X185747713Y-140056345D01*
X185623657Y-139932289D01*
X185542659Y-139882329D01*
X185468880Y-139836822D01*
X185422156Y-139784874D01*
X185410933Y-139715911D01*
X185438777Y-139651829D01*
X185446296Y-139643602D01*
X185593496Y-139496402D01*
X185729036Y-139302831D01*
X185828904Y-139088664D01*
X185890064Y-138860409D01*
X185910660Y-138625001D01*
X185890064Y-138389593D01*
X185828904Y-138161338D01*
X185729036Y-137947172D01*
X185729035Y-137947170D01*
X185593495Y-137753598D01*
X185426403Y-137586506D01*
X185232831Y-137450966D01*
X185232829Y-137450965D01*
X185125747Y-137401032D01*
X185018664Y-137351098D01*
X185018660Y-137351097D01*
X185018656Y-137351095D01*
X184790414Y-137289939D01*
X184790404Y-137289937D01*
X184613968Y-137274501D01*
X184613967Y-137274501D01*
X184246035Y-137274501D01*
X184246034Y-137274501D01*
X184069597Y-137289937D01*
X184069587Y-137289939D01*
X183841345Y-137351095D01*
X183841336Y-137351099D01*
X183627172Y-137450965D01*
X183627170Y-137450966D01*
X183433598Y-137586506D01*
X183266507Y-137753598D01*
X183266502Y-137753605D01*
X183130968Y-137947166D01*
X183130966Y-137947170D01*
X183031099Y-138161336D01*
X183031095Y-138161345D01*
X182969939Y-138389587D01*
X182969937Y-138389597D01*
X182949342Y-138625000D01*
X182949342Y-138625001D01*
X175750660Y-138625001D01*
X175730064Y-138389593D01*
X175668904Y-138161338D01*
X175569036Y-137947172D01*
X175569035Y-137947170D01*
X175433495Y-137753598D01*
X175266403Y-137586506D01*
X175072831Y-137450966D01*
X175072829Y-137450965D01*
X174965747Y-137401032D01*
X174858664Y-137351098D01*
X174858660Y-137351097D01*
X174858656Y-137351095D01*
X174630414Y-137289939D01*
X174630404Y-137289937D01*
X174453968Y-137274501D01*
X174453967Y-137274501D01*
X174086035Y-137274501D01*
X174086034Y-137274501D01*
X173909597Y-137289937D01*
X173909587Y-137289939D01*
X173681345Y-137351095D01*
X173681336Y-137351099D01*
X173467172Y-137450965D01*
X173467170Y-137450966D01*
X173273598Y-137586506D01*
X173106507Y-137753598D01*
X173106502Y-137753605D01*
X172970968Y-137947166D01*
X172970966Y-137947170D01*
X172871099Y-138161336D01*
X172871095Y-138161345D01*
X172809939Y-138389587D01*
X172809937Y-138389597D01*
X172789342Y-138625000D01*
X172789342Y-138625001D01*
X165590660Y-138625001D01*
X165570064Y-138389593D01*
X165508904Y-138161338D01*
X165409036Y-137947172D01*
X165409035Y-137947170D01*
X165273495Y-137753598D01*
X165106403Y-137586506D01*
X164912831Y-137450966D01*
X164912829Y-137450965D01*
X164805747Y-137401032D01*
X164698664Y-137351098D01*
X164698660Y-137351097D01*
X164698656Y-137351095D01*
X164470414Y-137289939D01*
X164470404Y-137289937D01*
X164293968Y-137274501D01*
X164293967Y-137274501D01*
X163926035Y-137274501D01*
X163926034Y-137274501D01*
X163749597Y-137289937D01*
X163749587Y-137289939D01*
X163521345Y-137351095D01*
X163521336Y-137351099D01*
X163307172Y-137450965D01*
X163307170Y-137450966D01*
X163113598Y-137586506D01*
X162946507Y-137753598D01*
X162946502Y-137753605D01*
X162810968Y-137947166D01*
X162810966Y-137947170D01*
X162711099Y-138161336D01*
X162711095Y-138161345D01*
X162649939Y-138389587D01*
X162649937Y-138389597D01*
X162629342Y-138625000D01*
X162629342Y-138625001D01*
X155430660Y-138625001D01*
X155410064Y-138389593D01*
X155348904Y-138161338D01*
X155249036Y-137947172D01*
X155249035Y-137947170D01*
X155113495Y-137753598D01*
X154946403Y-137586506D01*
X154752831Y-137450966D01*
X154752829Y-137450965D01*
X154645747Y-137401032D01*
X154538664Y-137351098D01*
X154538660Y-137351097D01*
X154538656Y-137351095D01*
X154310414Y-137289939D01*
X154310404Y-137289937D01*
X154133968Y-137274501D01*
X154133967Y-137274501D01*
X153766035Y-137274501D01*
X153766034Y-137274501D01*
X153589597Y-137289937D01*
X153589587Y-137289939D01*
X153361345Y-137351095D01*
X153361336Y-137351099D01*
X153147172Y-137450965D01*
X153147170Y-137450966D01*
X152953598Y-137586506D01*
X152786507Y-137753598D01*
X152786502Y-137753605D01*
X152650968Y-137947166D01*
X152650966Y-137947170D01*
X152551099Y-138161336D01*
X152551095Y-138161345D01*
X152489939Y-138389587D01*
X152489937Y-138389597D01*
X152469342Y-138625000D01*
X152469342Y-138625001D01*
X145270660Y-138625001D01*
X145250064Y-138389593D01*
X145188904Y-138161338D01*
X145089036Y-137947172D01*
X145089035Y-137947170D01*
X144953495Y-137753598D01*
X144786403Y-137586506D01*
X144592831Y-137450966D01*
X144592829Y-137450965D01*
X144485747Y-137401032D01*
X144378664Y-137351098D01*
X144378660Y-137351097D01*
X144378656Y-137351095D01*
X144150414Y-137289939D01*
X144150404Y-137289937D01*
X143973968Y-137274501D01*
X143973967Y-137274501D01*
X143606035Y-137274501D01*
X143606034Y-137274501D01*
X143429597Y-137289937D01*
X143429587Y-137289939D01*
X143201345Y-137351095D01*
X143201336Y-137351099D01*
X142987172Y-137450965D01*
X142987170Y-137450966D01*
X142793598Y-137586506D01*
X142626507Y-137753598D01*
X142626502Y-137753605D01*
X142490968Y-137947166D01*
X142490966Y-137947170D01*
X142391099Y-138161336D01*
X142391095Y-138161345D01*
X142329939Y-138389587D01*
X142329937Y-138389597D01*
X142309342Y-138625000D01*
X142309342Y-138625001D01*
X135110660Y-138625001D01*
X135090064Y-138389593D01*
X135028904Y-138161338D01*
X134929036Y-137947172D01*
X134929035Y-137947170D01*
X134793495Y-137753598D01*
X134626403Y-137586506D01*
X134432831Y-137450966D01*
X134432829Y-137450965D01*
X134325747Y-137401032D01*
X134218664Y-137351098D01*
X134218660Y-137351097D01*
X134218656Y-137351095D01*
X133990414Y-137289939D01*
X133990404Y-137289937D01*
X133813968Y-137274501D01*
X133813967Y-137274501D01*
X133446035Y-137274501D01*
X133446034Y-137274501D01*
X133269597Y-137289937D01*
X133269587Y-137289939D01*
X133041345Y-137351095D01*
X133041336Y-137351099D01*
X132827172Y-137450965D01*
X132827170Y-137450966D01*
X132633598Y-137586506D01*
X132466507Y-137753598D01*
X132466502Y-137753605D01*
X132330968Y-137947166D01*
X132330966Y-137947170D01*
X132231099Y-138161336D01*
X132231095Y-138161345D01*
X132169939Y-138389587D01*
X132169937Y-138389597D01*
X132149342Y-138625000D01*
X132149342Y-138625001D01*
X125210501Y-138625001D01*
X125210501Y-125925001D01*
X132149342Y-125925001D01*
X132169937Y-126160404D01*
X132169939Y-126160414D01*
X132231095Y-126388656D01*
X132231097Y-126388660D01*
X132231098Y-126388664D01*
X132281032Y-126495747D01*
X132330965Y-126602829D01*
X132330966Y-126602831D01*
X132466506Y-126796403D01*
X132613705Y-126943602D01*
X132647190Y-127004925D01*
X132642206Y-127074617D01*
X132600334Y-127130550D01*
X132591121Y-127136821D01*
X132436348Y-127232286D01*
X132436344Y-127232289D01*
X132312290Y-127356343D01*
X132220188Y-127505664D01*
X132220187Y-127505667D01*
X132165002Y-127672204D01*
X132165002Y-127672205D01*
X132165001Y-127672205D01*
X132154501Y-127774984D01*
X132154501Y-129075002D01*
X132154502Y-129075019D01*
X132165001Y-129177797D01*
X132165002Y-129177800D01*
X132220186Y-129344332D01*
X132220187Y-129344335D01*
X132312289Y-129493657D01*
X132436345Y-129617713D01*
X132585667Y-129709815D01*
X132752204Y-129765000D01*
X132854992Y-129775501D01*
X134405009Y-129775500D01*
X134507798Y-129765000D01*
X134674335Y-129709815D01*
X134823657Y-129617713D01*
X134947713Y-129493657D01*
X135039815Y-129344335D01*
X135095000Y-129177798D01*
X135105501Y-129075010D01*
X135105500Y-127774993D01*
X135095000Y-127672204D01*
X135039815Y-127505667D01*
X134947713Y-127356345D01*
X134823657Y-127232289D01*
X134742659Y-127182329D01*
X134668880Y-127136822D01*
X134622156Y-127084874D01*
X134610933Y-127015911D01*
X134638777Y-126951829D01*
X134646296Y-126943602D01*
X134793496Y-126796402D01*
X134929036Y-126602831D01*
X135028904Y-126388664D01*
X135090064Y-126160409D01*
X135110660Y-125925001D01*
X142309342Y-125925001D01*
X142329937Y-126160404D01*
X142329939Y-126160414D01*
X142391095Y-126388656D01*
X142391097Y-126388660D01*
X142391098Y-126388664D01*
X142441032Y-126495747D01*
X142490965Y-126602829D01*
X142490966Y-126602831D01*
X142626506Y-126796403D01*
X142773705Y-126943602D01*
X142807190Y-127004925D01*
X142802206Y-127074617D01*
X142760334Y-127130550D01*
X142751121Y-127136821D01*
X142596348Y-127232286D01*
X142596344Y-127232289D01*
X142472290Y-127356343D01*
X142380188Y-127505664D01*
X142380187Y-127505667D01*
X142325002Y-127672204D01*
X142325002Y-127672205D01*
X142325001Y-127672205D01*
X142314501Y-127774984D01*
X142314501Y-129075002D01*
X142314502Y-129075019D01*
X142325001Y-129177797D01*
X142325002Y-129177800D01*
X142380186Y-129344332D01*
X142380187Y-129344335D01*
X142472289Y-129493657D01*
X142596345Y-129617713D01*
X142745667Y-129709815D01*
X142912204Y-129765000D01*
X143014992Y-129775501D01*
X144565009Y-129775500D01*
X144667798Y-129765000D01*
X144834335Y-129709815D01*
X144983657Y-129617713D01*
X145107713Y-129493657D01*
X145199815Y-129344335D01*
X145255000Y-129177798D01*
X145265501Y-129075010D01*
X145265500Y-127774993D01*
X145255000Y-127672204D01*
X145199815Y-127505667D01*
X145107713Y-127356345D01*
X144983657Y-127232289D01*
X144902659Y-127182329D01*
X144828880Y-127136822D01*
X144782156Y-127084874D01*
X144770933Y-127015911D01*
X144798777Y-126951829D01*
X144806296Y-126943602D01*
X144953496Y-126796402D01*
X145089036Y-126602831D01*
X145188904Y-126388664D01*
X145250064Y-126160409D01*
X145270660Y-125925001D01*
X152469342Y-125925001D01*
X152489937Y-126160404D01*
X152489939Y-126160414D01*
X152551095Y-126388656D01*
X152551097Y-126388660D01*
X152551098Y-126388664D01*
X152601032Y-126495747D01*
X152650965Y-126602829D01*
X152650966Y-126602831D01*
X152786506Y-126796403D01*
X152933705Y-126943602D01*
X152967190Y-127004925D01*
X152962206Y-127074617D01*
X152920334Y-127130550D01*
X152911121Y-127136821D01*
X152756348Y-127232286D01*
X152756344Y-127232289D01*
X152632290Y-127356343D01*
X152540188Y-127505664D01*
X152540187Y-127505667D01*
X152485002Y-127672204D01*
X152485002Y-127672205D01*
X152485001Y-127672205D01*
X152474501Y-127774984D01*
X152474501Y-129075002D01*
X152474502Y-129075019D01*
X152485001Y-129177797D01*
X152485002Y-129177800D01*
X152540186Y-129344332D01*
X152540187Y-129344335D01*
X152632289Y-129493657D01*
X152756345Y-129617713D01*
X152905667Y-129709815D01*
X153072204Y-129765000D01*
X153174992Y-129775501D01*
X154725009Y-129775500D01*
X154827798Y-129765000D01*
X154994335Y-129709815D01*
X155143657Y-129617713D01*
X155267713Y-129493657D01*
X155359815Y-129344335D01*
X155415000Y-129177798D01*
X155425501Y-129075010D01*
X155425500Y-127774993D01*
X155415000Y-127672204D01*
X155359815Y-127505667D01*
X155267713Y-127356345D01*
X155143657Y-127232289D01*
X155062659Y-127182329D01*
X154988880Y-127136822D01*
X154942156Y-127084874D01*
X154930933Y-127015911D01*
X154958777Y-126951829D01*
X154966296Y-126943602D01*
X155113496Y-126796402D01*
X155249036Y-126602831D01*
X155348904Y-126388664D01*
X155410064Y-126160409D01*
X155430660Y-125925001D01*
X162629342Y-125925001D01*
X162649937Y-126160404D01*
X162649939Y-126160414D01*
X162711095Y-126388656D01*
X162711097Y-126388660D01*
X162711098Y-126388664D01*
X162761032Y-126495747D01*
X162810965Y-126602829D01*
X162810966Y-126602831D01*
X162946506Y-126796403D01*
X163093705Y-126943602D01*
X163127190Y-127004925D01*
X163122206Y-127074617D01*
X163080334Y-127130550D01*
X163071121Y-127136821D01*
X162916348Y-127232286D01*
X162916344Y-127232289D01*
X162792290Y-127356343D01*
X162700188Y-127505664D01*
X162700187Y-127505667D01*
X162645002Y-127672204D01*
X162645002Y-127672205D01*
X162645001Y-127672205D01*
X162634501Y-127774984D01*
X162634501Y-129075002D01*
X162634502Y-129075019D01*
X162645001Y-129177797D01*
X162645002Y-129177800D01*
X162700186Y-129344332D01*
X162700187Y-129344335D01*
X162792289Y-129493657D01*
X162916345Y-129617713D01*
X163065667Y-129709815D01*
X163232204Y-129765000D01*
X163334992Y-129775501D01*
X164885009Y-129775500D01*
X164987798Y-129765000D01*
X165154335Y-129709815D01*
X165303657Y-129617713D01*
X165427713Y-129493657D01*
X165519815Y-129344335D01*
X165575000Y-129177798D01*
X165585501Y-129075010D01*
X165585500Y-127774993D01*
X165575000Y-127672204D01*
X165519815Y-127505667D01*
X165427713Y-127356345D01*
X165303657Y-127232289D01*
X165222659Y-127182329D01*
X165148880Y-127136822D01*
X165102156Y-127084874D01*
X165090933Y-127015911D01*
X165118777Y-126951829D01*
X165126296Y-126943602D01*
X165273496Y-126796402D01*
X165409036Y-126602831D01*
X165508904Y-126388664D01*
X165570064Y-126160409D01*
X165590660Y-125925001D01*
X172789342Y-125925001D01*
X172809937Y-126160404D01*
X172809939Y-126160414D01*
X172871095Y-126388656D01*
X172871097Y-126388660D01*
X172871098Y-126388664D01*
X172921032Y-126495747D01*
X172970965Y-126602829D01*
X172970966Y-126602831D01*
X173106506Y-126796403D01*
X173253705Y-126943602D01*
X173287190Y-127004925D01*
X173282206Y-127074617D01*
X173240334Y-127130550D01*
X173231121Y-127136821D01*
X173076348Y-127232286D01*
X173076344Y-127232289D01*
X172952290Y-127356343D01*
X172860188Y-127505664D01*
X172860187Y-127505667D01*
X172805002Y-127672204D01*
X172805002Y-127672205D01*
X172805001Y-127672205D01*
X172794501Y-127774984D01*
X172794501Y-129075002D01*
X172794502Y-129075019D01*
X172805001Y-129177797D01*
X172805002Y-129177800D01*
X172860186Y-129344332D01*
X172860187Y-129344335D01*
X172952289Y-129493657D01*
X173076345Y-129617713D01*
X173225667Y-129709815D01*
X173392204Y-129765000D01*
X173494992Y-129775501D01*
X175045009Y-129775500D01*
X175147798Y-129765000D01*
X175314335Y-129709815D01*
X175463657Y-129617713D01*
X175587713Y-129493657D01*
X175679815Y-129344335D01*
X175735000Y-129177798D01*
X175745501Y-129075010D01*
X175745500Y-127774993D01*
X175735000Y-127672204D01*
X175679815Y-127505667D01*
X175587713Y-127356345D01*
X175463657Y-127232289D01*
X175382659Y-127182329D01*
X175308880Y-127136822D01*
X175262156Y-127084874D01*
X175250933Y-127015911D01*
X175278777Y-126951829D01*
X175286296Y-126943602D01*
X175433496Y-126796402D01*
X175569036Y-126602831D01*
X175668904Y-126388664D01*
X175730064Y-126160409D01*
X175750660Y-125925001D01*
X182949342Y-125925001D01*
X182969937Y-126160404D01*
X182969939Y-126160414D01*
X183031095Y-126388656D01*
X183031097Y-126388660D01*
X183031098Y-126388664D01*
X183081032Y-126495747D01*
X183130965Y-126602829D01*
X183130966Y-126602831D01*
X183266506Y-126796403D01*
X183413705Y-126943602D01*
X183447190Y-127004925D01*
X183442206Y-127074617D01*
X183400334Y-127130550D01*
X183391121Y-127136821D01*
X183236348Y-127232286D01*
X183236344Y-127232289D01*
X183112290Y-127356343D01*
X183020188Y-127505664D01*
X183020187Y-127505667D01*
X182965002Y-127672204D01*
X182965002Y-127672205D01*
X182965001Y-127672205D01*
X182954501Y-127774984D01*
X182954501Y-129075002D01*
X182954502Y-129075019D01*
X182965001Y-129177797D01*
X182965002Y-129177800D01*
X183020186Y-129344332D01*
X183020187Y-129344335D01*
X183112289Y-129493657D01*
X183236345Y-129617713D01*
X183385667Y-129709815D01*
X183552204Y-129765000D01*
X183654992Y-129775501D01*
X185205009Y-129775500D01*
X185307798Y-129765000D01*
X185474335Y-129709815D01*
X185623657Y-129617713D01*
X185747713Y-129493657D01*
X185839815Y-129344335D01*
X185895000Y-129177798D01*
X185905501Y-129075010D01*
X185905500Y-127774993D01*
X185895000Y-127672204D01*
X185839815Y-127505667D01*
X185747713Y-127356345D01*
X185623657Y-127232289D01*
X185542659Y-127182329D01*
X185468880Y-127136822D01*
X185422156Y-127084874D01*
X185410933Y-127015911D01*
X185438777Y-126951829D01*
X185446296Y-126943602D01*
X185593496Y-126796402D01*
X185729036Y-126602831D01*
X185828904Y-126388664D01*
X185890064Y-126160409D01*
X185910660Y-125925001D01*
X185890064Y-125689593D01*
X185828904Y-125461338D01*
X185729036Y-125247172D01*
X185729035Y-125247170D01*
X185593495Y-125053598D01*
X185426403Y-124886506D01*
X185232831Y-124750966D01*
X185232829Y-124750965D01*
X185125747Y-124701032D01*
X185018664Y-124651098D01*
X185018660Y-124651097D01*
X185018656Y-124651095D01*
X184790414Y-124589939D01*
X184790404Y-124589937D01*
X184613968Y-124574501D01*
X184613967Y-124574501D01*
X184246035Y-124574501D01*
X184246034Y-124574501D01*
X184069597Y-124589937D01*
X184069587Y-124589939D01*
X183841345Y-124651095D01*
X183841336Y-124651099D01*
X183627172Y-124750965D01*
X183627170Y-124750966D01*
X183433598Y-124886506D01*
X183266507Y-125053598D01*
X183266502Y-125053605D01*
X183130968Y-125247166D01*
X183130966Y-125247170D01*
X183031099Y-125461336D01*
X183031095Y-125461345D01*
X182969939Y-125689587D01*
X182969937Y-125689597D01*
X182949342Y-125925000D01*
X182949342Y-125925001D01*
X175750660Y-125925001D01*
X175730064Y-125689593D01*
X175668904Y-125461338D01*
X175569036Y-125247172D01*
X175569035Y-125247170D01*
X175433495Y-125053598D01*
X175266403Y-124886506D01*
X175072831Y-124750966D01*
X175072829Y-124750965D01*
X174965747Y-124701032D01*
X174858664Y-124651098D01*
X174858660Y-124651097D01*
X174858656Y-124651095D01*
X174630414Y-124589939D01*
X174630404Y-124589937D01*
X174453968Y-124574501D01*
X174453967Y-124574501D01*
X174086035Y-124574501D01*
X174086034Y-124574501D01*
X173909597Y-124589937D01*
X173909587Y-124589939D01*
X173681345Y-124651095D01*
X173681336Y-124651099D01*
X173467172Y-124750965D01*
X173467170Y-124750966D01*
X173273598Y-124886506D01*
X173106507Y-125053598D01*
X173106502Y-125053605D01*
X172970968Y-125247166D01*
X172970966Y-125247170D01*
X172871099Y-125461336D01*
X172871095Y-125461345D01*
X172809939Y-125689587D01*
X172809937Y-125689597D01*
X172789342Y-125925000D01*
X172789342Y-125925001D01*
X165590660Y-125925001D01*
X165570064Y-125689593D01*
X165508904Y-125461338D01*
X165409036Y-125247172D01*
X165409035Y-125247170D01*
X165273495Y-125053598D01*
X165106403Y-124886506D01*
X164912831Y-124750966D01*
X164912829Y-124750965D01*
X164805747Y-124701032D01*
X164698664Y-124651098D01*
X164698660Y-124651097D01*
X164698656Y-124651095D01*
X164470414Y-124589939D01*
X164470404Y-124589937D01*
X164293968Y-124574501D01*
X164293967Y-124574501D01*
X163926035Y-124574501D01*
X163926034Y-124574501D01*
X163749597Y-124589937D01*
X163749587Y-124589939D01*
X163521345Y-124651095D01*
X163521336Y-124651099D01*
X163307172Y-124750965D01*
X163307170Y-124750966D01*
X163113598Y-124886506D01*
X162946507Y-125053598D01*
X162946502Y-125053605D01*
X162810968Y-125247166D01*
X162810966Y-125247170D01*
X162711099Y-125461336D01*
X162711095Y-125461345D01*
X162649939Y-125689587D01*
X162649937Y-125689597D01*
X162629342Y-125925000D01*
X162629342Y-125925001D01*
X155430660Y-125925001D01*
X155410064Y-125689593D01*
X155348904Y-125461338D01*
X155249036Y-125247172D01*
X155249035Y-125247170D01*
X155113495Y-125053598D01*
X154946403Y-124886506D01*
X154752831Y-124750966D01*
X154752829Y-124750965D01*
X154645747Y-124701032D01*
X154538664Y-124651098D01*
X154538660Y-124651097D01*
X154538656Y-124651095D01*
X154310414Y-124589939D01*
X154310404Y-124589937D01*
X154133968Y-124574501D01*
X154133967Y-124574501D01*
X153766035Y-124574501D01*
X153766034Y-124574501D01*
X153589597Y-124589937D01*
X153589587Y-124589939D01*
X153361345Y-124651095D01*
X153361336Y-124651099D01*
X153147172Y-124750965D01*
X153147170Y-124750966D01*
X152953598Y-124886506D01*
X152786507Y-125053598D01*
X152786502Y-125053605D01*
X152650968Y-125247166D01*
X152650966Y-125247170D01*
X152551099Y-125461336D01*
X152551095Y-125461345D01*
X152489939Y-125689587D01*
X152489937Y-125689597D01*
X152469342Y-125925000D01*
X152469342Y-125925001D01*
X145270660Y-125925001D01*
X145250064Y-125689593D01*
X145188904Y-125461338D01*
X145089036Y-125247172D01*
X145089035Y-125247170D01*
X144953495Y-125053598D01*
X144786403Y-124886506D01*
X144592831Y-124750966D01*
X144592829Y-124750965D01*
X144485747Y-124701032D01*
X144378664Y-124651098D01*
X144378660Y-124651097D01*
X144378656Y-124651095D01*
X144150414Y-124589939D01*
X144150404Y-124589937D01*
X143973968Y-124574501D01*
X143973967Y-124574501D01*
X143606035Y-124574501D01*
X143606034Y-124574501D01*
X143429597Y-124589937D01*
X143429587Y-124589939D01*
X143201345Y-124651095D01*
X143201336Y-124651099D01*
X142987172Y-124750965D01*
X142987170Y-124750966D01*
X142793598Y-124886506D01*
X142626507Y-125053598D01*
X142626502Y-125053605D01*
X142490968Y-125247166D01*
X142490966Y-125247170D01*
X142391099Y-125461336D01*
X142391095Y-125461345D01*
X142329939Y-125689587D01*
X142329937Y-125689597D01*
X142309342Y-125925000D01*
X142309342Y-125925001D01*
X135110660Y-125925001D01*
X135090064Y-125689593D01*
X135028904Y-125461338D01*
X134929036Y-125247172D01*
X134929035Y-125247170D01*
X134793495Y-125053598D01*
X134626403Y-124886506D01*
X134432831Y-124750966D01*
X134432829Y-124750965D01*
X134325747Y-124701032D01*
X134218664Y-124651098D01*
X134218660Y-124651097D01*
X134218656Y-124651095D01*
X133990414Y-124589939D01*
X133990404Y-124589937D01*
X133813968Y-124574501D01*
X133813967Y-124574501D01*
X133446035Y-124574501D01*
X133446034Y-124574501D01*
X133269597Y-124589937D01*
X133269587Y-124589939D01*
X133041345Y-124651095D01*
X133041336Y-124651099D01*
X132827172Y-124750965D01*
X132827170Y-124750966D01*
X132633598Y-124886506D01*
X132466507Y-125053598D01*
X132466502Y-125053605D01*
X132330968Y-125247166D01*
X132330966Y-125247170D01*
X132231099Y-125461336D01*
X132231095Y-125461345D01*
X132169939Y-125689587D01*
X132169937Y-125689597D01*
X132149342Y-125925000D01*
X132149342Y-125925001D01*
X125210501Y-125925001D01*
X125210501Y-113225001D01*
X132149342Y-113225001D01*
X132169937Y-113460404D01*
X132169939Y-113460414D01*
X132231095Y-113688656D01*
X132231097Y-113688660D01*
X132231098Y-113688664D01*
X132281032Y-113795747D01*
X132330965Y-113902829D01*
X132330966Y-113902831D01*
X132466506Y-114096403D01*
X132613705Y-114243602D01*
X132647190Y-114304925D01*
X132642206Y-114374617D01*
X132600334Y-114430550D01*
X132591121Y-114436821D01*
X132436348Y-114532286D01*
X132436344Y-114532289D01*
X132312290Y-114656343D01*
X132220188Y-114805664D01*
X132220187Y-114805667D01*
X132165002Y-114972204D01*
X132165002Y-114972205D01*
X132165001Y-114972205D01*
X132154501Y-115074984D01*
X132154501Y-116375002D01*
X132154502Y-116375019D01*
X132165001Y-116477797D01*
X132165002Y-116477800D01*
X132220186Y-116644332D01*
X132220187Y-116644335D01*
X132312289Y-116793657D01*
X132436345Y-116917713D01*
X132585667Y-117009815D01*
X132752204Y-117065000D01*
X132854992Y-117075501D01*
X134405009Y-117075500D01*
X134507798Y-117065000D01*
X134674335Y-117009815D01*
X134823657Y-116917713D01*
X134947713Y-116793657D01*
X135039815Y-116644335D01*
X135095000Y-116477798D01*
X135105501Y-116375010D01*
X135105500Y-115074993D01*
X135095000Y-114972204D01*
X135039815Y-114805667D01*
X134947713Y-114656345D01*
X134823657Y-114532289D01*
X134742659Y-114482329D01*
X134668880Y-114436822D01*
X134622156Y-114384874D01*
X134610933Y-114315911D01*
X134638777Y-114251829D01*
X134646296Y-114243602D01*
X134793496Y-114096402D01*
X134929036Y-113902831D01*
X135028904Y-113688664D01*
X135090064Y-113460409D01*
X135110660Y-113225001D01*
X142309342Y-113225001D01*
X142329937Y-113460404D01*
X142329939Y-113460414D01*
X142391095Y-113688656D01*
X142391097Y-113688660D01*
X142391098Y-113688664D01*
X142441032Y-113795747D01*
X142490965Y-113902829D01*
X142490966Y-113902831D01*
X142626506Y-114096403D01*
X142773705Y-114243602D01*
X142807190Y-114304925D01*
X142802206Y-114374617D01*
X142760334Y-114430550D01*
X142751121Y-114436821D01*
X142596348Y-114532286D01*
X142596344Y-114532289D01*
X142472290Y-114656343D01*
X142380188Y-114805664D01*
X142380187Y-114805667D01*
X142325002Y-114972204D01*
X142325002Y-114972205D01*
X142325001Y-114972205D01*
X142314501Y-115074984D01*
X142314501Y-116375002D01*
X142314502Y-116375019D01*
X142325001Y-116477797D01*
X142325002Y-116477800D01*
X142380186Y-116644332D01*
X142380187Y-116644335D01*
X142472289Y-116793657D01*
X142596345Y-116917713D01*
X142745667Y-117009815D01*
X142912204Y-117065000D01*
X143014992Y-117075501D01*
X144565009Y-117075500D01*
X144667798Y-117065000D01*
X144834335Y-117009815D01*
X144983657Y-116917713D01*
X145107713Y-116793657D01*
X145199815Y-116644335D01*
X145255000Y-116477798D01*
X145265501Y-116375010D01*
X145265500Y-115074993D01*
X145255000Y-114972204D01*
X145199815Y-114805667D01*
X145107713Y-114656345D01*
X144983657Y-114532289D01*
X144902659Y-114482329D01*
X144828880Y-114436822D01*
X144782156Y-114384874D01*
X144770933Y-114315911D01*
X144798777Y-114251829D01*
X144806296Y-114243602D01*
X144953496Y-114096402D01*
X145089036Y-113902831D01*
X145188904Y-113688664D01*
X145250064Y-113460409D01*
X145270660Y-113225001D01*
X152469342Y-113225001D01*
X152489937Y-113460404D01*
X152489939Y-113460414D01*
X152551095Y-113688656D01*
X152551097Y-113688660D01*
X152551098Y-113688664D01*
X152601032Y-113795747D01*
X152650965Y-113902829D01*
X152650966Y-113902831D01*
X152786506Y-114096403D01*
X152933705Y-114243602D01*
X152967190Y-114304925D01*
X152962206Y-114374617D01*
X152920334Y-114430550D01*
X152911121Y-114436821D01*
X152756348Y-114532286D01*
X152756344Y-114532289D01*
X152632290Y-114656343D01*
X152540188Y-114805664D01*
X152540187Y-114805667D01*
X152485002Y-114972204D01*
X152485002Y-114972205D01*
X152485001Y-114972205D01*
X152474501Y-115074984D01*
X152474501Y-116375002D01*
X152474502Y-116375019D01*
X152485001Y-116477797D01*
X152485002Y-116477800D01*
X152540186Y-116644332D01*
X152540187Y-116644335D01*
X152632289Y-116793657D01*
X152756345Y-116917713D01*
X152905667Y-117009815D01*
X153072204Y-117065000D01*
X153174992Y-117075501D01*
X154725009Y-117075500D01*
X154827798Y-117065000D01*
X154994335Y-117009815D01*
X155143657Y-116917713D01*
X155267713Y-116793657D01*
X155359815Y-116644335D01*
X155415000Y-116477798D01*
X155425501Y-116375010D01*
X155425500Y-115074993D01*
X155415000Y-114972204D01*
X155359815Y-114805667D01*
X155267713Y-114656345D01*
X155143657Y-114532289D01*
X155062659Y-114482329D01*
X154988880Y-114436822D01*
X154942156Y-114384874D01*
X154930933Y-114315911D01*
X154958777Y-114251829D01*
X154966296Y-114243602D01*
X155113496Y-114096402D01*
X155249036Y-113902831D01*
X155348904Y-113688664D01*
X155410064Y-113460409D01*
X155430660Y-113225001D01*
X162629342Y-113225001D01*
X162649937Y-113460404D01*
X162649939Y-113460414D01*
X162711095Y-113688656D01*
X162711097Y-113688660D01*
X162711098Y-113688664D01*
X162761032Y-113795747D01*
X162810965Y-113902829D01*
X162810966Y-113902831D01*
X162946506Y-114096403D01*
X163093705Y-114243602D01*
X163127190Y-114304925D01*
X163122206Y-114374617D01*
X163080334Y-114430550D01*
X163071121Y-114436821D01*
X162916348Y-114532286D01*
X162916344Y-114532289D01*
X162792290Y-114656343D01*
X162700188Y-114805664D01*
X162700187Y-114805667D01*
X162645002Y-114972204D01*
X162645002Y-114972205D01*
X162645001Y-114972205D01*
X162634501Y-115074984D01*
X162634501Y-116375002D01*
X162634502Y-116375019D01*
X162645001Y-116477797D01*
X162645002Y-116477800D01*
X162700186Y-116644332D01*
X162700187Y-116644335D01*
X162792289Y-116793657D01*
X162916345Y-116917713D01*
X163065667Y-117009815D01*
X163232204Y-117065000D01*
X163334992Y-117075501D01*
X164885009Y-117075500D01*
X164987798Y-117065000D01*
X165154335Y-117009815D01*
X165303657Y-116917713D01*
X165427713Y-116793657D01*
X165519815Y-116644335D01*
X165575000Y-116477798D01*
X165585501Y-116375010D01*
X165585500Y-115074993D01*
X165575000Y-114972204D01*
X165519815Y-114805667D01*
X165427713Y-114656345D01*
X165303657Y-114532289D01*
X165222659Y-114482329D01*
X165148880Y-114436822D01*
X165102156Y-114384874D01*
X165090933Y-114315911D01*
X165118777Y-114251829D01*
X165126296Y-114243602D01*
X165273496Y-114096402D01*
X165409036Y-113902831D01*
X165508904Y-113688664D01*
X165570064Y-113460409D01*
X165590660Y-113225001D01*
X172789342Y-113225001D01*
X172809937Y-113460404D01*
X172809939Y-113460414D01*
X172871095Y-113688656D01*
X172871097Y-113688660D01*
X172871098Y-113688664D01*
X172921032Y-113795747D01*
X172970965Y-113902829D01*
X172970966Y-113902831D01*
X173106506Y-114096403D01*
X173253705Y-114243602D01*
X173287190Y-114304925D01*
X173282206Y-114374617D01*
X173240334Y-114430550D01*
X173231121Y-114436821D01*
X173076348Y-114532286D01*
X173076344Y-114532289D01*
X172952290Y-114656343D01*
X172860188Y-114805664D01*
X172860187Y-114805667D01*
X172805002Y-114972204D01*
X172805002Y-114972205D01*
X172805001Y-114972205D01*
X172794501Y-115074984D01*
X172794501Y-116375002D01*
X172794502Y-116375019D01*
X172805001Y-116477797D01*
X172805002Y-116477800D01*
X172860186Y-116644332D01*
X172860187Y-116644335D01*
X172952289Y-116793657D01*
X173076345Y-116917713D01*
X173225667Y-117009815D01*
X173392204Y-117065000D01*
X173494992Y-117075501D01*
X175045009Y-117075500D01*
X175147798Y-117065000D01*
X175314335Y-117009815D01*
X175463657Y-116917713D01*
X175587713Y-116793657D01*
X175679815Y-116644335D01*
X175735000Y-116477798D01*
X175745501Y-116375010D01*
X175745500Y-115074993D01*
X175735000Y-114972204D01*
X175679815Y-114805667D01*
X175587713Y-114656345D01*
X175463657Y-114532289D01*
X175382659Y-114482329D01*
X175308880Y-114436822D01*
X175262156Y-114384874D01*
X175250933Y-114315911D01*
X175278777Y-114251829D01*
X175286296Y-114243602D01*
X175433496Y-114096402D01*
X175569036Y-113902831D01*
X175668904Y-113688664D01*
X175730064Y-113460409D01*
X175750660Y-113225001D01*
X182949342Y-113225001D01*
X182969937Y-113460404D01*
X182969939Y-113460414D01*
X183031095Y-113688656D01*
X183031097Y-113688660D01*
X183031098Y-113688664D01*
X183081032Y-113795747D01*
X183130965Y-113902829D01*
X183130966Y-113902831D01*
X183266506Y-114096403D01*
X183413705Y-114243602D01*
X183447190Y-114304925D01*
X183442206Y-114374617D01*
X183400334Y-114430550D01*
X183391121Y-114436821D01*
X183236348Y-114532286D01*
X183236344Y-114532289D01*
X183112290Y-114656343D01*
X183020188Y-114805664D01*
X183020187Y-114805667D01*
X182965002Y-114972204D01*
X182965002Y-114972205D01*
X182965001Y-114972205D01*
X182954501Y-115074984D01*
X182954501Y-116375002D01*
X182954502Y-116375019D01*
X182965001Y-116477797D01*
X182965002Y-116477800D01*
X183020186Y-116644332D01*
X183020187Y-116644335D01*
X183112289Y-116793657D01*
X183236345Y-116917713D01*
X183385667Y-117009815D01*
X183552204Y-117065000D01*
X183654992Y-117075501D01*
X185205009Y-117075500D01*
X185307798Y-117065000D01*
X185474335Y-117009815D01*
X185623657Y-116917713D01*
X185747713Y-116793657D01*
X185839815Y-116644335D01*
X185895000Y-116477798D01*
X185905501Y-116375010D01*
X185905500Y-115074993D01*
X185895000Y-114972204D01*
X185839815Y-114805667D01*
X185747713Y-114656345D01*
X185623657Y-114532289D01*
X185542659Y-114482329D01*
X185468880Y-114436822D01*
X185422156Y-114384874D01*
X185410933Y-114315911D01*
X185438777Y-114251829D01*
X185446296Y-114243602D01*
X185593496Y-114096402D01*
X185729036Y-113902831D01*
X185828904Y-113688664D01*
X185890064Y-113460409D01*
X185910660Y-113225001D01*
X185890064Y-112989593D01*
X185828904Y-112761338D01*
X185729036Y-112547172D01*
X185729035Y-112547170D01*
X185593495Y-112353598D01*
X185426403Y-112186506D01*
X185232831Y-112050966D01*
X185232829Y-112050965D01*
X185125747Y-112001032D01*
X185018664Y-111951098D01*
X185018660Y-111951097D01*
X185018656Y-111951095D01*
X184790414Y-111889939D01*
X184790404Y-111889937D01*
X184613968Y-111874501D01*
X184613967Y-111874501D01*
X184246035Y-111874501D01*
X184246034Y-111874501D01*
X184069597Y-111889937D01*
X184069587Y-111889939D01*
X183841345Y-111951095D01*
X183841336Y-111951099D01*
X183627172Y-112050965D01*
X183627170Y-112050966D01*
X183433598Y-112186506D01*
X183266507Y-112353598D01*
X183266502Y-112353605D01*
X183130968Y-112547166D01*
X183130966Y-112547170D01*
X183031099Y-112761336D01*
X183031095Y-112761345D01*
X182969939Y-112989587D01*
X182969937Y-112989597D01*
X182949342Y-113225000D01*
X182949342Y-113225001D01*
X175750660Y-113225001D01*
X175730064Y-112989593D01*
X175668904Y-112761338D01*
X175569036Y-112547172D01*
X175569035Y-112547170D01*
X175433495Y-112353598D01*
X175266403Y-112186506D01*
X175072831Y-112050966D01*
X175072829Y-112050965D01*
X174965747Y-112001032D01*
X174858664Y-111951098D01*
X174858660Y-111951097D01*
X174858656Y-111951095D01*
X174630414Y-111889939D01*
X174630404Y-111889937D01*
X174453968Y-111874501D01*
X174453967Y-111874501D01*
X174086035Y-111874501D01*
X174086034Y-111874501D01*
X173909597Y-111889937D01*
X173909587Y-111889939D01*
X173681345Y-111951095D01*
X173681336Y-111951099D01*
X173467172Y-112050965D01*
X173467170Y-112050966D01*
X173273598Y-112186506D01*
X173106507Y-112353598D01*
X173106502Y-112353605D01*
X172970968Y-112547166D01*
X172970966Y-112547170D01*
X172871099Y-112761336D01*
X172871095Y-112761345D01*
X172809939Y-112989587D01*
X172809937Y-112989597D01*
X172789342Y-113225000D01*
X172789342Y-113225001D01*
X165590660Y-113225001D01*
X165570064Y-112989593D01*
X165508904Y-112761338D01*
X165409036Y-112547172D01*
X165409035Y-112547170D01*
X165273495Y-112353598D01*
X165106403Y-112186506D01*
X164912831Y-112050966D01*
X164912829Y-112050965D01*
X164805747Y-112001032D01*
X164698664Y-111951098D01*
X164698660Y-111951097D01*
X164698656Y-111951095D01*
X164470414Y-111889939D01*
X164470404Y-111889937D01*
X164293968Y-111874501D01*
X164293967Y-111874501D01*
X163926035Y-111874501D01*
X163926034Y-111874501D01*
X163749597Y-111889937D01*
X163749587Y-111889939D01*
X163521345Y-111951095D01*
X163521336Y-111951099D01*
X163307172Y-112050965D01*
X163307170Y-112050966D01*
X163113598Y-112186506D01*
X162946507Y-112353598D01*
X162946502Y-112353605D01*
X162810968Y-112547166D01*
X162810966Y-112547170D01*
X162711099Y-112761336D01*
X162711095Y-112761345D01*
X162649939Y-112989587D01*
X162649937Y-112989597D01*
X162629342Y-113225000D01*
X162629342Y-113225001D01*
X155430660Y-113225001D01*
X155410064Y-112989593D01*
X155348904Y-112761338D01*
X155249036Y-112547172D01*
X155249035Y-112547170D01*
X155113495Y-112353598D01*
X154946403Y-112186506D01*
X154752831Y-112050966D01*
X154752829Y-112050965D01*
X154645747Y-112001032D01*
X154538664Y-111951098D01*
X154538660Y-111951097D01*
X154538656Y-111951095D01*
X154310414Y-111889939D01*
X154310404Y-111889937D01*
X154133968Y-111874501D01*
X154133967Y-111874501D01*
X153766035Y-111874501D01*
X153766034Y-111874501D01*
X153589597Y-111889937D01*
X153589587Y-111889939D01*
X153361345Y-111951095D01*
X153361336Y-111951099D01*
X153147172Y-112050965D01*
X153147170Y-112050966D01*
X152953598Y-112186506D01*
X152786507Y-112353598D01*
X152786502Y-112353605D01*
X152650968Y-112547166D01*
X152650966Y-112547170D01*
X152551099Y-112761336D01*
X152551095Y-112761345D01*
X152489939Y-112989587D01*
X152489937Y-112989597D01*
X152469342Y-113225000D01*
X152469342Y-113225001D01*
X145270660Y-113225001D01*
X145250064Y-112989593D01*
X145188904Y-112761338D01*
X145089036Y-112547172D01*
X145089035Y-112547170D01*
X144953495Y-112353598D01*
X144786403Y-112186506D01*
X144592831Y-112050966D01*
X144592829Y-112050965D01*
X144485747Y-112001032D01*
X144378664Y-111951098D01*
X144378660Y-111951097D01*
X144378656Y-111951095D01*
X144150414Y-111889939D01*
X144150404Y-111889937D01*
X143973968Y-111874501D01*
X143973967Y-111874501D01*
X143606035Y-111874501D01*
X143606034Y-111874501D01*
X143429597Y-111889937D01*
X143429587Y-111889939D01*
X143201345Y-111951095D01*
X143201336Y-111951099D01*
X142987172Y-112050965D01*
X142987170Y-112050966D01*
X142793598Y-112186506D01*
X142626507Y-112353598D01*
X142626502Y-112353605D01*
X142490968Y-112547166D01*
X142490966Y-112547170D01*
X142391099Y-112761336D01*
X142391095Y-112761345D01*
X142329939Y-112989587D01*
X142329937Y-112989597D01*
X142309342Y-113225000D01*
X142309342Y-113225001D01*
X135110660Y-113225001D01*
X135090064Y-112989593D01*
X135028904Y-112761338D01*
X134929036Y-112547172D01*
X134929035Y-112547170D01*
X134793495Y-112353598D01*
X134626403Y-112186506D01*
X134432831Y-112050966D01*
X134432829Y-112050965D01*
X134325747Y-112001032D01*
X134218664Y-111951098D01*
X134218660Y-111951097D01*
X134218656Y-111951095D01*
X133990414Y-111889939D01*
X133990404Y-111889937D01*
X133813968Y-111874501D01*
X133813967Y-111874501D01*
X133446035Y-111874501D01*
X133446034Y-111874501D01*
X133269597Y-111889937D01*
X133269587Y-111889939D01*
X133041345Y-111951095D01*
X133041336Y-111951099D01*
X132827172Y-112050965D01*
X132827170Y-112050966D01*
X132633598Y-112186506D01*
X132466507Y-112353598D01*
X132466502Y-112353605D01*
X132330968Y-112547166D01*
X132330966Y-112547170D01*
X132231099Y-112761336D01*
X132231095Y-112761345D01*
X132169939Y-112989587D01*
X132169937Y-112989597D01*
X132149342Y-113225000D01*
X132149342Y-113225001D01*
X125210501Y-113225001D01*
X125210501Y-98687904D01*
X187805794Y-98687904D01*
X187815673Y-98995971D01*
X187815673Y-98995976D01*
X187815674Y-98995979D01*
X187864868Y-99300262D01*
X187909138Y-99449420D01*
X187952572Y-99595764D01*
X188077334Y-99877602D01*
X188077338Y-99877610D01*
X188237124Y-100141194D01*
X188237128Y-100141199D01*
X188237134Y-100141208D01*
X188429298Y-100382175D01*
X188429300Y-100382177D01*
X188429304Y-100382181D01*
X188429305Y-100382182D01*
X188650725Y-100596615D01*
X188817863Y-100721353D01*
X188897742Y-100780969D01*
X188897744Y-100780970D01*
X188897748Y-100780973D01*
X189166319Y-100932229D01*
X189307058Y-100989208D01*
X189452019Y-101047898D01*
X189452024Y-101047899D01*
X189452026Y-101047900D01*
X189750180Y-101126085D01*
X190055884Y-101165501D01*
X190055891Y-101165501D01*
X190286972Y-101165501D01*
X190286975Y-101165501D01*
X190286979Y-101165500D01*
X190286997Y-101165500D01*
X190389701Y-101158905D01*
X190517602Y-101150694D01*
X190820152Y-101091773D01*
X191112684Y-100994645D01*
X191112690Y-100994641D01*
X191112694Y-100994641D01*
X191303572Y-100902718D01*
X191390394Y-100860908D01*
X191648721Y-100692755D01*
X191883425Y-100492949D01*
X192090651Y-100264770D01*
X192266997Y-100011964D01*
X192409568Y-99738684D01*
X192516021Y-99449416D01*
X192584610Y-99148909D01*
X192614207Y-98842099D01*
X192604328Y-98534023D01*
X192555134Y-98229740D01*
X192467432Y-97934245D01*
X192467430Y-97934240D01*
X192467429Y-97934237D01*
X192342667Y-97652399D01*
X192342664Y-97652392D01*
X192182878Y-97388808D01*
X192182871Y-97388800D01*
X192182867Y-97388793D01*
X191990703Y-97147826D01*
X191990701Y-97147824D01*
X191769280Y-96933390D01*
X191769277Y-96933387D01*
X191640451Y-96837242D01*
X191522259Y-96749032D01*
X191522254Y-96749029D01*
X191253683Y-96597773D01*
X191216384Y-96582672D01*
X190967982Y-96482103D01*
X190800661Y-96438227D01*
X190669822Y-96403917D01*
X190364118Y-96364501D01*
X190133027Y-96364501D01*
X190133004Y-96364501D01*
X189902407Y-96379307D01*
X189902390Y-96379309D01*
X189599855Y-96438227D01*
X189599850Y-96438229D01*
X189307311Y-96535359D01*
X189307307Y-96535360D01*
X189029614Y-96669090D01*
X189029606Y-96669095D01*
X188771287Y-96837242D01*
X188771277Y-96837249D01*
X188536582Y-97037047D01*
X188536572Y-97037057D01*
X188329355Y-97265226D01*
X188329351Y-97265230D01*
X188153006Y-97518034D01*
X188153004Y-97518038D01*
X188010433Y-97791320D01*
X188010430Y-97791327D01*
X187903982Y-98080581D01*
X187903980Y-98080591D01*
X187835392Y-98381090D01*
X187805795Y-98687903D01*
X187805794Y-98687904D01*
X125210501Y-98687904D01*
X125210501Y-90375001D01*
X152569142Y-90375001D01*
X152589737Y-90610404D01*
X152589739Y-90610414D01*
X152650895Y-90838656D01*
X152650897Y-90838660D01*
X152650898Y-90838664D01*
X152654801Y-90847033D01*
X152750766Y-91052831D01*
X152750768Y-91052835D01*
X152859082Y-91207522D01*
X152886306Y-91246402D01*
X153053400Y-91413496D01*
X153150185Y-91481266D01*
X153246966Y-91549033D01*
X153246968Y-91549034D01*
X153246971Y-91549036D01*
X153461138Y-91648904D01*
X153689393Y-91710064D01*
X153877719Y-91726540D01*
X153924800Y-91730660D01*
X153924801Y-91730660D01*
X153924802Y-91730660D01*
X153964035Y-91727227D01*
X154160209Y-91710064D01*
X154388464Y-91648904D01*
X154602631Y-91549036D01*
X154796202Y-91413496D01*
X154963296Y-91246402D01*
X155093226Y-91060843D01*
X155147803Y-91017218D01*
X155217301Y-91010024D01*
X155279656Y-91041547D01*
X155296376Y-91060843D01*
X155426301Y-91246396D01*
X155426306Y-91246402D01*
X155593400Y-91413496D01*
X155690185Y-91481266D01*
X155786966Y-91549033D01*
X155786968Y-91549034D01*
X155786971Y-91549036D01*
X156001138Y-91648904D01*
X156229393Y-91710064D01*
X156417719Y-91726540D01*
X156464800Y-91730660D01*
X156464801Y-91730660D01*
X156464802Y-91730660D01*
X156504035Y-91727227D01*
X156700209Y-91710064D01*
X156928464Y-91648904D01*
X157142631Y-91549036D01*
X157336202Y-91413496D01*
X157503296Y-91246402D01*
X157638836Y-91052831D01*
X157738704Y-90838664D01*
X157799864Y-90610409D01*
X157820460Y-90375002D01*
X172939333Y-90375002D01*
X172959165Y-90601687D01*
X172959167Y-90601698D01*
X173018059Y-90821489D01*
X173018062Y-90821498D01*
X173114232Y-91027733D01*
X173114233Y-91027735D01*
X173244755Y-91214142D01*
X173405659Y-91375046D01*
X173405662Y-91375048D01*
X173592067Y-91505569D01*
X173798305Y-91601740D01*
X174018109Y-91660636D01*
X174180031Y-91674802D01*
X174244799Y-91680469D01*
X174244801Y-91680469D01*
X174244803Y-91680469D01*
X174301474Y-91675510D01*
X174471493Y-91660636D01*
X174691297Y-91601740D01*
X174897535Y-91505569D01*
X175083940Y-91375048D01*
X175244848Y-91214140D01*
X175375369Y-91027735D01*
X175471540Y-90821497D01*
X175530436Y-90601693D01*
X175550269Y-90375002D01*
X183099333Y-90375002D01*
X183119165Y-90601687D01*
X183119167Y-90601698D01*
X183178059Y-90821489D01*
X183178062Y-90821498D01*
X183274232Y-91027733D01*
X183274233Y-91027735D01*
X183404755Y-91214142D01*
X183565659Y-91375046D01*
X183565662Y-91375048D01*
X183752067Y-91505569D01*
X183958305Y-91601740D01*
X184178109Y-91660636D01*
X184340031Y-91674802D01*
X184404799Y-91680469D01*
X184404801Y-91680469D01*
X184404803Y-91680469D01*
X184461474Y-91675510D01*
X184631493Y-91660636D01*
X184851297Y-91601740D01*
X185057535Y-91505569D01*
X185243940Y-91375048D01*
X185404848Y-91214140D01*
X185535369Y-91027735D01*
X185631540Y-90821497D01*
X185690436Y-90601693D01*
X185710269Y-90375001D01*
X185690436Y-90148309D01*
X185631540Y-89928505D01*
X185535369Y-89722267D01*
X185404848Y-89535862D01*
X185404846Y-89535859D01*
X185243942Y-89374955D01*
X185057535Y-89244433D01*
X185057533Y-89244432D01*
X184851298Y-89148262D01*
X184851289Y-89148259D01*
X184631498Y-89089367D01*
X184631494Y-89089366D01*
X184631493Y-89089366D01*
X184631492Y-89089365D01*
X184631487Y-89089365D01*
X184404803Y-89069533D01*
X184404799Y-89069533D01*
X184178114Y-89089365D01*
X184178103Y-89089367D01*
X183958312Y-89148259D01*
X183958303Y-89148262D01*
X183752068Y-89244432D01*
X183752066Y-89244433D01*
X183565659Y-89374955D01*
X183404755Y-89535859D01*
X183274233Y-89722266D01*
X183274232Y-89722268D01*
X183178062Y-89928503D01*
X183178059Y-89928512D01*
X183119167Y-90148303D01*
X183119165Y-90148314D01*
X183099333Y-90374999D01*
X183099333Y-90375002D01*
X175550269Y-90375002D01*
X175550269Y-90375001D01*
X175530436Y-90148309D01*
X175471540Y-89928505D01*
X175375369Y-89722267D01*
X175244848Y-89535862D01*
X175244846Y-89535859D01*
X175083942Y-89374955D01*
X174897535Y-89244433D01*
X174897533Y-89244432D01*
X174691298Y-89148262D01*
X174691289Y-89148259D01*
X174471498Y-89089367D01*
X174471494Y-89089366D01*
X174471493Y-89089366D01*
X174471492Y-89089365D01*
X174471487Y-89089365D01*
X174244803Y-89069533D01*
X174244799Y-89069533D01*
X174018114Y-89089365D01*
X174018103Y-89089367D01*
X173798312Y-89148259D01*
X173798303Y-89148262D01*
X173592068Y-89244432D01*
X173592066Y-89244433D01*
X173405659Y-89374955D01*
X173244755Y-89535859D01*
X173114233Y-89722266D01*
X173114232Y-89722268D01*
X173018062Y-89928503D01*
X173018059Y-89928512D01*
X172959167Y-90148303D01*
X172959165Y-90148314D01*
X172939333Y-90374999D01*
X172939333Y-90375002D01*
X157820460Y-90375002D01*
X157820460Y-90375001D01*
X157799864Y-90139593D01*
X157738704Y-89911338D01*
X157638836Y-89697172D01*
X157633226Y-89689159D01*
X157503295Y-89503598D01*
X157336203Y-89336507D01*
X157336197Y-89336502D01*
X157150643Y-89206576D01*
X157107018Y-89151999D01*
X157099824Y-89082501D01*
X157131347Y-89020146D01*
X157150643Y-89003426D01*
X157172827Y-88987892D01*
X157336202Y-88873496D01*
X157503296Y-88706402D01*
X157638836Y-88512831D01*
X157738704Y-88298664D01*
X157799864Y-88070409D01*
X157820460Y-87835001D01*
X157799864Y-87599593D01*
X157738704Y-87371338D01*
X157638836Y-87157172D01*
X157633226Y-87149159D01*
X157503295Y-86963598D01*
X157336203Y-86796507D01*
X157336196Y-86796502D01*
X157142635Y-86660968D01*
X157142631Y-86660966D01*
X157120530Y-86650660D01*
X156928464Y-86561098D01*
X156928460Y-86561097D01*
X156928456Y-86561095D01*
X156700214Y-86499939D01*
X156700204Y-86499937D01*
X156464802Y-86479342D01*
X156464800Y-86479342D01*
X156229397Y-86499937D01*
X156229387Y-86499939D01*
X156001145Y-86561095D01*
X156001136Y-86561099D01*
X155786972Y-86660965D01*
X155786970Y-86660966D01*
X155593398Y-86796506D01*
X155426306Y-86963598D01*
X155296376Y-87149159D01*
X155241799Y-87192784D01*
X155172301Y-87199978D01*
X155109946Y-87168455D01*
X155093226Y-87149159D01*
X154963295Y-86963598D01*
X154796203Y-86796507D01*
X154796196Y-86796502D01*
X154602635Y-86660968D01*
X154602631Y-86660966D01*
X154580530Y-86650660D01*
X154388464Y-86561098D01*
X154388460Y-86561097D01*
X154388456Y-86561095D01*
X154160214Y-86499939D01*
X154160204Y-86499937D01*
X153924802Y-86479342D01*
X153924800Y-86479342D01*
X153689397Y-86499937D01*
X153689387Y-86499939D01*
X153461145Y-86561095D01*
X153461136Y-86561099D01*
X153246972Y-86660965D01*
X153246970Y-86660966D01*
X153053398Y-86796506D01*
X152886306Y-86963598D01*
X152750766Y-87157170D01*
X152750765Y-87157172D01*
X152650899Y-87371336D01*
X152650895Y-87371345D01*
X152589739Y-87599587D01*
X152589737Y-87599597D01*
X152569142Y-87835000D01*
X152569142Y-87835001D01*
X152589737Y-88070404D01*
X152589739Y-88070414D01*
X152650895Y-88298656D01*
X152650897Y-88298660D01*
X152650898Y-88298664D01*
X152654801Y-88307033D01*
X152750766Y-88512831D01*
X152750768Y-88512835D01*
X152859082Y-88667522D01*
X152886302Y-88706397D01*
X152886307Y-88706403D01*
X153053398Y-88873494D01*
X153053404Y-88873499D01*
X153238959Y-89003426D01*
X153282584Y-89058003D01*
X153289778Y-89127501D01*
X153258255Y-89189856D01*
X153238959Y-89206576D01*
X153053398Y-89336506D01*
X152886306Y-89503598D01*
X152750766Y-89697170D01*
X152750765Y-89697172D01*
X152650899Y-89911336D01*
X152650895Y-89911345D01*
X152589739Y-90139587D01*
X152589737Y-90139597D01*
X152569142Y-90375000D01*
X152569142Y-90375001D01*
X125210501Y-90375001D01*
X125210501Y-85295001D01*
X170359142Y-85295001D01*
X170379737Y-85530404D01*
X170379739Y-85530414D01*
X170440895Y-85758656D01*
X170440897Y-85758660D01*
X170440898Y-85758664D01*
X170444801Y-85767033D01*
X170540766Y-85972831D01*
X170540768Y-85972835D01*
X170649082Y-86127522D01*
X170676306Y-86166402D01*
X170843400Y-86333496D01*
X170940185Y-86401266D01*
X171036966Y-86469033D01*
X171036968Y-86469034D01*
X171036971Y-86469036D01*
X171251138Y-86568904D01*
X171479393Y-86630064D01*
X171667719Y-86646540D01*
X171714800Y-86650660D01*
X171714801Y-86650660D01*
X171714802Y-86650660D01*
X171754035Y-86647227D01*
X171950209Y-86630064D01*
X172178464Y-86568904D01*
X172392631Y-86469036D01*
X172586202Y-86333496D01*
X172753296Y-86166402D01*
X172883226Y-85980843D01*
X172937803Y-85937218D01*
X173007301Y-85930024D01*
X173069656Y-85961547D01*
X173086376Y-85980843D01*
X173216301Y-86166396D01*
X173216306Y-86166402D01*
X173383400Y-86333496D01*
X173480185Y-86401266D01*
X173576966Y-86469033D01*
X173576968Y-86469034D01*
X173576971Y-86469036D01*
X173791138Y-86568904D01*
X174019393Y-86630064D01*
X174207719Y-86646540D01*
X174254800Y-86650660D01*
X174254801Y-86650660D01*
X174254802Y-86650660D01*
X174294035Y-86647227D01*
X174490209Y-86630064D01*
X174718464Y-86568904D01*
X174932631Y-86469036D01*
X175126202Y-86333496D01*
X175293296Y-86166402D01*
X175423226Y-85980843D01*
X175477803Y-85937218D01*
X175547301Y-85930024D01*
X175609656Y-85961547D01*
X175626376Y-85980843D01*
X175756301Y-86166396D01*
X175756306Y-86166402D01*
X175923400Y-86333496D01*
X176020185Y-86401266D01*
X176116966Y-86469033D01*
X176116968Y-86469034D01*
X176116971Y-86469036D01*
X176331138Y-86568904D01*
X176559393Y-86630064D01*
X176747719Y-86646540D01*
X176794800Y-86650660D01*
X176794801Y-86650660D01*
X176794802Y-86650660D01*
X176834035Y-86647227D01*
X177030209Y-86630064D01*
X177258464Y-86568904D01*
X177472631Y-86469036D01*
X177666202Y-86333496D01*
X177833296Y-86166402D01*
X177963226Y-85980843D01*
X178017803Y-85937218D01*
X178087301Y-85930024D01*
X178149656Y-85961547D01*
X178166376Y-85980843D01*
X178296301Y-86166396D01*
X178296306Y-86166402D01*
X178463400Y-86333496D01*
X178560185Y-86401266D01*
X178656966Y-86469033D01*
X178656968Y-86469034D01*
X178656971Y-86469036D01*
X178871138Y-86568904D01*
X179099393Y-86630064D01*
X179287719Y-86646540D01*
X179334800Y-86650660D01*
X179334801Y-86650660D01*
X179334802Y-86650660D01*
X179374035Y-86647227D01*
X179570209Y-86630064D01*
X179798464Y-86568904D01*
X180012631Y-86469036D01*
X180206202Y-86333496D01*
X180373296Y-86166402D01*
X180503226Y-85980843D01*
X180557803Y-85937218D01*
X180627301Y-85930024D01*
X180689656Y-85961547D01*
X180706376Y-85980843D01*
X180836301Y-86166396D01*
X180836306Y-86166402D01*
X181003400Y-86333496D01*
X181100185Y-86401266D01*
X181196966Y-86469033D01*
X181196968Y-86469034D01*
X181196971Y-86469036D01*
X181411138Y-86568904D01*
X181639393Y-86630064D01*
X181827719Y-86646540D01*
X181874800Y-86650660D01*
X181874801Y-86650660D01*
X181874802Y-86650660D01*
X181914035Y-86647227D01*
X182110209Y-86630064D01*
X182338464Y-86568904D01*
X182552631Y-86469036D01*
X182746202Y-86333496D01*
X182913296Y-86166402D01*
X183043226Y-85980843D01*
X183097803Y-85937218D01*
X183167301Y-85930024D01*
X183229656Y-85961547D01*
X183246376Y-85980843D01*
X183376301Y-86166396D01*
X183376306Y-86166402D01*
X183543400Y-86333496D01*
X183640185Y-86401266D01*
X183736966Y-86469033D01*
X183736968Y-86469034D01*
X183736971Y-86469036D01*
X183951138Y-86568904D01*
X184179393Y-86630064D01*
X184367719Y-86646540D01*
X184414800Y-86650660D01*
X184414801Y-86650660D01*
X184414802Y-86650660D01*
X184454035Y-86647227D01*
X184650209Y-86630064D01*
X184878464Y-86568904D01*
X185092631Y-86469036D01*
X185286202Y-86333496D01*
X185453296Y-86166402D01*
X185588836Y-85972831D01*
X185688704Y-85758664D01*
X185749864Y-85530409D01*
X185770460Y-85295001D01*
X185749864Y-85059593D01*
X185703427Y-84886286D01*
X185688706Y-84831345D01*
X185688705Y-84831344D01*
X185688704Y-84831338D01*
X185588836Y-84617172D01*
X185583225Y-84609159D01*
X185453297Y-84423601D01*
X185453294Y-84423598D01*
X185331368Y-84301672D01*
X185297885Y-84240352D01*
X185302869Y-84170660D01*
X185344740Y-84114726D01*
X185375716Y-84097811D01*
X185507132Y-84048797D01*
X185622347Y-83962547D01*
X185708597Y-83847332D01*
X185758892Y-83712484D01*
X185765301Y-83652874D01*
X185765300Y-81857129D01*
X185758892Y-81797518D01*
X185757611Y-81794084D01*
X185708598Y-81662672D01*
X185708594Y-81662665D01*
X185622348Y-81547456D01*
X185622345Y-81547453D01*
X185507136Y-81461207D01*
X185507129Y-81461203D01*
X185372283Y-81410909D01*
X185372284Y-81410909D01*
X185312684Y-81404502D01*
X185312682Y-81404501D01*
X185312674Y-81404501D01*
X185312665Y-81404501D01*
X183516930Y-81404501D01*
X183516924Y-81404502D01*
X183457317Y-81410909D01*
X183322472Y-81461203D01*
X183322465Y-81461207D01*
X183207256Y-81547453D01*
X183207253Y-81547456D01*
X183121007Y-81662665D01*
X183121004Y-81662670D01*
X183071990Y-81794084D01*
X183030118Y-81850017D01*
X182964654Y-81874434D01*
X182896381Y-81859582D01*
X182868127Y-81838431D01*
X182746203Y-81716507D01*
X182746196Y-81716502D01*
X182552635Y-81580968D01*
X182552631Y-81580966D01*
X182552629Y-81580965D01*
X182338464Y-81481098D01*
X182338460Y-81481097D01*
X182338456Y-81481095D01*
X182110214Y-81419939D01*
X182110204Y-81419937D01*
X181874802Y-81399342D01*
X181874800Y-81399342D01*
X181639397Y-81419937D01*
X181639387Y-81419939D01*
X181411145Y-81481095D01*
X181411136Y-81481099D01*
X181196972Y-81580965D01*
X181196970Y-81580966D01*
X181003398Y-81716506D01*
X180836306Y-81883598D01*
X180706376Y-82069159D01*
X180651799Y-82112784D01*
X180582301Y-82119978D01*
X180519946Y-82088455D01*
X180503226Y-82069159D01*
X180373295Y-81883598D01*
X180206203Y-81716507D01*
X180206196Y-81716502D01*
X180012635Y-81580968D01*
X180012631Y-81580966D01*
X180012629Y-81580965D01*
X179798464Y-81481098D01*
X179798460Y-81481097D01*
X179798456Y-81481095D01*
X179570214Y-81419939D01*
X179570204Y-81419937D01*
X179334802Y-81399342D01*
X179334800Y-81399342D01*
X179099397Y-81419937D01*
X179099387Y-81419939D01*
X178871145Y-81481095D01*
X178871136Y-81481099D01*
X178656972Y-81580965D01*
X178656970Y-81580966D01*
X178463398Y-81716506D01*
X178296306Y-81883598D01*
X178166376Y-82069159D01*
X178111799Y-82112784D01*
X178042301Y-82119978D01*
X177979946Y-82088455D01*
X177963226Y-82069159D01*
X177833295Y-81883598D01*
X177666203Y-81716507D01*
X177666196Y-81716502D01*
X177472635Y-81580968D01*
X177472631Y-81580966D01*
X177472629Y-81580965D01*
X177258464Y-81481098D01*
X177258460Y-81481097D01*
X177258456Y-81481095D01*
X177030214Y-81419939D01*
X177030204Y-81419937D01*
X176794802Y-81399342D01*
X176794800Y-81399342D01*
X176559397Y-81419937D01*
X176559387Y-81419939D01*
X176331145Y-81481095D01*
X176331136Y-81481099D01*
X176116972Y-81580965D01*
X176116970Y-81580966D01*
X175923398Y-81716506D01*
X175756306Y-81883598D01*
X175626376Y-82069159D01*
X175571799Y-82112784D01*
X175502301Y-82119978D01*
X175439946Y-82088455D01*
X175423226Y-82069159D01*
X175293295Y-81883598D01*
X175126203Y-81716507D01*
X175126196Y-81716502D01*
X174932635Y-81580968D01*
X174932631Y-81580966D01*
X174932629Y-81580965D01*
X174718464Y-81481098D01*
X174718460Y-81481097D01*
X174718456Y-81481095D01*
X174490214Y-81419939D01*
X174490204Y-81419937D01*
X174254802Y-81399342D01*
X174254800Y-81399342D01*
X174019397Y-81419937D01*
X174019387Y-81419939D01*
X173791145Y-81481095D01*
X173791136Y-81481099D01*
X173576972Y-81580965D01*
X173576970Y-81580966D01*
X173383398Y-81716506D01*
X173216306Y-81883598D01*
X173086376Y-82069159D01*
X173031799Y-82112784D01*
X172962301Y-82119978D01*
X172899946Y-82088455D01*
X172883226Y-82069159D01*
X172753295Y-81883598D01*
X172586203Y-81716507D01*
X172586196Y-81716502D01*
X172392635Y-81580968D01*
X172392631Y-81580966D01*
X172392629Y-81580965D01*
X172178464Y-81481098D01*
X172178460Y-81481097D01*
X172178456Y-81481095D01*
X171950214Y-81419939D01*
X171950204Y-81419937D01*
X171714802Y-81399342D01*
X171714800Y-81399342D01*
X171479397Y-81419937D01*
X171479387Y-81419939D01*
X171251145Y-81481095D01*
X171251136Y-81481099D01*
X171036972Y-81580965D01*
X171036970Y-81580966D01*
X170843398Y-81716506D01*
X170676306Y-81883598D01*
X170540766Y-82077170D01*
X170540765Y-82077172D01*
X170440899Y-82291336D01*
X170440895Y-82291345D01*
X170379739Y-82519587D01*
X170379737Y-82519597D01*
X170359142Y-82755000D01*
X170359142Y-82755001D01*
X170379737Y-82990404D01*
X170379739Y-82990414D01*
X170440895Y-83218656D01*
X170440897Y-83218660D01*
X170440898Y-83218664D01*
X170520805Y-83390024D01*
X170540766Y-83432831D01*
X170540768Y-83432835D01*
X170645785Y-83582813D01*
X170676302Y-83626397D01*
X170676307Y-83626403D01*
X170843398Y-83793494D01*
X170843404Y-83793499D01*
X171028959Y-83923426D01*
X171072584Y-83978003D01*
X171079778Y-84047501D01*
X171048255Y-84109856D01*
X171028959Y-84126576D01*
X170843398Y-84256506D01*
X170676306Y-84423598D01*
X170540766Y-84617170D01*
X170540765Y-84617172D01*
X170440899Y-84831336D01*
X170440895Y-84831345D01*
X170379739Y-85059587D01*
X170379737Y-85059597D01*
X170359142Y-85295000D01*
X170359142Y-85295001D01*
X125210501Y-85295001D01*
X125210501Y-83335006D01*
X138299158Y-83335006D01*
X138319691Y-83582813D01*
X138319693Y-83582825D01*
X138380737Y-83823882D01*
X138480627Y-84051607D01*
X138616634Y-84259783D01*
X138616637Y-84259786D01*
X138785057Y-84442739D01*
X138981292Y-84595475D01*
X139199991Y-84713829D01*
X139435187Y-84794572D01*
X139680466Y-84835501D01*
X139929136Y-84835501D01*
X140174415Y-84794572D01*
X140409611Y-84713829D01*
X140628310Y-84595475D01*
X140824545Y-84442739D01*
X140992965Y-84259786D01*
X141128974Y-84051608D01*
X141228864Y-83823882D01*
X141289909Y-83582822D01*
X141301674Y-83440843D01*
X141310444Y-83335006D01*
X144799158Y-83335006D01*
X144819691Y-83582813D01*
X144819693Y-83582825D01*
X144880737Y-83823882D01*
X144980627Y-84051607D01*
X145116634Y-84259783D01*
X145116637Y-84259786D01*
X145285057Y-84442739D01*
X145481292Y-84595475D01*
X145699991Y-84713829D01*
X145935187Y-84794572D01*
X146180466Y-84835501D01*
X146429136Y-84835501D01*
X146674415Y-84794572D01*
X146909611Y-84713829D01*
X147128310Y-84595475D01*
X147324545Y-84442739D01*
X147492965Y-84259786D01*
X147628974Y-84051608D01*
X147728864Y-83823882D01*
X147789909Y-83582822D01*
X147801674Y-83440843D01*
X147810444Y-83335006D01*
X147810444Y-83334995D01*
X147789910Y-83087188D01*
X147789908Y-83087176D01*
X147728864Y-82846119D01*
X147628974Y-82618394D01*
X147492967Y-82410218D01*
X147471358Y-82386745D01*
X147324545Y-82227263D01*
X147128310Y-82074527D01*
X147128308Y-82074526D01*
X147128307Y-82074525D01*
X146909612Y-81956173D01*
X146909603Y-81956170D01*
X146674417Y-81875430D01*
X146429136Y-81834501D01*
X146180466Y-81834501D01*
X145935184Y-81875430D01*
X145699998Y-81956170D01*
X145699989Y-81956173D01*
X145481294Y-82074525D01*
X145285058Y-82227262D01*
X145116634Y-82410218D01*
X144980627Y-82618394D01*
X144880737Y-82846119D01*
X144819693Y-83087176D01*
X144819691Y-83087188D01*
X144799158Y-83334995D01*
X144799158Y-83335006D01*
X141310444Y-83335006D01*
X141310444Y-83334995D01*
X141289910Y-83087188D01*
X141289908Y-83087176D01*
X141228864Y-82846119D01*
X141128974Y-82618394D01*
X140992967Y-82410218D01*
X140971358Y-82386745D01*
X140824545Y-82227263D01*
X140628310Y-82074527D01*
X140628308Y-82074526D01*
X140628307Y-82074525D01*
X140409612Y-81956173D01*
X140409603Y-81956170D01*
X140174417Y-81875430D01*
X139929136Y-81834501D01*
X139680466Y-81834501D01*
X139435184Y-81875430D01*
X139199998Y-81956170D01*
X139199989Y-81956173D01*
X138981294Y-82074525D01*
X138785058Y-82227262D01*
X138616634Y-82410218D01*
X138480627Y-82618394D01*
X138380737Y-82846119D01*
X138319693Y-83087176D01*
X138319691Y-83087188D01*
X138299158Y-83334995D01*
X138299158Y-83335006D01*
X125210501Y-83335006D01*
X125210501Y-77765001D01*
X130154342Y-77765001D01*
X130174937Y-78000404D01*
X130174939Y-78000414D01*
X130236095Y-78228656D01*
X130236097Y-78228660D01*
X130236098Y-78228664D01*
X130281704Y-78326466D01*
X130335965Y-78442829D01*
X130335966Y-78442831D01*
X130471506Y-78636403D01*
X130638598Y-78803495D01*
X130832170Y-78939035D01*
X130832172Y-78939036D01*
X131046338Y-79038904D01*
X131274593Y-79100064D01*
X131451033Y-79115500D01*
X131451034Y-79115501D01*
X131451035Y-79115501D01*
X131568968Y-79115501D01*
X131568968Y-79115500D01*
X131745409Y-79100064D01*
X131973664Y-79038904D01*
X132187830Y-78939036D01*
X132381402Y-78803496D01*
X132548496Y-78636402D01*
X132684036Y-78442831D01*
X132783904Y-78228664D01*
X132845064Y-78000409D01*
X132865660Y-77765001D01*
X132857786Y-77675007D01*
X150026026Y-77675007D01*
X150044693Y-77900290D01*
X150100189Y-78119440D01*
X150190999Y-78326467D01*
X150314643Y-78515717D01*
X150314651Y-78515728D01*
X150467751Y-78682037D01*
X150467755Y-78682041D01*
X150646152Y-78820894D01*
X150844970Y-78928489D01*
X150844973Y-78928490D01*
X151058783Y-79001891D01*
X151058785Y-79001891D01*
X151058787Y-79001892D01*
X151281768Y-79039101D01*
X151281769Y-79039101D01*
X151507833Y-79039101D01*
X151507834Y-79039101D01*
X151730815Y-79001892D01*
X151944632Y-78928489D01*
X152143450Y-78820894D01*
X152321847Y-78682041D01*
X152474957Y-78515720D01*
X152560994Y-78384029D01*
X152614139Y-78338676D01*
X152683370Y-78329252D01*
X152746706Y-78358754D01*
X152768605Y-78384026D01*
X152854645Y-78515720D01*
X152854650Y-78515725D01*
X152854651Y-78515728D01*
X153007751Y-78682037D01*
X153007755Y-78682041D01*
X153186152Y-78820894D01*
X153384970Y-78928489D01*
X153384973Y-78928490D01*
X153598783Y-79001891D01*
X153598785Y-79001891D01*
X153598787Y-79001892D01*
X153821768Y-79039101D01*
X153821769Y-79039101D01*
X154047833Y-79039101D01*
X154047834Y-79039101D01*
X154270815Y-79001892D01*
X154484632Y-78928489D01*
X154683450Y-78820894D01*
X154861847Y-78682041D01*
X155014957Y-78515720D01*
X155100994Y-78384029D01*
X155154139Y-78338676D01*
X155223370Y-78329252D01*
X155286706Y-78358754D01*
X155308605Y-78384026D01*
X155394645Y-78515720D01*
X155394650Y-78515725D01*
X155394651Y-78515728D01*
X155547751Y-78682037D01*
X155547755Y-78682041D01*
X155726152Y-78820894D01*
X155924970Y-78928489D01*
X155924973Y-78928490D01*
X156138783Y-79001891D01*
X156138785Y-79001891D01*
X156138787Y-79001892D01*
X156361768Y-79039101D01*
X156361769Y-79039101D01*
X156587833Y-79039101D01*
X156587834Y-79039101D01*
X156810815Y-79001892D01*
X157024632Y-78928489D01*
X157223450Y-78820894D01*
X157401847Y-78682041D01*
X157554957Y-78515720D01*
X157640994Y-78384029D01*
X157694139Y-78338676D01*
X157763370Y-78329252D01*
X157826706Y-78358754D01*
X157848605Y-78384026D01*
X157934645Y-78515720D01*
X157934650Y-78515725D01*
X157934651Y-78515728D01*
X158087751Y-78682037D01*
X158087755Y-78682041D01*
X158266152Y-78820894D01*
X158464970Y-78928489D01*
X158464973Y-78928490D01*
X158678783Y-79001891D01*
X158678785Y-79001891D01*
X158678787Y-79001892D01*
X158901768Y-79039101D01*
X158901769Y-79039101D01*
X159127833Y-79039101D01*
X159127834Y-79039101D01*
X159350815Y-79001892D01*
X159564632Y-78928489D01*
X159763450Y-78820894D01*
X159941847Y-78682041D01*
X160094957Y-78515720D01*
X160180994Y-78384029D01*
X160234139Y-78338676D01*
X160303370Y-78329252D01*
X160366706Y-78358754D01*
X160388605Y-78384026D01*
X160474645Y-78515720D01*
X160474650Y-78515725D01*
X160474651Y-78515728D01*
X160627751Y-78682037D01*
X160627755Y-78682041D01*
X160806152Y-78820894D01*
X161004970Y-78928489D01*
X161004973Y-78928490D01*
X161218783Y-79001891D01*
X161218785Y-79001891D01*
X161218787Y-79001892D01*
X161441768Y-79039101D01*
X161441769Y-79039101D01*
X161667833Y-79039101D01*
X161667834Y-79039101D01*
X161890815Y-79001892D01*
X162104632Y-78928489D01*
X162303450Y-78820894D01*
X162481847Y-78682041D01*
X162634957Y-78515720D01*
X162720994Y-78384029D01*
X162774139Y-78338676D01*
X162843370Y-78329252D01*
X162906706Y-78358754D01*
X162928605Y-78384026D01*
X163014645Y-78515720D01*
X163014650Y-78515725D01*
X163014651Y-78515728D01*
X163167751Y-78682037D01*
X163167755Y-78682041D01*
X163346152Y-78820894D01*
X163544970Y-78928489D01*
X163544973Y-78928490D01*
X163758783Y-79001891D01*
X163758785Y-79001891D01*
X163758787Y-79001892D01*
X163981768Y-79039101D01*
X163981769Y-79039101D01*
X164207833Y-79039101D01*
X164207834Y-79039101D01*
X164430815Y-79001892D01*
X164644632Y-78928489D01*
X164843450Y-78820894D01*
X165021847Y-78682041D01*
X165174957Y-78515720D01*
X165260994Y-78384029D01*
X165314139Y-78338676D01*
X165383370Y-78329252D01*
X165446706Y-78358754D01*
X165468605Y-78384026D01*
X165554645Y-78515720D01*
X165554650Y-78515725D01*
X165554651Y-78515728D01*
X165707751Y-78682037D01*
X165707755Y-78682041D01*
X165886152Y-78820894D01*
X166084970Y-78928489D01*
X166084973Y-78928490D01*
X166298783Y-79001891D01*
X166298785Y-79001891D01*
X166298787Y-79001892D01*
X166521768Y-79039101D01*
X166521769Y-79039101D01*
X166747833Y-79039101D01*
X166747834Y-79039101D01*
X166970815Y-79001892D01*
X167184632Y-78928489D01*
X167383450Y-78820894D01*
X167561847Y-78682041D01*
X167714957Y-78515720D01*
X167800994Y-78384029D01*
X167854139Y-78338676D01*
X167923370Y-78329252D01*
X167986706Y-78358754D01*
X168008605Y-78384026D01*
X168094645Y-78515720D01*
X168094650Y-78515725D01*
X168094651Y-78515728D01*
X168247751Y-78682037D01*
X168247755Y-78682041D01*
X168426152Y-78820894D01*
X168624970Y-78928489D01*
X168624973Y-78928490D01*
X168838783Y-79001891D01*
X168838785Y-79001891D01*
X168838787Y-79001892D01*
X169061768Y-79039101D01*
X169061769Y-79039101D01*
X169287833Y-79039101D01*
X169287834Y-79039101D01*
X169510815Y-79001892D01*
X169724632Y-78928489D01*
X169923450Y-78820894D01*
X170101847Y-78682041D01*
X170254957Y-78515720D01*
X170340994Y-78384029D01*
X170394139Y-78338676D01*
X170463370Y-78329252D01*
X170526706Y-78358754D01*
X170548605Y-78384026D01*
X170634645Y-78515720D01*
X170634650Y-78515725D01*
X170634651Y-78515728D01*
X170787751Y-78682037D01*
X170787755Y-78682041D01*
X170966152Y-78820894D01*
X171164970Y-78928489D01*
X171164973Y-78928490D01*
X171378783Y-79001891D01*
X171378785Y-79001891D01*
X171378787Y-79001892D01*
X171601768Y-79039101D01*
X171601769Y-79039101D01*
X171827833Y-79039101D01*
X171827834Y-79039101D01*
X172050815Y-79001892D01*
X172264632Y-78928489D01*
X172463450Y-78820894D01*
X172641847Y-78682041D01*
X172794957Y-78515720D01*
X172880994Y-78384029D01*
X172934139Y-78338676D01*
X173003370Y-78329252D01*
X173066706Y-78358754D01*
X173088605Y-78384026D01*
X173174645Y-78515720D01*
X173174650Y-78515725D01*
X173174651Y-78515728D01*
X173327751Y-78682037D01*
X173327755Y-78682041D01*
X173506152Y-78820894D01*
X173704970Y-78928489D01*
X173704973Y-78928490D01*
X173918783Y-79001891D01*
X173918785Y-79001891D01*
X173918787Y-79001892D01*
X174141768Y-79039101D01*
X174141769Y-79039101D01*
X174367833Y-79039101D01*
X174367834Y-79039101D01*
X174590815Y-79001892D01*
X174804632Y-78928489D01*
X175003450Y-78820894D01*
X175181847Y-78682041D01*
X175334957Y-78515720D01*
X175420994Y-78384029D01*
X175474139Y-78338676D01*
X175543370Y-78329252D01*
X175606706Y-78358754D01*
X175628605Y-78384026D01*
X175714645Y-78515720D01*
X175714650Y-78515725D01*
X175714651Y-78515728D01*
X175867751Y-78682037D01*
X175867755Y-78682041D01*
X176046152Y-78820894D01*
X176244970Y-78928489D01*
X176244973Y-78928490D01*
X176458783Y-79001891D01*
X176458785Y-79001891D01*
X176458787Y-79001892D01*
X176681768Y-79039101D01*
X176681769Y-79039101D01*
X176907833Y-79039101D01*
X176907834Y-79039101D01*
X177130815Y-79001892D01*
X177344632Y-78928489D01*
X177543450Y-78820894D01*
X177721847Y-78682041D01*
X177874957Y-78515720D01*
X177960994Y-78384029D01*
X178014139Y-78338676D01*
X178083370Y-78329252D01*
X178146706Y-78358754D01*
X178168605Y-78384026D01*
X178254645Y-78515720D01*
X178254650Y-78515725D01*
X178254651Y-78515728D01*
X178407751Y-78682037D01*
X178407755Y-78682041D01*
X178586152Y-78820894D01*
X178784970Y-78928489D01*
X178784973Y-78928490D01*
X178998783Y-79001891D01*
X178998785Y-79001891D01*
X178998787Y-79001892D01*
X179221768Y-79039101D01*
X179221769Y-79039101D01*
X179447833Y-79039101D01*
X179447834Y-79039101D01*
X179670815Y-79001892D01*
X179884632Y-78928489D01*
X180083450Y-78820894D01*
X180261847Y-78682041D01*
X180414957Y-78515720D01*
X180500994Y-78384029D01*
X180554139Y-78338676D01*
X180623370Y-78329252D01*
X180686706Y-78358754D01*
X180708605Y-78384026D01*
X180794645Y-78515720D01*
X180794650Y-78515725D01*
X180794651Y-78515728D01*
X180947751Y-78682037D01*
X180947755Y-78682041D01*
X181126152Y-78820894D01*
X181324970Y-78928489D01*
X181324973Y-78928490D01*
X181538783Y-79001891D01*
X181538785Y-79001891D01*
X181538787Y-79001892D01*
X181761768Y-79039101D01*
X181761769Y-79039101D01*
X181987833Y-79039101D01*
X181987834Y-79039101D01*
X182210815Y-79001892D01*
X182424632Y-78928489D01*
X182623450Y-78820894D01*
X182801847Y-78682041D01*
X182954957Y-78515720D01*
X183040994Y-78384029D01*
X183094139Y-78338676D01*
X183163370Y-78329252D01*
X183226706Y-78358754D01*
X183248605Y-78384026D01*
X183334645Y-78515720D01*
X183334650Y-78515725D01*
X183334651Y-78515728D01*
X183487751Y-78682037D01*
X183487755Y-78682041D01*
X183666152Y-78820894D01*
X183864970Y-78928489D01*
X183864973Y-78928490D01*
X184078783Y-79001891D01*
X184078785Y-79001891D01*
X184078787Y-79001892D01*
X184301768Y-79039101D01*
X184301769Y-79039101D01*
X184527833Y-79039101D01*
X184527834Y-79039101D01*
X184750815Y-79001892D01*
X184964632Y-78928489D01*
X185163450Y-78820894D01*
X185341847Y-78682041D01*
X185494957Y-78515720D01*
X185618603Y-78326466D01*
X185709412Y-78119442D01*
X185764908Y-77900294D01*
X185776119Y-77765001D01*
X187154342Y-77765001D01*
X187174937Y-78000404D01*
X187174939Y-78000414D01*
X187236095Y-78228656D01*
X187236097Y-78228660D01*
X187236098Y-78228664D01*
X187281704Y-78326466D01*
X187335965Y-78442829D01*
X187335966Y-78442831D01*
X187471506Y-78636403D01*
X187638598Y-78803495D01*
X187832170Y-78939035D01*
X187832172Y-78939036D01*
X188046338Y-79038904D01*
X188274593Y-79100064D01*
X188451033Y-79115500D01*
X188451034Y-79115501D01*
X188451035Y-79115501D01*
X188568968Y-79115501D01*
X188568968Y-79115500D01*
X188745409Y-79100064D01*
X188973664Y-79038904D01*
X189187830Y-78939036D01*
X189381402Y-78803496D01*
X189548496Y-78636402D01*
X189684036Y-78442831D01*
X189783904Y-78228664D01*
X189845064Y-78000409D01*
X189865660Y-77765001D01*
X189845064Y-77529593D01*
X189783904Y-77301338D01*
X189684036Y-77087172D01*
X189684035Y-77087170D01*
X189548495Y-76893598D01*
X189381403Y-76726506D01*
X189187831Y-76590966D01*
X189187829Y-76590965D01*
X189055174Y-76529107D01*
X188973664Y-76491098D01*
X188973660Y-76491097D01*
X188973656Y-76491095D01*
X188745414Y-76429939D01*
X188745404Y-76429937D01*
X188568968Y-76414501D01*
X188568967Y-76414501D01*
X188451035Y-76414501D01*
X188451034Y-76414501D01*
X188274597Y-76429937D01*
X188274587Y-76429939D01*
X188046345Y-76491095D01*
X188046336Y-76491099D01*
X187832172Y-76590965D01*
X187832170Y-76590966D01*
X187638598Y-76726506D01*
X187471507Y-76893598D01*
X187471502Y-76893605D01*
X187335968Y-77087166D01*
X187335966Y-77087170D01*
X187236099Y-77301336D01*
X187236095Y-77301345D01*
X187174939Y-77529587D01*
X187174937Y-77529597D01*
X187154342Y-77765000D01*
X187154342Y-77765001D01*
X185776119Y-77765001D01*
X185783576Y-77675001D01*
X185783576Y-77674994D01*
X185764908Y-77449711D01*
X185764908Y-77449708D01*
X185709412Y-77230560D01*
X185618603Y-77023536D01*
X185494957Y-76834282D01*
X185494954Y-76834279D01*
X185494950Y-76834273D01*
X185341850Y-76667964D01*
X185341849Y-76667963D01*
X185341847Y-76667961D01*
X185163450Y-76529108D01*
X185093208Y-76491095D01*
X184964633Y-76421513D01*
X184964628Y-76421511D01*
X184750818Y-76348110D01*
X184583579Y-76320203D01*
X184527834Y-76310901D01*
X184301768Y-76310901D01*
X184257171Y-76318342D01*
X184078783Y-76348110D01*
X183864973Y-76421511D01*
X183864968Y-76421513D01*
X183666153Y-76529107D01*
X183487756Y-76667960D01*
X183487751Y-76667964D01*
X183334651Y-76834273D01*
X183334643Y-76834284D01*
X183248609Y-76965969D01*
X183195463Y-77011326D01*
X183126231Y-77020749D01*
X183062896Y-76991247D01*
X183040993Y-76965969D01*
X182954958Y-76834284D01*
X182954950Y-76834273D01*
X182801850Y-76667964D01*
X182801849Y-76667963D01*
X182801847Y-76667961D01*
X182623450Y-76529108D01*
X182553208Y-76491095D01*
X182424633Y-76421513D01*
X182424628Y-76421511D01*
X182210818Y-76348110D01*
X182043579Y-76320203D01*
X181987834Y-76310901D01*
X181761768Y-76310901D01*
X181717171Y-76318342D01*
X181538783Y-76348110D01*
X181324973Y-76421511D01*
X181324968Y-76421513D01*
X181126153Y-76529107D01*
X180947756Y-76667960D01*
X180947751Y-76667964D01*
X180794651Y-76834273D01*
X180794643Y-76834284D01*
X180708609Y-76965969D01*
X180655463Y-77011326D01*
X180586231Y-77020749D01*
X180522896Y-76991247D01*
X180500993Y-76965969D01*
X180414958Y-76834284D01*
X180414950Y-76834273D01*
X180261850Y-76667964D01*
X180261849Y-76667963D01*
X180261847Y-76667961D01*
X180083450Y-76529108D01*
X180013208Y-76491095D01*
X179884633Y-76421513D01*
X179884628Y-76421511D01*
X179670818Y-76348110D01*
X179503579Y-76320203D01*
X179447834Y-76310901D01*
X179221768Y-76310901D01*
X179177171Y-76318342D01*
X178998783Y-76348110D01*
X178784973Y-76421511D01*
X178784968Y-76421513D01*
X178586153Y-76529107D01*
X178407756Y-76667960D01*
X178407751Y-76667964D01*
X178254651Y-76834273D01*
X178254643Y-76834284D01*
X178168609Y-76965969D01*
X178115463Y-77011326D01*
X178046231Y-77020749D01*
X177982896Y-76991247D01*
X177960993Y-76965969D01*
X177874958Y-76834284D01*
X177874950Y-76834273D01*
X177721850Y-76667964D01*
X177721849Y-76667963D01*
X177721847Y-76667961D01*
X177543450Y-76529108D01*
X177473208Y-76491095D01*
X177344633Y-76421513D01*
X177344628Y-76421511D01*
X177130818Y-76348110D01*
X176963579Y-76320203D01*
X176907834Y-76310901D01*
X176681768Y-76310901D01*
X176637171Y-76318342D01*
X176458783Y-76348110D01*
X176244973Y-76421511D01*
X176244968Y-76421513D01*
X176046153Y-76529107D01*
X175867756Y-76667960D01*
X175867751Y-76667964D01*
X175714651Y-76834273D01*
X175714643Y-76834284D01*
X175628609Y-76965969D01*
X175575463Y-77011326D01*
X175506231Y-77020749D01*
X175442896Y-76991247D01*
X175420993Y-76965969D01*
X175334958Y-76834284D01*
X175334950Y-76834273D01*
X175181850Y-76667964D01*
X175181849Y-76667963D01*
X175181847Y-76667961D01*
X175003450Y-76529108D01*
X174933208Y-76491095D01*
X174804633Y-76421513D01*
X174804628Y-76421511D01*
X174590818Y-76348110D01*
X174423579Y-76320203D01*
X174367834Y-76310901D01*
X174141768Y-76310901D01*
X174097171Y-76318342D01*
X173918783Y-76348110D01*
X173704973Y-76421511D01*
X173704968Y-76421513D01*
X173506153Y-76529107D01*
X173327756Y-76667960D01*
X173327751Y-76667964D01*
X173174651Y-76834273D01*
X173174643Y-76834284D01*
X173088609Y-76965969D01*
X173035463Y-77011326D01*
X172966231Y-77020749D01*
X172902896Y-76991247D01*
X172880993Y-76965969D01*
X172794958Y-76834284D01*
X172794950Y-76834273D01*
X172641850Y-76667964D01*
X172641849Y-76667963D01*
X172641847Y-76667961D01*
X172463450Y-76529108D01*
X172393208Y-76491095D01*
X172264633Y-76421513D01*
X172264628Y-76421511D01*
X172050818Y-76348110D01*
X171883579Y-76320203D01*
X171827834Y-76310901D01*
X171601768Y-76310901D01*
X171557171Y-76318342D01*
X171378783Y-76348110D01*
X171164973Y-76421511D01*
X171164968Y-76421513D01*
X170966153Y-76529107D01*
X170787756Y-76667960D01*
X170787751Y-76667964D01*
X170634651Y-76834273D01*
X170634643Y-76834284D01*
X170548609Y-76965969D01*
X170495463Y-77011326D01*
X170426231Y-77020749D01*
X170362896Y-76991247D01*
X170340993Y-76965969D01*
X170254958Y-76834284D01*
X170254950Y-76834273D01*
X170101850Y-76667964D01*
X170101849Y-76667963D01*
X170101847Y-76667961D01*
X169923450Y-76529108D01*
X169853208Y-76491095D01*
X169724633Y-76421513D01*
X169724628Y-76421511D01*
X169510818Y-76348110D01*
X169343579Y-76320203D01*
X169287834Y-76310901D01*
X169061768Y-76310901D01*
X169017171Y-76318342D01*
X168838783Y-76348110D01*
X168624973Y-76421511D01*
X168624968Y-76421513D01*
X168426153Y-76529107D01*
X168247756Y-76667960D01*
X168247751Y-76667964D01*
X168094651Y-76834273D01*
X168094643Y-76834284D01*
X168008609Y-76965969D01*
X167955463Y-77011326D01*
X167886231Y-77020749D01*
X167822896Y-76991247D01*
X167800993Y-76965969D01*
X167714958Y-76834284D01*
X167714950Y-76834273D01*
X167561850Y-76667964D01*
X167561849Y-76667963D01*
X167561847Y-76667961D01*
X167383450Y-76529108D01*
X167313208Y-76491095D01*
X167184633Y-76421513D01*
X167184628Y-76421511D01*
X166970818Y-76348110D01*
X166803579Y-76320203D01*
X166747834Y-76310901D01*
X166521768Y-76310901D01*
X166477171Y-76318342D01*
X166298783Y-76348110D01*
X166084973Y-76421511D01*
X166084968Y-76421513D01*
X165886153Y-76529107D01*
X165707756Y-76667960D01*
X165707751Y-76667964D01*
X165554651Y-76834273D01*
X165554643Y-76834284D01*
X165468609Y-76965969D01*
X165415463Y-77011326D01*
X165346231Y-77020749D01*
X165282896Y-76991247D01*
X165260993Y-76965969D01*
X165174958Y-76834284D01*
X165174950Y-76834273D01*
X165021850Y-76667964D01*
X165021849Y-76667963D01*
X165021847Y-76667961D01*
X164843450Y-76529108D01*
X164773208Y-76491095D01*
X164644633Y-76421513D01*
X164644628Y-76421511D01*
X164430818Y-76348110D01*
X164263579Y-76320203D01*
X164207834Y-76310901D01*
X163981768Y-76310901D01*
X163937171Y-76318342D01*
X163758783Y-76348110D01*
X163544973Y-76421511D01*
X163544968Y-76421513D01*
X163346153Y-76529107D01*
X163167756Y-76667960D01*
X163167751Y-76667964D01*
X163014651Y-76834273D01*
X163014643Y-76834284D01*
X162928609Y-76965969D01*
X162875463Y-77011326D01*
X162806231Y-77020749D01*
X162742896Y-76991247D01*
X162720993Y-76965969D01*
X162634958Y-76834284D01*
X162634950Y-76834273D01*
X162481850Y-76667964D01*
X162481849Y-76667963D01*
X162481847Y-76667961D01*
X162303450Y-76529108D01*
X162233208Y-76491095D01*
X162104633Y-76421513D01*
X162104628Y-76421511D01*
X161890818Y-76348110D01*
X161723579Y-76320203D01*
X161667834Y-76310901D01*
X161441768Y-76310901D01*
X161397171Y-76318342D01*
X161218783Y-76348110D01*
X161004973Y-76421511D01*
X161004968Y-76421513D01*
X160806153Y-76529107D01*
X160627756Y-76667960D01*
X160627751Y-76667964D01*
X160474651Y-76834273D01*
X160474643Y-76834284D01*
X160388609Y-76965969D01*
X160335463Y-77011326D01*
X160266231Y-77020749D01*
X160202896Y-76991247D01*
X160180993Y-76965969D01*
X160094958Y-76834284D01*
X160094950Y-76834273D01*
X159941850Y-76667964D01*
X159941849Y-76667963D01*
X159941847Y-76667961D01*
X159763450Y-76529108D01*
X159693208Y-76491095D01*
X159564633Y-76421513D01*
X159564628Y-76421511D01*
X159350818Y-76348110D01*
X159183579Y-76320203D01*
X159127834Y-76310901D01*
X158901768Y-76310901D01*
X158857171Y-76318342D01*
X158678783Y-76348110D01*
X158464973Y-76421511D01*
X158464968Y-76421513D01*
X158266153Y-76529107D01*
X158087756Y-76667960D01*
X158087751Y-76667964D01*
X157934651Y-76834273D01*
X157934643Y-76834284D01*
X157848609Y-76965969D01*
X157795463Y-77011326D01*
X157726231Y-77020749D01*
X157662896Y-76991247D01*
X157640993Y-76965969D01*
X157554958Y-76834284D01*
X157554950Y-76834273D01*
X157401850Y-76667964D01*
X157401849Y-76667963D01*
X157401847Y-76667961D01*
X157223450Y-76529108D01*
X157153208Y-76491095D01*
X157024633Y-76421513D01*
X157024628Y-76421511D01*
X156810818Y-76348110D01*
X156643579Y-76320203D01*
X156587834Y-76310901D01*
X156361768Y-76310901D01*
X156317171Y-76318342D01*
X156138783Y-76348110D01*
X155924973Y-76421511D01*
X155924968Y-76421513D01*
X155726153Y-76529107D01*
X155547756Y-76667960D01*
X155547751Y-76667964D01*
X155394651Y-76834273D01*
X155394643Y-76834284D01*
X155308609Y-76965969D01*
X155255463Y-77011326D01*
X155186231Y-77020749D01*
X155122896Y-76991247D01*
X155100993Y-76965969D01*
X155014958Y-76834284D01*
X155014950Y-76834273D01*
X154861850Y-76667964D01*
X154861849Y-76667963D01*
X154861847Y-76667961D01*
X154683450Y-76529108D01*
X154613208Y-76491095D01*
X154484633Y-76421513D01*
X154484628Y-76421511D01*
X154270818Y-76348110D01*
X154103579Y-76320203D01*
X154047834Y-76310901D01*
X153821768Y-76310901D01*
X153777171Y-76318342D01*
X153598783Y-76348110D01*
X153384973Y-76421511D01*
X153384968Y-76421513D01*
X153186153Y-76529107D01*
X153007756Y-76667960D01*
X153007751Y-76667964D01*
X152854651Y-76834273D01*
X152854643Y-76834284D01*
X152768609Y-76965969D01*
X152715463Y-77011326D01*
X152646231Y-77020749D01*
X152582896Y-76991247D01*
X152560993Y-76965969D01*
X152474958Y-76834284D01*
X152474950Y-76834273D01*
X152321850Y-76667964D01*
X152321849Y-76667963D01*
X152321847Y-76667961D01*
X152143450Y-76529108D01*
X152073208Y-76491095D01*
X151944633Y-76421513D01*
X151944628Y-76421511D01*
X151730818Y-76348110D01*
X151563579Y-76320203D01*
X151507834Y-76310901D01*
X151281768Y-76310901D01*
X151237171Y-76318342D01*
X151058783Y-76348110D01*
X150844973Y-76421511D01*
X150844968Y-76421513D01*
X150646153Y-76529107D01*
X150467756Y-76667960D01*
X150467751Y-76667964D01*
X150314651Y-76834273D01*
X150314643Y-76834284D01*
X150190999Y-77023534D01*
X150100189Y-77230561D01*
X150044693Y-77449711D01*
X150026026Y-77674994D01*
X150026026Y-77675007D01*
X132857786Y-77675007D01*
X132845064Y-77529593D01*
X132783904Y-77301338D01*
X132684036Y-77087172D01*
X132684035Y-77087170D01*
X132548495Y-76893598D01*
X132381403Y-76726506D01*
X132187831Y-76590966D01*
X132187829Y-76590965D01*
X132055174Y-76529107D01*
X131973664Y-76491098D01*
X131973660Y-76491097D01*
X131973656Y-76491095D01*
X131745414Y-76429939D01*
X131745404Y-76429937D01*
X131568968Y-76414501D01*
X131568967Y-76414501D01*
X131451035Y-76414501D01*
X131451034Y-76414501D01*
X131274597Y-76429937D01*
X131274587Y-76429939D01*
X131046345Y-76491095D01*
X131046336Y-76491099D01*
X130832172Y-76590965D01*
X130832170Y-76590966D01*
X130638598Y-76726506D01*
X130471507Y-76893598D01*
X130471502Y-76893605D01*
X130335968Y-77087166D01*
X130335966Y-77087170D01*
X130236099Y-77301336D01*
X130236095Y-77301345D01*
X130174939Y-77529587D01*
X130174937Y-77529597D01*
X130154342Y-77765000D01*
X130154342Y-77765001D01*
X125210501Y-77765001D01*
X125210501Y-57265001D01*
X130154342Y-57265001D01*
X130174937Y-57500404D01*
X130174939Y-57500414D01*
X130236095Y-57728656D01*
X130236097Y-57728660D01*
X130236098Y-57728664D01*
X130269102Y-57799440D01*
X130335965Y-57942829D01*
X130335966Y-57942831D01*
X130471506Y-58136403D01*
X130638598Y-58303495D01*
X130832170Y-58439035D01*
X130832172Y-58439036D01*
X131046338Y-58538904D01*
X131274593Y-58600064D01*
X131451033Y-58615500D01*
X131451034Y-58615501D01*
X131451035Y-58615501D01*
X131568968Y-58615501D01*
X131568968Y-58615500D01*
X131745409Y-58600064D01*
X131973664Y-58538904D01*
X132187830Y-58439036D01*
X132381402Y-58303496D01*
X132548496Y-58136402D01*
X132684036Y-57942831D01*
X132783904Y-57728664D01*
X132845064Y-57500409D01*
X132857785Y-57355007D01*
X150026026Y-57355007D01*
X150044693Y-57580290D01*
X150100189Y-57799440D01*
X150190999Y-58006467D01*
X150314643Y-58195717D01*
X150314651Y-58195728D01*
X150413859Y-58303495D01*
X150467755Y-58362041D01*
X150646152Y-58500894D01*
X150844970Y-58608489D01*
X150844973Y-58608490D01*
X151058783Y-58681891D01*
X151058785Y-58681891D01*
X151058787Y-58681892D01*
X151281768Y-58719101D01*
X151281769Y-58719101D01*
X151507833Y-58719101D01*
X151507834Y-58719101D01*
X151730815Y-58681892D01*
X151944632Y-58608489D01*
X152143450Y-58500894D01*
X152321847Y-58362041D01*
X152474957Y-58195720D01*
X152560994Y-58064029D01*
X152614139Y-58018676D01*
X152683370Y-58009252D01*
X152746706Y-58038754D01*
X152768605Y-58064026D01*
X152854645Y-58195720D01*
X152854650Y-58195725D01*
X152854651Y-58195728D01*
X152953859Y-58303495D01*
X153007755Y-58362041D01*
X153186152Y-58500894D01*
X153384970Y-58608489D01*
X153384973Y-58608490D01*
X153598783Y-58681891D01*
X153598785Y-58681891D01*
X153598787Y-58681892D01*
X153821768Y-58719101D01*
X153821769Y-58719101D01*
X154047833Y-58719101D01*
X154047834Y-58719101D01*
X154270815Y-58681892D01*
X154484632Y-58608489D01*
X154683450Y-58500894D01*
X154861847Y-58362041D01*
X155014957Y-58195720D01*
X155100994Y-58064029D01*
X155154139Y-58018676D01*
X155223370Y-58009252D01*
X155286706Y-58038754D01*
X155308605Y-58064026D01*
X155394645Y-58195720D01*
X155394650Y-58195725D01*
X155394651Y-58195728D01*
X155493859Y-58303495D01*
X155547755Y-58362041D01*
X155726152Y-58500894D01*
X155924970Y-58608489D01*
X155924973Y-58608490D01*
X156138783Y-58681891D01*
X156138785Y-58681891D01*
X156138787Y-58681892D01*
X156361768Y-58719101D01*
X156361769Y-58719101D01*
X156587833Y-58719101D01*
X156587834Y-58719101D01*
X156810815Y-58681892D01*
X157024632Y-58608489D01*
X157223450Y-58500894D01*
X157401847Y-58362041D01*
X157554957Y-58195720D01*
X157678603Y-58006466D01*
X157769412Y-57799442D01*
X157824908Y-57580294D01*
X157843576Y-57355007D01*
X160186026Y-57355007D01*
X160204693Y-57580290D01*
X160260189Y-57799440D01*
X160350999Y-58006467D01*
X160474643Y-58195717D01*
X160474651Y-58195728D01*
X160573859Y-58303495D01*
X160627755Y-58362041D01*
X160806152Y-58500894D01*
X161004970Y-58608489D01*
X161004973Y-58608490D01*
X161218783Y-58681891D01*
X161218785Y-58681891D01*
X161218787Y-58681892D01*
X161441768Y-58719101D01*
X161441769Y-58719101D01*
X161667833Y-58719101D01*
X161667834Y-58719101D01*
X161890815Y-58681892D01*
X162104632Y-58608489D01*
X162303450Y-58500894D01*
X162481847Y-58362041D01*
X162634957Y-58195720D01*
X162720994Y-58064029D01*
X162774139Y-58018676D01*
X162843370Y-58009252D01*
X162906706Y-58038754D01*
X162928605Y-58064026D01*
X163014645Y-58195720D01*
X163014650Y-58195725D01*
X163014651Y-58195728D01*
X163113859Y-58303495D01*
X163167755Y-58362041D01*
X163346152Y-58500894D01*
X163544970Y-58608489D01*
X163544973Y-58608490D01*
X163758783Y-58681891D01*
X163758785Y-58681891D01*
X163758787Y-58681892D01*
X163981768Y-58719101D01*
X163981769Y-58719101D01*
X164207833Y-58719101D01*
X164207834Y-58719101D01*
X164430815Y-58681892D01*
X164644632Y-58608489D01*
X164843450Y-58500894D01*
X165021847Y-58362041D01*
X165174957Y-58195720D01*
X165260994Y-58064029D01*
X165314139Y-58018676D01*
X165383370Y-58009252D01*
X165446706Y-58038754D01*
X165468605Y-58064026D01*
X165554645Y-58195720D01*
X165554650Y-58195725D01*
X165554651Y-58195728D01*
X165653859Y-58303495D01*
X165707755Y-58362041D01*
X165886152Y-58500894D01*
X166084970Y-58608489D01*
X166084973Y-58608490D01*
X166298783Y-58681891D01*
X166298785Y-58681891D01*
X166298787Y-58681892D01*
X166521768Y-58719101D01*
X166521769Y-58719101D01*
X166747833Y-58719101D01*
X166747834Y-58719101D01*
X166970815Y-58681892D01*
X167184632Y-58608489D01*
X167383450Y-58500894D01*
X167561847Y-58362041D01*
X167714957Y-58195720D01*
X167800994Y-58064029D01*
X167854139Y-58018676D01*
X167923370Y-58009252D01*
X167986706Y-58038754D01*
X168008605Y-58064026D01*
X168094645Y-58195720D01*
X168094650Y-58195725D01*
X168094651Y-58195728D01*
X168193859Y-58303495D01*
X168247755Y-58362041D01*
X168426152Y-58500894D01*
X168624970Y-58608489D01*
X168624973Y-58608490D01*
X168838783Y-58681891D01*
X168838785Y-58681891D01*
X168838787Y-58681892D01*
X169061768Y-58719101D01*
X169061769Y-58719101D01*
X169287833Y-58719101D01*
X169287834Y-58719101D01*
X169510815Y-58681892D01*
X169724632Y-58608489D01*
X169923450Y-58500894D01*
X170101847Y-58362041D01*
X170254957Y-58195720D01*
X170340994Y-58064029D01*
X170394139Y-58018676D01*
X170463370Y-58009252D01*
X170526706Y-58038754D01*
X170548605Y-58064026D01*
X170634645Y-58195720D01*
X170634650Y-58195725D01*
X170634651Y-58195728D01*
X170733859Y-58303495D01*
X170787755Y-58362041D01*
X170966152Y-58500894D01*
X171164970Y-58608489D01*
X171164973Y-58608490D01*
X171378783Y-58681891D01*
X171378785Y-58681891D01*
X171378787Y-58681892D01*
X171601768Y-58719101D01*
X171601769Y-58719101D01*
X171827833Y-58719101D01*
X171827834Y-58719101D01*
X172050815Y-58681892D01*
X172264632Y-58608489D01*
X172463450Y-58500894D01*
X172641847Y-58362041D01*
X172794957Y-58195720D01*
X172880994Y-58064029D01*
X172934139Y-58018676D01*
X173003370Y-58009252D01*
X173066706Y-58038754D01*
X173088605Y-58064026D01*
X173174645Y-58195720D01*
X173174650Y-58195725D01*
X173174651Y-58195728D01*
X173273859Y-58303495D01*
X173327755Y-58362041D01*
X173506152Y-58500894D01*
X173704970Y-58608489D01*
X173704973Y-58608490D01*
X173918783Y-58681891D01*
X173918785Y-58681891D01*
X173918787Y-58681892D01*
X174141768Y-58719101D01*
X174141769Y-58719101D01*
X174367833Y-58719101D01*
X174367834Y-58719101D01*
X174590815Y-58681892D01*
X174804632Y-58608489D01*
X175003450Y-58500894D01*
X175181847Y-58362041D01*
X175334957Y-58195720D01*
X175420994Y-58064029D01*
X175474139Y-58018676D01*
X175543370Y-58009252D01*
X175606706Y-58038754D01*
X175628605Y-58064026D01*
X175714645Y-58195720D01*
X175714650Y-58195725D01*
X175714651Y-58195728D01*
X175813859Y-58303495D01*
X175867755Y-58362041D01*
X176046152Y-58500894D01*
X176244970Y-58608489D01*
X176244973Y-58608490D01*
X176458783Y-58681891D01*
X176458785Y-58681891D01*
X176458787Y-58681892D01*
X176681768Y-58719101D01*
X176681769Y-58719101D01*
X176907833Y-58719101D01*
X176907834Y-58719101D01*
X177130815Y-58681892D01*
X177344632Y-58608489D01*
X177543450Y-58500894D01*
X177721847Y-58362041D01*
X177874957Y-58195720D01*
X177960994Y-58064029D01*
X178014139Y-58018676D01*
X178083370Y-58009252D01*
X178146706Y-58038754D01*
X178168605Y-58064026D01*
X178254645Y-58195720D01*
X178254650Y-58195725D01*
X178254651Y-58195728D01*
X178353859Y-58303495D01*
X178407755Y-58362041D01*
X178586152Y-58500894D01*
X178784970Y-58608489D01*
X178784973Y-58608490D01*
X178998783Y-58681891D01*
X178998785Y-58681891D01*
X178998787Y-58681892D01*
X179221768Y-58719101D01*
X179221769Y-58719101D01*
X179447833Y-58719101D01*
X179447834Y-58719101D01*
X179670815Y-58681892D01*
X179884632Y-58608489D01*
X180083450Y-58500894D01*
X180261847Y-58362041D01*
X180414957Y-58195720D01*
X180500994Y-58064029D01*
X180554139Y-58018676D01*
X180623370Y-58009252D01*
X180686706Y-58038754D01*
X180708605Y-58064026D01*
X180794645Y-58195720D01*
X180794650Y-58195725D01*
X180794651Y-58195728D01*
X180893859Y-58303495D01*
X180947755Y-58362041D01*
X181126152Y-58500894D01*
X181324970Y-58608489D01*
X181324973Y-58608490D01*
X181538783Y-58681891D01*
X181538785Y-58681891D01*
X181538787Y-58681892D01*
X181761768Y-58719101D01*
X181761769Y-58719101D01*
X181987833Y-58719101D01*
X181987834Y-58719101D01*
X182210815Y-58681892D01*
X182424632Y-58608489D01*
X182623450Y-58500894D01*
X182801847Y-58362041D01*
X182954957Y-58195720D01*
X183040994Y-58064029D01*
X183094139Y-58018676D01*
X183163370Y-58009252D01*
X183226706Y-58038754D01*
X183248605Y-58064026D01*
X183334645Y-58195720D01*
X183334650Y-58195725D01*
X183334651Y-58195728D01*
X183433859Y-58303495D01*
X183487755Y-58362041D01*
X183666152Y-58500894D01*
X183864970Y-58608489D01*
X183864973Y-58608490D01*
X184078783Y-58681891D01*
X184078785Y-58681891D01*
X184078787Y-58681892D01*
X184301768Y-58719101D01*
X184301769Y-58719101D01*
X184527833Y-58719101D01*
X184527834Y-58719101D01*
X184750815Y-58681892D01*
X184964632Y-58608489D01*
X185163450Y-58500894D01*
X185341847Y-58362041D01*
X185494957Y-58195720D01*
X185618603Y-58006466D01*
X185709412Y-57799442D01*
X185764908Y-57580294D01*
X185783576Y-57355001D01*
X185783576Y-57354994D01*
X185776119Y-57265001D01*
X187154342Y-57265001D01*
X187174937Y-57500404D01*
X187174939Y-57500414D01*
X187236095Y-57728656D01*
X187236097Y-57728660D01*
X187236098Y-57728664D01*
X187269102Y-57799440D01*
X187335965Y-57942829D01*
X187335966Y-57942831D01*
X187471506Y-58136403D01*
X187638598Y-58303495D01*
X187832170Y-58439035D01*
X187832172Y-58439036D01*
X188046338Y-58538904D01*
X188274593Y-58600064D01*
X188451033Y-58615500D01*
X188451034Y-58615501D01*
X188451035Y-58615501D01*
X188568968Y-58615501D01*
X188568968Y-58615500D01*
X188745409Y-58600064D01*
X188973664Y-58538904D01*
X189187830Y-58439036D01*
X189381402Y-58303496D01*
X189548496Y-58136402D01*
X189684036Y-57942831D01*
X189783904Y-57728664D01*
X189845064Y-57500409D01*
X189865660Y-57265001D01*
X189845064Y-57029593D01*
X189783904Y-56801338D01*
X189684036Y-56587172D01*
X189684035Y-56587170D01*
X189548495Y-56393598D01*
X189381403Y-56226506D01*
X189187831Y-56090966D01*
X189187829Y-56090965D01*
X189053036Y-56028110D01*
X188973664Y-55991098D01*
X188973660Y-55991097D01*
X188973656Y-55991095D01*
X188745414Y-55929939D01*
X188745404Y-55929937D01*
X188568968Y-55914501D01*
X188568967Y-55914501D01*
X188451035Y-55914501D01*
X188451034Y-55914501D01*
X188274597Y-55929937D01*
X188274587Y-55929939D01*
X188046345Y-55991095D01*
X188046336Y-55991099D01*
X187832172Y-56090965D01*
X187832170Y-56090966D01*
X187638598Y-56226506D01*
X187471507Y-56393598D01*
X187471502Y-56393605D01*
X187335968Y-56587166D01*
X187335966Y-56587170D01*
X187236099Y-56801336D01*
X187236095Y-56801345D01*
X187174939Y-57029587D01*
X187174937Y-57029597D01*
X187154342Y-57265000D01*
X187154342Y-57265001D01*
X185776119Y-57265001D01*
X185764908Y-57129711D01*
X185764908Y-57129708D01*
X185709412Y-56910560D01*
X185618603Y-56703536D01*
X185494957Y-56514282D01*
X185494954Y-56514279D01*
X185494950Y-56514273D01*
X185341850Y-56347964D01*
X185341849Y-56347963D01*
X185341847Y-56347961D01*
X185163450Y-56209108D01*
X185137191Y-56194897D01*
X184964633Y-56101513D01*
X184964628Y-56101511D01*
X184750818Y-56028110D01*
X184583579Y-56000203D01*
X184527834Y-55990901D01*
X184301768Y-55990901D01*
X184257171Y-55998342D01*
X184078783Y-56028110D01*
X183864973Y-56101511D01*
X183864968Y-56101513D01*
X183666153Y-56209107D01*
X183487756Y-56347960D01*
X183487751Y-56347964D01*
X183334651Y-56514273D01*
X183334643Y-56514284D01*
X183248609Y-56645969D01*
X183195463Y-56691326D01*
X183126231Y-56700749D01*
X183062896Y-56671247D01*
X183040993Y-56645969D01*
X182954958Y-56514284D01*
X182954950Y-56514273D01*
X182801850Y-56347964D01*
X182801849Y-56347963D01*
X182801847Y-56347961D01*
X182623450Y-56209108D01*
X182597191Y-56194897D01*
X182424633Y-56101513D01*
X182424628Y-56101511D01*
X182210818Y-56028110D01*
X182043579Y-56000203D01*
X181987834Y-55990901D01*
X181761768Y-55990901D01*
X181717171Y-55998342D01*
X181538783Y-56028110D01*
X181324973Y-56101511D01*
X181324968Y-56101513D01*
X181126153Y-56209107D01*
X180947756Y-56347960D01*
X180947751Y-56347964D01*
X180794651Y-56514273D01*
X180794643Y-56514284D01*
X180708609Y-56645969D01*
X180655463Y-56691326D01*
X180586231Y-56700749D01*
X180522896Y-56671247D01*
X180500993Y-56645969D01*
X180414958Y-56514284D01*
X180414950Y-56514273D01*
X180261850Y-56347964D01*
X180261849Y-56347963D01*
X180261847Y-56347961D01*
X180083450Y-56209108D01*
X180057191Y-56194897D01*
X179884633Y-56101513D01*
X179884628Y-56101511D01*
X179670818Y-56028110D01*
X179503579Y-56000203D01*
X179447834Y-55990901D01*
X179221768Y-55990901D01*
X179177171Y-55998342D01*
X178998783Y-56028110D01*
X178784973Y-56101511D01*
X178784968Y-56101513D01*
X178586153Y-56209107D01*
X178407756Y-56347960D01*
X178407751Y-56347964D01*
X178254651Y-56514273D01*
X178254643Y-56514284D01*
X178168609Y-56645969D01*
X178115463Y-56691326D01*
X178046231Y-56700749D01*
X177982896Y-56671247D01*
X177960993Y-56645969D01*
X177874958Y-56514284D01*
X177874950Y-56514273D01*
X177721850Y-56347964D01*
X177721849Y-56347963D01*
X177721847Y-56347961D01*
X177543450Y-56209108D01*
X177517191Y-56194897D01*
X177344633Y-56101513D01*
X177344628Y-56101511D01*
X177130818Y-56028110D01*
X176963579Y-56000203D01*
X176907834Y-55990901D01*
X176681768Y-55990901D01*
X176637171Y-55998342D01*
X176458783Y-56028110D01*
X176244973Y-56101511D01*
X176244968Y-56101513D01*
X176046153Y-56209107D01*
X175867756Y-56347960D01*
X175867751Y-56347964D01*
X175714651Y-56514273D01*
X175714643Y-56514284D01*
X175628609Y-56645969D01*
X175575463Y-56691326D01*
X175506231Y-56700749D01*
X175442896Y-56671247D01*
X175420993Y-56645969D01*
X175334958Y-56514284D01*
X175334950Y-56514273D01*
X175181850Y-56347964D01*
X175181849Y-56347963D01*
X175181847Y-56347961D01*
X175003450Y-56209108D01*
X174977191Y-56194897D01*
X174804633Y-56101513D01*
X174804628Y-56101511D01*
X174590818Y-56028110D01*
X174423579Y-56000203D01*
X174367834Y-55990901D01*
X174141768Y-55990901D01*
X174097171Y-55998342D01*
X173918783Y-56028110D01*
X173704973Y-56101511D01*
X173704968Y-56101513D01*
X173506153Y-56209107D01*
X173327756Y-56347960D01*
X173327751Y-56347964D01*
X173174651Y-56514273D01*
X173174643Y-56514284D01*
X173088609Y-56645969D01*
X173035463Y-56691326D01*
X172966231Y-56700749D01*
X172902896Y-56671247D01*
X172880993Y-56645969D01*
X172794958Y-56514284D01*
X172794950Y-56514273D01*
X172641850Y-56347964D01*
X172641849Y-56347963D01*
X172641847Y-56347961D01*
X172463450Y-56209108D01*
X172437191Y-56194897D01*
X172264633Y-56101513D01*
X172264628Y-56101511D01*
X172050818Y-56028110D01*
X171883579Y-56000203D01*
X171827834Y-55990901D01*
X171601768Y-55990901D01*
X171557171Y-55998342D01*
X171378783Y-56028110D01*
X171164973Y-56101511D01*
X171164968Y-56101513D01*
X170966153Y-56209107D01*
X170787756Y-56347960D01*
X170787751Y-56347964D01*
X170634651Y-56514273D01*
X170634643Y-56514284D01*
X170548609Y-56645969D01*
X170495463Y-56691326D01*
X170426231Y-56700749D01*
X170362896Y-56671247D01*
X170340993Y-56645969D01*
X170254958Y-56514284D01*
X170254950Y-56514273D01*
X170101850Y-56347964D01*
X170101849Y-56347963D01*
X170101847Y-56347961D01*
X169923450Y-56209108D01*
X169897191Y-56194897D01*
X169724633Y-56101513D01*
X169724628Y-56101511D01*
X169510818Y-56028110D01*
X169343579Y-56000203D01*
X169287834Y-55990901D01*
X169061768Y-55990901D01*
X169017171Y-55998342D01*
X168838783Y-56028110D01*
X168624973Y-56101511D01*
X168624968Y-56101513D01*
X168426153Y-56209107D01*
X168247756Y-56347960D01*
X168247751Y-56347964D01*
X168094651Y-56514273D01*
X168094643Y-56514284D01*
X168008609Y-56645969D01*
X167955463Y-56691326D01*
X167886231Y-56700749D01*
X167822896Y-56671247D01*
X167800993Y-56645969D01*
X167714958Y-56514284D01*
X167714950Y-56514273D01*
X167561850Y-56347964D01*
X167561849Y-56347963D01*
X167561847Y-56347961D01*
X167383450Y-56209108D01*
X167357191Y-56194897D01*
X167184633Y-56101513D01*
X167184628Y-56101511D01*
X166970818Y-56028110D01*
X166803579Y-56000203D01*
X166747834Y-55990901D01*
X166521768Y-55990901D01*
X166477171Y-55998342D01*
X166298783Y-56028110D01*
X166084973Y-56101511D01*
X166084968Y-56101513D01*
X165886153Y-56209107D01*
X165707756Y-56347960D01*
X165707751Y-56347964D01*
X165554651Y-56514273D01*
X165554643Y-56514284D01*
X165468609Y-56645969D01*
X165415463Y-56691326D01*
X165346231Y-56700749D01*
X165282896Y-56671247D01*
X165260993Y-56645969D01*
X165174958Y-56514284D01*
X165174950Y-56514273D01*
X165021850Y-56347964D01*
X165021849Y-56347963D01*
X165021847Y-56347961D01*
X164843450Y-56209108D01*
X164817191Y-56194897D01*
X164644633Y-56101513D01*
X164644628Y-56101511D01*
X164430818Y-56028110D01*
X164263579Y-56000203D01*
X164207834Y-55990901D01*
X163981768Y-55990901D01*
X163937171Y-55998342D01*
X163758783Y-56028110D01*
X163544973Y-56101511D01*
X163544968Y-56101513D01*
X163346153Y-56209107D01*
X163167756Y-56347960D01*
X163167751Y-56347964D01*
X163014651Y-56514273D01*
X163014643Y-56514284D01*
X162928609Y-56645969D01*
X162875463Y-56691326D01*
X162806231Y-56700749D01*
X162742896Y-56671247D01*
X162720993Y-56645969D01*
X162634958Y-56514284D01*
X162634950Y-56514273D01*
X162481850Y-56347964D01*
X162481849Y-56347963D01*
X162481847Y-56347961D01*
X162303450Y-56209108D01*
X162277191Y-56194897D01*
X162104633Y-56101513D01*
X162104628Y-56101511D01*
X161890818Y-56028110D01*
X161723579Y-56000203D01*
X161667834Y-55990901D01*
X161441768Y-55990901D01*
X161397171Y-55998342D01*
X161218783Y-56028110D01*
X161004973Y-56101511D01*
X161004968Y-56101513D01*
X160806153Y-56209107D01*
X160627756Y-56347960D01*
X160627751Y-56347964D01*
X160474651Y-56514273D01*
X160474643Y-56514284D01*
X160350999Y-56703534D01*
X160260189Y-56910561D01*
X160204693Y-57129711D01*
X160186026Y-57354994D01*
X160186026Y-57355007D01*
X157843576Y-57355007D01*
X157843576Y-57355001D01*
X157843576Y-57354994D01*
X157824908Y-57129711D01*
X157824908Y-57129708D01*
X157769412Y-56910560D01*
X157678603Y-56703536D01*
X157554957Y-56514282D01*
X157554954Y-56514279D01*
X157554950Y-56514273D01*
X157401850Y-56347964D01*
X157401849Y-56347963D01*
X157401847Y-56347961D01*
X157223450Y-56209108D01*
X157197191Y-56194897D01*
X157024633Y-56101513D01*
X157024628Y-56101511D01*
X156810818Y-56028110D01*
X156643579Y-56000203D01*
X156587834Y-55990901D01*
X156361768Y-55990901D01*
X156317171Y-55998342D01*
X156138783Y-56028110D01*
X155924973Y-56101511D01*
X155924968Y-56101513D01*
X155726153Y-56209107D01*
X155547756Y-56347960D01*
X155547751Y-56347964D01*
X155394651Y-56514273D01*
X155394643Y-56514284D01*
X155308609Y-56645969D01*
X155255463Y-56691326D01*
X155186231Y-56700749D01*
X155122896Y-56671247D01*
X155100993Y-56645969D01*
X155014958Y-56514284D01*
X155014950Y-56514273D01*
X154861850Y-56347964D01*
X154861849Y-56347963D01*
X154861847Y-56347961D01*
X154683450Y-56209108D01*
X154657191Y-56194897D01*
X154484633Y-56101513D01*
X154484628Y-56101511D01*
X154270818Y-56028110D01*
X154103579Y-56000203D01*
X154047834Y-55990901D01*
X153821768Y-55990901D01*
X153777171Y-55998342D01*
X153598783Y-56028110D01*
X153384973Y-56101511D01*
X153384968Y-56101513D01*
X153186153Y-56209107D01*
X153007756Y-56347960D01*
X153007751Y-56347964D01*
X152854651Y-56514273D01*
X152854643Y-56514284D01*
X152768609Y-56645969D01*
X152715463Y-56691326D01*
X152646231Y-56700749D01*
X152582896Y-56671247D01*
X152560993Y-56645969D01*
X152474958Y-56514284D01*
X152474950Y-56514273D01*
X152321850Y-56347964D01*
X152321849Y-56347963D01*
X152321847Y-56347961D01*
X152143450Y-56209108D01*
X152117191Y-56194897D01*
X151944633Y-56101513D01*
X151944628Y-56101511D01*
X151730818Y-56028110D01*
X151563579Y-56000203D01*
X151507834Y-55990901D01*
X151281768Y-55990901D01*
X151237171Y-55998342D01*
X151058783Y-56028110D01*
X150844973Y-56101511D01*
X150844968Y-56101513D01*
X150646153Y-56209107D01*
X150467756Y-56347960D01*
X150467751Y-56347964D01*
X150314651Y-56514273D01*
X150314643Y-56514284D01*
X150190999Y-56703534D01*
X150100189Y-56910561D01*
X150044693Y-57129711D01*
X150026026Y-57354994D01*
X150026026Y-57355007D01*
X132857785Y-57355007D01*
X132865660Y-57265001D01*
X132845064Y-57029593D01*
X132783904Y-56801338D01*
X132684036Y-56587172D01*
X132684035Y-56587170D01*
X132548495Y-56393598D01*
X132381403Y-56226506D01*
X132187831Y-56090966D01*
X132187829Y-56090965D01*
X132053036Y-56028110D01*
X131973664Y-55991098D01*
X131973660Y-55991097D01*
X131973656Y-55991095D01*
X131745414Y-55929939D01*
X131745404Y-55929937D01*
X131568968Y-55914501D01*
X131568967Y-55914501D01*
X131451035Y-55914501D01*
X131451034Y-55914501D01*
X131274597Y-55929937D01*
X131274587Y-55929939D01*
X131046345Y-55991095D01*
X131046336Y-55991099D01*
X130832172Y-56090965D01*
X130832170Y-56090966D01*
X130638598Y-56226506D01*
X130471507Y-56393598D01*
X130471502Y-56393605D01*
X130335968Y-56587166D01*
X130335966Y-56587170D01*
X130236099Y-56801336D01*
X130236095Y-56801345D01*
X130174939Y-57029587D01*
X130174937Y-57029597D01*
X130154342Y-57265000D01*
X130154342Y-57265001D01*
X125210501Y-57265001D01*
X125210501Y-48889501D01*
X125230186Y-48822462D01*
X125282990Y-48776707D01*
X125334501Y-48765501D01*
X195085501Y-48765501D01*
X195152540Y-48785186D01*
G37*
%TD.AperFunction*%
%TD*%
M02*
